<?xml version="1.0" encoding="utf-8"?>
<svg version="1.1" xmlns="http://www.w3.org/2000/svg" xmlns:xlink="http://www.w3.org/1999/xlink" x="0px" y="0px" width="24px"
	 height="24px" viewBox="0 0 24 24" style="enable-background:new 0 0 24 24;" xml:space="preserve">
		<path fill="#ffffff" d="M12,1C5.925,1,1,5.925,1,12s4.925,11,11,11s11-4.925,11-11S18.075,1,12,1z M12,21
			c-4.962,0-9-4.037-9-9s4.038-9,9-9s9,4.037,9,9S16.962,21,12,21z"/>
		<ellipse fill="#ffffff" cx="12" cy="7.792" rx="2.75" ry="2.804"/>
		<path fill="#ffffff" d="M16.436,13.522c0,0-3.058-1.036-4.436-1.036s-4.436,1.036-4.436,1.036
			C6.775,13.809,6,14.559,6,15.398V17h6h6v-1.602C18,14.559,17.225,13.809,16.436,13.522z"/>
</svg>
