<svg version="1.1" id="Layer_1" xmlns="http://www.w3.org/2000/svg" x="0" y="0" viewBox="0 0 200 200" xml:space="preserve">
    <style>
        .st0{fill:#fff}.st1{fill:#eda82f}.st2{fill:#de1821}
    </style>
    <path id="XMLID_397_" class="st0" d="M150.651 70.693c2.945 0 5.329 2.384 5.329 5.328a5.33 5.33 0 11-10.661 0 5.329 5.329 0 015.332-5.328zm8.564 16.179s-5.902-1.904-8.376-1.904c-2.663 0-8.376 1.904-8.376 1.904-1.523.57-3.046 1.906-3.046 3.619v3.044h22.845v-3.044c-.19-1.524-1.522-3.049-3.047-3.619z"/>
    <path id="XMLID_393_" class="st1" d="M183.347 169.298L176.496 183h13.701l-6.85-13.702zm0 4.967c.942 0 1.713.771 1.713 1.712 0 .942-.771 1.713-1.713 1.713a1.718 1.718 0 01-1.713-1.713c0-.941.771-1.712 1.713-1.712zm0 7.878h-3.425v-1.37c0-.514.343-1.027.856-1.199 0 0 1.798-.685 2.655-.685.856 0 2.569.685 2.569.685.514.171.771.685.771 1.199v1.37h-3.426z"/>
    <path id="XMLID_362_" class="st2" d="M103.772 77.666a12.688 12.688 0 00-12.743 12.742c0 9.509 12.743 23.465 12.743 23.465s12.743-13.956 12.743-23.465a12.688 12.688 0 00-12.743-12.742zm0 3.643a3.627 3.627 0 013.642 3.639 3.627 3.627 0 01-3.642 3.642 3.626 3.626 0 01-3.64-3.642 3.625 3.625 0 013.64-3.639zm0 18.002c-3.034 0-5.664-1.619-7.282-3.843 0-2.429 4.854-3.642 7.282-3.642 2.427 0 7.283 1.414 7.283 3.642-1.619 2.426-4.248 3.843-7.283 3.843z"/>
    <path id="XMLID_354_" class="st1" d="M16.652 34.728l-6.85 13.701h13.701l-6.851-13.701zm0 4.967c.942 0 1.713.771 1.713 1.713 0 .942-.771 1.713-1.713 1.713a1.718 1.718 0 01-1.713-1.713c0-.942.771-1.713 1.713-1.713zm0 7.878h-3.425v-1.37c0-.514.343-1.027.856-1.199 0 0 1.798-.685 2.655-.685.856 0 2.569.685 2.569.685.514.171.771.685.771 1.199v1.37h-3.426z"/>
    <path id="XMLID_334_" class="st1" d="M183.348 18.71l-6.85 13.701h13.701l-6.851-13.701zm0 4.967c.942 0 1.713.771 1.713 1.713 0 .942-.771 1.713-1.713 1.713a1.717 1.717 0 01-1.712-1.713 1.717 1.717 0 011.712-1.713zm0 7.878h-3.425v-1.37c0-.514.343-1.027.856-1.199 0 0 1.798-.685 2.655-.685.856 0 2.569.685 2.569.685.514.171.771.685.771 1.199v1.37h-3.426z"/>
    <path id="XMLID_331_" class="st0" d="M129.529 132.872a2.664 2.664 0 110 5.33 2.665 2.665 0 110-5.33zm4.283 8.09s-2.951-.952-4.188-.952c-1.332 0-4.188.952-4.188.952-.761.285-1.523.953-1.523 1.809v1.522h11.422v-1.522c-.095-.761-.761-1.524-1.523-1.809z"/>
    <path id="XMLID_315_" class="st0" d="M82.043 51.817a2.664 2.664 0 110 5.33 2.664 2.664 0 110-5.33zm4.282 8.09s-2.951-.952-4.188-.952c-1.332 0-4.188.952-4.188.952-.761.285-1.523.953-1.523 1.809v1.522h11.422v-1.522c-.095-.761-.76-1.524-1.523-1.809z"/>
    <path class="st2" d="M103.772 17c-43.955 0-79.574 35.619-79.574 79.575s35.619 79.574 79.574 79.574 79.575-35.618 79.575-79.574c0-43.956-35.619-79.575-79.575-79.575zm0 156.773c-42.652 0-77.199-34.546-77.199-77.198 0-42.652 34.547-77.198 77.199-77.198s77.198 34.546 77.198 77.198c0 42.652-34.546 77.198-77.198 77.198z"/>
</svg>
