<?xml version="1.0" encoding="utf-8"?>
<!-- Generator: Adobe Illustrator 16.0.0, SVG Export Plug-In . SVG Version: 6.00 Build 0)  -->
<!DOCTYPE svg PUBLIC "-//W3C//DTD SVG 1.1//EN" "http://www.w3.org/Graphics/SVG/1.1/DTD/svg11.dtd">
<svg version="1.1" id="Layer_1" xmlns="http://www.w3.org/2000/svg" xmlns:xlink="http://www.w3.org/1999/xlink" x="0px" y="0px"
	 width="174.018px" height="174.018px" viewBox="-86.509 705.491 174.018 174.018"
	 enable-background="new -86.509 705.491 174.018 174.018" xml:space="preserve">
<path fill="#FFFFFF" d="M63.831,780.012c3.22,0,5.827,2.607,5.827,5.826s-2.607,5.83-5.827,5.83s-5.83-2.611-5.83-5.83
	S60.611,780.012,63.831,780.012z M73.196,797.703c0,0-6.453-2.082-9.159-2.082c-2.912,0-9.158,2.082-9.158,2.082
	c-1.665,0.623-3.331,2.084-3.331,3.957v3.328h12.489h12.49v-3.328C76.319,799.994,74.863,798.326,73.196,797.703z"/>
<path id="XMLID_244_" fill="#F0CF18" d="M72.527,849.546l-14.981,29.963h29.963L72.527,849.546z M72.527,860.407
	c2.061,0,3.745,1.687,3.745,3.745c0,2.061-1.685,3.745-3.745,3.745c-2.06,0-3.745-1.685-3.745-3.745
	C68.782,862.094,70.468,860.407,72.527,860.407z M72.527,877.636h-7.491v-2.996c0-1.124,0.75-2.246,1.873-2.621
	c0,0,3.933-1.498,5.806-1.498s5.618,1.498,5.618,1.498c1.124,0.375,1.686,1.497,1.686,2.621v2.996H72.527z"/>
<path id="XMLID_560_" fill="#FFFFFF" d="M0.5,772.705c-7.741,0-13.934,6.191-13.934,13.933c0,10.397,13.934,25.657,13.934,25.657
	s13.934-15.26,13.934-25.657C14.434,778.896,8.241,772.705,0.5,772.705z M0.5,776.688c2.212,0,3.982,1.77,3.982,3.979
	c0,2.213-1.77,3.982-3.982,3.982c-2.211,0-3.98-1.77-3.98-3.982C-3.48,778.457-1.711,776.688,0.5,776.688z M0.5,796.372
	c-3.317,0-6.193-1.77-7.962-4.202c0-2.656,5.308-3.982,7.962-3.982s7.963,1.546,7.963,3.982
	C6.693,794.823,3.818,796.372,0.5,796.372z"/>
<linearGradient id="XMLID_2_" gradientUnits="userSpaceOnUse" x1="-13.355" y1="691.0137" x2="9.2955" y2="668.3632" gradientTransform="matrix(6.375 0 0 -6.375 5.6523 5117.7266)">
	<stop  offset="0" style="stop-color:#680D16;stop-opacity:0"/>
	<stop  offset="1" style="stop-color:#680D16"/>
</linearGradient>
<path id="XMLID_762_" fill="url(#XMLID_2_)" d="M0.5,879.509c-48.062,0-87.009-38.946-87.009-87.009
	c0-48.062,38.947-87.009,87.009-87.009c48.062,0,87.009,38.947,87.009,87.009C87.509,840.563,48.562,879.509,0.5,879.509z
	 M0.5,709.635c-45.783,0-82.866,37.082-82.866,82.865s37.083,82.865,82.866,82.865s82.865-37.082,82.865-82.865
	S46.283,709.635,0.5,709.635z"/>
<polygon fill="#3EDB31" points="24.198,794.296 24.198,797.095 16.24,792.499 24.198,787.905 24.198,790.703 43.101,790.703 
	43.101,787.905 51.059,792.499 43.101,797.095 43.101,794.296 "/>
</svg>
