<svg version="1.1" xmlns="http://www.w3.org/2000/svg" x="0" y="0" viewBox="0 0 24 24" xml:space="preserve">
  <g>
    <g>
      <path d="M6.3 17.7C4.9 16.2 4 14.2 4 12s.9-4.2 2.3-5.7L4.9 4.9C3.1 6.7 2 9.2 2 12s1.1 5.3 2.9 7.1l1.4-1.4z"/>
      <path d="M19.1 19.1c1.8-1.8 2.9-4.3 2.9-7.1s-1.1-5.3-2.9-7.1l-1.4 1.4C19.1 7.8 20 9.8 20 12s-.9 4.2-2.3 5.7l1.4 1.4z"/>
    </g>
    <path d="M15 16V4c0-1-1-2-2-2h-2c-1 0-2 1-2 2v12c0 1 1 2 2 2v2H9v2h6v-2h-2v-2c1 0 2-1 2-2zm-3-2c.6 0 1 .4 1 1s-.4 1-1 1-1-.4-1-1 .4-1 1-1z"/>
  </g>
</svg>
