<svg version="1.1" xmlns="http://www.w3.org/2000/svg" x="0" y="0" viewBox="0 0 24 24" xml:space="preserve">
  <g>
    <path d="M21.967 15.64l-1.644-8.056C20.135 6.662 19.325 6 18.384 6H16v1H8V6H5.616c-.941 0-1.751.662-1.939 1.584L2.033 15.64C2.02 15.731 2 15.905 2 16c0 1.106.894 1.983 2 1.983.715 0 1.337-.377 1.692-.94l.002.003 1.62-2.992c.356.557.976.929 1.686.929.732 0 1.366-.397 1.715-.983h2.57c.35.586.983.983 1.715.983.71 0 1.33-.372 1.686-.929l1.62 2.992.002-.003c.354.563.977.94 1.692.94 1.106 0 2-.876 2-1.983 0-.095-.021-.269-.033-.36zM9 14c-.552 0-1-.448-1-1s.448-1 1-1 1 .448 1 1-.448 1-1 1zm6 0c-.552 0-1-.448-1-1s.448-1 1-1 1 .448 1 1-.448 1-1 1z"/>
  </g>
</svg>
