<svg version="1.1" xmlns="http://www.w3.org/2000/svg" x="0" y="0" viewBox="0 0 24 24" xml:space="preserve">
  <g>
    <path d="M19 16.7H5v1H3l-.5-7H1v10h2v-1h2c0 1 1 2 2 2h10c1 0 2-1 2-2h2v1h2v-10h-1.5l-.5 7h-2v-1z"/>
    <path d="M12 4.7c3.4 0 6.5 1.2 9 3.2L22.5 6C19.6 3.7 16 2.3 12 2.3S4.4 3.7 1.5 6L3 7.9c2.5-2 5.6-3.2 9-3.2z"/>
    <path d="M12 9.5c2.3 0 4.3.8 6 2.1l1.5-1.9c-2.1-1.6-4.6-2.6-7.5-2.6-2.8 0-5.4 1-7.5 2.6L6 11.6c1.7-1.3 3.7-2.1 6-2.1z"/>
    <path d="M12 14.3c1.1 0 2.2.4 3 1.1l1.5-1.9c-1.2-1-2.8-1.6-4.5-1.6-1.7 0-3.3.6-4.5 1.6L9 15.4c.8-.7 1.9-1.1 3-1.1z"/>
  </g>
</svg>
