<svg version="1.1" xmlns="http://www.w3.org/2000/svg" x="0" y="0" viewBox="0 0 24 24" xml:space="preserve">
  <g>
    <path d="M18,2H6C4.9,2,4,2.9,4,4v18h16V4C20,2.9,19.1,2,18,2z M13,4c0.55,0,1,0.45,1,1
      c0,0.55-0.45,1-1,1s-1-0.45-1-1C12,4.45,12.45,4,13,4z M12,20c-3.31,0-6-2.69-6-6s2.69-6,6-6s6,2.69,6,6S15.31,20,12,20z M17,6
      c-0.55,0-1-0.45-1-1c0-0.55,0.45-1,1-1s1,0.45,1,1C18,5.55,17.55,6,17,6z"/>
    <path d="M12,9c-2.76,0-5,2.24-5,5s2.24,5,5,5s5-2.24,5-5S14.76,9,12,9z M12,18c-2.21,0-4-1.79-4-4
      c0-2.21,1.79-4,4-4c1.68,0,3.11,1.03,3.7,2.5c-0.42,0.37-0.7,0.9-0.7,1.5c0,0.61,0.28,1.14,0.7,1.5C15.11,16.97,13.68,18,12,18z"/>
  </g>
</svg>
