<svg version="1.1" xmlns="http://www.w3.org/2000/svg" x="0" y="0" viewBox="0 0 24 24" xml:space="preserve">
  <circle cx="12" cy="19.2" r="1.2"/>
  <path d="M12,6c3.393,0,6.508,1.186,8.971,3.154l1.495-1.875C19.593,4.982,15.958,3.6,12,3.6
    c-3.957,0-7.593,1.383-10.466,3.68l1.495,1.875C5.493,7.186,8.607,6,12,6z"/>
  <path d="M12,10.8c2.262,0,4.339,0.79,5.98,2.104l1.494-1.875C17.423,9.389,14.827,8.4,11.999,8.4
    c-2.826,0-5.423,0.988-7.476,2.629l1.494,1.875C7.662,11.59,9.738,10.8,12,10.8z"/>
  <path d="M12,15.6c1.131,0,2.157,0.41,2.979,1.066l1.508-1.889C15.255,13.793,13.695,13.2,12,13.2
    s-3.254,0.593-4.484,1.577l1.506,1.889C9.843,16.01,10.869,15.6,12,15.6z"/>
</svg>
