<?xml version="1.0" standalone="no"?>
<!DOCTYPE svg PUBLIC "-//W3C//DTD SVG 20010904//EN"
 "http://www.w3.org/TR/2001/REC-SVG-20010904/DTD/svg10.dtd">
<svg version="1.0" xmlns="http://www.w3.org/2000/svg"
 width="16.000000pt" height="16.000000pt" viewBox="0 0 16.000000 16.000000"
 preserveAspectRatio="xMidYMid meet">
<metadata>
Created by potrace 1.11, written by Peter Selinger 2001-2013
</metadata>
<g transform="translate(0.000000,16.000000) scale(0.002286,-0.002286)"
fill="#000000" stroke="none">
<path d="M525 5190 c-1 -3 -2 -812 -2 -1798 l0 -1792 341 2 340 3 -1 880 c0
812 -6 1207 -18 1360 -6 73 -13 192 -21 345 -3 63 -8 118 -11 123 -3 5 2 7 12
5 14 -2 124 -184 273 -448 14 -25 36 -62 49 -82 12 -21 23 -39 23 -41 0 -2 54
-98 121 -213 67 -115 131 -227 144 -249 12 -23 74 -131 137 -240 64 -110 125
-216 135 -235 11 -19 123 -213 248 -430 125 -217 244 -424 263 -460 19 -36 41
-72 48 -81 8 -8 14 -19 14 -22 0 -4 13 -28 29 -54 16 -27 43 -73 59 -103 l31
-55 485 -3 486 -2 0 1797 0 1798 -339 0 c-295 0 -340 -2 -344 -15 -2 -8 -2
-442 -1 -965 2 -846 4 -1033 19 -1340 13 -286 15 -364 7 -369 -4 -2 -17 12
-27 32 -11 20 -30 55 -44 77 -64 104 -191 328 -191 336 0 5 -4 9 -10 9 -5 0
-10 4 -10 10 0 8 -80 147 -421 732 -60 103 -117 202 -127 220 -11 18 -77 132
-147 253 -135 233 -161 278 -225 390 -22 39 -114 196 -203 350 l-163 280 -478
0 c-263 0 -479 -2 -481 -5z"/>
<path d="M3969 5145 c-1 -66 -1 -3481 0 -3519 l1 -28 558 5 c306 3 571 7 587
10 17 3 57 8 90 12 33 3 71 8 85 11 23 4 37 6 100 19 14 2 36 6 50 9 14 2 65
16 114 30 278 81 498 205 672 380 81 81 214 247 214 267 0 4 17 38 38 76 92
163 173 435 198 668 24 228 24 517 -2 703 -11 83 -14 105 -23 144 -6 24 -12
59 -16 78 -3 19 -9 46 -14 60 -5 14 -15 45 -22 70 -16 58 -74 200 -109 271
-100 198 -302 416 -493 531 -192 116 -481 209 -722 233 -33 3 -80 8 -105 12
-25 3 -305 7 -622 7 l-578 2 -1 -51z m1123 -179 c24 -3 66 -9 93 -11 163 -17
374 -75 514 -141 294 -139 517 -395 625 -717 18 -55 53 -188 60 -232 3 -16 7
-39 9 -50 5 -20 14 -97 22 -195 6 -67 7 -339 1 -395 -3 -22 -7 -70 -10 -106
-3 -36 -11 -90 -17 -120 -6 -30 -13 -67 -16 -84 -16 -99 -77 -275 -135 -390
-76 -149 -219 -319 -349 -413 -144 -104 -378 -205 -552 -238 -12 -2 -33 -6
-47 -9 -48 -9 -95 -17 -140 -21 -25 -3 -61 -7 -80 -10 -19 -2 -218 -6 -442 -9
l-408 -4 0 57 c-3 558 0 3084 4 3090 5 9 806 7 868 -2z"/>
</g>
</svg>
