<svg version="1.1" xmlns="http://www.w3.org/2000/svg" x="0" y="0" height="24px" viewBox="0 0 24 24" width="24px" xml:space="preserve">
    <g>
        <path d="M60 16c-.254 0-.497.041-.732.101h.001l-1.084-1.626.801-2.402L56 9.684l-2.985 2.388L54.324 16h2.474l.807 1.21A2.974 2.974 0 0057 19a3 3 0 103-3zm0 4a1.001 1.001 0 010-2 1.001 1.001 0 010 2z"/>
        <path d="M66 10L56 2l-10 8 4 12h6l-1-2h-3.559l-3.103-9.31L56 4.561l7.662 6.129L62.559 14 64 16z"/>
    </g>
    <g>
        <path d="M60 16c-.254 0-.497.041-.732.101h.001l-1.084-1.626.801-2.402L56 9.684l-2.985 2.388L54.324 16h2.474l.807 1.21A2.974 2.974 0 0057 19a3 3 0 103-3zm0 4a1.001 1.001 0 010-2 1.001 1.001 0 010 2z"/>
        <path d="M66 10L56 2l-10 8 4 12h6l-1-2h-3.559l-3.103-9.31L56 4.561l7.662 6.129L62.559 14 64 16z"/>
    </g>
    <g>
        <path d="M60 16c-.254 0-.497.041-.732.101h.001l-1.084-1.626.801-2.402L56 9.684l-2.985 2.388L54.324 16h2.474l.807 1.21A2.974 2.974 0 0057 19a3 3 0 103-3zm0 4a1.001 1.001 0 010-2 1.001 1.001 0 010 2z"/>
        <path d="M66 10L56 2l-10 8 4 12h6l-1-2h-3.559l-3.103-9.31L56 4.561l7.662 6.129L62.559 14 64 16z"/>
    </g>
    <g>
        <path d="M60 16c-.254 0-.497.041-.732.101h.001l-1.084-1.626.801-2.402L56 9.684l-2.985 2.388L54.324 16h2.474l.807 1.21A2.974 2.974 0 0057 19a3 3 0 103-3zm0 4a1.001 1.001 0 010-2 1.001 1.001 0 010 2z"/>
        <path d="M66 10L56 2l-10 8 4 12h6l-1-2h-3.559l-3.103-9.31L56 4.561l7.662 6.129L62.559 14 64 16z"/>
    </g>
    <g>
        <path d="M16.142 2H7.858L2 7.858v8.284L7.858 22h8.284L22 16.142V7.858L16.142 2zM20 15.313L15.314 20H8.686L4 15.313V8.687L8.686 4h6.629L20 8.687v6.626z"/>
        <path d="M6 11h12v2H6z"/>
    </g>
</svg>
