<svg version="1.1" xmlns="http://www.w3.org/2000/svg" xmlns:xlink="http://www.w3.org/1999/xlink" x="0px" y="0px"
	 viewBox="0 0 24 24" width="24px" height="24px" style="enable-background:new 0 0 24 24;" xml:space="preserve">
<path d="M8.3,1C7.7,1,7.1,1.4,7,2.1L6.5,5h5L9.3,17H13c0.5,0,1.1-0.2,1.3-1.1L16.2,5H20c0.6,0,1.1-0.4,1.3-1.1L21.9,1H8.3z"/>
<path d="M13,18H8.1l2-11.1C7,5.6,4.1,5.7,2.8,7.3C0.7,9.8,2.9,15.1,7.7,19c4.8,4,10.4,5.1,12.4,2.6c1.9-2.3,0.2-7-3.9-10.9l-0.9,5.2
	C15.1,17.3,14.2,18,13,18z"/>
</svg>
