<?xml version="1.0" encoding="utf-8"?>
<!-- Generator: Adobe Illustrator 16.0.0, SVG Export Plug-In . SVG Version: 6.00 Build 0)  -->
<!DOCTYPE svg PUBLIC "-//W3C//DTD SVG 1.1//EN" "http://www.w3.org/Graphics/SVG/1.1/DTD/svg11.dtd">
<svg version="1.1" id="Layer_1" xmlns="http://www.w3.org/2000/svg" xmlns:xlink="http://www.w3.org/1999/xlink" x="0px" y="0px"
	 width="137.426px" height="137.424px" viewBox="0 0 137.426 137.424" enable-background="new 0 0 137.426 137.424"
	 xml:space="preserve">
<path fill="none" stroke="#474B52" stroke-width="2" stroke-miterlimit="10" d="M1,113.79V23.636C1,11.187,11.186,1,23.635,1h90.155
	c12.449,0,22.636,10.187,22.636,22.636v90.154c0,12.449-10.187,22.635-22.636,22.635H23.635C11.186,136.424,1,126.239,1,113.79z"/>
<path fill="none" stroke="#474B52" stroke-width="2" stroke-miterlimit="10" d="M112.35,98.569H25.167
	c-4.797,0-8.722-3.924-8.722-8.721V30.082c0-4.797,3.925-8.723,8.722-8.723h87.183c4.797,0,8.722,3.926,8.722,8.723v59.766
	C121.071,94.645,117.146,98.569,112.35,98.569z"/>
<line fill="none" stroke="#474B52" stroke-width="2" stroke-miterlimit="10" x1="116.327" y1="21.958" x2="82.689" y2="55.597"/>
<line fill="none" stroke="#474B52" stroke-width="2" stroke-miterlimit="10" x1="16.445" y1="79.592" x2="121.072" y2="79.592"/>
<line fill="none" stroke="#474B52" stroke-width="2" stroke-miterlimit="10" x1="121.071" y1="36.361" x2="101.836" y2="55.597"/>
<polygon fill="none" stroke="#474B52" stroke-width="2" stroke-miterlimit="10" points="84.264,114.243 78.518,98.571 
	70.615,98.569 68.707,98.569 66.8,98.569 58.896,98.571 53.151,114.243 43.8,116.579 43.8,119.418 66.8,119.418 70.615,119.418 
	93.615,119.418 93.615,116.579 "/>
<line fill="none" stroke="#474B52" stroke-width="2" stroke-miterlimit="10" x1="84.264" y1="114.243" x2="68.718" y2="114.243"/>
</svg>
