<?xml version="1.0" encoding="utf-8"?>
<!-- Generator: Adobe Illustrator 16.0.0, SVG Export Plug-In . SVG Version: 6.00 Build 0)  -->
<!DOCTYPE svg PUBLIC "-//W3C//DTD SVG 1.1//EN" "http://www.w3.org/Graphics/SVG/1.1/DTD/svg11.dtd">
<svg version="1.1" id="Layer_1" xmlns="http://www.w3.org/2000/svg" xmlns:xlink="http://www.w3.org/1999/xlink" x="0px" y="0px"
	 width="137.426px" height="137.424px" viewBox="0 0 137.426 137.424" enable-background="new 0 0 137.426 137.424"
	 xml:space="preserve">
<path fill="none" stroke="#474B52" stroke-width="2" stroke-miterlimit="10" d="M1,113.79V23.635C1,11.186,11.186,1,23.635,1h90.155
	c12.449,0,22.636,10.186,22.636,22.635v90.155c0,12.449-10.187,22.635-22.636,22.635H23.635C11.186,136.424,1,126.239,1,113.79z"/>
<path fill="none" stroke="#474B52" stroke-width="2" stroke-miterlimit="10" d="M65.612,90.139
	c0.221,5.705,2.509,11.344,6.865,15.701c9.176,9.176,24.055,9.176,33.23,0c9.177-9.178,9.177-24.055,0-33.232L64.755,31.656
	c-9.177-9.178-24.055-9.178-33.231,0c-9.177,9.176-9.177,24.054,0,33.23c4.383,4.383,10.067,6.672,15.809,6.868L65.612,90.139z"/>
<circle fill="none" stroke="#474B52" stroke-width="2" stroke-miterlimit="10" cx="96.709" cy="82.929" r="3.829"/>
<circle fill="none" stroke="#474B52" stroke-width="2" stroke-miterlimit="10" cx="81.736" cy="97.903" r="3.828"/>
<circle fill="none" stroke="#474B52" stroke-width="2" stroke-miterlimit="10" cx="81.736" cy="82.93" r="3.828"/>
<circle fill="none" stroke="#474B52" stroke-width="2" stroke-miterlimit="10" cx="96.709" cy="97.903" r="3.829"/>
<path fill="none" stroke="#474B52" stroke-width="2" stroke-miterlimit="10" d="M53.647,50.772l-4.18-4.18l4.18-4.181
	c1.123-1.124,1.123-2.944,0-4.068c-1.123-1.123-2.945-1.123-4.068,0l-4.18,4.181l-4.181-4.181c-1.123-1.123-2.944-1.123-4.068,0
	c-1.123,1.124-1.123,2.944,0,4.068l4.18,4.181l-4.18,4.18c-1.123,1.123-1.123,2.945,0,4.068c1.124,1.124,2.945,1.124,4.068,0
	l4.181-4.181l4.18,4.181c1.123,1.124,2.945,1.124,4.068,0C54.771,53.718,54.771,51.896,53.647,50.772z"/>
<line fill="none" stroke="#474B52" stroke-width="2" stroke-miterlimit="10" x1="85.207" y1="52.108" x2="129.093" y2="8.466"/>
</svg>
