<?xml version="1.0" encoding="UTF-8" standalone="no"?>
<svg
   xmlns:dc="http://purl.org/dc/elements/1.1/"
   xmlns:cc="http://creativecommons.org/ns#"
   xmlns:rdf="http://www.w3.org/1999/02/22-rdf-syntax-ns#"
   xmlns:svg="http://www.w3.org/2000/svg"
   xmlns="http://www.w3.org/2000/svg"
   xml:space="preserve"
   enable-background="new 0 0 137.425 137.425"
   viewBox="0 0 137.425 137.425"
   height="137.425px"
   width="137.425px"
   y="0px"
   x="0px"
   id="Layer_1"
   version="1.1"><metadata
     id="metadata31"><rdf:RDF><cc:Work
         rdf:about=""><dc:format>image/svg+xml</dc:format><dc:type
           rdf:resource="http://purl.org/dc/dcmitype/StillImage" /><dc:title></dc:title></cc:Work></rdf:RDF></metadata><defs
     id="defs29" /><path
     id="path3"
     d="M25.783,38.915l14.365,73.686  c8.254,5.352,18.139,8.465,28.763,8.465c10.624,0,20.506-3.113,28.76-8.463L112.087,39.1"
     stroke-miterlimit="10"
     stroke-width="2"
     stroke="#FFFFFF"
     fill="none" /><ellipse
     id="ellipse5"
     ry="15.677"
     rx="43.152"
     cy="38.956"
     cx="68.935"
     stroke-miterlimit="10"
     stroke-width="2"
     stroke="#FFFFFF"
     fill="none" /><ellipse
     id="ellipse7"
     ry="15.677"
     rx="43.152"
     cy="38.956"
     cx="68.935"
     stroke-miterlimit="10"
     stroke-width="2"
     stroke="#FFFFFF"
     fill="none" /><path
     id="path9"
     d="M108.505,57.355  C115.477,60.811,120.27,68,120.27,76.308c0,11.166-8.659,20.312-19.63,21.086"
     stroke-miterlimit="10"
     stroke-width="2"
     stroke="#FFFFFF"
     fill="none" /><path
     id="path11"
     d="M107.862,64.074  c4.179,2.526,6.972,7.113,6.972,12.353c0,7.205-5.284,13.178-12.188,14.252"
     stroke-miterlimit="10"
     stroke-width="2"
     stroke="#FFFFFF"
     fill="none" /><path
     id="path13"
     d="M29.299,57.355  C22.327,60.811,17.534,68,17.534,76.308c0,11.166,8.659,20.312,19.63,21.086"
     stroke-miterlimit="10"
     stroke-width="2"
     stroke="#FFFFFF"
     fill="none" /><path
     id="path15"
     d="M29.941,64.074  c-4.179,2.526-6.972,7.113-6.972,12.353c0,7.205,5.284,13.178,12.188,14.252"
     stroke-miterlimit="10"
     stroke-width="2"
     stroke="#FFFFFF"
     fill="none" /><path
     id="path17"
     d="M68.935,28.281c-9.599,0-17.935,5.399-22.144,13.325  c1.796,0.391,3.677,0.734,5.631,1.028c3.511-5.402,9.589-8.984,16.513-8.984c6.923,0,13.001,3.582,16.513,8.984  c1.954-0.294,3.835-0.638,5.631-1.028C86.869,33.681,78.534,28.281,68.935,28.281z"
     stroke-miterlimit="10"
     stroke-width="2"
     stroke="#FFFFFF"
     fill="none" /><line
     id="line19"
     y2="86.384"
     x2="51.141"
     y1="53.343"
     x1="84.284"
     stroke-miterlimit="10"
     stroke-width="2"
     stroke="#FFFFFF"
     fill="none" /><line
     id="line21"
     y2="113.222"
     x2="39.872"
     y1="76.427"
     x1="76.668"
     stroke-miterlimit="10"
     stroke-width="2"
     stroke="#FFFFFF"
     fill="none" /><line
     id="line23"
     y2="68.713"
     x2="43.849"
     y1="54.271"
     x1="58.252"
     stroke-miterlimit="10"
     stroke-width="2"
     stroke="#FFFFFF"
     fill="none" /></svg>