<?xml version="1.0" encoding="UTF-8" standalone="no"?>
<!-- Generator: Adobe Illustrator 16.0.0, SVG Export Plug-In . SVG Version: 6.00 Build 0)  -->

<svg
   xmlns:dc="http://purl.org/dc/elements/1.1/"
   xmlns:cc="http://creativecommons.org/ns#"
   xmlns:rdf="http://www.w3.org/1999/02/22-rdf-syntax-ns#"
   xmlns:svg="http://www.w3.org/2000/svg"
   xmlns="http://www.w3.org/2000/svg"
   xmlns:sodipodi="http://sodipodi.sourceforge.net/DTD/sodipodi-0.dtd"
   xmlns:inkscape="http://www.inkscape.org/namespaces/inkscape"
   version="1.1"
   id="Layer_1"
   x="0px"
   y="0px"
   width="137.425px"
   height="137.425px"
   viewBox="0 0 137.425 137.425"
   enable-background="new 0 0 137.425 137.425"
   xml:space="preserve"
   inkscape:version="0.91 r13725"
   sodipodi:docname="delete-nb.svg"><metadata
     id="metadata31"><rdf:RDF><cc:Work
         rdf:about=""><dc:format>image/svg+xml</dc:format><dc:type
           rdf:resource="http://purl.org/dc/dcmitype/StillImage" /><dc:title></dc:title></cc:Work></rdf:RDF></metadata><defs
     id="defs29" /><sodipodi:namedview
     pagecolor="#ffffff"
     bordercolor="#666666"
     borderopacity="1"
     objecttolerance="10"
     gridtolerance="10"
     guidetolerance="10"
     inkscape:pageopacity="0"
     inkscape:pageshadow="2"
     inkscape:window-width="640"
     inkscape:window-height="480"
     id="namedview27"
     showgrid="false"
     inkscape:zoom="1.7173003"
     inkscape:cx="68.712502"
     inkscape:cy="-39.42979"
     inkscape:window-x="0"
     inkscape:window-y="380"
     inkscape:window-maximized="0"
     inkscape:current-layer="Layer_1" /><path
     id="line23"
     style="fill:none;stroke:#474b52;stroke-width:2;stroke-miterlimit:10"
     d="m 58.251999,54.271 -14.403,14.441997 m 32.819,7.714005 L 39.872002,113.222 M 84.283997,53.342999 51.140999,86.384003 M 68.935,28.281 c -9.599,0 -17.935,5.399 -22.144,13.325 1.796,0.391 3.677,0.734 5.631,1.028 3.511,-5.402 9.589,-8.984 16.513,-8.984 6.923,0 13.001,3.582 16.513,8.984 1.954,-0.294 3.835,-0.638 5.631,-1.028 C 86.869,33.681 78.534,28.281 68.935,28.281 Z M 29.941,64.074 c -4.179,2.526 -6.972,7.113 -6.972,12.353 0,7.205 5.284,13.178 12.188,14.252 M 29.299,57.355 C 22.327,60.811 17.534,68 17.534,76.308 c 0,11.166 8.659,20.312 19.63,21.086 m 70.698,-33.32 c 4.179,2.526 6.972,7.113 6.972,12.353 0,7.205 -5.284,13.178 -12.188,14.252 m 5.859,-33.324 c 6.972,3.456 11.765,10.645 11.765,18.953 0,11.166 -8.659,20.312 -19.63,21.086 m 11.447,-58.437999 a 43.152,15.677 0 0 1 -43.152002,15.677 43.152,15.677 0 0 1 -43.152001,-15.677 43.152,15.677 0 0 1 43.152001,-15.677 43.152,15.677 0 0 1 43.152002,15.677 z m 0,0 a 43.152,15.677 0 0 1 -43.152002,15.677 43.152,15.677 0 0 1 -43.152001,-15.677 43.152,15.677 0 0 1 43.152001,-15.677 43.152,15.677 0 0 1 43.152002,15.677 z m -86.304,-0.041 14.365,73.686 c 8.254,5.352 18.139,8.465 28.763,8.465 10.624,0 20.506,-3.113 28.76,-8.463 L 112.087,39.1" /></svg>