<?xml version="1.0" encoding="utf-8"?>
<!-- Generator: Adobe Illustrator 16.0.0, SVG Export Plug-In . SVG Version: 6.00 Build 0)  -->
<!DOCTYPE svg PUBLIC "-//W3C//DTD SVG 1.1//EN" "http://www.w3.org/Graphics/SVG/1.1/DTD/svg11.dtd">
<svg version="1.1" id="Layer_1" xmlns="http://www.w3.org/2000/svg" xmlns:xlink="http://www.w3.org/1999/xlink" x="0px" y="0px"
	 width="137.425px" height="137.425px" viewBox="0 0 137.425 137.425" enable-background="new 0 0 137.425 137.425"
	 xml:space="preserve">
<path fill="none" stroke="#474B52" stroke-width="2" stroke-miterlimit="10" d="M25.783,38.915l14.365,73.686
	c8.254,5.352,18.139,8.465,28.763,8.465c10.624,0,20.506-3.113,28.76-8.463L112.087,39.1"/>
<ellipse fill="none" stroke="#474B52" stroke-width="2" stroke-miterlimit="10" cx="68.935" cy="38.956" rx="43.152" ry="15.677"/>
<ellipse fill="none" stroke="#474B52" stroke-width="2" stroke-miterlimit="10" cx="68.935" cy="38.956" rx="43.152" ry="15.677"/>
<path fill="none" stroke="#474B52" stroke-width="2" stroke-miterlimit="10" d="M108.505,57.355
	C115.477,60.811,120.27,68,120.27,76.308c0,11.166-8.659,20.312-19.63,21.086"/>
<path fill="none" stroke="#474B52" stroke-width="2" stroke-miterlimit="10" d="M107.862,64.074
	c4.179,2.526,6.972,7.113,6.972,12.353c0,7.205-5.284,13.178-12.188,14.252"/>
<path fill="none" stroke="#474B52" stroke-width="2" stroke-miterlimit="10" d="M29.299,57.355
	C22.327,60.811,17.534,68,17.534,76.308c0,11.166,8.659,20.312,19.63,21.086"/>
<path fill="none" stroke="#474B52" stroke-width="2" stroke-miterlimit="10" d="M29.941,64.074
	c-4.179,2.526-6.972,7.113-6.972,12.353c0,7.205,5.284,13.178,12.188,14.252"/>
<path fill="none" stroke="#474B52" stroke-width="2" stroke-miterlimit="10" d="M68.935,28.281c-9.599,0-17.935,5.399-22.144,13.325
	c1.796,0.391,3.677,0.734,5.631,1.028c3.511-5.402,9.589-8.984,16.513-8.984c6.923,0,13.001,3.582,16.513,8.984
	c1.954-0.294,3.835-0.638,5.631-1.028C86.869,33.681,78.534,28.281,68.935,28.281z"/>
<line fill="none" stroke="#474B52" stroke-width="2" stroke-miterlimit="10" x1="84.284" y1="53.343" x2="51.141" y2="86.384"/>
<line fill="none" stroke="#474B52" stroke-width="2" stroke-miterlimit="10" x1="76.668" y1="76.427" x2="39.872" y2="113.222"/>
<line fill="none" stroke="#474B52" stroke-width="2" stroke-miterlimit="10" x1="58.252" y1="54.271" x2="43.849" y2="68.713"/>
<path fill="none" stroke="#474B52" stroke-width="2" stroke-miterlimit="10" d="M1,113.791V23.635C1,11.186,11.186,1,23.635,1
	h90.155c12.449,0,22.635,10.186,22.635,22.635v90.156c0,12.447-10.186,22.635-22.635,22.635H23.635
	C11.186,136.425,1,126.238,1,113.791z"/>
</svg>
