<?xml version="1.0" encoding="utf-8"?>
<!-- Generator: Adobe Illustrator 16.0.0, SVG Export Plug-In . SVG Version: 6.00 Build 0)  -->
<!DOCTYPE svg PUBLIC "-//W3C//DTD SVG 1.1//EN" "http://www.w3.org/Graphics/SVG/1.1/DTD/svg11.dtd">
<svg version="1.1" id="Layer_1" xmlns="http://www.w3.org/2000/svg" xmlns:xlink="http://www.w3.org/1999/xlink" x="0px" y="0px"
	 width="137.426px" height="137.424px" viewBox="0 0 137.426 137.424" enable-background="new 0 0 137.426 137.424"
	 xml:space="preserve">
<path fill="none" stroke="#474B52" stroke-width="2" stroke-miterlimit="10" d="M37.813,100.307l5.061-5.061
	c3.321-3.322,8.705-3.322,12.026,0l5.061,5.061c3.321,3.32,3.321,8.705,0,12.025l-5.061,5.061c-3.321,3.322-8.705,3.322-12.026,0
	l-5.061-5.061C34.492,109.012,34.492,103.627,37.813,100.307z"/>
<path fill="none" stroke="#474B52" stroke-width="2" stroke-miterlimit="10" d="M75.761,62.359l5.062-5.061
	c3.32-3.321,8.705-3.321,12.025,0l5.062,5.061c3.32,3.321,3.32,8.706,0,12.026l-5.062,5.061c-3.32,3.321-8.705,3.321-12.025,0
	l-5.062-5.061C72.439,71.065,72.439,65.68,75.761,62.359z"/>
<path fill="none" stroke="#474B52" stroke-width="2" stroke-miterlimit="10" d="M37.813,24.412l5.061-5.061
	c3.321-3.321,8.705-3.321,12.026,0l5.061,5.061c3.321,3.321,3.321,8.705,0,12.026L54.9,41.499c-3.321,3.321-8.705,3.321-12.026,0
	l-5.061-5.061C34.492,33.116,34.492,27.732,37.813,24.412z"/>
<line fill="none" stroke="#474B52" stroke-width="2" stroke-miterlimit="10" x1="57.431" y1="38.968" x2="78.291" y2="59.829"/>
<line fill="none" stroke="#474B52" stroke-width="2" stroke-miterlimit="10" x1="78.291" y1="76.917" x2="57.43" y2="97.777"/>
<path fill="none" stroke="#474B52" stroke-width="2" stroke-miterlimit="10" d="M1,113.79V23.635C1,11.186,11.187,1,23.635,1h90.155
	c12.45,0,22.636,10.186,22.636,22.635v90.155c0,12.449-10.186,22.635-22.636,22.635H23.635C11.187,136.424,1,126.239,1,113.79z"/>
</svg>
