<?xml version="1.0" encoding="UTF-8" standalone="no"?>
<svg
   xmlns:dc="http://purl.org/dc/elements/1.1/"
   xmlns:cc="http://creativecommons.org/ns#"
   xmlns:rdf="http://www.w3.org/1999/02/22-rdf-syntax-ns#"
   xmlns:svg="http://www.w3.org/2000/svg"
   xmlns="http://www.w3.org/2000/svg"
   version="1.1"
   id="svg19079"
   viewBox="0 0 14.518237 14.63326"
   height="14.63326"
   width="14.518237">
  <defs
     id="defs19081" />
  <metadata
     id="metadata19084">
    <rdf:RDF>
      <cc:Work
         rdf:about="">
        <dc:format>image/svg+xml</dc:format>
        <dc:type
           rdf:resource="http://purl.org/dc/dcmitype/StillImage" />
        <dc:title></dc:title>
      </cc:Work>
    </rdf:RDF>
  </metadata>
  <g
     transform="translate(-4.1695014,-5.0455749)"
     id="layer2">
    <path
       id="path10714"
       style="fill:none;stroke:#393639;stroke-width:0.3125;stroke-linecap:butt;stroke-linejoin:miter;stroke-miterlimit:10;stroke-dasharray:none;stroke-opacity:1"
       d="m 4.5980712,13.120435 c 1.4875,2.9975 4.02,4.78625 6.7849998,4.78625 2.795,0 5.425,-1.90625 6.8775,-4.98 -1.48625,-2.9987496 -4.01875,-4.7874996 -6.78375,-4.7874996 -2.7962498,0 -5.4262498,1.9074996 -6.8787498,4.9812496 z m 6.7849998,5.03 c -2.8674998,0 -5.4887498,-1.85875 -7.0124998,-4.9725 l -0.0275,-0.0562 0.0263,-0.055 c 1.485,-3.1899996 4.20875,-5.1712496 7.1074998,-5.1712496 2.8675,0 5.48875,1.86 7.0125,4.9724996 l 0.0263,0.0562 -0.025,0.055 c -1.48625,3.19125 -4.20875,5.17125 -7.1075,5.17125 z" />
    <path
       id="path10722"
       style="fill:none;stroke:#393639;stroke-width:0.3125;stroke-linecap:butt;stroke-linejoin:miter;stroke-miterlimit:10;stroke-dasharray:none;stroke-opacity:1"
       d="m 11.429571,9.5665554 c -1.7737498,0 -3.2174998,1.5499996 -3.2174998,3.4562496 0,1.905 1.44375,3.45625 3.2174998,3.45625 1.775,0 3.21875,-1.55125 3.21875,-3.45625 0,-1.90625 -1.44375,-3.4562496 -3.21875,-3.4562496 z m 0,7.1562496 c -1.8999998,0 -3.4449998,-1.66 -3.4449998,-3.7 0,-2.04 1.545,-3.6999996 3.4449998,-3.6999996 1.9,0 3.445,1.6599996 3.445,3.6999996 0,2.04 -1.545,3.7 -3.445,3.7 z" />
    <path
       id="path10730"
       style="fill:none;stroke:#393639;stroke-width:0.3125;stroke-linecap:butt;stroke-linejoin:miter;stroke-miterlimit:10;stroke-dasharray:none;stroke-opacity:1"
       d="m 5.4279512,19.449305 -0.16,-0.1725 13.0349998,-14.0012496 0.16,0.17375 L 5.4279512,19.449305 Z" />
    <path
       id="path10738"
       style="fill:none;stroke:#393639;stroke-width:0.3125;stroke-linecap:butt;stroke-linejoin:miter;stroke-miterlimit:10;stroke-dasharray:none;stroke-opacity:1"
       d="m 11.509701,8.1041754 -0.16,-0.17375 1.2,-1.28875 0.16,0.17375 -1.2,1.28875 z" />
    <path
       id="path10746"
       style="fill:none;stroke:#393639;stroke-width:0.3125;stroke-linecap:butt;stroke-linejoin:miter;stroke-miterlimit:10;stroke-dasharray:none;stroke-opacity:1"
       d="m 9.7192012,8.3935554 -0.16,-0.17375 0.9999998,-1.07375 0.16125,0.17375 -1.0012498,1.07375 z" />
    <path
       id="path10754"
       style="fill:none;stroke:#393639;stroke-width:0.3125;stroke-linecap:butt;stroke-linejoin:miter;stroke-miterlimit:10;stroke-dasharray:none;stroke-opacity:1"
       d="m 13.349821,8.3935554 -0.16,-0.17375 1,-1.07375 0.16125,0.17375 -1.00125,1.07375 z" />
    <path
       id="path10762"
       style="fill:none;stroke:#393639;stroke-width:0.3125;stroke-linecap:butt;stroke-linejoin:miter;stroke-miterlimit:10;stroke-dasharray:none;stroke-opacity:1"
       d="m 12.989701,13.342055 c 0.15375,0.165 0.405,0.165 0.56,0 0.075,-0.08 0.115,-0.18625 0.115,-0.3 0,-0.11375 -0.04,-0.22 -0.115,-0.30125 -0.155,-0.16375 -0.40625,-0.165 -0.56,10e-4 -0.15375,0.165 -0.15375,0.435 0,0.6 z m 0.28,0.36875 c -0.16,0 -0.31875,-0.0663 -0.44,-0.195 -0.2425,-0.26125 -0.2425,-0.68625 0,-0.94625 0.2425,-0.26125 0.6375,-0.26 0.88,-10e-4 0.1175,0.1275 0.1825,0.295 0.1825,0.47375 0,0.17875 -0.065,0.34625 -0.1825,0.47375 -0.12125,0.12875 -0.28,0.195 -0.44,0.195 z" />
  </g>
</svg>
