<?xml version="1.0" encoding="UTF-8" standalone="no"?>
<!-- Created with Inkscape (http://www.inkscape.org/) -->

<svg
   xmlns:dc="http://purl.org/dc/elements/1.1/"
   xmlns:cc="http://creativecommons.org/ns#"
   xmlns:rdf="http://www.w3.org/1999/02/22-rdf-syntax-ns#"
   xmlns:svg="http://www.w3.org/2000/svg"
   xmlns="http://www.w3.org/2000/svg"
   version="1.1"
   width="16.5975"
   height="16.597549"
   id="svg4823">
  <defs
     id="defs4825" />
  <metadata
     id="metadata4828">
    <rdf:RDF>
      <cc:Work
         rdf:about="">
        <dc:format>image/svg+xml</dc:format>
        <dc:type
           rdf:resource="http://purl.org/dc/dcmitype/StillImage" />
        <dc:title></dc:title>
      </cc:Work>
    </rdf:RDF>
  </metadata>
  <g
     transform="translate(-659.63306,-464.96187)"
     id="layer1">
    <path
       d="m 668.41818,477.4698 -0.27875,0 c 0,-1.58 1.4075,-2.86625 3.1375,-2.86625 l 0,0.26375 c -1.57625,0 -2.85875,1.1675 -2.85875,2.6025 z"
       id="path1130"
       style="fill:none;stroke:#333333;stroke-width:0.3125;stroke-linecap:butt;stroke-linejoin:miter;stroke-miterlimit:10;stroke-opacity:1;stroke-dasharray:none" />
    <path
       d="m 668.28944,481.40317 c -2.845,0 -5.15875,-2.185 -5.15875,-4.87125 l 0.001,-0.0488 -0.001,-6.24 c 0,-0.59625 0.51375,-1.08 1.14375,-1.08 0.345,0 0.655,0.145 0.865,0.3725 l 0,-2.255 c 0,-0.59625 0.5125,-1.08 1.1425,-1.08 0.345,0 0.655,0.14375 0.86375,0.3725 l 0,-0.37625 c 0,-0.595 0.5125,-1.07875 1.14375,-1.07875 0.63125,0 1.14375,0.48375 1.14375,1.07875 l 0,0.37625 c 0.21,-0.2275 0.51875,-0.3725 0.86375,-0.3725 0.63125,0 1.14375,0.48375 1.14375,1.08 l 0,5.22625 c -0.004,0.0913 0,0.14625 0,0.15 l 0,0.085 -0.28,0 0,-0.0763 c 0,-10e-4 -0.004,-0.065 0,-0.165 l 0,-5.22 c 0,-0.45125 -0.3875,-0.81625 -0.86375,-0.81625 -0.47625,0 -0.86375,0.365 -0.86375,0.81625 l -0.28,0 0,-1.08375 c 0,-0.45 -0.3875,-0.815 -0.86375,-0.815 -0.47625,0 -0.86375,0.365 -0.86375,0.815 l 0,1.08375 -0.28,0 c 0,-0.45125 -0.3875,-0.81625 -0.86375,-0.81625 -0.47625,0 -0.86375,0.365 -0.86375,0.81625 l 0,2.9625 -0.27875,0 c 0,-0.45 -0.38875,-0.81625 -0.865,-0.81625 -0.47625,0 -0.86375,0.36625 -0.86375,0.81625 l 0,6.26875 c 0,2.56125 2.18875,4.6275 4.87875,4.6275 1.725,0 3.33875,-0.875 4.21125,-2.28125 l 0.24125,0.13375 c -0.9225,1.4875 -2.62875,2.41125 -4.4525,2.41125 z"
       id="path1138"
       style="fill:none;stroke:#333333;stroke-width:0.3125;stroke-linecap:butt;stroke-linejoin:miter;stroke-miterlimit:10;stroke-opacity:1;stroke-dasharray:none" />
    <path
       d="m 672.74231,478.99142 -0.24125,-0.13375 c 0.4375,-0.70375 0.6675,-1.50875 0.6675,-2.325 l 0.28,0 c 0,0.86375 -0.245,1.71375 -0.70625,2.45875 z"
       id="path1146"
       style="fill:none;stroke:#333333;stroke-width:0.3125;stroke-linecap:butt;stroke-linejoin:miter;stroke-miterlimit:10;stroke-opacity:1;stroke-dasharray:none" />
    <path
       d="m 671.44056,475.76292 -0.27875,0 0,-3.02 0.27875,0 0,3.02 z"
       id="path1148"
       style="fill:#333333;fill-opacity:1;fill-rule:nonzero;stroke:#333333;stroke-width:0.3125;stroke-linecap:butt;stroke-linejoin:miter;stroke-miterlimit:10;stroke-opacity:1;stroke-dasharray:none" />
    <path
       d="m 673.44831,476.53242 -0.27875,0 0,-5.6125 c -0.62384,0.0256 -1.02443,0.22645 -1.28098,0.4856 -0.35774,0.36138 -0.4354,0.8361 -0.44777,1.1069 l 0,0.23 -0.28,0 0,-0.23625 c 0.0213,-0.43875 0.23375,-1.85375 2.1475,-1.85375 l 0.14,0 z"
       id="path1156"
       style="fill:none;stroke:#333333;stroke-width:0.3125;stroke-linecap:butt;stroke-linejoin:miter;stroke-miterlimit:10;stroke-opacity:1;stroke-dasharray:none" />
    <path
       d="m 669.43306,473.05667 -0.27875,0 0,-5.77625 0.27875,0 0,5.77625 z"
       id="path1166"
       style="fill:#333333;fill-opacity:1;fill-rule:nonzero;stroke:#333333;stroke-width:0.3125;stroke-linecap:butt;stroke-linejoin:miter;stroke-miterlimit:10;stroke-opacity:1;stroke-dasharray:none" />
    <path
       d="m 667.42681,473.05667 -0.27875,0 0,-5.77625 0.27875,0 0,5.77625 z"
       id="path1168"
       style="fill:#333333;fill-opacity:1;fill-rule:nonzero;stroke:#333333;stroke-width:0.3125;stroke-linecap:butt;stroke-linejoin:miter;stroke-miterlimit:10;stroke-opacity:1;stroke-dasharray:none" />
    <path
       d="m 665.41806,474.28167 -0.27875,0 0,-4.03875 0.27875,0 0,4.03875 z"
       id="path1170"
       style="fill:#333333;fill-opacity:1;fill-rule:nonzero;stroke:#333333;stroke-width:0.3125;stroke-linecap:butt;stroke-linejoin:miter;stroke-miterlimit:10;stroke-opacity:1;stroke-dasharray:none" />
    <path
       d="m 659.98681,481.32667 -0.1975,-0.1875 16.0875,-15.19 0.1975,0.1875 -16.0875,15.19 z"
       id="path1178"
       style="fill:none;stroke:#333333;stroke-width:0.3125;stroke-linecap:butt;stroke-linejoin:miter;stroke-miterlimit:10;stroke-opacity:1;stroke-dasharray:none" />
  </g>
</svg>
