<?xml version="1.0" encoding="utf-8"?>
<!-- Generator: Adobe Illustrator 16.0.0, SVG Export Plug-In . SVG Version: 6.00 Build 0)  -->
<!DOCTYPE svg PUBLIC "-//W3C//DTD SVG 1.1//EN" "http://www.w3.org/Graphics/SVG/1.1/DTD/svg11.dtd">
<svg version="1.1" id="Layer_1" xmlns="http://www.w3.org/2000/svg" xmlns:xlink="http://www.w3.org/1999/xlink" x="0px" y="0px"
	 width="137.426px" height="137.424px" viewBox="0 0 137.426 137.424" enable-background="new 0 0 137.426 137.424"
	 xml:space="preserve">
<path fill="none" stroke="#474B52" stroke-width="2" stroke-miterlimit="10" d="M1,113.79V23.635C1,11.187,11.186,1,23.635,1h90.155
	c12.449,0,22.636,10.187,22.636,22.635v90.155c0,12.449-10.187,22.635-22.636,22.635H23.635C11.186,136.424,1,126.239,1,113.79z"/>
<polygon fill="none" stroke="#474B52" stroke-width="2" stroke-miterlimit="10" points="109.28,31.446 109.28,16.02 47.204,16.02 
	28.156,35.068 28.156,53.978 33.656,55.978 33.656,68.508 28.156,70.508 28.156,120.725 109.28,120.725 109.28,72.508 
	103.78,68.508 103.78,31.446 "/>
<path fill="none" stroke="#474B52" stroke-width="2" stroke-miterlimit="10" d="M45.236,107.928h48.816V51.587
	c0-4.496-3.646-8.141-8.142-8.141H51.798c-4.496,0-8.141,3.645-8.141,8.141v56.341H45.236z"/>
<polyline fill="none" stroke="#474B52" stroke-width="2" stroke-miterlimit="10" points="109.28,74.258 109.28,51.093 
	103.78,45.593 "/>
<line fill="none" stroke="#474B52" stroke-width="2" stroke-miterlimit="10" x1="68.713" y1="33.446" x2="103.779" y2="33.446"/>
</svg>
