<?xml version="1.0" encoding="UTF-8" standalone="no"?>
<svg
   xmlns:dc="http://purl.org/dc/elements/1.1/"
   xmlns:cc="http://creativecommons.org/ns#"
   xmlns:rdf="http://www.w3.org/1999/02/22-rdf-syntax-ns#"
   xmlns:svg="http://www.w3.org/2000/svg"
   xmlns="http://www.w3.org/2000/svg"
   version="1.1"
   id="svg5370"
   viewBox="0 0 25.3175 25.3175"
   height="7.1451612mm"
   width="7.1451612mm">
  <defs
     id="defs5372" />
  <metadata
     id="metadata5375">
    <rdf:RDF>
      <cc:Work
         rdf:about="">
        <dc:format>image/svg+xml</dc:format>
        <dc:type
           rdf:resource="http://purl.org/dc/dcmitype/StillImage" />
        <dc:title></dc:title>
      </cc:Work>
    </rdf:RDF>
  </metadata>
  <g
     transform="translate(-521.627,-379.70346)"
     id="layer1">
    <path
       d="m 525.9645,380.01846 c -2.2188,0 -4.0225,1.80375 -4.0225,4.02125 l 0,16.645 c 0,2.2175 1.8037,4.02125 4.0225,4.02125 l 16.6437,0 c 2.2175,0 4.0213,-1.80375 4.0213,-4.02125 l 0,-16.645 c 0,-2.2175 -1.8038,-4.02125 -4.0213,-4.02125 l -16.6437,0 z m 16.6437,25.0025 -16.6437,0 c -2.3925,0 -4.3375,-1.94625 -4.3375,-4.33625 l 0,-16.645 c 0,-2.39125 1.945,-4.33625 4.3375,-4.33625 l 16.6437,0 c 2.39,0 4.3363,1.945 4.3363,4.33625 l 0,16.645 c 0,2.39 -1.9463,4.33625 -4.3363,4.33625"
       style="fill:#343539;fill-opacity:1;fill-rule:nonzero;stroke:none"
       id="path4506" />
    <path
       d="m 537.3808,390.35333 c -0.39,0 -0.7812,0.14875 -1.08,0.44625 l -0.5775,0.57875 c -0.595,0.595 -0.595,1.56375 0,2.15875 l 0.5788,0.5775 c 0.2862,0.28875 0.67,0.4475 1.0787,0.4475 0.41,0 0.7925,-0.15875 1.0788,-0.44625 l 0.5787,-0.57875 c 0.2875,-0.2875 0.4463,-0.67 0.4463,-1.08 0,-0.40875 -0.1588,-0.7925 -0.4463,-1.07875 l -0.5787,-0.57875 c -0.2963,-0.2975 -0.6875,-0.44625 -1.0788,-0.44625 m 0,4.52375 c -0.4937,0 -0.9562,-0.1925 -1.3025,-0.53875 l -0.5787,-0.5775 c -0.7175,-0.71875 -0.7175,-1.88625 0,-2.605 l 0.5787,-0.58 c 0.7213,-0.7175 1.8888,-0.715 2.605,0 l 0.5788,0.57875 c 0.3462,0.34625 0.5375,0.81 0.5375,1.3025 0,0.49375 -0.1913,0.95625 -0.5388,1.30375 l -0.5775,0.5775 c -0.3462,0.34625 -0.8087,0.53875 -1.3025,0.53875"
       style="fill:#343539;fill-opacity:1;fill-rule:nonzero;stroke:none"
       id="path4510" />
    <path
       d="m 531.5176,384.49621 c -0.39,0 -0.7813,0.14875 -1.0788,0.4475 l -0.5775,0.5775 c -0.5962,0.59625 -0.5962,1.56375 0,2.16 l 0.5775,0.57875 c 0.5963,0.595 1.5638,0.59375 2.16,-10e-4 l 0.5763,-0.57625 c 0.5962,-0.5975 0.5962,-1.565 0,-2.16125 l -0.5775,-0.5775 c -0.2975,-0.29875 -0.6888,-0.4475 -1.08,-0.4475 m 0,4.525 c -0.4713,0 -0.9425,-0.18 -1.3013,-0.53875 l -0.5787,-0.57875 c -0.7175,-0.7175 -0.7175,-1.8875 0,-2.60625 l 0.5775,-0.5775 c 0.7187,-0.7175 1.89,-0.715 2.6062,0 l 0.5775,0.5775 c 0.7175,0.71875 0.7175,1.88875 0,2.6075 l -0.5775,0.57625 c -0.3587,0.36 -0.8312,0.54 -1.3037,0.54"
       style="fill:#343539;fill-opacity:1;fill-rule:nonzero;stroke:none"
       id="path4514" />
    <path
       d="m 531.5188,396.17221 c -0.3912,0 -0.7825,0.14875 -1.0812,0.44625 l -0.5763,0.5775 c -0.2875,0.2875 -0.4462,0.67 -0.4462,1.08 0,0.41 0.1587,0.7925 0.445,1.08 l 0.5787,0.57875 c 0.5963,0.5975 1.565,0.59625 2.1588,-10e-4 l 0.5775,-0.5775 c 0.2875,-0.2875 0.4462,-0.67 0.4462,-1.08 0,-0.41 -0.1587,-0.7925 -0.445,-1.07875 l -0.5775,-0.5788 c -0.2987,-0.2975 -0.69,-0.44625 -1.08,-0.44625 m 0,4.52375 c -0.4713,0 -0.9438,-0.18 -1.3025,-0.53875 l -0.5775,-0.57875 c -0.3463,-0.34625 -0.5375,-0.80875 -0.5375,-1.3025 0,-0.4925 0.1912,-0.95625 0.5387,-1.3025 l 0.5763,-0.5775 c 0.7162,-0.7175 1.8862,-0.71875 2.605,-0.001 l 0.5787,0.58 c 0.3463,0.345 0.5375,0.80875 0.5375,1.30125 0,0.49375 -0.1912,0.95625 -0.5387,1.30375 l -0.5763,0.57625 c -0.3587,0.36 -0.8312,0.54 -1.3037,0.54"
       style="fill:#343539;fill-opacity:1;fill-rule:nonzero;stroke:none"
       id="path4518" />
    <path
       d="m 535.6963,391.17408 -2.9262,-2.92625 0.2237,-0.22375 2.9263,2.92625 -0.2238,0.22375 z"
       style="fill:#343539;fill-opacity:1;fill-rule:nonzero;stroke:none"
       id="path4522" />
    <path
       d="m 532.993,396.88583 -0.2213,-0.22375 2.9263,-2.925 0.2212,0.22375 -2.9262,2.925 z"
       style="fill:#343539;fill-opacity:1;fill-rule:nonzero;stroke:none"
       id="path4526" />
  </g>
</svg>
