<?xml version="1.0" encoding="UTF-8" standalone="no"?>
<!-- Created with Inkscape (http://www.inkscape.org/) -->

<svg
   xmlns:dc="http://purl.org/dc/elements/1.1/"
   xmlns:cc="http://creativecommons.org/ns#"
   xmlns:rdf="http://www.w3.org/1999/02/22-rdf-syntax-ns#"
   xmlns:svg="http://www.w3.org/2000/svg"
   xmlns="http://www.w3.org/2000/svg"
   version="1.1"
   width="50.231251"
   height="50.23"
   id="svg7570">
  <defs
     id="defs7572" />
  <metadata
     id="metadata7575">
    <rdf:RDF>
      <cc:Work
         rdf:about="">
        <dc:format>image/svg+xml</dc:format>
        <dc:type
           rdf:resource="http://purl.org/dc/dcmitype/StillImage" />
        <dc:title></dc:title>
      </cc:Work>
    </rdf:RDF>
  </metadata>
  <g
     transform="translate(-349.88437,-507.24718)"
     id="layer1">
    <path
       d="m 367.46399,516.58318 c -2.12375,0 -4.2475,0.8075 -5.865,2.42625 -3.23375,3.2325 -3.23375,8.49625 0,11.72875 1.48875,1.4925 3.47125,2.35375 5.58,2.4275 l 0.12375,0.005 6.86875,6.90625 0.005,0.1225 c 0.0813,2.09125 0.94125,4.06 2.42375,5.54375 3.23375,3.2275 8.495,3.23 11.73,-0.003 1.56625,-1.565 2.43,-3.65 2.43,-5.86375 0,-2.2175 -0.86375,-4.3 -2.43,-5.865 l -15.00125,-15.0025 c -1.6175,-1.61875 -3.74125,-2.42625 -5.865,-2.42625 m 15.00125,32.2075 c -2.28375,0 -4.5675,-0.87 -6.3075,-2.605 -1.565,-1.5675 -2.485,-3.63625 -2.6,-5.84 l -6.525,-6.56 c -2.22125,-0.1075 -4.30375,-1.03 -5.87625,-2.605 -1.685,-1.685 -2.61375,-3.92375 -2.61375,-6.30625 0,-2.3825 0.92875,-4.62125 2.61375,-6.30875 1.685,-1.685 3.925,-2.6125 6.3075,-2.6125 2.3825,0 4.6225,0.9275 6.3075,2.6125 l 15.00125,15.0025 c 1.685,1.685 2.6125,3.92625 2.6125,6.30875 0,2.3825 -0.9275,4.62125 -2.6125,6.30625 -1.74,1.7375 -4.02375,2.6075 -6.3075,2.6075"
       id="path3014"
       style="fill:#50545c;fill-opacity:1;fill-rule:nonzero;stroke:none" />
    <path
       d="m 385.25449,536.48048 c -0.27875,0 -0.5575,0.1075 -0.77,0.32 -0.20625,0.205 -0.32,0.47875 -0.32,0.76875 0,0.29125 0.11375,0.56375 0.32,0.76875 0.41125,0.4125 1.1275,0.415 1.54125,0.002 0.20625,-0.2075 0.32,-0.48 0.32,-0.77125 0,-0.29 -0.11375,-0.56375 -0.32,-0.76875 -0.2125,-0.2125 -0.49125,-0.32 -0.77125,-0.32 m 0.001,2.805 c -0.45875,0 -0.89,-0.18 -1.21375,-0.505 -0.32375,-0.3225 -0.5025,-0.7525 -0.5025,-1.21125 0,-0.45875 0.17875,-0.88875 0.5025,-1.21375 0.67,-0.66625 1.75875,-0.66125 2.42625,0 0.3225,0.325 0.5025,0.755 0.5025,1.21375 0,0.45875 -0.18,0.88875 -0.5025,1.21375 -0.32375,0.3225 -0.755,0.5025 -1.2125,0.5025"
       id="path3018"
       style="fill:#50545c;fill-opacity:1;fill-rule:nonzero;stroke:none" />
    <path
       d="m 379.76987,541.96398 c -0.29,0 -0.56375,0.115 -0.77,0.32 l 0,0.002 c -0.20625,0.205 -0.32,0.47875 -0.32,0.76875 0,0.29 0.11375,0.56375 0.32,0.76875 0.42375,0.425 1.115,0.425 1.54125,0 0.20625,-0.205 0.32,-0.47875 0.32,-0.76875 0,-0.29 -0.11375,-0.56375 -0.32,-0.76875 -0.20625,-0.2075 -0.48,-0.3225 -0.77125,-0.3225 m 10e-4,2.805 c -0.44,0 -0.87875,-0.16875 -1.21375,-0.5 -0.32375,-0.325 -0.5025,-0.755 -0.5025,-1.21375 0,-0.45875 0.17875,-0.88875 0.5025,-1.21125 0.64875,-0.65125 1.78,-0.64625 2.42625,0 0.3225,0.3225 0.5025,0.7525 0.5025,1.21125 0,0.45875 -0.18,0.88875 -0.5025,1.21375 -0.335,0.33125 -0.77375,0.5 -1.2125,0.5"
       id="path3022"
       style="fill:#50545c;fill-opacity:1;fill-rule:nonzero;stroke:none" />
    <path
       d="m 379.77112,536.48048 c -0.28,0 -0.55875,0.1075 -0.77125,0.32 -0.20625,0.205 -0.32,0.47875 -0.32,0.76875 0,0.29125 0.11375,0.56375 0.32,0.76875 l 0,0.002 c 0.4125,0.4125 1.13,0.4075 1.54125,0 0.20625,-0.2075 0.32,-0.48 0.32,-0.77125 0,-0.29 -0.11375,-0.56375 -0.32,-0.76875 -0.2125,-0.2125 -0.49125,-0.32 -0.77,-0.32 m -10e-4,2.805 c -0.4575,0 -0.8875,-0.1775 -1.2125,-0.5025 l 0,-0.002 c -0.32375,-0.3225 -0.5025,-0.7525 -0.5025,-1.21125 0,-0.45875 0.18,-0.88875 0.5025,-1.21375 0.66875,-0.66125 1.7575,-0.66625 2.42625,0 0.32375,0.325 0.5025,0.755 0.5025,1.21375 0,0.45875 -0.17875,0.88875 -0.5025,1.21375 -0.32375,0.3225 -0.755,0.5025 -1.21375,0.5025"
       id="path3026"
       style="fill:#50545c;fill-opacity:1;fill-rule:nonzero;stroke:none" />
    <path
       d="m 385.25574,541.96398 c -0.29125,0 -0.565,0.115 -0.77125,0.32 -0.20625,0.2075 -0.32,0.48125 -0.32,0.77125 0,0.29 0.11375,0.56375 0.32,0.76875 0.42625,0.425 1.1175,0.425 1.54125,0 0.20625,-0.205 0.32,-0.47875 0.32,-0.76875 0,-0.29 -0.11375,-0.56375 -0.32,-0.76875 -0.20625,-0.2075 -0.48,-0.3225 -0.77,-0.3225 m -10e-4,2.805 c -0.43875,0 -0.8775,-0.16875 -1.2125,-0.5 -0.3225,-0.325 -0.5025,-0.755 -0.5025,-1.21375 0,-0.45875 0.18,-0.88875 0.5025,-1.21375 0.64625,-0.64125 1.7775,-0.64875 2.42625,0.002 0.32375,0.3225 0.5025,0.7525 0.5025,1.21125 0,0.45875 -0.17875,0.88875 -0.5025,1.21375 -0.335,0.33125 -0.77375,0.5 -1.21375,0.5"
       id="path3030"
       style="fill:#50545c;fill-opacity:1;fill-rule:nonzero;stroke:none" />
    <path
       d="m 366.46062,525.30868 1.75125,1.75 c 0.29,0.29125 0.7625,0.28625 1.04875,0 0.28875,-0.2875 0.28875,-0.75875 0,-1.04875 l -1.75125,-1.75125 1.75125,-1.7525 c 0.14125,-0.14 0.2175,-0.325 0.2175,-0.5225 0,-0.1975 -0.0763,-0.38375 -0.2175,-0.5225 -0.27875,-0.28125 -0.76625,-0.27875 -1.04875,-0.003 l -1.75125,1.7525 -1.7525,-1.75 c -0.28125,-0.28375 -0.7675,-0.28125 -1.0475,-0.003 -0.14125,0.14125 -0.2175,0.3275 -0.2175,0.525 0,0.1975 0.0762,0.3825 0.2175,0.5225 l 1.75125,1.7525 -1.75125,1.7525 c -0.14125,0.1425 -0.2175,0.3275 -0.2175,0.525 0,0.19875 0.0762,0.38375 0.2175,0.525 0.2875,0.28375 0.75875,0.28625 1.0475,-0.003 l 1.7525,-1.75 z m 2.275,2.5925 c -0.34875,0 -0.69875,-0.13375 -0.965,-0.3975 l -1.31,-1.31125 -1.31125,1.31125 c -0.5325,0.5275 -1.39875,0.5275 -1.93125,0 -0.2575,-0.26125 -0.4,-0.60375 -0.4,-0.9675 0,-0.36625 0.1425,-0.7075 0.4,-0.96625 l 1.31,-1.31125 -1.31,-1.30875 c -0.2575,-0.25875 -0.4,-0.6 -0.4,-0.96625 0,-0.36625 0.1425,-0.70875 0.4,-0.9675 0.515,-0.5125 1.41625,-0.515 1.93125,0.003 l 1.31125,1.30875 1.31,-1.31125 c 0.51625,-0.51 1.41875,-0.5125 1.9325,0.003 0.2575,0.25625 0.4,0.59875 0.4,0.965 0,0.36625 -0.1425,0.7075 -0.4,0.96625 l -1.31,1.30875 1.31,1.31125 c 0.5325,0.5325 0.5325,1.39875 0,1.93125 -0.26625,0.26625 -0.61625,0.4 -0.9675,0.4"
       id="path3034"
       style="fill:#50545c;fill-opacity:1;fill-rule:nonzero;stroke:none" />
    <path
       d="m 381.26287,526.50248 -0.4425,-0.44375 16.07625,-15.9875 0.44125,0.445 -16.075,15.98625 z"
       id="path3038"
       style="fill:#50545c;fill-opacity:1;fill-rule:nonzero;stroke:none" />
  </g>
</svg>
