<?xml version="1.0" encoding="UTF-8" standalone="no"?>
<svg
   xmlns:dc="http://purl.org/dc/elements/1.1/"
   xmlns:cc="http://creativecommons.org/ns#"
   xmlns:rdf="http://www.w3.org/1999/02/22-rdf-syntax-ns#"
   xmlns:svg="http://www.w3.org/2000/svg"
   xmlns="http://www.w3.org/2000/svg"
   xmlns:sodipodi="http://sodipodi.sourceforge.net/DTD/sodipodi-0.dtd"
   xmlns:inkscape="http://www.inkscape.org/namespaces/inkscape"
   version="1.1"
   id="svg5405"
   viewBox="0 0 20 20"
   inkscape:version="0.91 r13725"
   sodipodi:docname="icon-parental.svg">
  <sodipodi:namedview
     pagecolor="#ffffff"
     bordercolor="#666666"
     borderopacity="1"
     objecttolerance="10"
     gridtolerance="10"
     guidetolerance="10"
     inkscape:pageopacity="0"
     inkscape:pageshadow="2"
     inkscape:window-width="642"
     inkscape:window-height="478"
     id="namedview21"
     showgrid="false"
     inkscape:zoom="11.8"
     inkscape:cx="10"
     inkscape:cy="10"
     inkscape:window-x="286"
     inkscape:window-y="581"
     inkscape:window-maximized="0"
     inkscape:current-layer="svg5405" />
  <defs
     id="defs5407" />
  <metadata
     id="metadata5410">
    <rdf:RDF>
      <cc:Work
         rdf:about="">
        <dc:format>image/svg+xml</dc:format>
        <dc:type
           rdf:resource="http://purl.org/dc/dcmitype/StillImage" />
        <dc:title />
      </cc:Work>
    </rdf:RDF>
  </metadata>
  <g
     transform="translate(-570.08572,-238.61492)"
     id="layer1">
    <path
       id="path4534"
       style="fill:none;stroke:#a1a3a5;stroke-width:0.3125;stroke-linecap:butt;stroke-linejoin:miter;stroke-miterlimit:10;stroke-dasharray:none;stroke-opacity:1"
       d="m 583.03432,254.1781 c -0.9075,0.395 -1.91,0.61375 -2.9625,0.61375 -1.0475,0 -2.045,-0.21625 -2.94875,-0.6075 m 11.25475,-3.28437 c 0.695,0.0962 1.33625,-0.38875 1.43125,-1.08375 0.0962,-0.695 -0.38875,-1.33625 -1.08375,-1.4325 m -16.97688,2.51625 c -0.695,0.0962 -1.33625,-0.38875 -1.43125,-1.08375 -0.0962,-0.695 0.38875,-1.33625 1.08375,-1.4325 m 12.53663,4.34937 c 0,-0.1725 0.11625,-0.29375 0.28,-0.29375 0.1625,0 0.27375,0.12125 0.27375,0.29375 0,0.1675 -0.10625,0.29375 -0.27875,0.29375 -0.16375,0 -0.275,-0.12625 -0.275,-0.29375 m 1.07712,-0.63388 c 0,-0.1725 0.11625,-0.29375 0.28,-0.29375 0.1625,0 0.27375,0.12125 0.27375,0.29375 0,0.1675 -0.10625,0.29375 -0.27875,0.29375 -0.16375,0 -0.275,-0.12625 -0.275,-0.29375 m -2.15325,0 c 0,-0.1725 0.11625,-0.29375 0.28,-0.29375 0.1625,0 0.27375,0.12125 0.27375,0.29375 0,0.1675 -0.10625,0.29375 -0.27875,0.29375 -0.16375,0 -0.275,-0.12625 -0.275,-0.29375 m -7.371,0.63388 c 0,-0.1725 0.11625,-0.29375 0.28,-0.29375 0.1625,0 0.27375,0.12125 0.27375,0.29375 0,0.1675 -0.10625,0.29375 -0.27875,0.29375 -0.16375,0 -0.275,-0.12625 -0.275,-0.29375 m 1.07813,-0.63388 c 0,-0.1725 0.11625,-0.29375 0.28,-0.29375 0.1625,0 0.27375,0.12125 0.27375,0.29375 0,0.1675 -0.10625,0.29375 -0.27875,0.29375 -0.16375,0 -0.275,-0.12625 -0.275,-0.29375 m -2.15525,0 c 0,-0.1725 0.11625,-0.29375 0.28,-0.29375 0.1625,0 0.27375,0.12125 0.27375,0.29375 0,0.1675 -0.10625,0.29375 -0.27875,0.29375 -0.16375,0 -0.275,-0.12625 -0.275,-0.29375 m 6.2425,-0.66449 c 0,0.3675 -0.2975,0.665 -0.665,0.665 -0.36625,0 -0.66375,-0.2975 -0.66375,-0.665 m -4.81725,-0.81725 c 0,-0.73375 0.595,-1.32875 1.32875,-1.32875 0.735,0 1.33,0.595 1.33,1.32875 m 5.64812,0 c 0,-0.73375 0.595,-1.32875 1.32875,-1.32875 0.735,0 1.33,0.595 1.33,1.32875 m -5.48062,-10.76026 c -1.5775,0 -2.85625,1.27875 -2.85625,2.85625 0,1.2625 1.0225,2.285 2.285,2.285 1.01,0 1.8275,-0.81875 1.8275,-1.8275 0,-0.80875 -0.65375,-1.4625 -1.4625,-1.4625 -0.645,0 -1.16875,0.52375 -1.16875,1.17 0,0.51625 0.41875,0.935 0.935,0.935 0.41375,0 0.74875,-0.335 0.74875,-0.74875 m -8.81675,5.39463 c 0,-4.74125 3.84375,-8.585 8.585,-8.585 4.74125,0 8.585,3.84375 8.585,8.585 0,4.74125 -3.84375,8.585 -8.585,8.585 -4.74125,0 -8.585,-3.84375 -8.585,-8.585 z m -0.48063,8.97188 17.99875,-17.99875" />
  </g>
</svg>
