<?xml version="1.0" encoding="UTF-8" standalone="no"?>
<!-- Created with Inkscape (http://www.inkscape.org/) -->

<svg
   xmlns:dc="http://purl.org/dc/elements/1.1/"
   xmlns:cc="http://creativecommons.org/ns#"
   xmlns:rdf="http://www.w3.org/1999/02/22-rdf-syntax-ns#"
   xmlns:svg="http://www.w3.org/2000/svg"
   xmlns="http://www.w3.org/2000/svg"
   version="1.1"
   width="25.115"
   height="25.115"
   id="svg7339">
  <defs
     id="defs7341" />
  <metadata
     id="metadata7344">
    <rdf:RDF>
      <cc:Work
         rdf:about="">
        <dc:format>image/svg+xml</dc:format>
        <dc:type
           rdf:resource="http://purl.org/dc/dcmitype/StillImage" />
        <dc:title></dc:title>
      </cc:Work>
    </rdf:RDF>
  </metadata>
  <g
     transform="translate(-362.4425,-519.80468)"
     id="layer1">
    <path
       d="m 384.10874,538.17568 -0.30625,0 0,-11.1975 c 0,-0.72375 -0.57625,-1.31375 -1.285,-1.31375 l -14.95625,0 c -0.70875,0 -1.285,0.59 -1.285,1.31375 l 0,11.1975 -0.30625,0 0,-11.1975 c 0,-0.89375 0.71375,-1.62 1.59125,-1.62 l 14.95625,0 c 0.8775,0 1.59125,0.72625 1.59125,1.62 l 0,11.1975 z"
       id="path1792"
       style="fill:#41444c;fill-opacity:1;fill-rule:nonzero;stroke:none" />
    <path
       d="m 375.18437,532.91578 -0.2175,-0.215 6.2325,-6.31 0.2175,0.215 -6.2325,6.31 z"
       id="path1796"
       style="fill:#41444c;fill-opacity:1;fill-rule:nonzero;stroke:none" />
    <path
       d="m 377.94525,532.91698 -0.21625,-0.2175 5.17375,-5.17375 0.21625,0.2175 -5.17375,5.17375 z"
       id="path1800"
       style="fill:#41444c;fill-opacity:1;fill-rule:nonzero;stroke:none" />
    <path
       d="m 367.25012,537.13463 15.5775,0 0,-10.48375 -15.5775,0 0,10.48375 z m 15.88375,0.30625 -16.19,0 0,-11.09625 16.19,0 0,11.09625 z"
       id="path1802"
       style="fill:#41444c;fill-opacity:1;fill-rule:nonzero;stroke:none" />
    <path
       d="m 365.05712,538.40288 c 0.325,0.545 0.91375,0.88625 1.55875,0.88625 l 16.84625,0 c 0.645,0 1.235,-0.34125 1.56,-0.88625 l -19.965,0 z m 18.405,1.1925 -16.84625,0 c -0.84875,0 -1.61375,-0.505 -1.94875,-1.285 l -0.0925,-0.21375 20.92875,0 -0.0913,0.21375 c -0.33625,0.78 -1.10125,1.285 -1.95,1.285"
       id="path1806"
       style="fill:#41444c;fill-opacity:1;fill-rule:nonzero;stroke:none" />
  </g>
</svg>
