<?xml version="1.0" encoding="UTF-8" standalone="no"?>
<svg
   xmlns:dc="http://purl.org/dc/elements/1.1/"
   xmlns:cc="http://creativecommons.org/ns#"
   xmlns:rdf="http://www.w3.org/1999/02/22-rdf-syntax-ns#"
   xmlns:svg="http://www.w3.org/2000/svg"
   xmlns="http://www.w3.org/2000/svg"
   version="1.1"
   id="svg5404"
   viewBox="0 0 25.31625 25.3175"
   height="7.1451612mm"
   width="7.1448083mm">
  <defs
     id="defs5406" />
  <metadata
     id="metadata5409">
    <rdf:RDF>
      <cc:Work
         rdf:about="">
        <dc:format>image/svg+xml</dc:format>
        <dc:type
           rdf:resource="http://purl.org/dc/dcmitype/StillImage" />
        <dc:title></dc:title>
      </cc:Work>
    </rdf:RDF>
  </metadata>
  <g
     transform="translate(-293.05616,-331.13203)"
     id="layer1">
    <path
       d="m 297.40991,331.50078 c -2.1975,0 -3.98625,1.7875 -3.98625,3.98625 l 0,16.6075 c 0,2.19875 1.78875,3.98625 3.98625,3.98625 l 16.60875,0 c 2.1975,0 3.985,-1.7875 3.985,-3.98625 l 0,-16.6075 c 0,-2.19875 -1.7875,-3.98625 -3.985,-3.98625 l -16.60875,0 z m 16.60875,24.94875 -16.60875,0 c -2.40125,0 -4.35375,-1.95375 -4.35375,-4.355 l 0,-16.6075 c 0,-2.40125 1.9525,-4.355 4.35375,-4.355 l 16.60875,0 c 2.40125,0 4.35375,1.95375 4.35375,4.355 l 0,16.6075 c 0,2.40125 -1.9525,4.355 -4.35375,4.355"
       style="fill:#41444c;fill-opacity:1;fill-rule:nonzero;stroke:none"
       id="path4548" />
    <path
       d="m 299.31403,342.75515 c -0.0925,0 -0.17625,0.0425 -0.22625,0.115 l -1.03375,1.5025 c -0.05,0.0737 -0.0563,0.16125 -0.015,0.23875 0.0462,0.0875 0.13625,0.14 0.24125,0.14 l 6.28625,0 c 0.0825,0 0.15,0.0663 0.15,0.15 l 0,6.28625 c 0,0.10375 0.0513,0.19375 0.13875,0.24 0.0788,0.0412 0.165,0.0362 0.23875,-0.015 l 1.50375,-1.03375 c 0.0713,-0.0487 0.11375,-0.13375 0.11375,-0.22625 l 0,-5.25125 c 0,-0.0838 0.0675,-0.15 0.15,-0.15 l 5.2525,0 c 0.0925,0 0.17625,-0.0437 0.22625,-0.115 l 1.03375,-1.5025 c 0.0512,-0.0737 0.0562,-0.16125 0.015,-0.24 -0.0462,-0.0862 -0.13625,-0.13875 -0.24125,-0.13875 l -6.28625,0 c -0.0825,0 -0.15,-0.0675 -0.15,-0.15 l 0,-6.28625 c 0,-0.105 -0.0512,-0.195 -0.13875,-0.24 -0.0788,-0.0425 -0.165,-0.0362 -0.23875,0.015 l -1.50375,1.03375 c -0.0713,0.0487 -0.11375,0.13375 -0.11375,0.225 l 0,5.2525 c 0,0.0825 -0.0675,0.15 -0.15,0.15 l -5.2525,0 z m 5.64875,9 c -0.0838,0 -0.1675,-0.02 -0.24625,-0.0613 -0.185,-0.0975 -0.3,-0.29125 -0.3,-0.50625 l 0,-6.13625 -6.13625,0 c -0.215,0 -0.40875,-0.115 -0.50625,-0.3 -0.0937,-0.1775 -0.0812,-0.3825 0.0337,-0.54875 l 1.03375,-1.5025 c 0.105,-0.15375 0.28125,-0.245 0.4725,-0.245 l 5.1025,0 0,-5.1025 c 0,-0.19 0.0913,-0.3675 0.24375,-0.4725 l 1.50375,-1.03375 c 0.16625,-0.115 0.37125,-0.12625 0.54875,-0.0337 0.185,0.0975 0.29875,0.29125 0.29875,0.50625 l 0,6.13625 6.13625,0 c 0.215,0 0.41,0.115 0.50625,0.3 0.0937,0.1775 0.0813,0.3825 -0.0325,0.5475 l -1.03375,1.50375 c -0.10625,0.15375 -0.2825,0.245 -0.47375,0.245 l -5.1025,0 0,5.10125 c 0,0.19125 -0.0913,0.36875 -0.24375,0.47375 l -1.50375,1.03375 c -0.0913,0.0638 -0.19625,0.095 -0.30125,0.095"
       style="fill:#41444c;fill-opacity:1;fill-rule:nonzero;stroke:none"
       id="path4552" />
  </g>
</svg>
