<?xml version="1.0" encoding="UTF-8" standalone="no"?>
<svg
   xmlns:dc="http://purl.org/dc/elements/1.1/"
   xmlns:cc="http://creativecommons.org/ns#"
   xmlns:rdf="http://www.w3.org/1999/02/22-rdf-syntax-ns#"
   xmlns:svg="http://www.w3.org/2000/svg"
   xmlns="http://www.w3.org/2000/svg"
   xmlns:sodipodi="http://sodipodi.sourceforge.net/DTD/sodipodi-0.dtd"
   xmlns:inkscape="http://www.inkscape.org/namespaces/inkscape"
   version="1.1"
   id="svg5348"
   viewBox="0 0 20 20"
   inkscape:version="0.91 r13725"
   sodipodi:docname="icon-clock.svg">
  <sodipodi:namedview
     pagecolor="#ffffff"
     bordercolor="#666666"
     borderopacity="1"
     objecttolerance="10"
     gridtolerance="10"
     guidetolerance="10"
     inkscape:pageopacity="0"
     inkscape:pageshadow="2"
     inkscape:window-width="640"
     inkscape:window-height="480"
     id="namedview17"
     showgrid="false"
     inkscape:zoom="11.8"
     inkscape:cx="10"
     inkscape:cy="10"
     inkscape:window-x="0"
     inkscape:window-y="380"
     inkscape:window-maximized="0"
     inkscape:current-layer="svg5348" />
  <defs
     id="defs5350" />
  <metadata
     id="metadata5353">
    <rdf:RDF>
      <cc:Work
         rdf:about="">
        <dc:format>image/svg+xml</dc:format>
        <dc:type
           rdf:resource="http://purl.org/dc/dcmitype/StillImage" />
        <dc:title />
      </cc:Work>
    </rdf:RDF>
  </metadata>
  <g
     transform="translate(-144.41641,-641.10345)"
     id="layer1">
    <path
       id="path4642"
       style="fill:none;stroke:#a1a3a5;stroke-width:0.3125;stroke-linecap:butt;stroke-linejoin:miter;stroke-miterlimit:10;stroke-dasharray:none;stroke-opacity:1"
       d="m 160.08378,651.17976 1.83125,0 m -15.106,0 1.83125,0 m 5.84688,-7.67812 0,1.83125 m -0.0796,13.23837 0,-7.59875 m 0,0.12762 3.77125,-3.77125 m 2.82075,9.141 3.17125,3.17125 m -16.34637,-3.17125 -3.17125,3.17125 m 16.71137,-13.65162 c 0.29625,-0.35 0.47625,-0.8025 0.47625,-1.2975 0,-1.10875 -0.89875,-2.0075 -2.0075,-2.0075 -0.6575,0 -1.24,0.31625 -1.60625,0.80375 m -10.67175,2.50125 c -0.29625,-0.35 -0.47625,-0.8025 -0.47625,-1.2975 0,-1.10875 0.89875,-2.0075 2.0075,-2.0075 0.6575,0 1.24,0.31625 1.60625,0.80375 m -3.76062,7.56837 c 0,-4.1725 3.3825,-7.555 7.555,-7.555 4.1725,0 7.555,3.3825 7.555,7.555 0,4.1725 -3.3825,7.555 -7.555,7.555 -4.1725,0 -7.555,-3.3825 -7.555,-7.555 z m -1.02988,0 c 0,-4.74125 3.84375,-8.585 8.585,-8.585 4.74125,0 8.585,3.84375 8.585,8.585 0,4.74125 -3.84375,8.585 -8.585,8.585 -4.74125,0 -8.585,-3.84375 -8.585,-8.585 z" />
  </g>
</svg>
