<?xml version="1.0" encoding="UTF-8" standalone="no"?>
<svg
   xmlns:dc="http://purl.org/dc/elements/1.1/"
   xmlns:cc="http://creativecommons.org/ns#"
   xmlns:rdf="http://www.w3.org/1999/02/22-rdf-syntax-ns#"
   xmlns:svg="http://www.w3.org/2000/svg"
   xmlns="http://www.w3.org/2000/svg"
   id="svg7616"
   height="50.23"
   width="50.232498"
   version="1.1">
  <defs
     id="defs7618" />
  <metadata
     id="metadata7621">
    <rdf:RDF>
      <cc:Work
         rdf:about="">
        <dc:format>image/svg+xml</dc:format>
        <dc:type
           rdf:resource="http://purl.org/dc/dcmitype/StillImage" />
        <dc:title></dc:title>
      </cc:Work>
    </rdf:RDF>
  </metadata>
  <path
     d="m 22.236813,25.12498 c 0,-1.742667 1.408535,-3.1555 3.145898,-3.1555 1.737365,0 3.1459,1.412833 3.1459,3.1555 0,1.742665 -1.408535,3.1555 -3.1459,3.1555 -1.737363,0 -3.145898,-1.412835 -3.145898,-3.1555 z"
     style="fill:none;stroke:#41444c;stroke-width:0.72941226;stroke-linecap:butt;stroke-linejoin:miter;stroke-miterlimit:10;stroke-dasharray:none;stroke-opacity:1"
     id="path3750" />
  <path
     d="m 10.537045,25.12498 c 0,-1.742667 1.408535,-3.1555 3.145899,-3.1555 1.737364,0 3.1459,1.412833 3.1459,3.1555 0,1.742665 -1.408536,3.1555 -3.1459,3.1555 -1.737364,0 -3.145899,-1.412835 -3.145899,-3.1555 z"
     style="fill:none;stroke:#41444c;stroke-width:0.72941226;stroke-linecap:butt;stroke-linejoin:miter;stroke-miterlimit:10;stroke-dasharray:none;stroke-opacity:1"
     id="path3754" />
  <path
     d="m 33.936617,25.12498 c 0,-1.742667 1.408535,-3.1555 3.145899,-3.1555 1.737364,0 3.145899,1.412833 3.145899,3.1555 0,1.742665 -1.408535,3.1555 -3.145899,3.1555 -1.737364,0 -3.145899,-1.412835 -3.145899,-3.1555 z"
     style="fill:none;stroke:#41444c;stroke-width:0.72941226;stroke-linecap:butt;stroke-linejoin:miter;stroke-miterlimit:10;stroke-dasharray:none;stroke-opacity:1"
     id="path3758" />
</svg>
