<?xml version="1.0" encoding="UTF-8" standalone="no"?>
<!-- Created with Inkscape (http://www.inkscape.org/) -->

<svg
   xmlns:dc="http://purl.org/dc/elements/1.1/"
   xmlns:cc="http://creativecommons.org/ns#"
   xmlns:rdf="http://www.w3.org/1999/02/22-rdf-syntax-ns#"
   xmlns:svg="http://www.w3.org/2000/svg"
   xmlns="http://www.w3.org/2000/svg"
   version="1.1"
   width="50.231251"
   height="50.23"
   id="svg7442">
  <defs
     id="defs7444" />
  <metadata
     id="metadata7447">
    <rdf:RDF>
      <cc:Work
         rdf:about="">
        <dc:format>image/svg+xml</dc:format>
        <dc:type
           rdf:resource="http://purl.org/dc/dcmitype/StillImage" />
        <dc:title></dc:title>
      </cc:Work>
    </rdf:RDF>
  </metadata>
  <g
     transform="translate(-349.88437,-507.24718)"
     id="layer1">
    <path
       d="m 368.1365,513.49718 c -2.24125,0 -4.06375,1.82375 -4.06375,4.065 l 0,29.6 c 0,2.24125 1.8225,4.065 4.06375,4.065 l 13.72625,0 c 2.24125,0 4.06375,-1.82375 4.06375,-4.065 l 0,-29.6 c 0,-2.24125 -1.8225,-4.065 -4.06375,-4.065 l -13.72625,0 z m 13.72625,38.355 -13.72625,0 c -2.585,0 -4.68875,-2.105 -4.68875,-4.69 l 0,-29.6 c 0,-2.585 2.10375,-4.69 4.68875,-4.69 l 13.72625,0 c 2.58625,0 4.68875,2.105 4.68875,4.69 l 0,29.6 c 0,2.585 -2.1025,4.69 -4.68875,4.69"
       id="path2944"
       style="fill:#50545c;fill-opacity:1;fill-rule:nonzero;stroke:none" />
    <path
       d="m 365.47525,546.68363 19.04875,0 0,-28.64 -19.04875,0 0,28.64 z m 19.67375,0.625 -20.29875,0 0,-29.89 20.29875,0 0,29.89 z"
       id="path2946"
       style="fill:#50545c;fill-opacity:1;fill-rule:nonzero;stroke:none" />
    <path
       d="m 375.25325,532.54008 -0.4425,-0.44375 10.01875,-10.0175 0.4425,0.44375 -10.01875,10.0175 z"
       id="path2950"
       style="fill:#50545c;fill-opacity:1;fill-rule:nonzero;stroke:none" />
    <path
       d="m 380.80263,532.59138 -0.4425,-0.44 4.275,-4.27625 0.4425,0.43875 -4.275,4.2775 z"
       id="path2954"
       style="fill:#50545c;fill-opacity:1;fill-rule:nonzero;stroke:none" />
    <path
       d="m 377.7515,515.81113 -5.345,0 0,-0.625 5.345,0 0,0.625 z"
       id="path2956"
       style="fill:#50545c;fill-opacity:1;fill-rule:nonzero;stroke:none" />
  </g>
</svg>
