<?xml version="1.0" encoding="UTF-8" standalone="no"?>
<svg
   xmlns:dc="http://purl.org/dc/elements/1.1/"
   xmlns:cc="http://creativecommons.org/ns#"
   xmlns:rdf="http://www.w3.org/1999/02/22-rdf-syntax-ns#"
   xmlns:svg="http://www.w3.org/2000/svg"
   xmlns="http://www.w3.org/2000/svg"
   version="1.1"
   id="svg5305"
   viewBox="0 0 17.297499 19.41625"
   height="19.41625"
   width="17.297499">
  <defs
     id="defs5307" />
  <metadata
     id="metadata5310">
    <rdf:RDF>
      <cc:Work
         rdf:about="">
        <dc:format>image/svg+xml</dc:format>
        <dc:type
           rdf:resource="http://purl.org/dc/dcmitype/StillImage" />
        <dc:title></dc:title>
      </cc:Work>
    </rdf:RDF>
  </metadata>
  <g
     transform="translate(-574.20839,-225.51122)"
     id="layer1">
    <path
       d="m 582.93427,244.92747 -8.725,-4.92375 4.47125,-2.52625 0.15375,0.27125 -3.99,2.255 8.08875,4.565 7.94625,-4.5775 -3.91625,-2.2525 0.15625,-0.27125 4.38625,2.52375 -8.57125,4.93625 z"
       style="fill:#83888d;fill-opacity:1;fill-rule:nonzero;stroke:none"
       id="path3516" />
    <path
       d="m 582.93427,240.14835 -0.0775,-0.0437 -8.6475,-4.87875 4.4725,-2.5275 0.15375,0.27125 -3.99125,2.25625 8.08875,4.56375 7.94625,-4.57625 -3.915,-2.2525 0.15625,-0.27125 4.385,2.52375 -8.57125,4.935 z"
       style="fill:#83888d;fill-opacity:1;fill-rule:nonzero;stroke:none"
       id="path3520" />
    <path
       d="m 574.84464,230.44622 8.08875,4.565 7.94625,-4.57625 -7.935,-4.565 -8.1,4.57625 z m 8.09,4.92375 -8.72625,-4.92375 0.24125,-0.135 8.49625,-4.8 0.0775,0.0437 8.4825,4.88 -8.57125,4.935 z"
       style="fill:#83888d;fill-opacity:1;fill-rule:nonzero;stroke:none"
       id="path3524" />
  </g>
</svg>
