<?xml version="1.0" encoding="UTF-8" standalone="no"?>
<svg
   xmlns:dc="http://purl.org/dc/elements/1.1/"
   xmlns:cc="http://creativecommons.org/ns#"
   xmlns:rdf="http://www.w3.org/1999/02/22-rdf-syntax-ns#"
   xmlns:svg="http://www.w3.org/2000/svg"
   xmlns="http://www.w3.org/2000/svg"
   id="svg7660"
   height="25.31567"
   width="25.316895"
   version="1.1">
  <defs
     id="defs7662" />
  <metadata
     id="metadata7665">
    <rdf:RDF>
      <cc:Work
         rdf:about="">
        <dc:format>image/svg+xml</dc:format>
        <dc:type
           rdf:resource="http://purl.org/dc/dcmitype/StillImage" />
        <dc:title></dc:title>
      </cc:Work>
    </rdf:RDF>
  </metadata>
  <g
     id="layer1"
     transform="translate(-418.77013,-711.13292)" />
  <path
     d="m 16.809847,22.335372 -8.2398292,0 c -1.2985059,0 -2.3607856,-1.062404 -2.3607856,-2.360832 l 0,-14.6311344 c 0,-1.2984298 1.0622797,-2.360832 2.3607856,-2.360832 l 8.2398292,0 c 1.298507,0 2.36097,1.0624022 2.36097,2.360832 l 0,14.6311344 c 0,1.298428 -1.062463,2.360832 -2.36097,2.360832 z"
     style="fill:none;stroke:#41444c;stroke-width:0.6;stroke-linecap:butt;stroke-linejoin:miter;stroke-miterlimit:10;stroke-dasharray:none;stroke-opacity:1"
     id="path3596" />
  <path
     d="m 18.361844,20.042242 -11.3438594,0 0,-14.7667989 11.3438594,0 0,14.7667989 z"
     style="fill:none;stroke:#41444c;stroke-width:0.6;stroke-linecap:butt;stroke-linejoin:miter;stroke-miterlimit:10;stroke-dasharray:none;stroke-opacity:1"
     id="path3598" />
  <path
     d="M 18.359921,6.9837517 12.706568,12.636774"
     style="fill:none;stroke:#41444c;stroke-width:0.6;stroke-linecap:butt;stroke-linejoin:miter;stroke-miterlimit:10;stroke-dasharray:none;stroke-opacity:1"
     id="path3602" />
  <path
     d="M 18.359921,9.8102446 15.506536,12.663463"
     style="fill:none;stroke:#41444c;stroke-width:0.6;stroke-linecap:butt;stroke-linejoin:miter;stroke-miterlimit:10;stroke-dasharray:none;stroke-opacity:1"
     id="path3606" />
  <path
     d="m 14.078585,4.14994 -2.697381,0"
     style="fill:none;stroke:#41444c;stroke-width:0.6;stroke-linecap:butt;stroke-linejoin:miter;stroke-miterlimit:10;stroke-dasharray:none;stroke-opacity:1"
     id="path3610" />
</svg>
