<?xml version="1.0" encoding="UTF-8" standalone="no"?>
<!-- Created with Inkscape (http://www.inkscape.org/) -->

<svg
   xmlns:dc="http://purl.org/dc/elements/1.1/"
   xmlns:cc="http://creativecommons.org/ns#"
   xmlns:rdf="http://www.w3.org/1999/02/22-rdf-syntax-ns#"
   xmlns:svg="http://www.w3.org/2000/svg"
   xmlns="http://www.w3.org/2000/svg"
   version="1.1"
   width="50.251305"
   height="50.230003"
   id="svg7525">
  <defs
     id="defs7527" />
  <metadata
     id="metadata7530">
    <rdf:RDF>
      <cc:Work
         rdf:about="">
        <dc:format>image/svg+xml</dc:format>
        <dc:type
           rdf:resource="http://purl.org/dc/dcmitype/StillImage" />
        <dc:title></dc:title>
      </cc:Work>
    </rdf:RDF>
  </metadata>
  <g
     transform="translate(-349.87437,-507.24718)"
     id="layer1">
    <path
       d="m 359.03912,515.34478 c -1.58875,10e-4 -2.8825,1.295 -2.88125,2.88375 l 0.0125,21.88375 c 0.001,1.58875 1.29625,2.88125 2.885,2.88 l 31.935,-0.0188 c 1.59,-10e-4 2.88125,-1.295 2.88,-2.88375 l -0.0125,-21.88375 c -10e-4,-1.58875 -1.295,-2.88125 -2.88375,-2.88 z m 31.95125,28.25375 -31.93375,0.0188 c -1.935,10e-4 -3.51,-1.5725 -3.51125,-3.505 l -0.0125,-21.88375 c -10e-4,-1.9325 1.57125,-3.5075 3.50625,-3.50875 l 31.935,-0.0188 c 1.9325,-10e-4 3.5075,1.57125 3.50875,3.505 l 0.0125,21.8825 c 0.001,1.93375 -1.57125,3.50875 -3.505,3.51"
       id="path2986"
       style="fill:#50545c;fill-opacity:1;fill-rule:nonzero;stroke:none" />
    <path
       d="m 380.33811,527.77818 -0.4425,-0.44375 12.31375,-12.32375 0.4425,0.44375 z"
       id="path2990"
       style="fill:#50545c;fill-opacity:1;fill-rule:nonzero;stroke:none" />
    <path
       d="m 394.18136,536.64578 -38.325,0.0225 0,-0.62375 38.325,-0.0238 0,0.625 z"
       id="path2994"
       style="fill:#50545c;fill-opacity:1;fill-rule:nonzero;stroke:none" />
    <path
       d="m 387.35099,527.77408 -0.4425,-0.44375 7.0425,-7.0475 0.44125,0.44375 z"
       id="path2998"
       style="fill:#50545c;fill-opacity:1;fill-rule:nonzero;stroke:none" />
    <path
       d="m 366.19774,550.62178 17.6225,-0.01 -0.001,-0.48375 -3.35,-0.835 -2.08875,-5.6875 -6.75125,0.004 -2.0825,5.69 -3.34875,0.83875 0,0.48375 z m 18.2475,0.61375 -18.8725,0.0112 0,-1.59625 3.5,-0.8775 2.11875,-5.7875 7.625,-0.005 2.12625,5.785 3.50125,0.87375 0.001,1.59625 z"
       id="path3002"
       style="fill:#50545c;fill-opacity:1;fill-rule:nonzero;stroke:none" />
    <path
       d="m 380.70624,549.34158 -5.695,0.004 0,-0.625 5.695,-0.004 z"
       id="path3006"
       style="fill:#50545c;fill-opacity:1;fill-rule:nonzero;stroke:none" />
  </g>
</svg>
