<?xml version="1.0" encoding="UTF-8" standalone="no"?>
<svg
   xmlns:dc="http://purl.org/dc/elements/1.1/"
   xmlns:cc="http://creativecommons.org/ns#"
   xmlns:rdf="http://www.w3.org/1999/02/22-rdf-syntax-ns#"
   xmlns:svg="http://www.w3.org/2000/svg"
   xmlns="http://www.w3.org/2000/svg"
   xmlns:sodipodi="http://sodipodi.sourceforge.net/DTD/sodipodi-0.dtd"
   xmlns:inkscape="http://www.inkscape.org/namespaces/inkscape"
   version="1.1"
   id="svg6212"
   viewBox="0 0 25 25.000001"
   height="25"
   width="25"
   inkscape:version="0.91 r13725"
   sodipodi:docname="icon-sorting.svg">
  <sodipodi:namedview
     pagecolor="#ffffff"
     bordercolor="#666666"
     borderopacity="1"
     objecttolerance="10"
     gridtolerance="10"
     guidetolerance="10"
     inkscape:pageopacity="0"
     inkscape:pageshadow="2"
     inkscape:window-width="640"
     inkscape:window-height="480"
     id="namedview21"
     showgrid="false"
     inkscape:zoom="9.44"
     inkscape:cx="12.5"
     inkscape:cy="12.5"
     inkscape:window-x="335"
     inkscape:window-y="601"
     inkscape:window-maximized="0"
     inkscape:current-layer="svg6212" />
  <defs
     id="defs6214" />
  <metadata
     id="metadata6217">
    <rdf:RDF>
      <cc:Work
         rdf:about="">
        <dc:format>image/svg+xml</dc:format>
        <dc:type
           rdf:resource="http://purl.org/dc/dcmitype/StillImage" />
        <dc:title />
      </cc:Work>
    </rdf:RDF>
  </metadata>
  <g
     transform="translate(-390.48692,-276.60275)"
     id="layer1">
    <text
       style="font-variant:normal;font-weight:500;font-stretch:normal;font-size:7.73562479px;font-family:'Interstate Light';-inkscape-font-specification:Interstate-Light;writing-mode:lr-tb;fill:#c6c5c3;fill-opacity:1;fill-rule:nonzero;stroke:none"
       id="text4136"
       x="411.01959"
       y="283.10007">
      <tspan
         x="410.02179"
         y="292.12753"
         id="tspan4140" />
      <tspan
         id="tspan6274"
         x="410.02179"
         y="292.12753" />
      <tspan
         id="tspan6276"
         x="410.02179"
         y="292.12753" />
      <tspan
         id="tspan6278"
         x="410.02179"
         y="292.12753" />
    </text>
    <g
       id="g6280">
      <path
         id="path4126"
         style="fill:none;stroke:#c6c5c3;stroke-width:0.625;stroke-linecap:butt;stroke-linejoin:miter;stroke-miterlimit:10;stroke-dasharray:none;stroke-opacity:1"
         d="m 398.32022,301.10468 0,-23.14875" />
      <path
         id="path4130"
         style="fill:none;stroke:#c6c5c3;stroke-width:0.625;stroke-linecap:butt;stroke-linejoin:miter;stroke-miterlimit:10;stroke-dasharray:none;stroke-opacity:1"
         d="m 390.70799,285.48056 7.6313,-7.63125 7.6312,7.63125" />
      <path
         id="path4134"
         style="fill:none;stroke:#c6c5c3;stroke-width:0.625;stroke-linecap:butt;stroke-linejoin:miter;stroke-miterlimit:10;stroke-dasharray:none;stroke-opacity:1"
         d="m 405.97039,293.52956 -7.6313,7.63125 -7.6312,-7.63125" />
      <g
         style="font-variant:normal;font-weight:500;font-stretch:normal;font-size:7.73562479px;font-family:'Interstate Light';-inkscape-font-specification:Interstate-Light;writing-mode:lr-tb;fill:#c6c5c3;fill-opacity:1;fill-rule:nonzero;stroke:none"
         id="text6270" />
      <g
         style="font-variant:normal;font-weight:500;font-stretch:normal;font-size:7.73562479px;font-family:'Interstate Light';-inkscape-font-specification:Interstate-Light;writing-mode:lr-tb;fill:#c6c5c3;fill-opacity:1;fill-rule:nonzero;stroke:none"
         id="text6266" />
      <g
         style="font-variant:normal;font-weight:500;font-stretch:normal;font-size:7.73562479px;font-family:'Interstate Light';-inkscape-font-specification:Interstate-Light;writing-mode:lr-tb;fill:#c6c5c3;fill-opacity:1;fill-rule:nonzero;stroke:none"
         id="text4136-9">
        <path
           id="path3353"
           style=""
           d="m 410.70854,283.49161 1.24647,0 0,-4.30219 -1.356,0.27196 0,-0.695 1.34844,-0.27195 0.76299,0 0,4.99718 1.24646,0 0,0.64212 -3.24836,0 0,-0.64212 z m 2.35194,13.55026 q 0.54769,0.1171 0.85364,0.48726 0.30973,0.37016 0.30973,0.91407 0,0.83475 -0.57413,1.29179 -0.57413,0.45704 -1.63173,0.45704 -0.35506,0 -0.73277,-0.0718 -0.37394,-0.068 -0.77432,-0.20774 l 0,-0.73655 q 0.31728,0.18508 0.695,0.27951 0.37771,0.0944 0.78942,0.0944 0.71766,0 1.0916,-0.28329 0.37772,-0.28328 0.37772,-0.82342 0,-0.49858 -0.35128,-0.77809 -0.3475,-0.28329 -0.97073,-0.28329 l -0.65722,0 0,-0.62701 0.68744,0 q 0.5628,0 0.86119,-0.22285 0.2984,-0.22663 0.2984,-0.64967 0,-0.43438 -0.30973,-0.66478 -0.30595,-0.23419 -0.88008,-0.23419 -0.3135,0 -0.67233,0.068 -0.35883,0.068 -0.78943,0.21152 l 0,-0.67989 q 0.43437,-0.12087 0.81209,-0.1813 0.38149,-0.0604 0.71766,-0.0604 0.86875,0 1.37489,0.39661 0.50614,0.39282 0.50614,1.06516 0,0.46836 -0.26818,0.7932 -0.26818,0.32106 -0.76299,0.4457 z m -1.49116,-5.55645 2.6629,0 0,0.64211 -3.58075,0 0,-0.64211 q 0.43438,-0.44949 1.18226,-1.20492 0.75165,-0.75921 0.94429,-0.97828 0.36638,-0.41171 0.50991,-0.695 0.14731,-0.28706 0.14731,-0.5628 0,-0.44948 -0.31728,-0.73277 -0.3135,-0.28328 -0.81964,-0.28328 -0.35883,0 -0.75921,0.12464 -0.39661,0.12465 -0.84986,0.37772 l 0,-0.77054 q 0.46081,-0.18508 0.86119,-0.27951 0.40038,-0.0944 0.73277,-0.0944 0.8763,0 1.39755,0.43815 0.52124,0.43815 0.52124,1.17092 0,0.3475 -0.1322,0.661 -0.12842,0.30973 -0.47214,0.73277 -0.0944,0.10954 -0.60057,0.63456 -0.50614,0.52125 -1.42777,1.46177 z" />
      </g>
    </g>
  </g>
</svg>
