<?xml version="1.0" encoding="UTF-8" standalone="no"?>
<svg
   xmlns:dc="http://purl.org/dc/elements/1.1/"
   xmlns:cc="http://creativecommons.org/ns#"
   xmlns:rdf="http://www.w3.org/1999/02/22-rdf-syntax-ns#"
   xmlns:svg="http://www.w3.org/2000/svg"
   xmlns="http://www.w3.org/2000/svg"
   version="1.1"
   id="svg5334"
   viewBox="0 0 25.3175 25.3175"
   height="7.1451612mm"
   width="7.1451612mm">
  <defs
     id="defs5336" />
  <metadata
     id="metadata5339">
    <rdf:RDF>
      <cc:Work
         rdf:about="">
        <dc:format>image/svg+xml</dc:format>
        <dc:type
           rdf:resource="http://purl.org/dc/dcmitype/StillImage" />
        <dc:title></dc:title>
      </cc:Work>
    </rdf:RDF>
  </metadata>
  <g
     transform="translate(-693.05554,-265.41774)"
     id="layer1">
    <path
       d="m 697.39179,265.73274 c -2.2175,0 -4.02125,1.80375 -4.02125,4.02125 l 0,16.645 c 0,2.21625 1.80375,4.02125 4.02125,4.02125 l 16.64375,0 c 2.21875,0 4.0225,-1.805 4.0225,-4.02125 l 0,-16.645 c 0,-2.2175 -1.80375,-4.02125 -4.0225,-4.02125 l -16.64375,0 z m 16.64375,25.0025 -16.64375,0 c -2.39125,0 -4.33625,-1.94625 -4.33625,-4.33625 l 0,-16.645 c 0,-2.39125 1.945,-4.33625 4.33625,-4.33625 l 16.64375,0 c 2.39125,0 4.3375,1.945 4.3375,4.33625 l 0,16.645 c 0,2.39 -1.94625,4.33625 -4.3375,4.33625"
       style="fill:#343539;fill-opacity:1;fill-rule:nonzero;stroke:none"
       id="path4530" />
    <path
       d="m 714.40242,285.13886 -17.4775,0 0,-0.315 17.4775,0 0,0.315 z"
       style="fill:#343539;fill-opacity:1;fill-rule:nonzero;stroke:none"
       id="path4532" />
    <path
       d="m 707.05217,284.98086 -0.315,0 0,-16.0025 c 0,-0.0613 -0.0425,-0.0875 -0.0625,-0.0962 -0.0187,-0.007 -0.0675,-0.02 -0.1125,0.0188 l -2.03875,1.8425 c -0.0213,0.02 -0.0337,0.0475 -0.0337,0.0775 l 0,14.16 -0.315,0 0,-14.16 c 0,-0.11625 0.0488,-0.22875 0.13625,-0.31 l 2.04,-1.84375 c 0.125,-0.11125 0.29875,-0.14125 0.45125,-0.0725 0.15375,0.0688 0.25,0.215 0.25,0.38375 l 0,16.0025 z"
       style="fill:#343539;fill-opacity:1;fill-rule:nonzero;stroke:none"
       id="path4536" />
    <path
       d="m 701.47817,284.98086 -0.315,0 0,-10.7725 c 0,-0.0625 -0.045,-0.0888 -0.065,-0.0975 -0.02,-0.007 -0.0675,-0.02 -0.1125,0.0238 l -2.04,2.05625 c -0.0187,0.0175 -0.0287,0.0462 -0.0287,0.0738 l 0,8.71625 -0.315,0 0,-8.71625 c 0,-0.11125 0.0425,-0.21625 0.11875,-0.295 l 2.04125,-2.05625 c 0.11875,-0.12125 0.295,-0.15875 0.455,-0.0937 0.15875,0.065 0.26125,0.2175 0.26125,0.38875 l 0,10.7725 z"
       style="fill:#343539;fill-opacity:1;fill-rule:nonzero;stroke:none"
       id="path4540" />
    <path
       d="m 712.80955,284.98086 -0.315,0 0,-6.22375 c 0,-0.0613 -0.0438,-0.0875 -0.0625,-0.0962 -0.0213,-0.007 -0.0675,-0.0213 -0.115,0.0225 l -2.03875,1.97625 c -0.02,0.02 -0.0312,0.0475 -0.0312,0.075 l 0,4.24625 -0.315,0 0,-4.24625 c 0,-0.1125 0.0462,-0.22125 0.1275,-0.30125 l 2.03875,-1.97625 c 0.1225,-0.12125 0.29625,-0.155 0.455,-0.085 0.1575,0.0662 0.25625,0.21375 0.25625,0.385 l 0,6.22375 z"
       style="fill:#343539;fill-opacity:1;fill-rule:nonzero;stroke:none"
       id="path4544" />
  </g>
</svg>
