<?xml version="1.0" encoding="UTF-8" standalone="no"?>
<svg
   xmlns:dc="http://purl.org/dc/elements/1.1/"
   xmlns:cc="http://creativecommons.org/ns#"
   xmlns:rdf="http://www.w3.org/1999/02/22-rdf-syntax-ns#"
   xmlns:svg="http://www.w3.org/2000/svg"
   xmlns="http://www.w3.org/2000/svg"
   version="1.1"
   id="svg4904"
   viewBox="0 0 20 20"
   height="20"
   width="20">
  <defs
     id="defs4906" />
  <metadata
     id="metadata4909">
    <rdf:RDF>
      <cc:Work
         rdf:about="">
        <dc:format>image/svg+xml</dc:format>
        <dc:type
           rdf:resource="http://purl.org/dc/dcmitype/StillImage" />
        <dc:title></dc:title>
      </cc:Work>
    </rdf:RDF>
  </metadata>
  <g
     transform="translate(-343.9868,-375.75335)"
     id="layer1">
    <path
       d="m 349.5717,380.47093 c -2.705,2.70625 -2.705,7.1075 0,9.81375 2.7063,2.705 7.1088,2.705 9.8138,0 2.5037,-2.50375 3.3525,-11.8725 3.4675,-13.29625 -1.4225,0.1175 -10.7775,0.97875 -13.2813,3.4825 m 4.9063,12.155 c -1.8563,0 -3.7138,-0.7075 -5.1275,-2.12125 -2.8263,-2.82625 -2.8263,-7.4275 0,-10.255 2.78,-2.78 13.2175,-3.555 13.6612,-3.58625 l 0.18,-0.0138 -0.014,0.18 c -0.03,0.44375 -0.7925,10.895 -3.5713,13.675 -1.4137,1.41375 -3.2712,2.12125 -5.1287,2.12125"
       style="fill:#83888d;fill-opacity:1;fill-rule:nonzero;stroke:none"
       id="path4070" />
    <path
       d="m 345.1008,394.86055 -0.2212,-0.22125 17.9825,-17.98125 0.22,0.22125 -17.9813,17.98125 z"
       style="fill:#83888d;fill-opacity:1;fill-rule:nonzero;stroke:none"
       id="path4074" />
    <path
       d="m 351.0821,388.78518 -0.3125,0 0,-9.415 0.3125,0 0,9.415 z"
       style="fill:#83888d;fill-opacity:1;fill-rule:nonzero;stroke:none"
       id="path4076" />
    <path
       d="m 360.8821,388.23518 -9.22,0 0,-0.3125 9.22,0 0,0.3125 z"
       style="fill:#83888d;fill-opacity:1;fill-rule:nonzero;stroke:none"
       id="path4078" />
    <path
       d="m 353.0996,386.79643 -0.3125,0 0,-8.28375 0.3125,0 0,8.28375 z"
       style="fill:#83888d;fill-opacity:1;fill-rule:nonzero;stroke:none"
       id="path4080" />
    <path
       d="m 362.1046,383.76018 -5.9675,0 0,-0.3125 5.9675,0 0,0.3125 z"
       style="fill:#83888d;fill-opacity:1;fill-rule:nonzero;stroke:none"
       id="path4082" />
    <path
       d="m 359.5933,380.30268 -0.3125,0 0,-3.10875 0.3125,0 0,3.10875 z"
       style="fill:#83888d;fill-opacity:1;fill-rule:nonzero;stroke:none"
       id="path4084" />
  </g>
</svg>
