<?xml version="1.0" encoding="UTF-8" standalone="no"?>
<!-- Created with Inkscape (http://www.inkscape.org/) -->

<svg
   xmlns:dc="http://purl.org/dc/elements/1.1/"
   xmlns:cc="http://creativecommons.org/ns#"
   xmlns:rdf="http://www.w3.org/1999/02/22-rdf-syntax-ns#"
   xmlns:svg="http://www.w3.org/2000/svg"
   xmlns="http://www.w3.org/2000/svg"
   version="1.1"
   width="25.115"
   height="25.115"
   id="svg7298">
  <defs
     id="defs7300" />
  <metadata
     id="metadata7303">
    <rdf:RDF>
      <cc:Work
         rdf:about="">
        <dc:format>image/svg+xml</dc:format>
        <dc:type
           rdf:resource="http://purl.org/dc/dcmitype/StillImage" />
        <dc:title></dc:title>
      </cc:Work>
    </rdf:RDF>
  </metadata>
  <g
     transform="translate(-362.4425,-519.80468)"
     id="layer1">
    <path
       d="m 371.56801,522.92968 c -1.12,0 -2.03125,0.91125 -2.03125,2.0325 l 0,14.8 c 0,1.12 0.91125,2.0325 2.03125,2.0325 l 6.86375,0 c 1.12,0 2.03125,-0.9125 2.03125,-2.0325 l 0,-14.8 c 0,-1.12125 -0.91125,-2.0325 -2.03125,-2.0325 l -6.86375,0 z m 6.86375,19.1775 -6.86375,0 c -1.2925,0 -2.34375,-1.0525 -2.34375,-2.345 l 0,-14.8 c 0,-1.2925 1.05125,-2.345 2.34375,-2.345 l 6.86375,0 c 1.2925,0 2.34375,1.0525 2.34375,2.345 l 0,14.8 c 0,1.2925 -1.05125,2.345 -2.34375,2.345"
       id="path1296"
       style="fill:#41444c;fill-opacity:1;fill-rule:nonzero;stroke:none" />
    <path
       d="m 370.23763,539.52218 9.525,0 0,-14.32 -9.525,0 0,14.32 z m 9.83625,0.3125 -10.15,0 0,-14.945 10.15,0 0,14.945 z"
       id="path1298"
       style="fill:#41444c;fill-opacity:1;fill-rule:nonzero;stroke:none" />
    <path
       d="m 375.12625,532.45108 -0.22125,-0.2225 5.01,-5.00875 0.22,0.2225 -5.00875,5.00875 z"
       id="path1302"
       style="fill:#41444c;fill-opacity:1;fill-rule:nonzero;stroke:none" />
    <path
       d="m 377.90101,532.47678 -0.22125,-0.22 2.1375,-2.13875 0.22125,0.22 -2.1375,2.13875 z"
       id="path1306"
       style="fill:#41444c;fill-opacity:1;fill-rule:nonzero;stroke:none" />
    <path
       d="m 376.37513,524.08718 -2.6725,0 0,-0.3125 2.6725,0 0,0.3125 z"
       id="path1308"
       style="fill:#41444c;fill-opacity:1;fill-rule:nonzero;stroke:none" />
  </g>
</svg>
