<?xml version="1.0" encoding="UTF-8" standalone="no"?>
<svg
   xmlns:dc="http://purl.org/dc/elements/1.1/"
   xmlns:cc="http://creativecommons.org/ns#"
   xmlns:rdf="http://www.w3.org/1999/02/22-rdf-syntax-ns#"
   xmlns:svg="http://www.w3.org/2000/svg"
   xmlns="http://www.w3.org/2000/svg"
   id="svg7616"
   height="50.23"
   width="50.232498"
   version="1.1">
  <defs
     id="defs7618">
    <pattern
       id="EMFhbasepattern"
       patternUnits="userSpaceOnUse"
       width="6"
       height="6"
       x="0"
       y="0" />
  </defs>
  <metadata
     id="metadata7621">
    <rdf:RDF>
      <cc:Work
         rdf:about="">
        <dc:format>image/svg+xml</dc:format>
        <dc:type
           rdf:resource="http://purl.org/dc/dcmitype/StillImage" />
        <dc:title></dc:title>
      </cc:Work>
    </rdf:RDF>
  </metadata>
  <path
     style="fill:none;stroke:#41444c;stroke-width:0.69849485px;stroke-linecap:butt;stroke-linejoin:miter;stroke-miterlimit:10;stroke-dasharray:none;stroke-opacity:1"
     d="m 42.229359,37.52911 -34.2051073,0 c -0.7408333,0 -1.3546667,-0.613833 -1.3546667,-1.375833 l 0,-22.499969 c 0,-0.762 0.6138334,-1.375833 1.3546667,-1.375833 l 34.2051073,0 c 0.740834,0 1.354667,0.613833 1.354667,1.375833 l 0,22.499969 c 0,0.762 -0.613833,1.375833 -1.354667,1.375833 z"
     id="path3380" />
  <path
     style="fill:none;stroke:#41444c;stroke-width:0.69849485px;stroke-linecap:butt;stroke-linejoin:miter;stroke-miterlimit:10;stroke-dasharray:none;stroke-opacity:1"
     d="m 41.911859,12.150475 -11.8745,11.853248"
     id="path3382" />
  <path
     style="fill:none;stroke:#41444c;stroke-width:0.69849485px;stroke-linecap:butt;stroke-linejoin:miter;stroke-miterlimit:10;stroke-dasharray:none;stroke-opacity:1"
     d="m 43.584026,17.230446 -6.7945,6.773277"
     id="path3384" />
  <path
     style="fill:none;stroke:#41444c;stroke-width:0.69849485px;stroke-linecap:butt;stroke-linejoin:miter;stroke-miterlimit:10;stroke-dasharray:none;stroke-opacity:1"
     d="m 23.793306,37.52911 0.635,2.7305 1.2065,0 0.634971,-2.7305"
     id="path3386" />
  <path
     style="fill:none;stroke:#41444c;stroke-width:0.69849485px;stroke-linecap:butt;stroke-linejoin:miter;stroke-miterlimit:10;stroke-dasharray:none;stroke-opacity:1"
     d="m 43.499359,41.741277 -36.829774,0 0,-1.481667 36.829774,0 0,1.481667 z"
     id="path3388" />
</svg>
