<?xml version="1.0" encoding="UTF-8" standalone="no"?>
<!-- Created with Inkscape (http://www.inkscape.org/) -->

<svg
   xmlns:dc="http://purl.org/dc/elements/1.1/"
   xmlns:cc="http://creativecommons.org/ns#"
   xmlns:rdf="http://www.w3.org/1999/02/22-rdf-syntax-ns#"
   xmlns:svg="http://www.w3.org/2000/svg"
   xmlns="http://www.w3.org/2000/svg"
   version="1.1"
   width="25.316895"
   height="25.31567"
   id="svg7660">
  <defs
     id="defs7662" />
  <metadata
     id="metadata7665">
    <rdf:RDF>
      <cc:Work
         rdf:about="">
        <dc:format>image/svg+xml</dc:format>
        <dc:type
           rdf:resource="http://purl.org/dc/dcmitype/StillImage" />
        <dc:title></dc:title>
      </cc:Work>
    </rdf:RDF>
  </metadata>
  <g
     transform="translate(-418.77013,-711.13292)"
     id="layer1">
    <path
       d="m 423.34945,715.37254 c -0.795,0.01 -1.43375,0.665 -1.42375,1.45875 l 0.13375,10.945 c 0.01,0.795 0.665,1.43375 1.46,1.425 l 15.96625,-0.19625 c 0.79375,-0.01 1.4325,-0.665 1.4225,-1.45875 l -0.13375,-10.945 c -0.01,-0.795 -0.66375,-1.43375 -1.45875,-1.425 l -15.96625,0.19625 z m 16.14,13.945 -15.96625,0.19625 c -0.9675,0.0113 -1.76375,-0.76625 -1.77625,-1.7325 l -0.13375,-10.94625 c -0.0125,-0.96625 0.765,-1.76375 1.7325,-1.775 l 15.96625,-0.19625 c 0.96625,-0.0113 1.7625,0.76625 1.775,1.7325 l 0.13375,10.94625 c 0.0125,0.96625 -0.765,1.76375 -1.73125,1.775"
       id="path3326"
       style="fill:#ffffff;fill-opacity:1;fill-rule:nonzero;stroke:none" />
    <path
       d="m 434.07071,721.46704 -0.22375,-0.22 6.085,-6.235 0.2225,0.21875 -6.08375,6.23625 z"
       id="path3330"
       style="fill:#ffffff;fill-opacity:1;fill-rule:nonzero;stroke:none" />
    <path
       d="m 441.04345,725.82184 -19.16125,0.235 -0.004,-0.3125 19.16125,-0.235 0.004,0.3125 z"
       id="path3334"
       style="fill:#ffffff;fill-opacity:1;fill-rule:nonzero;stroke:none" />
    <path
       d="m 437.57683,721.42424 -0.22375,-0.22 3.48,-3.565 0.22375,0.21875 -3.48,3.56625 z"
       id="path3338"
       style="fill:#ffffff;fill-opacity:1;fill-rule:nonzero;stroke:none" />
    <path
       d="m 427.13421,732.97524 8.81,-0.1075 -0.002,-0.2425 -1.68,-0.3975 -1.0775,-2.8325 -3.375,0.0413 -1.00875,2.8575 -1.66875,0.44 0.002,0.24125 z m 9.12625,0.20125 -9.435,0.115 -0.01,-0.7975 1.745,-0.46 1.02625,-2.9075 3.8125,-0.0462 1.09625,2.88125 1.75625,0.41625 0.009,0.79875 z"
       id="path3342"
       style="fill:#ffffff;fill-opacity:1;fill-rule:nonzero;stroke:none" />
    <path
       d="m 434.38045,732.25034 -2.8475,0.035 -0.004,-0.3125 2.8475,-0.035 0.004,0.3125 z"
       id="path3346"
       style="fill:#ffffff;fill-opacity:1;fill-rule:nonzero;stroke:none" />
  </g>
</svg>
