<?xml version="1.0" encoding="UTF-8" standalone="no"?>
<svg
   xmlns:dc="http://purl.org/dc/elements/1.1/"
   xmlns:cc="http://creativecommons.org/ns#"
   xmlns:rdf="http://www.w3.org/1999/02/22-rdf-syntax-ns#"
   xmlns:svg="http://www.w3.org/2000/svg"
   xmlns="http://www.w3.org/2000/svg"
   id="svg7616"
   height="50.23"
   width="50.232498"
   version="1.1">
  <defs
     id="defs7618" />
  <metadata
     id="metadata7621">
    <rdf:RDF>
      <cc:Work
         rdf:about="">
        <dc:format>image/svg+xml</dc:format>
        <dc:type
           rdf:resource="http://purl.org/dc/dcmitype/StillImage" />
        <dc:title></dc:title>
      </cc:Work>
    </rdf:RDF>
  </metadata>
  <path
     d="m 39.952601,11.534888 0,-5.6187516 -22.568903,0 -6.92526,6.9380256 0,6.887396 1.999628,0.728478 0,4.56428 -1.999628,0.728479 0,18.291356 29.494163,0 0,-17.562878 -1.999628,-1.456957 0,-13.499428 1.999628,0 z"
     style="fill:none;stroke:#41444c;stroke-width:0.72780764;stroke-linecap:butt;stroke-linejoin:miter;stroke-miterlimit:10;stroke-dasharray:none;stroke-opacity:1"
     id="path3730" />
  <path
     d="m 16.66805,39.392677 17.747979,0 0,-20.52159 c 0,-1.637622 -1.325208,-2.965272 -2.959813,-2.965272 l -12.402428,0 c -1.634606,0 -2.959814,1.32765 -2.959814,2.965272 l 0,20.52159 0.574076,0 z"
     style="fill:none;stroke:#41444c;stroke-width:0.72780764;stroke-linecap:butt;stroke-linejoin:miter;stroke-miterlimit:10;stroke-dasharray:none;stroke-opacity:1"
     id="path3734" />
  <path
     d="m 39.952601,27.128604 0,-8.437599 -1.999628,-2.003313"
     style="fill:none;stroke:#41444c;stroke-width:0.72780764;stroke-linecap:butt;stroke-linejoin:miter;stroke-miterlimit:10;stroke-dasharray:none;stroke-opacity:1"
     id="path3738" />
  <path
     d="m 25.203629,12.263366 12.749272,0"
     style="fill:none;stroke:#41444c;stroke-width:0.72780764;stroke-linecap:butt;stroke-linejoin:miter;stroke-miterlimit:10;stroke-dasharray:none;stroke-opacity:1"
     id="path3742" />
</svg>
