<?xml version="1.0" encoding="UTF-8" standalone="no"?>
<svg
   xmlns:dc="http://purl.org/dc/elements/1.1/"
   xmlns:cc="http://creativecommons.org/ns#"
   xmlns:rdf="http://www.w3.org/1999/02/22-rdf-syntax-ns#"
   xmlns:svg="http://www.w3.org/2000/svg"
   xmlns="http://www.w3.org/2000/svg"
   version="1.1"
   width="25.316895"
   height="25.31567"
   id="svg7660">
  <defs
     id="defs7662" />
  <metadata
     id="metadata7665">
    <rdf:RDF>
      <cc:Work
         rdf:about="">
        <dc:format>image/svg+xml</dc:format>
        <dc:type
           rdf:resource="http://purl.org/dc/dcmitype/StillImage" />
        <dc:title></dc:title>
      </cc:Work>
    </rdf:RDF>
  </metadata>
  <g
     transform="translate(-418.77013,-711.13292)"
     id="layer1" />
  <path
     d="m 11.100352,12.640431 c 0,-0.883915 0.714579,-1.600532 1.595978,-1.600532 0.8814,0 1.595978,0.716617 1.595978,1.600532 0,0.883914 -0.714578,1.600532 -1.595978,1.600532 -0.881399,0 -1.595978,-0.716618 -1.595978,-1.600532 z"
     style="fill:none;stroke:#41444c;stroke-width:0.6;stroke-linecap:butt;stroke-linejoin:miter;stroke-miterlimit:10;stroke-dasharray:none;stroke-opacity:1"
     id="path3750" />
  <path
     d="m 5.1648269,12.640431 c 0,-0.883915 0.7145783,-1.600532 1.5959777,-1.600532 0.8813996,0 1.5959774,0.716617 1.5959774,1.600532 0,0.883914 -0.7145778,1.600532 -1.5959774,1.600532 -0.8813994,0 -1.5959777,-0.716618 -1.5959777,-1.600532 z"
     style="fill:none;stroke:#41444c;stroke-width:0.6;stroke-linecap:butt;stroke-linejoin:miter;stroke-miterlimit:10;stroke-dasharray:none;stroke-opacity:1"
     id="path3754" />
  <path
     d="m 17.035897,12.640431 c 0,-0.883915 0.714578,-1.600532 1.595978,-1.600532 0.881399,0 1.595977,0.716617 1.595977,1.600532 0,0.883914 -0.714578,1.600532 -1.595977,1.600532 -0.8814,0 -1.595978,-0.716618 -1.595978,-1.600532 z"
     style="fill:none;stroke:#41444c;stroke-width:0.6;stroke-linecap:butt;stroke-linejoin:miter;stroke-miterlimit:10;stroke-dasharray:none;stroke-opacity:1"
     id="path3758" />
</svg>
