<?xml version="1.0" encoding="UTF-8" standalone="no"?>
<!-- Created with Inkscape (http://www.inkscape.org/) -->

<svg
   xmlns:dc="http://purl.org/dc/elements/1.1/"
   xmlns:cc="http://creativecommons.org/ns#"
   xmlns:rdf="http://www.w3.org/1999/02/22-rdf-syntax-ns#"
   xmlns:svg="http://www.w3.org/2000/svg"
   xmlns="http://www.w3.org/2000/svg"
   version="1.1"
   width="25.115"
   height="25.115"
   id="svg6884">
  <defs
     id="defs6886" />
  <metadata
     id="metadata6889">
    <rdf:RDF>
      <cc:Work
         rdf:about="">
        <dc:format>image/svg+xml</dc:format>
        <dc:type
           rdf:resource="http://purl.org/dc/dcmitype/StillImage" />
        <dc:title></dc:title>
      </cc:Work>
    </rdf:RDF>
  </metadata>
  <g
     transform="translate(-136.01393,-768.37611)"
     id="layer1">
    <path
       d="m 144.80318,773.04411 c -1.0625,0 -2.12375,0.40375 -2.9325,1.21375 -1.6175,1.61625 -1.6175,4.2475 0,5.86375 0.745,0.74625 1.735,1.1775 2.79,1.21375 l 0.0625,0.002 3.43375,3.4525 0.002,0.0613 c 0.04,1.04625 0.47125,2.03 1.21125,2.7725 1.6175,1.61375 4.24875,1.615 5.86625,-10e-4 0.7825,-0.7825 1.21375,-1.825 1.21375,-2.9325 0,-1.1075 -0.43125,-2.14875 -1.21375,-2.93125 l -7.50125,-7.5012 c -0.80875,-0.81 -1.87,-1.21375 -2.9325,-1.21375 m 7.5,16.10375 c -1.14125,0 -2.28375,-0.435 -3.1525,-1.3025 -0.7825,-0.78375 -1.24375,-1.8175 -1.3,-2.92 l -3.2625,-3.28 c -1.11125,-0.0538 -2.1525,-0.515 -2.93875,-1.3025 -0.8425,-0.8425 -1.30625,-1.96125 -1.30625,-3.15375 0,-1.19125 0.46375,-2.31 1.30625,-3.15375 0.8425,-0.8425 1.9625,-1.30625 3.15375,-1.30625 1.19125,0 2.31125,0.46375 3.15375,1.30625 l 7.5,7.50125 c 0.8425,0.8425 1.30625,1.9625 1.30625,3.15375 0,1.1925 -0.46375,2.31125 -1.30625,3.15375 -0.86875,0.86875 -2.01125,1.30375 -3.15375,1.30375"
       id="path1232"
       style="fill:#41444c;fill-opacity:1;fill-rule:nonzero;stroke:none" />
    <path
       d="m 153.69844,782.99281 c -0.13875,0 -0.27875,0.0538 -0.385,0.16 -0.10375,0.1025 -0.16,0.23875 -0.16,0.385 0,0.145 0.0563,0.28125 0.16,0.38375 0.205,0.20625 0.56375,0.2075 0.77125,10e-4 0.1025,-0.10375 0.16,-0.24 0.16,-0.385 0,-0.14625 -0.0575,-0.2825 -0.16,-0.385 -0.10625,-0.10625 -0.24625,-0.16 -0.38625,-0.16 m 0,1.4025 c -0.22875,0 -0.44375,-0.09 -0.60625,-0.2525 -0.16125,-0.16125 -0.25125,-0.37625 -0.25125,-0.605 0,-0.23 0.09,-0.445 0.25125,-0.6075 0.335,-0.3325 0.87875,-0.33 1.2125,0 0.1625,0.1625 0.2525,0.3775 0.2525,0.6075 0,0.22875 -0.09,0.44375 -0.2525,0.60625 -0.16125,0.16125 -0.37625,0.25125 -0.60625,0.25125"
       id="path1236"
       style="fill:#41444c;fill-opacity:1;fill-rule:nonzero;stroke:none" />
    <path
       d="m 150.95606,785.73451 c -0.145,0 -0.2825,0.0575 -0.385,0.16 l 0,10e-4 c -0.10375,0.1025 -0.16,0.23875 -0.16,0.385 0,0.145 0.0563,0.28125 0.16,0.38375 0.21125,0.2125 0.5575,0.2125 0.77125,0 0.1025,-0.1025 0.16,-0.23875 0.16,-0.38375 0,-0.14625 -0.0575,-0.2825 -0.16,-0.385 -0.10375,-0.10375 -0.24,-0.16125 -0.38625,-0.16125 m 0,1.4025 c -0.21875,0 -0.43875,-0.0838 -0.60625,-0.25 -0.16125,-0.1625 -0.25125,-0.3775 -0.25125,-0.60625 0,-0.23 0.0888,-0.445 0.25125,-0.60625 0.32375,-0.32625 0.89,-0.32375 1.2125,0 0.1625,0.16125 0.2525,0.37625 0.2525,0.60625 0,0.22875 -0.09,0.44375 -0.2525,0.60625 -0.16625,0.16625 -0.38625,0.25 -0.60625,0.25"
       id="path1240"
       style="fill:#41444c;fill-opacity:1;fill-rule:nonzero;stroke:none" />
    <path
       d="m 150.95668,782.99281 c -0.14,0 -0.28,0.0538 -0.38625,0.16 -0.1025,0.1025 -0.16,0.23875 -0.16,0.385 0,0.145 0.0575,0.28125 0.16,0.38375 l 0,10e-4 c 0.20625,0.20625 0.56625,0.20375 0.77125,0 0.10375,-0.10375 0.16,-0.24 0.16,-0.385 0,-0.14625 -0.0563,-0.2825 -0.16,-0.385 -0.10625,-0.10625 -0.24625,-0.16 -0.385,-0.16 m 0,1.4025 c -0.23,0 -0.44375,-0.0888 -0.60625,-0.25125 l 0,-10e-4 c -0.1625,-0.16125 -0.2525,-0.37625 -0.2525,-0.605 0,-0.23 0.09,-0.445 0.2525,-0.6075 0.33375,-0.33 0.8775,-0.3325 1.2125,0 0.16125,0.1625 0.25125,0.3775 0.25125,0.6075 0,0.22875 -0.09,0.44375 -0.25125,0.60625 -0.1625,0.16125 -0.3775,0.25125 -0.60625,0.25125"
       id="path1244"
       style="fill:#41444c;fill-opacity:1;fill-rule:nonzero;stroke:none" />
    <path
       d="m 153.69906,785.73451 c -0.14625,0 -0.2825,0.0575 -0.38625,0.16 -0.1025,0.10375 -0.16,0.24 -0.16,0.38625 0,0.145 0.0575,0.28125 0.16,0.38375 0.21375,0.2125 0.56,0.2125 0.77125,0 0.10375,-0.1025 0.16,-0.23875 0.16,-0.38375 0,-0.14625 -0.0562,-0.2825 -0.16,-0.385 -0.1025,-0.10375 -0.24,-0.16125 -0.385,-0.16125 m 0,1.4025 c -0.22,0 -0.44,-0.0838 -0.60625,-0.25 -0.1625,-0.1625 -0.2525,-0.3775 -0.2525,-0.60625 0,-0.23 0.09,-0.445 0.2525,-0.6075 0.3225,-0.32125 0.88875,-0.325 1.2125,10e-4 0.16125,0.16125 0.25125,0.37625 0.25125,0.60625 0,0.22875 -0.09,0.44375 -0.25125,0.60625 -0.1675,0.16625 -0.3875,0.25 -0.60625,0.25"
       id="path1248"
       style="fill:#41444c;fill-opacity:1;fill-rule:nonzero;stroke:none" />
    <path
       d="m 144.30143,777.40681 0.87625,0.875 c 0.14375,0.145 0.38,0.1425 0.52375,0 0.14375,-0.14375 0.14375,-0.38 0,-0.525 l -0.87625,-0.875 0.87625,-0.87625 c 0.07,-0.07 0.10875,-0.1625 0.10875,-0.26125 0,-0.0987 -0.0387,-0.19125 -0.10875,-0.26125 -0.14,-0.14 -0.38375,-0.13875 -0.52375,-10e-4 l -0.87625,0.87625 -0.87625,-0.875 c -0.14,-0.14125 -0.38375,-0.14 -0.52375,-10e-4 -0.07,0.0712 -0.10875,0.16375 -0.10875,0.2625 0,0.0987 0.0388,0.19125 0.10875,0.26125 l 0.87625,0.87625 -0.87625,0.87625 c -0.07,0.0712 -0.10875,0.16375 -0.10875,0.2625 0,0.0987 0.0388,0.1925 0.10875,0.2625 0.14375,0.14125 0.38,0.1425 0.52375,-10e-4 l 0.87625,-0.875 z m 1.1375,1.29625 c -0.17375,0 -0.35,-0.0675 -0.4825,-0.19875 l -0.655,-0.655 -0.655,0.655 c -0.26625,0.26375 -0.7,0.26375 -0.96625,0 -0.12875,-0.13125 -0.2,-0.30125 -0.2,-0.48375 0,-0.1825 0.0713,-0.35375 0.2,-0.48375 l 0.655,-0.655 -0.655,-0.65375 c -0.12875,-0.13 -0.2,-0.30125 -0.2,-0.48375 0,-0.18375 0.0713,-0.35375 0.2,-0.48375 0.2575,-0.25625 0.70875,-0.2575 0.96625,10e-4 l 0.655,0.655 0.655,-0.65625 c 0.2575,-0.255 0.70875,-0.25625 0.96625,10e-4 0.12875,0.12875 0.2,0.29875 0.2,0.4825 0,0.1825 -0.0712,0.35375 -0.2,0.48375 l -0.655,0.65375 0.655,0.655 c 0.26625,0.26625 0.26625,0.7 0,0.96625 -0.13375,0.1325 -0.30875,0.2 -0.48375,0.2"
       id="path1252"
       style="fill:#41444c;fill-opacity:1;fill-rule:nonzero;stroke:none" />
    <path
       d="m 151.70256,778.00371 -0.22125,-0.2225 8.0375,-7.9925 0.22125,0.22125 -8.0375,7.99375 z"
       id="path1256"
       style="fill:#41444c;fill-opacity:1;fill-rule:nonzero;stroke:none" />
  </g>
</svg>
