<?xml version="1.0" encoding="UTF-8" standalone="no"?>
<svg
   xmlns:dc="http://purl.org/dc/elements/1.1/"
   xmlns:cc="http://creativecommons.org/ns#"
   xmlns:rdf="http://www.w3.org/1999/02/22-rdf-syntax-ns#"
   xmlns:svg="http://www.w3.org/2000/svg"
   xmlns="http://www.w3.org/2000/svg"
   version="1.1"
   width="25.316895"
   height="25.31567"
   id="svg7660">
  <defs
     id="defs7662" />
  <metadata
     id="metadata7665">
    <rdf:RDF>
      <cc:Work
         rdf:about="">
        <dc:format>image/svg+xml</dc:format>
        <dc:type
           rdf:resource="http://purl.org/dc/dcmitype/StillImage" />
        <dc:title></dc:title>
      </cc:Work>
    </rdf:RDF>
  </metadata>
  <g
     transform="translate(-418.77013,-711.13292)"
     id="layer1" />
  <path
     d="m 20.161868,5.8053714 0,-2.8425398 -11.4237571,0 -3.5053762,3.5099635 0,3.4843501 1.0121571,0.3685388 0,2.309079 -1.0121571,0.368539 0,9.253642 14.9291333,0 0,-8.885103 -1.012159,-0.737078 0,-6.8293916 1.012159,0 z"
     style="fill:none;stroke:#41444c;stroke-width:0.6;stroke-linecap:butt;stroke-linejoin:miter;stroke-miterlimit:10;stroke-dasharray:none;stroke-opacity:1"
     id="path3730" />
  <path
     d="m 8.3758692,19.898693 8.9835368,0 0,-10.3819221 c 0,-0.8284752 -0.670784,-1.5001372 -1.498176,-1.5001372 l -6.2777654,0 c -0.8273927,0 -1.498177,0.671662 -1.498177,1.5001372 l 0,10.3819221 0.2905816,0 z"
     style="fill:none;stroke:#41444c;stroke-width:0.6;stroke-linecap:butt;stroke-linejoin:miter;stroke-miterlimit:10;stroke-dasharray:none;stroke-opacity:1"
     id="path3734" />
  <path
     d="m 20.161868,13.694268 0,-4.2685999 -1.012159,-1.0134818"
     style="fill:none;stroke:#41444c;stroke-width:0.6;stroke-linecap:butt;stroke-linejoin:miter;stroke-miterlimit:10;stroke-dasharray:none;stroke-opacity:1"
     id="path3738" />
  <path
     d="m 12.696345,6.1739103 6.453328,0"
     style="fill:none;stroke:#41444c;stroke-width:0.6;stroke-linecap:butt;stroke-linejoin:miter;stroke-miterlimit:10;stroke-dasharray:none;stroke-opacity:1"
     id="path3742" />
</svg>
