<?xml version="1.0" encoding="UTF-8" standalone="no"?>
<!-- Created with Inkscape (http://www.inkscape.org/) -->

<svg
   xmlns:dc="http://purl.org/dc/elements/1.1/"
   xmlns:cc="http://creativecommons.org/ns#"
   xmlns:rdf="http://www.w3.org/1999/02/22-rdf-syntax-ns#"
   xmlns:svg="http://www.w3.org/2000/svg"
   xmlns="http://www.w3.org/2000/svg"
   version="1.1"
   width="25.115"
   height="25.115"
   id="svg7210">
  <defs
     id="defs7212" />
  <metadata
     id="metadata7215">
    <rdf:RDF>
      <cc:Work
         rdf:about="">
        <dc:format>image/svg+xml</dc:format>
        <dc:type
           rdf:resource="http://purl.org/dc/dcmitype/StillImage" />
        <dc:title></dc:title>
      </cc:Work>
    </rdf:RDF>
  </metadata>
  <g
     transform="translate(-240.52205,-908.29146)"
     id="layer1">
    <path
       d="m 245.19143,927.44246 15.8975,0 0,-8.8663 -15.8975,0 0,8.8663 z m 16.21,0.3125 -16.5225,0 0,-9.4913 16.5225,0 0,9.4913 z"
       id="path1812"
       style="fill:#41444c;fill-opacity:1;fill-rule:nonzero;stroke:none" />
    <path
       d="m 259.62268,926.27246 -12.965,0 0,-0.3125 12.965,0 0,0.3125 z"
       id="path1814"
       style="fill:#41444c;fill-opacity:1;fill-rule:nonzero;stroke:none" />
    <path
       d="m 261.24518,920.89496 -8.23875,0 0,-0.3125 8.23875,0 0,0.3125 z"
       id="path1816"
       style="fill:#41444c;fill-opacity:1;fill-rule:nonzero;stroke:none" />
    <path
       d="m 259.77943,927.69206 -0.3125,0 0,-3.0962 c 0,-0.8213 -0.66875,-1.49 -1.49125,-1.49 l -9.67,0 c -0.8225,0 -1.49125,0.6687 -1.49125,1.49 l 0,3.0962 -0.3125,0 0,-3.0962 c 0,-0.9925 0.80875,-1.8025 1.80375,-1.8025 l 9.67,0 c 0.995,0 1.80375,0.81 1.80375,1.8025 l 0,3.0962 z"
       id="path1820"
       style="fill:#41444c;fill-opacity:1;fill-rule:nonzero;stroke:none" />
    <path
       d="m 249.99055,913.72846 0,1.8 -1.8,0 -0.22125,0.2213 0,0.091 2.33375,0 0,-2.3338 -0.0913,0 -0.22125,0.2213 z"
       id="path1824"
       style="fill:#41444c;fill-opacity:1;fill-rule:nonzero;stroke:none" />
    <path
       d="m 250.30305,913.19486 0,0.3125 7.88875,0 0,4.7563 -10.2225,0 0,-2.4225 -0.3125,0 0,2.735 10.8475,0 0,-5.3813 -8.20125,0 z"
       id="path1832"
       style="fill:#41444c;fill-opacity:1;fill-rule:nonzero;stroke:none" />
    <path
       d="m 247.96906,915.74996 0.22125,-0.2212 1.8,-1.8 0.22125,-0.2213 0.0913,0 0,-0.3125 -0.22125,0 -2.425,2.425 0,0.2213 0.3125,0 0,-0.091 z"
       id="path1836"
       style="fill:#41444c;fill-opacity:1;fill-rule:nonzero;stroke:none" />
  </g>
</svg>
