<?xml version="1.0" encoding="UTF-8" standalone="no"?>
<svg
   xmlns:dc="http://purl.org/dc/elements/1.1/"
   xmlns:cc="http://creativecommons.org/ns#"
   xmlns:rdf="http://www.w3.org/1999/02/22-rdf-syntax-ns#"
   xmlns:svg="http://www.w3.org/2000/svg"
   xmlns="http://www.w3.org/2000/svg"
   id="svg7660"
   height="25.31567"
   width="25.316895"
   version="1.1">
  <defs
     id="defs7662" />
  <metadata
     id="metadata7665">
    <rdf:RDF>
      <cc:Work
         rdf:about="">
        <dc:format>image/svg+xml</dc:format>
        <dc:type
           rdf:resource="http://purl.org/dc/dcmitype/StillImage" />
        <dc:title></dc:title>
      </cc:Work>
    </rdf:RDF>
  </metadata>
  <g
     id="layer1"
     transform="translate(-418.77013,-711.13292)" />
  <path
     d="m 21.664559,19.395174 -17.2012093,0 c -0.3764473,0 -0.6842079,-0.310686 -0.6842079,-0.690315 l 0,-11.430213 c 0,-0.379628 0.3077606,-0.6903146 0.6842079,-0.6903146 l 17.2012093,0 c 0.376269,0 0.684208,0.3106866 0.684208,0.6903146 l 0,11.430213 c 0,0.379629 -0.307939,0.690315 -0.684208,0.690315 z"
     style="fill:none;stroke:#41444c;stroke-width:0.6;stroke-linecap:butt;stroke-linejoin:miter;stroke-miterlimit:10;stroke-dasharray:none;stroke-opacity:1"
     id="path4036" />
  <path
     d="M 21.506756,6.5123954 15.53649,12.53595"
     style="fill:none;stroke:#41444c;stroke-width:0.6;stroke-linecap:butt;stroke-linejoin:miter;stroke-miterlimit:10;stroke-dasharray:none;stroke-opacity:1"
     id="path4040" />
  <path
     d="M 22.348821,9.0915326 18.934882,12.535942"
     style="fill:none;stroke:#41444c;stroke-width:0.6;stroke-linecap:butt;stroke-linejoin:miter;stroke-miterlimit:10;stroke-dasharray:none;stroke-opacity:1"
     id="path4044" />
  <path
     d="m 12.397337,19.395174 0.317699,1.389403 0.606647,0 0.317877,-1.389403"
     style="fill:none;stroke:#41444c;stroke-width:0.6;stroke-linecap:butt;stroke-linejoin:miter;stroke-miterlimit:10;stroke-dasharray:none;stroke-opacity:1"
     id="path4048" />
  <path
     d="m 22.311246,21.541721 -18.5321751,0 0,-0.757108 18.5321751,0 0,0.757108 z"
     style="fill:none;stroke:#41444c;stroke-width:0.6;stroke-linecap:butt;stroke-linejoin:miter;stroke-miterlimit:10;stroke-dasharray:none;stroke-opacity:1"
     id="path4050" />
</svg>
