<?xml version="1.0" encoding="UTF-8" standalone="no"?>
<!-- Created with Inkscape (http://www.inkscape.org/) -->

<svg
   xmlns:dc="http://purl.org/dc/elements/1.1/"
   xmlns:cc="http://creativecommons.org/ns#"
   xmlns:rdf="http://www.w3.org/1999/02/22-rdf-syntax-ns#"
   xmlns:svg="http://www.w3.org/2000/svg"
   xmlns="http://www.w3.org/2000/svg"
   version="1.1"
   width="50.232498"
   height="50.23"
   id="svg7483">
  <defs
     id="defs7485" />
  <metadata
     id="metadata7488">
    <rdf:RDF>
      <cc:Work
         rdf:about="">
        <dc:format>image/svg+xml</dc:format>
        <dc:type
           rdf:resource="http://purl.org/dc/dcmitype/StillImage" />
        <dc:title></dc:title>
      </cc:Work>
    </rdf:RDF>
  </metadata>
  <g
     transform="translate(-349.88375,-507.24718)"
     id="layer1">
    <path
       d="m 393.63275,543.27738 -0.625,0 0,-22.85375 c 0,-1.4775 -1.17625,-2.68125 -2.6225,-2.68125 l -30.52625,0 c -1.445,0 -2.62125,1.20375 -2.62125,2.68125 l 0,22.85375 -0.625,0 0,-22.85375 c 0,-1.82375 1.45625,-3.30625 3.24625,-3.30625 l 30.52625,0 c 1.79125,0 3.2475,1.4825 3.2475,3.30625 z"
       id="path2964"
       style="fill:#50545c;fill-opacity:1;fill-rule:nonzero;stroke:none" />
    <path
       d="m 375.41862,532.54268 -0.44375,-0.44 12.71875,-12.8775 0.445,0.43875 z"
       id="path2968"
       style="fill:#50545c;fill-opacity:1;fill-rule:nonzero;stroke:none" />
    <path
       d="m 381.05338,532.54498 -0.4425,-0.44375 10.56125,-10.56 0.44125,0.445 z"
       id="path2972"
       style="fill:#50545c;fill-opacity:1;fill-rule:nonzero;stroke:none" />
    <path
       d="m 359.226,541.15363 31.79375,0 0,-21.39625 -31.79375,0 z m 32.41875,0.625 -33.04375,0 0,-22.64625 33.04375,0 z"
       id="path2974"
       style="fill:#50545c;fill-opacity:1;fill-rule:nonzero;stroke:none" />
    <path
       d="m 354.74963,543.74128 c 0.6625,1.11375 1.865,1.80875 3.1825,1.80875 l 34.38,0 c 1.3175,0 2.52,-0.695 3.18375,-1.80875 z m 37.5625,2.43375 -34.38,0 c -1.7325,0 -3.29375,-1.03 -3.97875,-2.62125 l -0.1875,-0.4375 42.71375,0 -0.18875,0.4375 c -0.68375,1.59125 -2.245,2.62125 -3.97875,2.62125"
       id="path2978"
       style="fill:#50545c;fill-opacity:1;fill-rule:nonzero;stroke:none" />
  </g>
</svg>
