<?xml version="1.0" encoding="utf-8"?>
<!-- Generator: Adobe Illustrator 16.0.0, SVG Export Plug-In . SVG Version: 6.00 Build 0)  -->
<!DOCTYPE svg PUBLIC "-//W3C//DTD SVG 1.1//EN" "http://www.w3.org/Graphics/SVG/1.1/DTD/svg11.dtd">
<svg version="1.1" id="Layer_1" xmlns="http://www.w3.org/2000/svg" xmlns:xlink="http://www.w3.org/1999/xlink" x="0px" y="0px"
	 width="137.426px" height="137.424px" viewBox="0 0 137.426 137.424" enable-background="new 0 0 137.426 137.424"
	 xml:space="preserve">
<path fill="none" stroke="#474B52" stroke-width="2" stroke-miterlimit="10" d="M1,113.79V23.635C1,11.186,11.186,1,23.635,1h90.155
	c12.449,0,22.636,10.186,22.636,22.635v90.155c0,12.449-10.187,22.635-22.636,22.635H23.635C11.186,136.424,1,126.239,1,113.79z"/>
<path fill="none" stroke="#474B52" stroke-width="2" stroke-miterlimit="10" d="M19.368,98.509V36.123
	c0-4.496,3.604-8.175,8.01-8.175h83.338c4.406,0,8.011,3.679,8.011,8.175v62.386"/>
<line fill="none" stroke="#474B52" stroke-width="2" stroke-miterlimit="10" x1="103.975" y1="33.446" x2="69.25" y2="68.608"/>
<line fill="none" stroke="#474B52" stroke-width="2" stroke-miterlimit="10" x1="113.467" y1="39.777" x2="84.635" y2="68.608"/>
<rect x="24.796" y="33.446" fill="none" stroke="#474B52" stroke-width="2" stroke-miterlimit="10" width="88.503" height="60.12"/>
<path fill="none" stroke="#474B52" stroke-width="2" stroke-miterlimit="10" d="M115.977,105.567H22.119
	c-4.386,0-8.35-2.613-10.078-6.646h114.013C124.326,102.954,120.362,105.567,115.977,105.567z"/>
</svg>
