<?xml version="1.0" encoding="utf-8"?>
<!-- Generator: Adobe Illustrator 16.0.0, SVG Export Plug-In . SVG Version: 6.00 Build 0)  -->
<!DOCTYPE svg PUBLIC "-//W3C//DTD SVG 1.1//EN" "http://www.w3.org/Graphics/SVG/1.1/DTD/svg11.dtd">
<svg version="1.1" id="Layer_1" xmlns="http://www.w3.org/2000/svg" xmlns:xlink="http://www.w3.org/1999/xlink" x="0px" y="0px"
	 width="137.426px" height="137.424px" viewBox="0 0 137.426 137.424" enable-background="new 0 0 137.426 137.424"
	 xml:space="preserve">
<line fill="none" stroke="#474B52" stroke-width="2" stroke-miterlimit="10" x1="16.365" y1="105.579" x2="121.071" y2="105.579"/>
<polygon fill="none" stroke="#474B52" stroke-width="2" stroke-miterlimit="10" points="31.67,51.976 44.059,43.445 44.059,105.579 
	31.67,105.579 "/>
<polygon fill="none" stroke="#474B52" stroke-width="2" stroke-miterlimit="10" points="62.523,24.976 74.914,16.445 
	74.914,105.579 62.523,105.579 "/>
<polygon fill="none" stroke="#474B52" stroke-width="2" stroke-miterlimit="10" points="93.299,76.976 105.688,68.445 
	105.688,105.579 93.299,105.579 "/>
<path fill="none" stroke="#474B52" stroke-width="2" stroke-miterlimit="10" d="M1,113.79V23.635C1,11.186,11.187,1,23.635,1h90.155
	c12.45,0,22.636,10.186,22.636,22.635v90.155c0,12.449-10.186,22.635-22.636,22.635H23.635C11.187,136.424,1,126.239,1,113.79z"/>
</svg>
