<?xml version="1.0" encoding="UTF-8" standalone="no"?>
<svg
   xmlns:dc="http://purl.org/dc/elements/1.1/"
   xmlns:cc="http://creativecommons.org/ns#"
   xmlns:rdf="http://www.w3.org/1999/02/22-rdf-syntax-ns#"
   xmlns:svg="http://www.w3.org/2000/svg"
   xmlns="http://www.w3.org/2000/svg"
   version="1.1"
   id="svg3560"
   viewBox="0 0 29.282501 29.281251"
   height="8.2638197mm"
   width="8.2641726mm">
  <defs
     id="defs3562" />
  <metadata
     id="metadata3565">
    <rdf:RDF>
      <cc:Work
         rdf:about="">
        <dc:format>image/svg+xml</dc:format>
        <dc:type
           rdf:resource="http://purl.org/dc/dcmitype/StillImage" />
        <dc:title></dc:title>
      </cc:Work>
    </rdf:RDF>
  </metadata>
  <g
     transform="translate(-265.35875,-583.43587)"
     id="layer1">
    <path
       d="m 289.414,604.32212 c -2.03125,3.03375 -5.48875,5.03 -9.4125,5.03 -3.9075,0 -7.3525,-1.98 -9.3875,-4.99125 l 4.3425,-4.345 c 0.79125,2.01125 2.75125,3.435 5.045,3.435 2.24375,0 4.17,-1.36375 4.9925,-3.30875 0.0175,-0.0425 0.035,-0.0838 0.0512,-0.12625 l 4.36875,4.30625 z m -16.99425,-9.9655 c 0,-4.1875 3.39375,-7.58125 7.58125,-7.58125 4.18625,0 7.58125,3.39375 7.58125,7.58125 0,4.1875 -3.395,7.58125 -7.58125,7.58125 -4.1875,0 -7.58125,-3.39375 -7.58125,-7.58125 z"
       style="fill:none;stroke:#41444c;stroke-width:0.375;stroke-linecap:butt;stroke-linejoin:miter;stroke-miterlimit:10;stroke-dasharray:none;stroke-opacity:1"
       id="path3472" />
  </g>
</svg>
