<?xml version="1.0" encoding="utf-8"?>
<!-- Generator: Adobe Illustrator 16.0.0, SVG Export Plug-In . SVG Version: 6.00 Build 0)  -->
<!DOCTYPE svg PUBLIC "-//W3C//DTD SVG 1.1//EN" "http://www.w3.org/Graphics/SVG/1.1/DTD/svg11.dtd">
<svg version="1.1" id="Layer_1" xmlns="http://www.w3.org/2000/svg" xmlns:xlink="http://www.w3.org/1999/xlink" x="0px" y="0px"
	 width="24.543px" height="24.543px" viewBox="0 0 24.543 24.543" enable-background="new 0 0 24.543 24.543" xml:space="preserve">
<path fill="#FFC10E" d="M0,20.441V4.102C0,1.846,1.846,0,4.102,0h16.339c2.257,0,4.103,1.846,4.103,4.102v16.339
	c0,2.257-1.846,4.103-4.103,4.103H4.102C1.846,24.543,0,22.698,0,20.441"/>
<path fill="#595B60" d="M10.483,14.629h2.754c1.891-2.517,1.862-5.298,1.723-6.542h-3.233C11.826,9.332,11.847,12.113,10.483,14.629
	"/>
<path fill="#595B60" d="M15.073,14.629h3.131c2.84-2.517,2.795-5.298,2.588-6.542h-3.676C17.28,9.332,17.315,12.113,15.073,14.629"
	/>
<path fill="#595B60" d="M9.819,8.087H7.135c0.045,1.245,0.055,4.025-0.561,6.542h2.285C9.912,12.112,9.896,9.333,9.819,8.087"/>
<path fill="#595B60" d="M3.351,19.337c6.985-0.584,11.223-2.107,13.783-3.875h-2.904C12.208,17.23,8.864,18.753,3.351,19.337"/>
<path fill="#595B60" d="M8.462,15.462H6.341c-0.555,1.768-1.475,3.291-2.991,3.875C5.941,18.753,7.513,17.23,8.462,15.462"/>
<path fill="#595B60" d="M12.525,15.462H9.969C8.74,17.23,6.705,18.753,3.35,19.337C8,18.753,10.821,17.23,12.525,15.462"/>
</svg>
