<?xml version="1.0" encoding="utf-8"?>
<!-- Generator: Adobe Illustrator 16.0.0, SVG Export Plug-In . SVG Version: 6.00 Build 0)  -->
<!DOCTYPE svg PUBLIC "-//W3C//DTD SVG 1.1//EN" "http://www.w3.org/Graphics/SVG/1.1/DTD/svg11.dtd">
<svg version="1.1" id="Layer_1" xmlns="http://www.w3.org/2000/svg" xmlns:xlink="http://www.w3.org/1999/xlink" x="0px" y="0px"
	 width="137.425px" height="137.426px" viewBox="0 0 137.425 137.426" enable-background="new 0 0 137.425 137.426"
	 xml:space="preserve">
<path fill="none" stroke="#474B52" stroke-width="2" stroke-miterlimit="10" d="M1,113.79V23.635C1,11.186,11.186,1,23.635,1h90.156
	c12.448,0,22.635,10.186,22.635,22.635v90.155c0,12.449-10.187,22.636-22.635,22.636H23.635C11.186,136.426,1,126.239,1,113.79z"/>
<polyline fill="none" stroke="#474B52" stroke-width="2" stroke-linejoin="round" stroke-miterlimit="10" points="45.847,81.63 
	22.744,94.682 68.647,120.585 113.744,94.615 91.076,81.576 "/>
<polyline fill="none" stroke="#474B52" stroke-width="2" stroke-linejoin="round" stroke-miterlimit="10" points="45.848,55.54 
	22.743,68.592 68.647,94.495 113.744,68.527 91.08,55.49 "/>
<polygon fill="none" stroke="#474B52" stroke-width="2" stroke-linejoin="round" stroke-miterlimit="10" points="68.647,68.406 
	113.744,42.437 68.712,16.534 22.743,42.503 "/>
</svg>
