<?xml version="1.0" encoding="UTF-8" standalone="no"?>
<svg
   xmlns:dc="http://purl.org/dc/elements/1.1/"
   xmlns:cc="http://creativecommons.org/ns#"
   xmlns:rdf="http://www.w3.org/1999/02/22-rdf-syntax-ns#"
   xmlns:svg="http://www.w3.org/2000/svg"
   xmlns="http://www.w3.org/2000/svg"
   version="1.1"
   id="svg3560"
   viewBox="0 0 29.282501 29.281251"
   height="8.2638197mm"
   width="8.2641726mm">
  <defs
     id="defs3562" />
  <metadata
     id="metadata3565">
    <rdf:RDF>
      <cc:Work
         rdf:about="">
        <dc:format>image/svg+xml</dc:format>
        <dc:type
           rdf:resource="http://purl.org/dc/dcmitype/StillImage" />
        <dc:title></dc:title>
      </cc:Work>
    </rdf:RDF>
  </metadata>
  <g
     transform="translate(-265.35875,-583.43587)"
     id="layer1">
    <path
       d="m 280.25866,592.78441 c 0,-2.98875 2.4225,-5.41125 5.41125,-5.41125 2.9875,0 5.41,2.4225 5.41,5.41125 0,2.98875 -2.4225,5.41125 -5.41,5.41125 -2.98875,0 -5.41125,-2.4225 -5.41125,-5.41125 z"
       style="fill:none;stroke:#41444c;stroke-width:0.375;stroke-linecap:butt;stroke-linejoin:miter;stroke-miterlimit:10;stroke-dasharray:none;stroke-opacity:1"
       id="path3424" />
    <path
       d="m 285.88529,591.20753 c 0,-0.80125 0.65,-1.45 1.45,-1.45 0.80125,0 1.45125,0.64875 1.45125,1.45 0,0.80125 -0.65,1.45 -1.45125,1.45 -0.8,0 -1.45,-0.64875 -1.45,-1.45 z"
       style="fill:none;stroke:#41444c;stroke-width:0.375;stroke-linecap:butt;stroke-linejoin:miter;stroke-miterlimit:10;stroke-dasharray:none;stroke-opacity:1"
       id="path3428" />
    <path
       d="m 282.93517,597.48428 -9.85375,9.85375 c -0.5625,0.5625 -1.47625,0.5625 -2.03875,0 l -0.0475,-0.0488 c -0.56375,-0.5625 -0.56375,-1.47625 0,-2.03875 l 9.8525,-9.85375"
       style="fill:none;stroke:#41444c;stroke-width:0.375;stroke-linecap:butt;stroke-linejoin:round;stroke-miterlimit:10;stroke-dasharray:none;stroke-opacity:1"
       id="path3432" />
    <path
       d="m 276.18804,607.21916 2.18125,-2.18125 0.7475,0.7475 0.825,-0.825 -2.275,-2.27375 -3.80625,3.80625 2.275,2.27375 0.8,-0.8 -0.7475,-0.7475 z"
       style="fill:none;stroke:#41444c;stroke-width:0.375;stroke-linecap:butt;stroke-linejoin:round;stroke-miterlimit:10;stroke-dasharray:none;stroke-opacity:1"
       id="path3436" />
  </g>
</svg>
