<?xml version="1.0" encoding="utf-8"?>
<!-- Generator: Adobe Illustrator 16.0.0, SVG Export Plug-In . SVG Version: 6.00 Build 0)  -->
<!DOCTYPE svg PUBLIC "-//W3C//DTD SVG 1.1//EN" "http://www.w3.org/Graphics/SVG/1.1/DTD/svg11.dtd">
<svg version="1.1" id="Layer_1" xmlns="http://www.w3.org/2000/svg" xmlns:xlink="http://www.w3.org/1999/xlink" x="0px" y="0px"
	 width="137.426px" height="137.425px" viewBox="0 0 137.426 137.425" enable-background="new 0 0 137.426 137.425"
	 xml:space="preserve">
<path fill="none" stroke="#474B52" stroke-width="2" stroke-miterlimit="10" d="M1,113.791V23.635C1,11.186,11.186,1,23.635,1
	h90.155c12.449,0,22.636,10.186,22.636,22.635v90.156c0,12.449-10.187,22.635-22.636,22.635H23.635
	C11.186,136.425,1,126.24,1,113.791z"/>
<rect x="24.796" y="55.445" fill="none" stroke="#474B52" stroke-width="2" stroke-miterlimit="10" width="88.503" height="50.121"/>
<line fill="none" stroke="#474B52" stroke-width="2" stroke-miterlimit="10" x1="33.656" y1="97.468" x2="104.442" y2="97.468"/>
<line fill="none" stroke="#474B52" stroke-width="2" stroke-miterlimit="10" x1="68.317" y1="68.109" x2="113.299" y2="68.109"/>
<path fill="none" stroke="#474B52" stroke-width="2" stroke-miterlimit="10" d="M33.654,106.074V89.175
	c0-4.967,4.028-8.996,8.996-8.996h52.795c4.969,0,8.996,4.029,8.996,8.996v16.898"/>
<polygon fill="none" stroke="#474B52" stroke-width="2" stroke-linejoin="round" stroke-miterlimit="10" points="52.704,40.518 
	39.959,40.518 52.704,27.773 "/>
<polygon fill="none" stroke="#474B52" stroke-width="2" stroke-miterlimit="10" points="52.704,27.773 97.482,27.773 97.482,55.445 
	39.959,55.445 39.959,40.518 "/>
</svg>
