<?xml version="1.0" encoding="utf-8"?>
<!-- Generator: Adobe Illustrator 16.0.0, SVG Export Plug-In . SVG Version: 6.00 Build 0)  -->
<!DOCTYPE svg PUBLIC "-//W3C//DTD SVG 1.1//EN" "http://www.w3.org/Graphics/SVG/1.1/DTD/svg11.dtd">
<svg version="1.1" id="Layer_1" xmlns="http://www.w3.org/2000/svg" xmlns:xlink="http://www.w3.org/1999/xlink" x="0px" y="0px"
	 width="137.425px" height="137.424px" viewBox="0 0 137.425 137.424" enable-background="new 0 0 137.425 137.424"
	 xml:space="preserve">
<path fill="none" stroke="#f5f4f4" stroke-width="2" stroke-miterlimit="10" d="M1,113.79V23.635C1,11.186,11.186,1,23.635,1h90.156
	c12.448,0,22.635,10.186,22.635,22.635v90.155c0,12.449-10.187,22.635-22.635,22.635H23.635C11.186,136.424,1,126.239,1,113.79z"/>
<circle fill="none" stroke="#f5f4f4" stroke-width="2" stroke-miterlimit="10" cx="68.718" cy="51.507" r="35.062"/>
<path fill="none" stroke="#f5f4f4" stroke-width="2" stroke-linecap="round" stroke-linejoin="round" stroke-miterlimit="10" d="
	M112.251,97.596c-9.391,14.029-25.385,23.265-43.533,23.265c-18.071,0-34.004-9.155-43.412-23.082l20.081-20.101
	c3.661,9.306,12.727,15.892,23.331,15.892c10.381,0,19.287-6.312,23.092-15.308c0.081-0.192,0.161-0.385,0.237-0.58L112.251,97.596z
	"/>
</svg>
