<?xml version="1.0" encoding="UTF-8" standalone="no"?>
<!-- Created with Inkscape (http://www.inkscape.org/) -->

<svg
   xmlns:dc="http://purl.org/dc/elements/1.1/"
   xmlns:cc="http://creativecommons.org/ns#"
   xmlns:rdf="http://www.w3.org/1999/02/22-rdf-syntax-ns#"
   xmlns:svg="http://www.w3.org/2000/svg"
   xmlns="http://www.w3.org/2000/svg"
   xmlns:sodipodi="http://sodipodi.sourceforge.net/DTD/sodipodi-0.dtd"
   xmlns:inkscape="http://www.inkscape.org/namespaces/inkscape"
   version="1.1"
   width="16.597364"
   height="16.598143"
   id="svg4778"
   inkscape:version="0.91 r13725"
   sodipodi:docname="rocket.svg">
  <sodipodi:namedview
     pagecolor="#ffffff"
     bordercolor="#666666"
     borderopacity="1"
     objecttolerance="10"
     gridtolerance="10"
     guidetolerance="10"
     inkscape:pageopacity="0"
     inkscape:pageshadow="2"
     inkscape:window-width="1920"
     inkscape:window-height="1018"
     id="namedview13"
     showgrid="false"
     inkscape:zoom="20.107937"
     inkscape:cx="8.0708826"
     inkscape:cy="10.065949"
     inkscape:window-x="-8"
     inkscape:window-y="372"
     inkscape:window-maximized="1"
     inkscape:current-layer="svg4778" />
  <defs
     id="defs4780" />
  <metadata
     id="metadata4783">
    <rdf:RDF>
      <cc:Work
         rdf:about="">
        <dc:format>image/svg+xml</dc:format>
        <dc:type
           rdf:resource="http://purl.org/dc/dcmitype/StillImage" />
        <dc:title />
      </cc:Work>
    </rdf:RDF>
  </metadata>
  <g
     transform="translate(-366.70132,-524.06311)"
     id="layer1">
    <path
       id="path1122"
       style="fill:none;stroke:#333333;stroke-width:0.41;stroke-linecap:butt;stroke-linejoin:miter;stroke-miterlimit:10;stroke-dasharray:none;stroke-opacity:1"
       d="m 370.40007,531.80963 c 0.45375,2.555 2.45625,4.615 4.9825,5.12875 l -0.0537,0.2675 -5e-5,0 c -2.635,-0.535 -4.72375,-2.68375 -5.1975,-5.34625 z m -2.52874,5.42625 -0.1925,-0.195 3.21625,-3.2375 0.1925,0.195 -3.21625,3.2375 z m 2.36525,2.53387 -0.1925,-0.195 3.31375,-3.335 0.1925,0.195 -3.31375,3.335 z m -3.18651,0.73525 -0.1925,-0.195 5.1825,-5.215 0.1925,0.195 -5.1825,5.215 z m 8.039,-4.54362 1.145,2.8425 4.8325,-4.205 -0.47625,-3.8475 -5.50125,5.21 z m 1.035,3.30125 -1.3575,-3.3725 6.02875,-5.70875 0.56,4.52875 -5.23125,4.5525 z m -7.59337,-8.28425 c 0,0 1.2489,0.53412 1.8792,0.78692 0.2931,0.11756 0.88455,0.33933 0.88455,0.33933 l 5.06875,-5.4175 -3.74,-0.47 z m 2.835,1.4525 -3.29125,-1.34125 0.125,-0.145 4.3125,-5.01625 0.0725,0.008 4.345,0.545 -5.56375,5.95 z m 9.566,-0.3485 -0.20625,-0.1775 c 1.76375,-2.07125 2.50125,-4.78625 1.98125,-7.28 -2.555,-0.45125 -5.22375,0.265 -7.3325,1.96 l -0.17,-0.215 c 2.195,-1.76375 4.98125,-2.4925 7.64125,-2 l 0.0887,0.0163 0.0188,0.0888 c 0.57625,2.6025 -0.18,5.44625 -2.02125,7.6075 z" />
  </g>
</svg>
