<?xml version="1.0" encoding="utf-8"?>
<!-- Generator: Adobe Illustrator 16.0.0, SVG Export Plug-In . SVG Version: 6.00 Build 0)  -->
<!DOCTYPE svg PUBLIC "-//W3C//DTD SVG 1.1//EN" "http://www.w3.org/Graphics/SVG/1.1/DTD/svg11.dtd">
<svg version="1.1" id="Layer_1" xmlns="http://www.w3.org/2000/svg" xmlns:xlink="http://www.w3.org/1999/xlink" x="0px" y="0px"
	 width="137.425px" height="137.426px" viewBox="0 0 137.425 137.426" enable-background="new 0 0 137.425 137.426"
	 xml:space="preserve">
<path fill="none" stroke="#474B52" stroke-width="2" stroke-miterlimit="10" d="M1,113.79V23.635C1,11.186,11.186,1,23.635,1h90.156
	c12.449,0,22.635,10.186,22.635,22.635v90.155c0,12.449-10.186,22.636-22.635,22.636H23.635C11.186,136.426,1,126.239,1,113.79z"/>
<path fill="none" stroke="#474B52" stroke-width="2" stroke-miterlimit="10" d="M87.449,121.066H49.977
	c-6.572,0-11.949-5.377-11.949-11.949V28.309c0-6.572,5.377-11.949,11.949-11.949h37.472c6.572,0,11.949,5.377,11.949,11.949v80.808
	C99.398,115.689,94.021,121.066,87.449,121.066z"/>
<rect x="41.857" y="28.765" fill="none" stroke="#474B52" stroke-width="2" stroke-miterlimit="10" width="53.71" height="79.894"/>
<line fill="none" stroke="#474B52" stroke-width="2" stroke-miterlimit="10" x1="96.15" y1="41.245" x2="68.802" y2="68.593"/>
<line fill="none" stroke="#474B52" stroke-width="2" stroke-miterlimit="10" x1="95.623" y1="57.064" x2="83.951" y2="68.737"/>
<line fill="none" stroke="#474B52" stroke-width="2" stroke-miterlimit="10" x1="76.225" y1="22.676" x2="61.632" y2="22.676"/>
<circle fill="none" stroke="#474B52" stroke-width="2" stroke-miterlimit="10" cx="68.802" cy="115.051" r="3"/>
</svg>
