<?xml version="1.0" encoding="utf-8"?>
<!-- Generator: Adobe Illustrator 16.0.0, SVG Export Plug-In . SVG Version: 6.00 Build 0)  -->
<!DOCTYPE svg PUBLIC "-//W3C//DTD SVG 1.1//EN" "http://www.w3.org/Graphics/SVG/1.1/DTD/svg11.dtd">
<svg version="1.1" id="Layer_1" xmlns="http://www.w3.org/2000/svg" xmlns:xlink="http://www.w3.org/1999/xlink" x="0px" y="0px"
	 width="137.425px" height="137.425px" viewBox="0 0 137.425 137.425" enable-background="new 0 0 137.425 137.425"
	 xml:space="preserve">
<path fill="none" stroke="#474B52" stroke-width="2" stroke-linejoin="round" stroke-miterlimit="10" d="M70.15,99.215
	c0-9.77,8.198-17.689,18.312-17.689"/>
<path fill="none" stroke="#474B52" stroke-width="2" stroke-linejoin="round" stroke-miterlimit="10" d="M88.612,68.625v-0.496
	c0,0-0.027-0.392,0-1.025V33.289c0-3.387-2.745-6.132-6.132-6.132s-6.131,2.745-6.131,6.132v-7.005c0-3.387-2.745-6.132-6.133-6.132
	c-3.386,0-6.131,2.745-6.131,6.132v7.005c0-3.387-2.745-6.132-6.132-6.132c-3.386,0-6.131,2.745-6.131,6.132V52.46
	c0-3.387-2.745-6.132-6.132-6.132s-6.131,2.745-6.131,6.132v40.211c0,0.054,0.006,0.105,0.008,0.16
	c-0.001,0.106-0.008,0.213-0.008,0.319c0,16.933,13.726,30.658,30.656,30.658c11.287,0,21.144-6.103,26.464-15.186"/>
<path fill="none" stroke="#474B52" stroke-width="2" stroke-linejoin="round" stroke-miterlimit="10" d="M96.682,108.624
	c2.66-4.543,4.193-9.827,4.193-15.472"/>
<line fill="none" stroke="#474B52" stroke-width="2" stroke-linejoin="round" stroke-miterlimit="10" x1="88.612" y1="68.625" x2="88.612" y2="88.173"/>
<path fill="none" stroke="#474B52" stroke-width="2" stroke-linejoin="round" stroke-miterlimit="10" d="M100.875,93.152V55.962
	c-10.818,0-12.136,8.214-12.263,11.142v1.024v0.497"/>
<path fill="none" stroke="#474B52" stroke-width="2" stroke-linejoin="round" stroke-miterlimit="10" d="M88.612,68.128v-1.024
	C88.585,67.738,88.612,68.128,88.612,68.128z"/>
<line fill="none" stroke="#474B52" stroke-width="2" stroke-linejoin="round" stroke-miterlimit="10" x1="76.35" y1="33.289" x2="76.35" y2="70.662"/>
<line fill="none" stroke="#474B52" stroke-width="2" stroke-linejoin="round" stroke-miterlimit="10" x1="64.093" y1="33.289" x2="64.093" y2="70.662"/>
<line fill="none" stroke="#474B52" stroke-width="2" stroke-linejoin="round" stroke-miterlimit="10" x1="51.823" y1="52.459" x2="51.823" y2="78.588"/>
<line fill="none" stroke="#474B52" stroke-width="2" stroke-linejoin="round" stroke-miterlimit="10" x1="21.015" y1="119.797" x2="119.287" y2="21.526"/>
</svg>
