<?xml version="1.0" encoding="utf-8"?>
<!-- Generator: Adobe Illustrator 16.0.0, SVG Export Plug-In . SVG Version: 6.00 Build 0)  -->
<!DOCTYPE svg PUBLIC "-//W3C//DTD SVG 1.1//EN" "http://www.w3.org/Graphics/SVG/1.1/DTD/svg11.dtd">
<svg version="1.1" id="Layer_1" xmlns="http://www.w3.org/2000/svg" xmlns:xlink="http://www.w3.org/1999/xlink" x="0px" y="0px"
	 width="137.425px" height="137.424px" viewBox="0 0 137.425 137.424" enable-background="new 0 0 137.425 137.424"
	 xml:space="preserve">
<path fill="none" stroke="#f5f4f4" stroke-width="2" stroke-miterlimit="10" d="M1,113.789V23.635C1,11.186,11.186,1,23.635,1
	h90.155c12.448,0,22.635,10.186,22.635,22.635v90.154c0,12.449-10.187,22.635-22.635,22.635H23.635
	C11.186,136.424,1,126.238,1,113.789z"/>
<line fill="none" stroke="#f5f4f4" stroke-width="2" stroke-miterlimit="10" x1="49.34" y1="108.638" x2="41.382" y2="83.094"/>
<line fill="none" stroke="#f5f4f4" stroke-width="2" stroke-miterlimit="10" x1="7.664" y1="7.589" x2="36.555" y2="36.479"/>
<path fill="none" stroke="#f5f4f4" stroke-width="2" stroke-miterlimit="10" d="M68.718,96.643
	c-18.97,0-34.348-15.378-34.348-34.349c0-18.97,15.378-34.348,34.348-34.348s34.349,15.378,34.349,34.348
	c0,10.767-4.953,20.377-12.707,26.675"/>
<path fill="none" stroke="#f5f4f4" stroke-width="2" stroke-miterlimit="10" d="M42.69,84.713
	c2.675,11.907,13.313,18.141,26.028,18.141c12.717,0,23.358-6.237,26.03-18.149l-5.087,19.411
	c-2.149,9.584-10.71,16.744-20.943,16.744c-10.23,0-18.789-7.156-20.942-16.737"/>
<path fill="none" stroke="#f5f4f4" stroke-width="2" stroke-miterlimit="10" d="M92.852,101.871
	c-6.813,4.812-15.129,7.639-24.105,7.639c-9.155,0-17.624-2.94-24.513-7.93"/>
<path fill="none" stroke="#f5f4f4" stroke-width="2" stroke-miterlimit="10" d="M89.166,109.356
	c-5.863,4.14-13.018,6.572-20.74,6.572c-7.877,0-15.163-2.53-21.089-6.822"/>
<polyline fill="none" stroke="#f5f4f4" stroke-width="2" stroke-linejoin="round" stroke-miterlimit="10" points="79.994,85.279 
	84.473,58.504 76.415,66.561 68.563,58.708 60.941,66.331 53.334,58.724 57.548,85.279 "/>
<line fill="none" stroke="#f5f4f4" stroke-width="2" stroke-miterlimit="10" x1="68.718" y1="0.795" x2="68.718" y2="23.24"/>
<line fill="none" stroke="#f5f4f4" stroke-width="2" stroke-miterlimit="10" x1="129.766" y1="7.67" x2="100.871" y2="36.563"/>
</svg>
