<?xml version="1.0" encoding="utf-8"?>
<!-- Generator: Adobe Illustrator 16.0.0, SVG Export Plug-In . SVG Version: 6.00 Build 0)  -->
<!DOCTYPE svg PUBLIC "-//W3C//DTD SVG 1.1//EN" "http://www.w3.org/Graphics/SVG/1.1/DTD/svg11.dtd">
<svg version="1.1" id="Layer_1" xmlns="http://www.w3.org/2000/svg" xmlns:xlink="http://www.w3.org/1999/xlink" x="0px" y="0px"
	 width="137.425px" height="137.425px" viewBox="0 0 137.425 137.425" enable-background="new 0 0 137.425 137.425"
	 xml:space="preserve">
<path fill="none" stroke="#474B52" stroke-width="2" stroke-miterlimit="10" d="M1,113.789V23.635C1,11.186,11.186,1,23.635,1
	h90.155c12.449,0,22.635,10.186,22.635,22.635v90.154c0,12.449-10.186,22.635-22.635,22.635H23.635
	C11.186,136.424,1,126.238,1,113.789z"/>
<path fill="none" stroke="#474B52" stroke-width="2" stroke-miterlimit="10" d="M91.001,121.064H46.424
	c-7.025,0-12.772-5.748-12.772-12.771v-79.16c0-7.025,5.747-12.773,12.772-12.773h44.578c7.025,0,12.773,5.748,12.773,12.773v79.16
	C103.775,115.316,98.027,121.064,91.001,121.064z"/>
<rect x="38.027" y="28.765" fill="none" stroke="#474B52" stroke-width="2" stroke-miterlimit="10" width="61.371" height="79.893"/>
<line fill="none" stroke="#474B52" stroke-width="2" stroke-miterlimit="10" x1="99.388" y1="38.007" x2="68.802" y2="68.592"/>
<line fill="none" stroke="#474B52" stroke-width="2" stroke-miterlimit="10" x1="99.388" y1="53.3" x2="83.951" y2="68.737"/>
<line fill="none" stroke="#474B52" stroke-width="2" stroke-miterlimit="10" x1="76.225" y1="22.675" x2="61.632" y2="22.675"/>
<circle fill="none" stroke="#474B52" stroke-width="2" stroke-miterlimit="10" cx="68.929" cy="115.051" r="3"/>
</svg>
