<?xml version="1.0" encoding="utf-8"?>
<!-- Generator: Adobe Illustrator 16.0.0, SVG Export Plug-In . SVG Version: 6.00 Build 0)  -->
<!DOCTYPE svg PUBLIC "-//W3C//DTD SVG 1.1//EN" "http://www.w3.org/Graphics/SVG/1.1/DTD/svg11.dtd">
<svg version="1.1" id="Layer_1" xmlns="http://www.w3.org/2000/svg" xmlns:xlink="http://www.w3.org/1999/xlink" x="0px" y="0px"
	 width="137.426px" height="137.426px" viewBox="0 0 137.426 137.426" enable-background="new 0 0 137.426 137.426"
	 xml:space="preserve">
<path fill="none" stroke="#474B52" stroke-width="2" stroke-miterlimit="10" d="M1,113.79V23.635C1,11.186,11.187,1,23.635,1h90.155
	c12.45,0,22.636,10.186,22.636,22.635v90.155c0,12.449-10.186,22.636-22.636,22.636H23.635C11.187,136.426,1,126.239,1,113.79z"/>
<path fill="none" stroke="#474B52" stroke-width="2" stroke-linejoin="round" stroke-miterlimit="10" d="M118.279,60.854H76.366
	V18.941c0-2.21-2.33-3.538-4.088-2.329l-10.022,6.893c-0.746,0.514-1.196,1.39-1.196,2.33v35.019H26.04
	c-0.939,0-1.815,0.45-2.329,1.197l-6.894,10.022c-1.209,1.758,0.119,4.088,2.329,4.088H61.06v41.913c0,2.21,2.33,3.538,4.088,2.329
	l10.021-6.894c0.747-0.514,1.197-1.39,1.197-2.33V76.161h35.021c0.938,0,1.814-0.45,2.328-1.196l6.894-10.023
	C121.817,63.184,120.489,60.854,118.279,60.854z"/>
</svg>
