<?xml version="1.0" encoding="utf-8"?>
<!-- Generator: Adobe Illustrator 16.0.0, SVG Export Plug-In . SVG Version: 6.00 Build 0)  -->
<!DOCTYPE svg PUBLIC "-//W3C//DTD SVG 1.1//EN" "http://www.w3.org/Graphics/SVG/1.1/DTD/svg11.dtd">
<svg version="1.1" xmlns="http://www.w3.org/2000/svg" xmlns:xlink="http://www.w3.org/1999/xlink" x="0px" y="0px" width="24px"
	 height="24px" viewBox="0 0 24 24" style="enable-background:new 0 0 24 24;" xml:space="preserve">
  <path fill="#404040" d="M12,1L1,23h22L12,1z M12,8.988c1.519,0,2.75,1.256,2.75,2.804
  c0,1.549-1.231,2.804-2.75,2.804s-2.75-1.255-2.75-2.804C9.25,10.244,10.481,8.988,12,8.988z M12,21H6v-1.602
  c0-0.84,0.775-1.59,1.564-1.876c0,0,3.058-1.036,4.436-1.036s4.436,1.036,4.436,1.036C17.225,17.809,18,18.559,18,19.398V21H12z"
  />
</svg>
