<?xml version="1.0" encoding="utf-8"?>
<svg version="1.1" xmlns="http://www.w3.org/2000/svg" xmlns:xlink="http://www.w3.org/1999/xlink" x="0px" y="0px" width="24px"
	 height="24px" viewBox="0 0 24 24" style="enable-background:new 0 0 24 24;" xml:space="preserve">
		<path fill="#404040" d="M21,21V3H3v18H21z M12,5.988c1.519,0,2.75,1.256,2.75,2.804c0,1.549-1.231,2.804-2.75,2.804
			s-2.75-1.255-2.75-2.804C9.25,7.244,10.481,5.988,12,5.988z M6,16.398c0-0.84,0.775-1.59,1.563-1.876c0,0,3.059-1.036,4.437-1.036
			s4.437,1.036,4.437,1.036C17.225,14.809,18,15.559,18,16.398V18h-6H6V16.398z"/>
</svg>
