<?xml version="1.0" encoding="utf-8"?>
<svg version="1.1" xmlns="http://www.w3.org/2000/svg" xmlns:xlink="http://www.w3.org/1999/xlink" x="0px" y="0px" width="24px"
	 height="24px" viewBox="0 0 24 24" style="enable-background:new 0 0 24 24;" xml:space="preserve">
		<ellipse fill="#404040" cx="12" cy="7.792" rx="2.75" ry="2.804"/>
		<path fill="#404040" d="M16.437,13.522c0,0-3.059-1.036-4.437-1.036s-4.437,1.036-4.437,1.036
			C6.775,13.809,6,14.559,6,15.398V17h6h6v-1.602C18,14.559,17.225,13.809,16.437,13.522z"/>
		<path fill="#404040" d="M12.01,23H12c-0.72,0-1.438-0.069-2.134-0.207l0.387-1.963C10.823,20.943,11.41,21,12,21
			L12.01,23z M14.155,22.788l-0.389-1.961c0.574-0.114,1.141-0.287,1.685-0.513l0.768,1.848
			C15.553,22.438,14.858,22.648,14.155,22.788z M7.801,22.17c-0.663-0.274-1.303-0.616-1.9-1.015l1.109-1.664
			c0.49,0.326,1.014,0.606,1.557,0.831L7.801,22.17z M18.119,21.143l-1.115-1.66c0.489-0.329,0.948-0.707,1.364-1.122l1.414,1.414
			C19.275,20.281,18.716,20.741,18.119,21.143z M4.234,19.791c-0.507-0.506-0.969-1.065-1.37-1.662l1.658-1.117
			c0.33,0.489,0.708,0.948,1.124,1.361L4.234,19.791z M21.148,18.109l-1.662-1.113c0.328-0.489,0.607-1.012,0.832-1.554l1.848,0.766
			C21.892,16.871,21.549,17.511,21.148,18.109z M1.843,16.229c-0.276-0.662-0.487-1.356-0.629-2.063l1.961-0.393
			c0.115,0.577,0.288,1.145,0.514,1.686L1.843,16.229z M22.79,14.145l-1.961-0.389C20.942,13.182,21,12.591,21,12l2-0.042V12
			C23,12.722,22.93,13.443,22.79,14.145z M1,12.021V12c0-0.716,0.068-1.429,0.204-2.122l1.963,0.385C3.057,10.828,3,11.413,3,12
			L1,12.021z M20.821,10.207c-0.116-0.575-0.29-1.142-0.517-1.684l1.844-0.773c0.278,0.664,0.491,1.357,0.634,2.061L20.821,10.207z
			 M3.675,8.575l-1.85-0.762C2.099,7.149,2.439,6.51,2.839,5.91L4.503,7.02C4.177,7.509,3.898,8.032,3.675,8.575z M19.467,6.973
			c-0.329-0.488-0.708-0.945-1.125-1.359l1.408-1.42c0.51,0.505,0.972,1.063,1.375,1.66L19.467,6.973z M5.62,5.653L4.202,4.241
			c0.507-0.508,1.065-0.97,1.662-1.371l1.117,1.658C6.493,4.857,6.035,5.236,5.62,5.653z M16.972,4.497
			c-0.488-0.325-1.012-0.604-1.556-0.827l0.76-1.85c0.666,0.272,1.307,0.613,1.905,1.013L16.972,4.497z M8.532,3.693L7.761,1.848
			c0.664-0.277,1.357-0.49,2.063-0.631l0.393,1.961C9.641,3.293,9.074,3.467,8.532,3.693z M13.73,3.165C13.162,3.056,12.579,3,12,3
			l-0.031-2H12c0.706,0,1.416,0.067,2.109,0.202L13.73,3.165z"/>
</svg>
