<?xml version="1.0" encoding="utf-8"?>
<svg version="1.1" xmlns="http://www.w3.org/2000/svg" xmlns:xlink="http://www.w3.org/1999/xlink" x="0px" y="0px" width="24px"
	 height="24px" viewBox="0 0 24 24" style="enable-background:new 0 0 24 24;" xml:space="preserve">
		<path fill="#404040" d="M12,1C5.925,1,1,5.925,1,12s4.925,11,11,11s11-4.925,11-11S18.075,1,12,1z M12,21
			c-4.963,0-9-4.037-9-9c0-2.122,0.742-4.07,1.975-5.611L8,9.414V17h7.586l2.025,2.025C16.07,20.258,14.122,21,12,21z M11,11.667
			c0-0.553,0.448-1,1-1c0.553,0,1,0.447,1,1c0,0.552-0.447,1-1,1C11.448,12.667,11,12.219,11,11.667z M19.025,17.611L16,14.586V7
			H8.414L6.389,4.975C7.93,3.742,9.878,3,12,3c4.962,0,9,4.037,9,9C21,14.122,20.258,16.07,19.025,17.611z"/>

</svg>
