<svg enable-background="new 0 0 24 24" height="24px" version="1.1" viewBox="0 0 24 24" width="24px" x="0px" xml:space="preserve" xmlns="http://www.w3.org/2000/svg" xmlns:xlink="http://www.w3.org/1999/xlink" y="0px"><g><path d="M12,20.65c-4.77,0-8.65-3.881-8.65-8.65S7.23,3.35,12,3.35c4.688,0,8.65,3.961,8.65,8.65   C20.65,16.852,16.852,20.65,12,20.65z M11,18h2v-2h-2V18z M12.1,7.75c0.509,0,0.848,0.109,1.093,0.355   C13.43,8.268,13.55,8.658,13.55,9.2c0,0.501-0.11,0.862-0.37,1.21c-0.205,0.402-0.603,0.799-0.987,1.184   c-0.683,0.569-0.905,1.115-1.043,1.323C10.935,13.24,11,13.84,11,14.7V15h2v-0.3c0-0.464-0.025-0.865,0.061-1.033   c0.097-0.286,0.263-0.465,0.559-0.761c0.676-0.563,1.141-1.065,1.512-1.622c0.465-0.556,0.723-1.265,0.723-1.984   c0-1.168-0.336-1.999-1.055-2.614C14.18,6.066,13.236,5.75,12.001,5.75c-1.312,0-2.274,0.293-2.839,0.952   C8.483,7.182,8,7.997,8,9.1V9h3v0.1c0-0.447-0.05-0.711,0.231-0.994C11.588,7.84,11.633,7.75,12.1,7.75z"/></g><g display="none"></g><g></g><g display="none"></g></svg>