<svg enable-background="new 0 0 24 24" height="24px" version="1.1" viewBox="0 0 24 24" width="24px" x="0px" xml:space="preserve" xmlns="http://www.w3.org/2000/svg" xmlns:xlink="http://www.w3.org/1999/xlink" y="0px"><g><path d="M19,17H5v1H3l-0.5-7H1v10h2v-1h2c0,1,1,2,2,2s9,0,10,0s2-1,2-2h2v1h2V11h-1.5L21,18   c-0.1,0-1.898,0-2,0V17z"/><path d="M12,1C8.134,1,5,4.134,5,8s3.134,7,7,7s7-3.134,7-7S15.866,1,12,1z M13,13h-2V7h2V13z M13,5h-2V3h2V5z"/></g><g display="none"></g><g></g><g display="none"></g></svg>