<svg version="1.1" xmlns="http://www.w3.org/2000/svg" x="0" y="0" height="24px" viewBox="0 0 24 24" width="24px" xml:space="preserve">
  <g>
    <g>
      <path d="M12 0c-1.657 0-3 1-3 3s3 9 3 9 3-7 3-9-1.343-3-3-3zm0 4a1 1 0 110-2 1 1 0 010 2z" />
      <path d="M16.898 4.287l-.683 1.923A7.988 7.988 0 0120 13a8 8 0 01-16 0 7.988 7.988 0 013.785-6.79l-.683-1.923A9.991 9.991 0 002 13c0 5.523 4.477 10 10 10s10-4.477 10-10a9.991 9.991 0 00-5.102-8.713z" />
    </g>
    <path d="M12 19c2.828 0 5.2-1.969 5.83-4.607C16.075 13.509 14.099 13 12 13s-4.075.509-5.83 1.393C6.8 17.031 9.172 19 12 19z" />
  </g>
</svg>