<?xml version="1.0" encoding="utf-8"?>
<svg version="1.1" id="Layer_1" xmlns="http://www.w3.org/2000/svg" xmlns:xlink="http://www.w3.org/1999/xlink" x="0px" y="0px"
	 width="24px" height="24px" viewBox="0 0 24 24" style="enable-background:new 0 0 24 24;" xml:space="preserve">
<path fill="#ffffff" d="M12,1.25c-6.075,0-11,4.925-11,11s4.925,11,11,11s11-4.925,11-11S18.075,1.25,12,1.25z M12,21.25
	c-4.963,0-9-4.037-9-9c0-2.122,0.742-4.07,1.975-5.611l5.969,5.969c-1.48,0.272-3.379,0.916-3.379,0.916
	C6.774,13.809,6,14.559,6,15.398V17h6h3.336l2.275,2.275C16.07,20.508,14.122,21.25,12,21.25z M19.025,17.861L18,16.836v-1.438
	c0-0.84-0.775-1.59-1.564-1.877c0,0-1.221-0.412-2.467-0.717l-2.236-2.236c0.089,0.009,0.176,0.026,0.268,0.026
	c1.519,0,2.75-1.255,2.75-2.804c0-1.548-1.231-2.805-2.75-2.805c-1.519,0-2.751,1.258-2.751,2.806c0,0.11,0.02,0.218,0.032,0.326
	L6.389,5.225C7.93,3.992,9.878,3.25,12,3.25c4.962,0,9,4.037,9,9C21,14.372,20.258,16.32,19.025,17.861z"/>
</svg>
