<svg xmlns="http://www.w3.org/2000/svg" width="86.617mm" height="19.551mm" viewBox="0 0 245.528 55.421"><defs><style>.a{fill:#e05206;}.b{fill:#666577;}</style></defs><title>Internode</title><path class="a" d="M17.292,21.083c-3.064-5.278-1.959-10.3,2.38-12.04,3.628-1.458,9.627.943,12.787,6.332a10.42,10.42,0,0,1,0,10.654,1.535,1.535,0,0,0-.018,1.316l3.771,8.9s.345.981,1.121.176C41.117,32.524,42.7,24.3,38.7,17.008,33.542,7.594,23.465,3.34,17.2,5.854c-7.5,3.011-9.456,11.694-4.458,20.917,3.689,6.8,10.73,11.719,17.018,12.157.8.017,1.655.254.637-2.224-.395-.958-3.061-7.264-3.613-8.568a.451.451,0,0,0-.334-.319,14.152,14.152,0,0,1-9.162-6.734m30.084-2.1C40.029,4.3,23.432-3.235,12.079,1.325.86,5.834-3.884,22.273,3.672,36.859c6.469,12.484,19.321,19.9,31.369,18.361.959-.121,2.828-.425,1.393-4-.516-1.284-2.545-6.049-3.284-7.784a.792.792,0,0,0-.8-.518c-7.669.624-16.765-4.639-21.363-13.121C5.233,19.173,7.219,8.336,15.89,4.922,24.165,1.664,34.735,7.391,40.7,18.089c4.609,8.279,3.236,17.3-1.091,21.727a2.287,2.287,0,0,0-.9,2.608c1.1,2.738,3.4,8.7,3.727,9.506.423,1.051,1.041.465,1.384.17,6.706-5.714,9.77-20.686,3.554-33.114"/><path class="b" d="M68.017,43.186V14.093a.825.825,0,0,0-.827-.822H62.258a.825.825,0,0,0-.826.822V43.186a.832.832,0,0,0,.826.827H67.19a.831.831,0,0,0,.827-.827m23.843,0V30.168a17.313,17.313,0,0,0-.347-3.959,6.406,6.406,0,0,0-1.227-2.479,6.279,6.279,0,0,0-2.593-1.786,9.822,9.822,0,0,0-3.793-.71,9.606,9.606,0,0,0-7.475,3.409c-.184.011-.318-.152-.318-.458V22.57a.827.827,0,0,0-.827-.819H71.113a.823.823,0,0,0-.828.819V43.186a.83.83,0,0,0,.828.827h4.6a.827.827,0,0,0,.824-.827v-9.26a18.088,18.088,0,0,1,.482-5.12A4.283,4.283,0,0,1,78.8,26.584a5.274,5.274,0,0,1,2.922-.836,3.928,3.928,0,0,1,2.176.588A3.311,3.311,0,0,1,85.2,27.98a25.087,25.087,0,0,1,.37,3.842c.012.454.031,1.2.031,1.65v9.714a.825.825,0,0,0,.822.827h4.609a.831.831,0,0,0,.827-.827M102.05,34.6v-7.34a.826.826,0,0,1,.826-.821h2.644a.832.832,0,0,0,.823-.827V22.57a.824.824,0,0,0-.823-.819h-2.644a.831.831,0,0,1-.826-.829V14.676c0-.45-.322-.647-.721-.427L96.516,16.91a1.525,1.525,0,0,0-.719,1.224v2.788a.841.841,0,0,1-.831.829h-1.22a.822.822,0,0,0-.826.819v3.044a.83.83,0,0,0,.826.827h1.22a.835.835,0,0,1,.831.821v8.889a28.3,28.3,0,0,0,.19,4.152,5.308,5.308,0,0,0,.883,2.3,4.488,4.488,0,0,0,2,1.388,8.247,8.247,0,0,0,3.049.531,18.568,18.568,0,0,0,4.147-.649,1.027,1.027,0,0,0,.7-1.052l-.435-3.737a8.631,8.631,0,0,1-2.532.561,1.842,1.842,0,0,1-1.061-.289,1.319,1.319,0,0,1-.56-.747c-.082-.3-.11-2.355-.11-2.355-.009-.454-.013-1.2-.013-1.649m21.411-4.121a.525.525,0,0,1-.416.508h-8.524a.531.531,0,0,1-.411-.438,5.082,5.082,0,0,1,1.312-3.391,4.481,4.481,0,0,1,3.395-1.412,4.434,4.434,0,0,1,3.26,1.334,5.219,5.219,0,0,1,1.374,3.36c0,.009.01.021.01.039m6.257,3.478q-.022-6.306-2.929-9.438a10.845,10.845,0,0,0-8.342-3.287,10.428,10.428,0,0,0-7.779,3.14q-3.078,3.132-3.081,8.672a12.207,12.207,0,0,0,2.339,7.673q2.973,3.806,9.153,3.8a11.684,11.684,0,0,0,6.5-1.692A9.532,9.532,0,0,0,129.1,38.6v-.024a.531.531,0,0,0,.044-.22.581.581,0,0,0-.48-.573l-5.05-.791-.008.009a.283.283,0,0,0-.083-.016.6.6,0,0,0-.546.364l0,.013a4.28,4.28,0,0,1-1.372,2,4,4,0,0,1-2.477.757,4.887,4.887,0,0,1-3.617-1.454,5.453,5.453,0,0,1-1.479-3.438v-.016a.615.615,0,0,1,.586-.617h14.469v-.008a.633.633,0,0,0,.634-.627m15.737-7.254,1.65-4.362a8.34,8.34,0,0,0-4.114-1.109,5.2,5.2,0,0,0-2.7.718,13.031,13.031,0,0,0-2.178,2.306c-.276.356-.5.28-.5-.171V22.57a.822.822,0,0,0-.827-.819h-4.168a.825.825,0,0,0-.826.819V43.186a.832.832,0,0,0,.826.827h4.6a.836.836,0,0,0,.829-.827v-6.06a32.917,32.917,0,0,1,.526-7.468A4.59,4.59,0,0,1,140,27.194a3.614,3.614,0,0,1,2.225-.688,6.545,6.545,0,0,1,2.189.612.749.749,0,0,0,1.039-.413m24.916,16.481V30.168a17.7,17.7,0,0,0-.338-3.959A6.484,6.484,0,0,0,168.8,23.73a6.276,6.276,0,0,0-2.6-1.786,9.751,9.751,0,0,0-3.784-.71,9.585,9.585,0,0,0-7.472,3.409c-.193.011-.325-.152-.325-.458V22.57a.825.825,0,0,0-.826-.819h-4.173a.828.828,0,0,0-.827.819V43.186a.835.835,0,0,0,.827.827h4.61a.833.833,0,0,0,.825-.827v-9.26a18.18,18.18,0,0,1,.477-5.12,4.309,4.309,0,0,1,1.776-2.222,5.272,5.272,0,0,1,2.922-.836,3.926,3.926,0,0,1,2.177.588,3.237,3.237,0,0,1,1.3,1.644,24.147,24.147,0,0,1,.377,3.842c.01.454.032,1.2.032,1.65v9.714a.826.826,0,0,0,.816.827h4.608a.83.83,0,0,0,.824-.827m19.955-10.35a7.176,7.176,0,0,1-1.658,5.117,5.712,5.712,0,0,1-8.264,0,7.044,7.044,0,0,1-1.672-5.078A7.058,7.058,0,0,1,180.4,27.8a5.721,5.721,0,0,1,8.264,0,7.048,7.048,0,0,1,1.658,5.032M193.3,41.2a11.152,11.152,0,0,0,3.465-8.388,10.971,10.971,0,0,0-3.434-8.293,12.239,12.239,0,0,0-8.814-3.285,13.677,13.677,0,0,0-6.3,1.449,10.192,10.192,0,0,0-4.359,4.2,11.416,11.416,0,0,0-1.54,5.683,12.809,12.809,0,0,0,1.54,6.514,9.874,9.874,0,0,0,4.493,4.059,14.479,14.479,0,0,0,6.21,1.382A12.124,12.124,0,0,0,193.3,41.2m21.972-8.238a7.689,7.689,0,0,1-1.514,5.175,4.752,4.752,0,0,1-3.695,1.724,4.811,4.811,0,0,1-4.25-2.3,9.739,9.739,0,0,1-1.05-5.163,7.216,7.216,0,0,1,1.507-4.981,4.851,4.851,0,0,1,3.75-1.668,4.778,4.778,0,0,1,3.776,1.689q1.473,1.688,1.476,5.525M221.5,43.186V14.093a.825.825,0,0,0-.822-.822h-4.607a.825.825,0,0,0-.829.822V24.341a9.09,9.09,0,0,0-6.872-3.107,9.514,9.514,0,0,0-7.174,2.95q-2.836,2.943-2.83,8.61,0,5.537,2.914,8.632a9.279,9.279,0,0,0,10.974,2.159,12.633,12.633,0,0,0,2.86-2.244c.31-.328.563-.227.563.225v1.62a.836.836,0,0,0,.824.827h4.177a.831.831,0,0,0,.822-.827m17.767-12.693a.527.527,0,0,1-.415.512h-8.517a.514.514,0,0,1-.409-.441,5.086,5.086,0,0,1,1.305-3.389A4.724,4.724,0,0,1,237.9,27.1a5.146,5.146,0,0,1,1.37,3.352c0,.013,0,.029,0,.041m6.261,3.48q-.018-6.307-2.929-9.439a10.825,10.825,0,0,0-8.337-3.287,10.464,10.464,0,0,0-7.782,3.135q-3.082,3.144-3.077,8.68a12.281,12.281,0,0,0,2.336,7.681c1.977,2.526,5.036,3.794,9.15,3.794a11.679,11.679,0,0,0,6.5-1.694,9.507,9.507,0,0,0,3.521-4.221.077.077,0,0,1,0-.027.6.6,0,0,0,.045-.225.583.583,0,0,0-.477-.569l-5.044-.792-.013.008a.336.336,0,0,0-.095-.008.573.573,0,0,0-.533.359s-.009,0-.009.013a4.313,4.313,0,0,1-1.372,1.989,3.937,3.937,0,0,1-2.477.763,4.94,4.94,0,0,1-3.614-1.451,5.437,5.437,0,0,1-1.478-3.438v-.017a.63.63,0,0,1,.582-.625H244.9a.629.629,0,0,0,.63-.629"/></svg>