<svg version="1.1" xmlns="http://www.w3.org/2000/svg" x="0" y="0" height="24px" viewBox="0 0 24 24" width="24px" xml:space="preserve">
  <g>
    <path d="M60 16c-.254 0-.497.041-.732.101h.001l-1.084-1.626.801-2.402L56 9.684l-2.985 2.388L54.324 16h2.474l.807 1.21A2.974 2.974 0 0057 19a3 3 0 103-3zm0 4a1.001 1.001 0 010-2 1.001 1.001 0 010 2z" />
    <path d="M66 10L56 2l-10 8 4 12h6l-1-2h-3.559l-3.103-9.31L56 4.561l7.662 6.129L62.559 14 64 16z" />
  </g>
  <g>
    <path d="M60 16c-.254 0-.497.041-.732.101h.001l-1.084-1.626.801-2.402L56 9.684l-2.985 2.388L54.324 16h2.474l.807 1.21A2.974 2.974 0 0057 19a3 3 0 103-3zm0 4a1.001 1.001 0 010-2 1.001 1.001 0 010 2z" />
    <path d="M66 10L56 2l-10 8 4 12h6l-1-2h-3.559l-3.103-9.31L56 4.561l7.662 6.129L62.559 14 64 16z" />
  </g>
  <g>
    <path d="M60 16c-.254 0-.497.041-.732.101h.001l-1.084-1.626.801-2.402L56 9.684l-2.985 2.388L54.324 16h2.474l.807 1.21A2.974 2.974 0 0057 19a3 3 0 103-3zm0 4a1.001 1.001 0 010-2 1.001 1.001 0 010 2z" />
    <path d="M66 10L56 2l-10 8 4 12h6l-1-2h-3.559l-3.103-9.31L56 4.561l7.662 6.129L62.559 14 64 16z" />
  </g>
  <g>
    <path d="M60 16c-.254 0-.497.041-.732.101h.001l-1.084-1.626.801-2.402L56 9.684l-2.985 2.388L54.324 16h2.474l.807 1.21A2.974 2.974 0 0057 19a3 3 0 103-3zm0 4a1.001 1.001 0 010-2 1.001 1.001 0 010 2z" />
    <path d="M66 10L56 2l-10 8 4 12h6l-1-2h-3.559l-3.103-9.31L56 4.561l7.662 6.129L62.559 14 64 16z" />
  </g>
  <g>
    <path d="M15 3H9a2 2 0 00-2 2v14a2 2 0 002 2h6a2 2 0 002-2V5a2 2 0 00-2-2zm-3 16a2 2 0 11-.001-3.999A2 2 0 0112 19zm0-5a2 2 0 11-.001-3.999A2 2 0 0112 14zm0-5a2 2 0 11-.001-3.999A2 2 0 0112 9zM18 8a3 3 0 003-3h-3v3zM18 13a3 3 0 003-3h-3v3zM18 18a3 3 0 003-3h-3v3zM6 8a3 3 0 01-3-3h3v3zM6 13a3 3 0 01-3-3h3v3zM6 18a3 3 0 01-3-3h3v3z" />
  </g>
</svg>