<svg version="1.1" id="Layer_1" xmlns="http://www.w3.org/2000/svg" x="0" y="0" viewBox="0 0 96 14" xml:space="preserve">
  <style>
    .st0 {
      fill: #fff
    }
    .st1 {
      fill: #de1821
    }
  </style>
  <g>
    <path class="st0" d="M57 7c0 1.9-.5 3.4-1.4 4.4-1 1-2.3 1.5-4.1 1.5-1.8 0-3.1-.5-4.1-1.5-1-1-1.4-2.5-1.4-4.4s.5-3.4 1.4-4.4c1-1 2.3-1.5 4.1-1.5 1.8 0 3.1.5 4.1 1.5.9 1 1.4 2.5 1.4 4.4zm-8.5 0c0 1.3.2 2.3.7 2.9.5.7 1.2 1 2.2 1 2 0 2.9-1.3 2.9-3.9 0-2.6-1-3.9-2.9-3.9-1 0-1.7.3-2.2 1-.4.6-.7 1.6-.7 2.9z" />
    <path class="st0" d="M65.8 9.6c0 1-.4 1.9-1.1 2.5-.8.6-1.8.9-3.1.9-1.2 0-2.3-.2-3.3-.7V10c.8.3 1.4.6 2 .7.5.1 1 .2 1.5.2s1-.1 1.2-.3c.3-.2.4-.5.4-.9 0-.2-.1-.4-.2-.6-.1-.2-.3-.3-.6-.5-.2-.2-.7-.4-1.5-.8-.7-.3-1.2-.7-1.6-1-.4-.3-.6-.7-.8-1.1-.2-.4-.3-.9-.3-1.4 0-1 .3-1.8 1-2.4.7-.6 1.6-.9 2.9-.9.6 0 1.2.1 1.7.2s1.1.3 1.7.6l-.8 1.9c-.6-.3-1.1-.4-1.5-.5s-.8-.2-1.2-.2c-.5 0-.8.1-1.1.3-.2.2-.4.5-.4.8 0 .2.1.4.2.6.1.3.3.4.5.6.2.2.7.4 1.6.8 1.1.5 1.8 1 2.2 1.6.4.5.6 1.1.6 1.9z" />
    <path class="st0" d="M11.2 6.8c0 2-.5 3.5-1.5 4.5s-2.5 1.5-4.5 1.5H2.3V1.1h3.2c1.9 0 3.3.5 4.3 1.5.9.9 1.4 2.4 1.4 4.2zm-.9.1c0-1.7-.4-2.9-1.3-3.8-.8-.9-2.1-1.3-3.7-1.3H3.1v10.3H5c3.6 0 5.3-1.8 5.3-5.2z" />
    <path class="st0" d="M21.5 1.1v7.6c0 1.3-.4 2.4-1.2 3.2-.8.7-1.9 1.1-3.3 1.1s-2.4-.4-3.2-1.1c-.8-.8-1.1-1.8-1.1-3.2V1.1h.8v7.6c0 1.1.3 2 .9 2.6.6.6 1.5.9 2.7.9 1.1 0 2-.3 2.6-.9.6-.6.9-1.5.9-2.6V1.1h.9z" />
    <path class="st0" d="M28.4 12.8L24 2h-.1c.1.6.1 1.3.1 2v8.8h-.8V1.1h1.3l4.2 10.3 4.2-10.3h1.2v11.7h-.8V3.9c0-.6 0-1.3.1-1.9h-.1l-4.4 10.8h-.5z" />
    <path class="st0" d="M42.9 8.7h-4.8l-1.6 4.1h-.9L40.3 1h.5l4.6 11.8h-.9l-1.6-4.1zm-4.5-.8h4.2L41 3.7c-.1-.3-.3-.8-.5-1.4-.1.5-.3 1-.5 1.4l-1.6 4.2z" />
  </g>
  <path class="st1" d="M75.6 6h1.2c.6 0 1-.1 1.3-.4.3-.3.4-.7.4-1.2s-.1-.8-.4-1.1c-.3-.3-.7-.4-1.2-.4-.4 0-.8.1-1.1.4-.3.2-.4.6-.4.9h-2.3c0-.6.2-1.1.5-1.6s.8-.9 1.4-1.1c.5-.3 1.2-.5 1.9-.5 1.2 0 2.2.3 2.9.9.7.6 1 1.4 1 2.4 0 .5-.2 1-.5 1.5s-.7.8-1.3 1c.7.2 1.1.6 1.5 1.1.3.5.5 1 .5 1.7 0 1-.4 1.9-1.1 2.5-.8.6-1.7.9-3 .9-1.2 0-2.1-.3-2.8-.9-.7-.6-1.1-1.4-1.1-2.4h2.3c0 .4.2.8.5 1.1.3.3.7.4 1.2.4s1-.1 1.3-.4c.3-.3.5-.7.5-1.2 0-1.2-.6-1.7-1.9-1.7h-1.2V6zM82.1 11.7c0-.4.1-.7.4-.9.2-.2.6-.3.9-.3.4 0 .7.1.9.3.2.2.4.5.4.9s-.1.7-.4.9c-.2.2-.6.3-.9.3-.4 0-.7-.1-.9-.3-.2-.3-.4-.6-.4-.9zM93.7 8c0 1.6-.3 2.8-1 3.7-.7.8-1.6 1.3-2.9 1.3-1.3 0-2.2-.4-2.9-1.3-.7-.8-1-2-1-3.6V6c0-1.6.3-2.9 1-3.7.6-.9 1.6-1.3 2.9-1.3s2.2.4 2.9 1.2c.7.8 1 2 1 3.6V8zm-2.3-2.4c0-1-.1-1.7-.4-2.1-.3-.4-.7-.7-1.2-.7s-.9.2-1.2.6c-.3.4-.4 1.1-.4 2v2.8c0 .9.1 1.7.4 2.1.3.5.7.7 1.2.7.6 0 1-.2 1.2-.7.3-.4.4-1.1.4-2V5.6z" />
</svg>