<?xml version="1.0" encoding="utf-8"?>
<!-- Generator: Adobe Illustrator 16.0.0, SVG Export Plug-In . SVG Version: 6.00 Build 0)  -->
<!DOCTYPE svg PUBLIC "-//W3C//DTD SVG 1.1//EN" "http://www.w3.org/Graphics/SVG/1.1/DTD/svg11.dtd">
<svg version="1.1" id="Layer_1" xmlns="http://www.w3.org/2000/svg" xmlns:xlink="http://www.w3.org/1999/xlink" x="0px" y="0px"
	 width="1920px" height="361.57px" viewBox="0 0 1920 361.57" enable-background="new 0 0 1920 361.57" xml:space="preserve">
<path fill="#FFFFFF" d="M1654.887,180.422c0,58.033-14.403,102.662-43.177,133.859c-28.807,31.191-70.046,46.777-123.813,46.777
	c-53.707,0-95.01-15.584-123.781-46.777c-28.809-31.195-43.209-76.007-43.209-134.343c0-58.365,14.434-102.937,43.33-133.736
	C1393.1,15.398,1434.492,0,1488.38,0c53.891,0,95.129,15.521,123.661,46.564C1640.636,77.576,1654.887,122.205,1654.887,180.422z
	 M1398.912,180.422c0,39.185,7.442,68.685,22.298,88.501c14.886,19.818,37.126,29.742,66.688,29.742
	c59.334,0,88.986-39.424,88.986-118.273c0-79-29.502-118.518-88.533-118.518c-29.592,0-51.892,9.954-66.897,29.863
	C1406.414,111.679,1398.912,141.21,1398.912,180.422z"/>
<path fill="#FFFFFF" d="M1920,258.849c0,31.68-11.408,56.609-34.188,74.887c-22.813,18.215-54.522,27.322-95.159,27.322
	c-37.431,0-70.529-7.021-99.306-21.121V270.86c23.66,10.591,43.691,18.033,60.09,22.3c16.369,4.358,31.377,6.477,44.965,6.477
	c16.31,0,28.805-3.116,37.55-9.352c8.714-6.264,13.071-15.551,13.071-27.836c0-6.896-1.906-13.011-5.719-18.365
	c-3.874-5.326-9.472-10.5-16.943-15.463c-7.412-4.961-22.604-12.857-45.445-23.75c-21.454-10.078-37.521-19.729-48.229-29.018
	c-10.711-9.289-19.274-20.061-25.688-32.376c-6.414-12.313-9.59-26.719-9.59-43.177c0-31.016,10.528-55.433,31.557-73.162
	s50.075-26.626,87.201-26.626c18.245,0,35.611,2.146,52.193,6.476c16.551,4.326,33.858,10.378,51.95,18.244l-23.992,57.821
	c-18.7-7.656-34.19-13.04-46.414-16.065c-12.225-3.027-24.297-4.54-36.098-4.54c-14.102,0-24.871,3.268-32.375,9.836
	c-7.535,6.564-11.287,15.125-11.287,25.657c0,6.564,1.515,12.286,4.568,17.154c3.025,4.87,7.867,9.593,14.492,14.16
	c6.656,4.568,22.361,12.77,47.172,24.6c32.801,15.674,55.25,31.377,67.413,47.143C1913.888,216.669,1920,235.976,1920,258.849z"/>
<path fill="#DA1820" d="M269.471,175.823c0,59.485-15.705,104.598-46.899,135.098c-31.195,30.529-77.096,45.748-137.58,45.748H0
	V1.752h95.916c56.732,0,99.728,14.827,129.259,44.449C254.735,75.731,269.471,119.001,269.471,175.823z M242.51,176.822
	c0-50.834-13.07-89.078-38.849-114.827C177.79,36.398,139.97,23.508,89.864,23.508H24.539v311.166h58.759
	C189.592,334.792,242.51,282.147,242.51,176.822z"/>
<path fill="#DA1820" d="M580.484,1.752v229.684c0,40.788-11.831,72.679-35.401,95.612c-23.661,22.994-56.733,34.521-98.911,34.521
	c-41.06,0-73.192-11.559-96.279-34.646c-22.996-23.115-34.583-55.188-34.583-96.487V1.752h25.023v229.684
	c0,34.16,9.41,60.694,28.26,79.817c18.941,18.883,45.629,28.41,80.333,28.41c33.646,0,59.909-9.318,78.699-27.986
	c18.698-18.672,27.746-44.602,27.746-77.73V1.813L580.484,1.752L580.484,1.752z"/>
<path fill="#DA1820" d="M788.502,356.669L656.279,28.864h-1.876c1.36,20.091,1.876,40.636,1.876,61.694v266.109h-23.814V1.752
	h38.427L796.58,313.978h1.481L923.84,1.752h37.306v355.009h-24.87V87.622c0-18.789,1.118-38.215,2.872-58.215h-1.875
	L804.415,356.638H788.5v0.031H788.502z"/>
<path fill="#DA1820" d="M1226.896,231.375h-144.053l-49.713,125.295h-27.383L1148.438,0.301h15.979l139.605,356.369h-27.896
	L1226.896,231.375z M1091.68,209.016h126.811l-48.261-127.897c-4.056-10.018-8.898-23.964-14.586-41.725
	c-4.326,15.521-9.168,29.622-14.281,42.239L1091.68,209.016z"/>
</svg>
