<?xml version="1.0" encoding="utf-8"?>
<!-- Generator: Adobe Illustrator 24.2.1, SVG Export Plug-In . SVG Version: 6.00 Build 0)  -->
<svg version="1.1" id="Layer_1" xmlns="http://www.w3.org/2000/svg" xmlns:xlink="http://www.w3.org/1999/xlink" x="0px" y="0px"
	 viewBox="0 0 725 100" style="enable-background:new 0 0 725 100;" xml:space="preserve">
<style type="text/css">
	.st0{fill:#065AA7;}
</style>
<g>
	<path class="st0" d="M60.646,75.362l-1.5-8.5c-3.5,5.8-11.301,9.9-19.301,9.9c-7.101,0-14.001-2.3-19.101-7.3
		c-7.201-7-9.201-16.801-9.201-29.502c0-11.3,1.5-21.701,9.201-29.202c5.1-5,12-7.601,19.101-7.601c8,0,15.401,2.8,20.301,8
		c3.4,3.601,5.8,8.101,6.1,13.801h-9.3c-0.3-3.3-1.4-5.6-3.2-7.8c-3.2-3.8-8.101-5.6-13.901-5.6c-4.8,0-9.5,1.9-12.901,5.4
		c-5.8,6-6.2,15.601-6.2,23.001c0,7.101,0.5,17.301,6.4,23.302c3.4,3.5,7.9,5.1,12.701,5.1c5,0,9.701-1.7,12.901-4.9
		c4.7-4.6,6.1-11.5,6.1-18.001H39.844v-8.3h27.001v38.202H60.646z"/>
	<path class="st0" d="M117.845,76.063c-4.5,0-7.3-3.4-7.3-7.701h-0.2c-2.9,5.101-9.201,8.301-16.301,8.301
		c-11.601,0-17.401-7.801-17.401-15.601c0-6.5,4.2-15.001,18.001-15.801l15.401-0.9v-3.7c0-2.5-0.3-5.6-2.6-7.7
		c-1.7-1.601-4.2-2.601-8.3-2.601c-4.601,0-7.5,1.3-9.201,3c-1.6,1.6-2.5,3.6-2.5,6.1h-8.301c0.1-4.6,1.8-7.9,4.4-10.601
		c3.4-3.6,9.4-5.4,15.601-5.4c9.8,0,15.401,4.2,17.801,9.701c1,2.3,1.5,4.9,1.5,7.8v24.502c0,2.7,1.1,3.4,2.8,3.4
		c0.9,0,2.2-0.3,2.2-0.3v6.3C121.645,75.762,119.945,76.063,117.845,76.063z M110.045,50.961l-13.601,0.8
		c-5.101,0.3-11.101,2.7-11.101,9.101c0,4.5,2.8,8.701,10.001,8.701c3.9,0,7.7-1.3,10.4-4.1c3-3.101,4.3-7.301,4.3-11.501V50.961z"
		/>
	<path class="st0" d="M195.946,75.362V43.16c0-7.1-2.3-12-10.3-12c-3.2,0-5.701,1.3-7.701,3.4c-3.4,3.5-4.3,8.601-4.3,13.901v26.902
		h-8.5V43.16c0-7.1-2.1-12-10.201-12c-3.6,0-6.5,1.8-8.601,4.5c-2.5,3.2-3.4,8.601-3.4,12.801v26.902h-8.5V24.759h7.4l0.8,7.2
		c2.7-5.7,8.5-8.5,14.201-8.5c7.5,0,12.9,3.4,15.101,9.601c2.7-6.3,9.201-9.601,15.601-9.601c11.5,0,16.901,7.4,16.901,18.601
		v33.302H195.946z"/>
	<path class="st0" d="M260.444,52.861h-35.802c0,4.601,1.8,9.601,4.9,12.701c2.3,2.3,5.4,3.601,9.301,3.601c4,0,7.3-1.1,9.4-3.3
		c1.4-1.4,2.3-2.8,3-5.5h8.301c-0.7,5-3.7,9.701-7.8,12.501c-3.601,2.4-8.101,3.8-12.901,3.8c-7.101,0-12.901-3-16.801-7.601
		c-4.2-4.9-6.3-11.601-6.3-18.801c0-6.101,1.1-11.5,3.9-16.201c3.6-6.1,10.3-10.601,19.101-10.601c6.5,0,11.701,2.5,15.401,6.5
		c4.1,4.5,6.5,11,6.4,17.801L260.444,52.861z M248.744,35.26c-2.1-2.8-5.5-4.6-10-4.6c-9.201,0-13.701,7.5-13.901,14.901h27.001
		C251.844,41.76,250.744,37.96,248.744,35.26z"/>
	<path class="st0" d="M337.143,69.162c-5.1,5-12,7.6-19.101,7.6s-14.001-2.6-19.101-7.6c-7.701-7.5-9.101-17.901-9.101-29.202
		c0-11.3,1.4-21.701,9.101-29.202c5.1-5,12-7.601,19.101-7.601s14.001,2.6,19.101,7.601c7.701,7.5,9.101,17.901,9.101,29.202
		C346.243,51.261,344.843,61.662,337.143,69.162z M330.943,16.959c-3.4-3.5-8.101-5.301-12.901-5.301s-9.5,1.8-12.901,5.301
		c-5.8,6-6.1,15.601-6.1,23.001s0.3,17.001,6.1,23.001c3.4,3.5,8.101,5.3,12.901,5.3s9.5-1.8,12.901-5.3
		c5.8-6,6.101-15.601,6.101-23.001S336.743,22.959,330.943,16.959z"/>
	<path class="st0" d="M395.442,71.662c-3.3,3.1-8,5.1-13.901,5.1c-5.5,0-12-2.6-14.701-7.2v27.501h-8.501V24.859h7.5l0.6,6.6
		c2.9-5.1,9.401-7.9,15.101-7.9c6.2,0,11,2.1,14.301,5.5c4.8,4.9,7.3,12.601,7.3,21.001
		C403.142,58.761,400.542,66.762,395.442,71.662z M380.141,30.76c-3.7,0-6.201,1.5-8.201,3.3c-4.2,3.7-5.6,9.801-5.6,16.101
		s1.4,12.401,5.6,16.101c2,1.8,4.5,3.3,8.201,3.3c11.3,0,14.301-10.101,14.301-19.401C394.442,40.86,391.441,30.76,380.141,30.76z"
		/>
	<path class="st0" d="M430.94,76.063c-10.9,0-13.901-6.9-13.901-13.701V32.06h-9.8v-7.3h9.8V11.858l8.5-2v14.901h15.001v7.3H425.54
		v29.302c0,4.9,2.1,6.9,6.801,6.9c3.6,0,8.7-0.9,8.7-0.9v7.3C438.741,75.262,435.641,76.063,430.94,76.063z"/>
	<path class="st0" d="M450.239,13.159V3.158h9.9v10.001H450.239z M450.839,75.362V24.759h8.701v50.603H450.839z"/>
	<path class="st0" d="M537.142,75.362V43.16c0-7.1-2.301-12-10.301-12c-3.2,0-5.7,1.3-7.701,3.4c-3.399,3.5-4.3,8.601-4.3,13.901
		v26.902h-8.501V43.16c0-7.1-2.1-12-10.2-12c-3.6,0-6.5,1.8-8.601,4.5c-2.5,3.2-3.4,8.601-3.4,12.801v26.902h-8.5V24.759h7.4
		l0.8,7.2c2.7-5.7,8.5-8.5,14.201-8.5c7.5,0,12.9,3.4,15.101,9.601c2.7-6.3,9.2-9.601,15.601-9.601
		c11.501,0,16.901,7.4,16.901,18.601v33.302H537.142z"/>
	<path class="st0" d="M560.337,13.159V3.158h9.901v10.001H560.337z M560.938,75.362V24.759h8.7v50.603H560.938z"/>
	<path class="st0" d="M619.238,70.962c-3.9,4-9.9,5.701-16.501,5.701c-6.301,0-12.101-1.5-16.401-5.701c-3.1-3-4.9-7.3-4.9-11.601
		h8.501c0.1,3.5,1.7,6.101,4.1,7.9c2.301,1.7,5.9,2.3,9.101,2.3c3.501,0,6.701-0.6,9.301-2.8c1.4-1.1,2.5-3.2,2.5-5.5
		c0-3.8-2.7-6.5-7.9-7.2l-11.4-1.5c-7.601-1.2-12.4-5.9-12.4-13.601c0-3.9,1.899-7.601,4.2-9.9c3.3-3.4,8.601-5.601,14.9-5.601
		c6.7,0,12.701,2.1,16.102,6.4c2.2,2.7,3.6,5.601,3.6,9.701h-8.5c-0.101-2.6-1.4-5-2.9-6.3c-2.101-1.9-4.9-2.7-8.301-2.7
		c-2,0-3.5,0-5.9,1c-3.2,1.3-5.1,4-5.1,6.8c0,4.201,2.6,6,6.8,6.601c2.8,0.4,6.801,0.8,12.201,1.7c7.2,1.2,12.9,6.4,12.9,14.001
		C623.238,65.062,621.639,68.462,619.238,70.962z"/>
	<path class="st0" d="M676.037,52.861h-35.802c0,4.601,1.8,9.601,4.9,12.701c2.3,2.3,5.4,3.601,9.3,3.601
		c4.001,0,7.301-1.1,9.401-3.3c1.399-1.4,2.3-2.8,3-5.5h8.3c-0.699,5-3.7,9.701-7.8,12.501c-3.601,2.4-8.101,3.8-12.901,3.8
		c-7.101,0-12.9-3-16.801-7.601c-4.2-4.9-6.3-11.601-6.3-18.801c0-6.101,1.1-11.5,3.899-16.201
		c3.601-6.1,10.301-10.601,19.102-10.601c6.5,0,11.7,2.5,15.401,6.5c4.1,4.5,6.5,11,6.4,17.801L676.037,52.861z M664.337,35.26
		c-2.101-2.8-5.501-4.6-10.001-4.6c-9.2,0-13.701,7.5-13.901,14.901h27.002C667.437,41.76,666.337,37.96,664.337,35.26z"/>
	<path class="st0" d="M710.535,32.66c-4.001,0-7.301,1.8-9.601,4c-4.101,3.9-4.601,10.9-4.601,16.201v22.501h-8.4V24.759h7.5
		l0.7,8.9c2.601-6.2,8.7-9.201,15.101-9.201c1.301,0,2.7,0.1,4.001,0.3v8.3C713.735,32.76,712.035,32.66,710.535,32.66z"/>
</g>
</svg>
