<?xml version="1.0" encoding="utf-8"?>
<!-- Generator: Adobe Illustrator 24.2.1, SVG Export Plug-In . SVG Version: 6.00 Build 0)  -->
<svg version="1.1" id="Layer_1" xmlns="http://www.w3.org/2000/svg" xmlns:xlink="http://www.w3.org/1999/xlink" x="0px" y="0px"
	 viewBox="0 0 1750.96 372.744" style="enable-background:new 0 0 1750.96 372.744;" xml:space="preserve">
<style type="text/css">
	.st0{opacity:0.2;}
	.st1{clip-path:url(#SVGID_2_);}
	.st2{fill:url(#SVGID_3_);}
	.st3{fill:url(#SVGID_4_);}
	.st4{fill:url(#SVGID_5_);}
	.st5{fill:url(#SVGID_6_);}
	.st6{fill:url(#SVGID_7_);}
	.st7{fill:url(#SVGID_8_);}
	.st8{fill:url(#SVGID_9_);}
	.st9{fill:url(#SVGID_10_);}
	.st10{fill:url(#SVGID_11_);}
	.st11{fill:url(#SVGID_12_);}
	.st12{fill:url(#SVGID_13_);}
	.st13{fill:url(#SVGID_14_);}
	.st14{fill:url(#SVGID_15_);}
	.st15{fill:url(#SVGID_16_);}
	.st16{fill:url(#SVGID_17_);}
	.st17{fill:url(#SVGID_18_);}
	.st18{fill:url(#SVGID_19_);}
	.st19{fill:url(#SVGID_20_);}
	.st20{fill:url(#SVGID_21_);}
	.st21{fill:url(#SVGID_22_);}
	.st22{fill:url(#SVGID_23_);}
	.st23{fill:url(#SVGID_24_);}
	.st24{fill:url(#SVGID_25_);}
	.st25{fill:url(#SVGID_26_);}
	.st26{fill:url(#SVGID_27_);}
	.st27{fill:url(#SVGID_28_);}
	.st28{fill:url(#SVGID_29_);}
	.st29{fill:url(#SVGID_30_);}
	.st30{fill:url(#SVGID_31_);}
	.st31{fill:url(#SVGID_32_);}
	.st32{fill:url(#SVGID_33_);}
	.st33{fill:url(#SVGID_34_);}
	.st34{fill:url(#SVGID_35_);}
	.st35{fill:url(#SVGID_36_);}
	.st36{fill:url(#SVGID_37_);}
	.st37{fill:url(#SVGID_38_);}
	.st38{fill:url(#SVGID_39_);}
	.st39{fill:url(#SVGID_40_);}
	.st40{fill:url(#SVGID_41_);}
	.st41{fill:url(#SVGID_42_);}
	.st42{fill:url(#SVGID_43_);}
	.st43{fill:url(#SVGID_44_);}
	.st44{fill:url(#SVGID_45_);}
	.st45{fill:url(#SVGID_46_);}
	.st46{fill:url(#SVGID_47_);}
	.st47{fill:#ED3C96;}
	.st48{opacity:0.4;fill:url(#SVGID_48_);}
</style>
<g class="st0">
	<defs>
		<polygon id="SVGID_1_" class="st0" points="1750.96,305.772 875.48,340.081 0,305.772 0,0 1750.96,0 		"/>
	</defs>
	<clipPath id="SVGID_2_">
		<use xlink:href="#SVGID_1_"  style="overflow:visible;"/>
	</clipPath>
	<g class="st1">
		<linearGradient id="SVGID_3_" gradientUnits="userSpaceOnUse" x1="509.0999" y1="370.646" x2="509.0999" y2="79.1842">
			<stop  offset="0" style="stop-color:#FE2795"/>
			<stop  offset="1" style="stop-color:#FE2795;stop-opacity:0"/>
		</linearGradient>
		<path class="st2" d="M665.917,144.025l-2.998-0.303l-310.638-31.293L546.696,89.44l0.127,0.058L665.917,144.025z M361.47,112.349
			l298.553,30.076l-113.488-51.96L361.47,112.349z"/>
		<linearGradient id="SVGID_4_" gradientUnits="userSpaceOnUse" x1="884.958" y1="370.646" x2="884.958" y2="79.1842">
			<stop  offset="0" style="stop-color:#FE2795"/>
			<stop  offset="1" style="stop-color:#FE2795;stop-opacity:0"/>
		</linearGradient>
		<path class="st3" d="M964.397,144.456l0.315-0.095l-306.682-0.646l178.086-36.049L542.26,90.195l157.797-27.141l0.115,0.036
			l139.812,43.781l139.921-40.216l0.113,0.019l154.425,26.477l3.977-0.186l-2.636,0.796l91.872,44.395l-256.275,6.133l0.304,0.087
			l-3.604-0.008L964.397,144.456z M667.909,142.736l296.559,0.624l-124.51-35.451L667.909,142.736z M843.057,107.75l125.015,35.596
			l162.332-49.006L843.057,107.75z M1134.37,94.188L971.755,143.28l251.739-6.024L1134.37,94.188z M979.962,67.679l-135.744,39.017
			l285.573-13.328L979.962,67.679z M550.972,89.71l284.966,16.942l-135.95-42.571L550.972,89.71z"/>
		<linearGradient id="SVGID_5_" gradientUnits="userSpaceOnUse" x1="839.9783" y1="370.646" x2="839.9783" y2="79.1842">
			<stop  offset="0" style="stop-color:#FE2795"/>
			<stop  offset="1" style="stop-color:#FE2795;stop-opacity:0"/>
		</linearGradient>
		<polygon class="st4" points="979.927,67.667 700.016,64.068 700.029,63.068 979.94,66.667 		"/>
		<linearGradient id="SVGID_6_" gradientUnits="userSpaceOnUse" x1="1152.2048" y1="370.646" x2="1152.2048" y2="79.1842">
			<stop  offset="0" style="stop-color:#FE2795"/>
			<stop  offset="1" style="stop-color:#FE2795;stop-opacity:0"/>
		</linearGradient>
		<path class="st5" d="M1385.977,109.317l-253.724-15.293l1.964-0.832l102.865-43.521L979.878,67.672l-0.087-0.025l-61.358-18.205
			l0.284-0.959l61.272,18.18l263.007-18.408l-1.666,0.705L1385.977,109.317z M1136.571,93.282l243.563,14.682L1240.04,49.504
			L1136.571,93.282z"/>
		<linearGradient id="SVGID_7_" gradientUnits="userSpaceOnUse" x1="527.8433" y1="370.646" x2="527.8433" y2="79.1842">
			<stop  offset="0" style="stop-color:#FE2795"/>
			<stop  offset="1" style="stop-color:#FE2795;stop-opacity:0"/>
		</linearGradient>
		<path class="st6" d="M549.103,90.613L279.597,73.404l-0.033-0.995l181.52-23.727l-0.762-0.373L699.99,63.065l75.944-14.594
			l0.188,0.982l-76.068,14.617l-0.063-0.004L465.27,49.616L549.103,90.613z M284.795,72.734l259.333,16.559l-81.417-39.814
			L284.795,72.734z"/>
		<linearGradient id="SVGID_8_" gradientUnits="userSpaceOnUse" x1="677.3284" y1="370.646" x2="677.3284" y2="79.1842">
			<stop  offset="0" style="stop-color:#FE2795"/>
			<stop  offset="1" style="stop-color:#FE2795;stop-opacity:0"/>
		</linearGradient>
		<path class="st7" d="M809.058,244.788l-263.458-9.794l105.854-30.55l0.132,0.034L809.058,244.788z M551.866,234.226l247.901,9.216
			l-148.298-37.961L551.866,234.226z"/>
		<linearGradient id="SVGID_9_" gradientUnits="userSpaceOnUse" x1="1004.1929" y1="370.646" x2="1004.1929" y2="79.1842">
			<stop  offset="0" style="stop-color:#FE2795"/>
			<stop  offset="1" style="stop-color:#FE2795;stop-opacity:0"/>
		</linearGradient>
		<path class="st8" d="M799.635,244.744l164.202-39.281H646.878l157.986-34.887l0.105,0.022l163.089,33.85l122.368-34.926
			l148.899,38.642l4.617,0.063l-2.265,0.458l119.83,26.4l-257.913,1.48L799.635,244.744z M968.078,205.476l-158.889,38.01
			l290.451-7.814L968.078,205.476z M972.769,205.527l130.83,30.026l130.975-26.454L972.769,205.527z M1239.253,209.173
			l-130.514,26.362l243.815-1.4L1239.253,209.173z M972.051,204.526l263.074,3.58l-144.687-37.547l-118.789,33.903h0.666
			L972.051,204.526z M656.044,204.462H963.25l-158.38-32.863L656.044,204.462z"/>
		<linearGradient id="SVGID_10_" gradientUnits="userSpaceOnUse" x1="949.9326" y1="370.646" x2="949.9326" y2="79.1842">
			<stop  offset="0" style="stop-color:#FE2795"/>
			<stop  offset="1" style="stop-color:#FE2795;stop-opacity:0"/>
		</linearGradient>
		<path class="st9" d="M804.869,171.587l-0.084-0.993l163.303-27.235l0.093,0.02l126.899,27.146L804.869,171.587z M968.064,144.376
			L811.04,170.565l274.743-1.008L968.064,144.376z"/>
		<linearGradient id="SVGID_11_" gradientUnits="userSpaceOnUse" x1="1346.8555" y1="370.646" x2="1346.8555" y2="79.1842">
			<stop  offset="0" style="stop-color:#FE2795"/>
			<stop  offset="1" style="stop-color:#FE2795;stop-opacity:0"/>
		</linearGradient>
		<path class="st10" d="M1353.46,235.442l136.746-52.355l-254.021,26.398l96.291-42.917l-246.596,4.048l139.699-33.426l0.12,0.031
			l109.276,28.306l2.381-0.039l-95.027,42.353l255.319-26.533l-2.099,0.804l112.279,29.85L1353.46,235.442z M1493.955,182.721
			l-133.354,51.057l241.535-22.296L1493.955,182.721z M1225.57,138.221l-130.588,31.244l236.244-3.877L1225.57,138.221z"/>
		<linearGradient id="SVGID_12_" gradientUnits="userSpaceOnUse" x1="670.8342" y1="370.646" x2="670.8342" y2="79.1842">
			<stop  offset="0" style="stop-color:#FE2795"/>
			<stop  offset="1" style="stop-color:#FE2795;stop-opacity:0"/>
		</linearGradient>
		<path class="st11" d="M651.419,205.484l-0.143-0.057l-116.924-46.234l0.146-0.369l-0.022-0.592l128.512-15.513l0.078,0.016
			l144.25,28.324L651.419,205.484z M537.505,159.365l113.997,45.076l149.566-33.026L537.505,159.365z M540.57,158.503
			l257.592,11.777l-135.21-26.55L540.57,158.503z"/>
		<linearGradient id="SVGID_13_" gradientUnits="userSpaceOnUse" x1="382.1868" y1="370.646" x2="382.1868" y2="79.1842">
			<stop  offset="0" style="stop-color:#FE2795"/>
			<stop  offset="1" style="stop-color:#FE2795;stop-opacity:0"/>
		</linearGradient>
		<path class="st12" d="M651.433,205.461l-290.584-16.372l171.353-30.454l-175.389-45.746H112.884l166.807-40.514l0.165,0.084
			l77.199,39.46l179.818,46.901l-167.407,29.753l282.023,15.89L651.433,205.461z M121.239,111.889h233.561l-75.233-38.455
			L121.239,111.889z"/>
		<linearGradient id="SVGID_14_" gradientUnits="userSpaceOnUse" x1="415.3806" y1="370.646" x2="415.3806" y2="79.1842">
			<stop  offset="0" style="stop-color:#FE2795"/>
			<stop  offset="1" style="stop-color:#FE2795;stop-opacity:0"/>
		</linearGradient>
		<path class="st13" d="M553.35,235.246l-275.939-8.123l87.701-38.817l0.167,0.041L553.35,235.246z M281.847,226.253l262.268,7.721
			l-178.912-44.616L281.847,226.253z"/>
		<linearGradient id="SVGID_15_" gradientUnits="userSpaceOnUse" x1="314.1685" y1="370.646" x2="314.1685" y2="79.1842">
			<stop  offset="0" style="stop-color:#FE2795"/>
			<stop  offset="1" style="stop-color:#FE2795;stop-opacity:0"/>
		</linearGradient>
		<path class="st14" d="M93.785,191.884l184.258-41.205l-0.948-0.422l257.458,7.971l-0.031,1l-252.358-7.813l85.302,37.895
			L93.785,191.884z M279.577,151.361l-176.341,39.434l259.613-2.441L279.577,151.361z"/>
		<linearGradient id="SVGID_16_" gradientUnits="userSpaceOnUse" x1="139.7932" y1="370.646" x2="139.7932" y2="79.1842">
			<stop  offset="0" style="stop-color:#FE2795"/>
			<stop  offset="1" style="stop-color:#FE2795;stop-opacity:0"/>
		</linearGradient>
		<polygon class="st15" points="279.533,227.179 98.415,191.831 -0.138,163.502 0.138,162.541 98.648,190.859 279.725,226.197 		"/>
		<linearGradient id="SVGID_17_" gradientUnits="userSpaceOnUse" x1="177.2056" y1="370.646" x2="177.2056" y2="79.1842">
			<stop  offset="0" style="stop-color:#FE2795"/>
			<stop  offset="1" style="stop-color:#FE2795;stop-opacity:0"/>
		</linearGradient>
		<path class="st16" d="M-2.688,163.639l119.703-51.774l0.162,0.038l162.391,38.405l77.085-38.366l0.445,0.895l-77.409,38.528
			l-0.109-0.025L-2.688,163.639z M117.108,112.914L2.688,162.405l273.32-11.911L117.108,112.914z"/>
		<linearGradient id="SVGID_18_" gradientUnits="userSpaceOnUse" x1="140.386" y1="370.646" x2="140.386" y2="79.1842">
			<stop  offset="0" style="stop-color:#FE2795"/>
			<stop  offset="1" style="stop-color:#FE2795;stop-opacity:0"/>
		</linearGradient>
		<path class="st17" d="M0.032,120.464l-0.064-0.998l113.764-7.362L-3.613,83.916l3.541-0.144l139.867-35.321l0.104,0.018
			l144.486,24.742l-4.735,0.193L3.613,84.623l116.778,28.051L0.032,120.464z M139.834,49.473L4.795,83.575l270.078-10.977
			L139.834,49.473z"/>
		<linearGradient id="SVGID_19_" gradientUnits="userSpaceOnUse" x1="1394.3423" y1="370.646" x2="1394.3423" y2="79.1842">
			<stop  offset="0" style="stop-color:#FE2795"/>
			<stop  offset="1" style="stop-color:#FE2795;stop-opacity:0"/>
		</linearGradient>
		<path class="st18" d="M1563.12,138.206h-337.545l-0.091-0.991l157.565-29.082l0.086,0.015l180.064,29.065L1563.12,138.206z
			 M1231.039,137.206h325.846l-173.823-28.058L1231.039,137.206z"/>
		<linearGradient id="SVGID_20_" gradientUnits="userSpaceOnUse" x1="1447.8481" y1="370.646" x2="1447.8481" y2="79.1842">
			<stop  offset="0" style="stop-color:#FE2795"/>
			<stop  offset="1" style="stop-color:#FE2795;stop-opacity:0"/>
		</linearGradient>
		<path class="st19" d="M1494.051,182.711l-0.174-0.018l-163.417-16.616l234.776-29.139L1494.051,182.711z M1339.374,165.978
			l154.431,15.704l67.199-43.21L1339.374,165.978z"/>
		<linearGradient id="SVGID_21_" gradientUnits="userSpaceOnUse" x1="1473.3198" y1="370.646" x2="1473.3198" y2="79.1842">
			<stop  offset="0" style="stop-color:#FE2795"/>
			<stop  offset="1" style="stop-color:#FE2795;stop-opacity:0"/>
		</linearGradient>
		<path class="st20" d="M1706.635,112.923l-323.585-3.783l-0.077-0.993l207.407-35.029l-350.375-23.656l0.068-0.998l358.836,24.229
			l-2.309,0.39L1706.635,112.923z M1388.633,108.206l312.113,3.649l-106.148-38.436L1388.633,108.206z"/>
		<linearGradient id="SVGID_22_" gradientUnits="userSpaceOnUse" x1="1686.7739" y1="370.646" x2="1686.7739" y2="79.1842">
			<stop  offset="0" style="stop-color:#FE2795"/>
			<stop  offset="1" style="stop-color:#FE2795;stop-opacity:0"/>
		</linearGradient>
		<path class="st21" d="M1842.213,94.382l-247.746-21.01l-63.132-23.942l0.355-0.936l63.007,23.896l151.156-23.946l0.14,0.067
			L1842.213,94.382z M1598.79,72.754l238.036,20.168l-91.123-43.441L1598.79,72.754z"/>
		<linearGradient id="SVGID_23_" gradientUnits="userSpaceOnUse" x1="1793.999" y1="370.646" x2="1793.999" y2="79.1842">
			<stop  offset="0" style="stop-color:#FE2795"/>
			<stop  offset="1" style="stop-color:#FE2795;stop-opacity:0"/>
		</linearGradient>
		<path class="st22" d="M1884.376,124.239l-180.717-11.351l-0.037-0.994l136.022-18.764l0.16,0.112L1884.376,124.239z
			 M1708.7,112.203l172.166,10.813l-41.472-28.841L1708.7,112.203z"/>
		<linearGradient id="SVGID_24_" gradientUnits="userSpaceOnUse" x1="1654.8687" y1="370.646" x2="1654.8687" y2="79.1842">
			<stop  offset="0" style="stop-color:#FE2795"/>
			<stop  offset="1" style="stop-color:#FE2795;stop-opacity:0"/>
		</linearGradient>
		<path class="st23" d="M1750.874,143.716c-2.375-0.299-185.914-5.459-187.768-5.511l-4.829-0.136l145.521-26.208l0.167,0.109
			c15.857,10.425,46.126,30.277,47.184,30.795l-0.034,0.07c0.346,0.089,0.346,0.208,0.346,0.389v0.299l-0.264,0.143
			c-0.055,0.029-0.103,0.057-0.31-0.027L1750.874,143.716z M1567.962,137.341c13.142,0.37,51.118,1.442,89.093,2.534
			c23.479,0.675,46.96,1.356,64.57,1.886c8.806,0.265,16.144,0.49,21.28,0.658c3.008,0.098,4.958,0.161,6.223,0.226
			c-3.668-2.249-14.228-9.14-45.545-29.729L1567.962,137.341z"/>
		<linearGradient id="SVGID_25_" gradientUnits="userSpaceOnUse" x1="1690.3418" y1="370.646" x2="1690.3418" y2="79.1842">
			<stop  offset="0" style="stop-color:#FE2795"/>
			<stop  offset="1" style="stop-color:#FE2795;stop-opacity:0"/>
		</linearGradient>
		<path class="st24" d="M1493.942,182.697l-0.09-0.994l257.122-38.985l0.089,0.019l135.768,28.731L1493.942,182.697z
			 M1750.945,143.733l-248.842,37.73l376.308-10.756L1750.945,143.733z"/>
		<linearGradient id="SVGID_26_" gradientUnits="userSpaceOnUse" x1="1743.8022" y1="370.646" x2="1743.8022" y2="79.1842">
			<stop  offset="0" style="stop-color:#FE2795"/>
			<stop  offset="1" style="stop-color:#FE2795;stop-opacity:0"/>
		</linearGradient>
		<polygon class="st25" points="1604.995,212.221 1604.911,211.226 1882.549,170.592 1882.693,171.582 1613.225,211.02 
			1882.609,204.462 1882.633,205.462 		"/>
		<linearGradient id="SVGID_27_" gradientUnits="userSpaceOnUse" x1="1816.7905" y1="370.646" x2="1816.7905" y2="79.1842">
			<stop  offset="0" style="stop-color:#FE2795"/>
			<stop  offset="1" style="stop-color:#FE2795;stop-opacity:0"/>
		</linearGradient>
		<polygon class="st26" points="1751.033,143.719 1750.887,142.731 1882.548,123.133 1882.694,124.122 		"/>
		<linearGradient id="SVGID_28_" gradientUnits="userSpaceOnUse" x1="1814.8965" y1="370.646" x2="1814.8965" y2="79.1842">
			<stop  offset="0" style="stop-color:#FE2795"/>
			<stop  offset="1" style="stop-color:#FE2795;stop-opacity:0"/>
		</linearGradient>
		<polygon class="st27" points="1882.57,98.525 1837.998,94 1881.161,67.478 1745.712,49.458 1745.845,48.466 1884.081,66.857 
			1841.041,93.305 1882.672,97.531 		"/>
		<linearGradient id="SVGID_29_" gradientUnits="userSpaceOnUse" x1="660.5837" y1="370.646" x2="660.5837" y2="79.1842">
			<stop  offset="0" style="stop-color:#FE2795"/>
			<stop  offset="1" style="stop-color:#FE2795;stop-opacity:0"/>
		</linearGradient>
		<path class="st28" d="M455.934,355.233l112.287-37.286l0.109,0.013l296.904,33.878l-0.054,0.997L455.934,355.233z
			 M568.326,318.966l-106.097,35.229l394.585-2.313L568.326,318.966z"/>
		<linearGradient id="SVGID_30_" gradientUnits="userSpaceOnUse" x1="941.4763" y1="370.646" x2="941.4763" y2="79.1842">
			<stop  offset="0" style="stop-color:#FE2795"/>
			<stop  offset="1" style="stop-color:#FE2795;stop-opacity:0"/>
		</linearGradient>
		<path class="st29" d="M780.383,355.137l15.893-33.932l-230.63-2.274l102.779-39.499l0.167,0.053l128.499,40.714l175.713-32.649
			l0.082,0.012l135.297,19.441l0.416-0.018l0.008,0.068l208.7,24.166l-0.023,0.996l-204.979,13.926l-0.003-0.02L780.383,355.137z
			 M797.365,321.239l-15.389,32.855l321.321-8.728L797.365,321.239z M1108.729,308.074l4.454,37.005l198.599-13.492
			L1108.729,308.074z M805.317,320.863l306.857,24.2l-4.459-37.039L805.317,320.863z M570.901,317.983l222.82,2.197l-125.264-39.689
			L570.901,317.983z M972.825,288.563l-168.728,31.352l298.66-12.682L972.825,288.563z"/>
		<linearGradient id="SVGID_31_" gradientUnits="userSpaceOnUse" x1="821.0452" y1="370.646" x2="821.0452" y2="79.1842">
			<stop  offset="0" style="stop-color:#FE2795"/>
			<stop  offset="1" style="stop-color:#FE2795;stop-opacity:0"/>
		</linearGradient>
		<path class="st30" d="M977.154,288.671l-312.218-8.303l139.476-36.771l0.127,0.033L977.154,288.671z M671.946,279.554
			l296.529,7.887l-164.062-42.81L671.946,279.554z"/>
		<linearGradient id="SVGID_32_" gradientUnits="userSpaceOnUse" x1="1286.4805" y1="370.646" x2="1286.4805" y2="79.1842">
			<stop  offset="0" style="stop-color:#FE2795"/>
			<stop  offset="1" style="stop-color:#FE2795;stop-opacity:0"/>
		</linearGradient>
		<path class="st31" d="M1313.486,332.804l136.91-59.411l-342.188,34.608l-0.194-0.977l142.016-42.43l-280.558,24.252l134.068-53.3
			l0.142,0.025l151.193,27.6l4.797-0.415l-146.331,43.721l343.351-34.728l-1.207,0.524l148.005,15.688L1313.486,332.804z
			 M1453.622,273.082l-132.61,57.546l274.737-42.479L1453.622,273.082z M1103.644,236.582l-127.486,50.683l274.938-23.766
			L1103.644,236.582z"/>
		<linearGradient id="SVGID_33_" gradientUnits="userSpaceOnUse" x1="534.7659" y1="370.646" x2="534.7659" y2="79.1842">
			<stop  offset="0" style="stop-color:#FE2795"/>
			<stop  offset="1" style="stop-color:#FE2795;stop-opacity:0"/>
		</linearGradient>
		<path class="st32" d="M568.297,318.983l-0.161-0.045l-164.97-46.843l-3.479-0.11l149.074-37.898l0.147,0.056l120.934,45.816
			L568.297,318.983z M407.285,272.225L568.25,317.93l97.7-37.547L407.285,272.225z M406.8,271.209l258.661,8.158l-116.758-44.234
			L406.8,271.209z"/>
		<linearGradient id="SVGID_34_" gradientUnits="userSpaceOnUse" x1="139.8145" y1="370.646" x2="139.8145" y2="79.1842">
			<stop  offset="0" style="stop-color:#FE2795"/>
			<stop  offset="1" style="stop-color:#FE2795;stop-opacity:0"/>
		</linearGradient>
		<polygon class="st33" points="0.014,235.11 -0.014,234.11 279.615,226.188 279.643,227.188 		"/>
		<linearGradient id="SVGID_35_" gradientUnits="userSpaceOnUse" x1="423.8755" y1="370.646" x2="423.8755" y2="79.1842">
			<stop  offset="0" style="stop-color:#FE2795"/>
			<stop  offset="1" style="stop-color:#FE2795;stop-opacity:0"/>
		</linearGradient>
		<polygon class="st34" points="568.254,318.956 314.286,309.132 401.885,271.635 279.458,227.158 279.8,226.218 404.604,271.559 
			318.761,308.304 568.293,317.956 		"/>
		<linearGradient id="SVGID_36_" gradientUnits="userSpaceOnUse" x1="340.2983" y1="370.646" x2="340.2983" y2="79.1842">
			<stop  offset="0" style="stop-color:#FE2795"/>
			<stop  offset="1" style="stop-color:#FE2795;stop-opacity:0"/>
		</linearGradient>
		<path class="st35" d="M463.191,355.515l-245.786-17.898l99.125-29.422l0.147,0.048L463.191,355.515z M222.939,337.017
			l232.032,16.896l-138.455-44.672L222.939,337.017z"/>
		<linearGradient id="SVGID_37_" gradientUnits="userSpaceOnUse" x1="250.0103" y1="370.646" x2="250.0103" y2="79.1842">
			<stop  offset="0" style="stop-color:#FE2795"/>
			<stop  offset="1" style="stop-color:#FE2795;stop-opacity:0"/>
		</linearGradient>
		<path class="st36" d="M96.764,313.878l73.719-47.837l-2.586-0.766l235.359,5.821l-0.024,1l-227.797-5.634l144.312,42.687
			L96.764,313.878z M171.745,266.414l-71.489,46.39l213.044-4.518L171.745,266.414z"/>
		<linearGradient id="SVGID_38_" gradientUnits="userSpaceOnUse" x1="85.833" y1="370.646" x2="85.833" y2="79.1842">
			<stop  offset="0" style="stop-color:#FE2795"/>
			<stop  offset="1" style="stop-color:#FE2795;stop-opacity:0"/>
		</linearGradient>
		<polygon class="st37" points="0.056,285.521 -0.056,284.527 171.61,265.372 171.722,266.367 		"/>
		<linearGradient id="SVGID_39_" gradientUnits="userSpaceOnUse" x1="1354.1362" y1="370.646" x2="1354.1362" y2="79.1842">
			<stop  offset="0" style="stop-color:#FE2795"/>
			<stop  offset="1" style="stop-color:#FE2795;stop-opacity:0"/>
		</linearGradient>
		<path class="st38" d="M1456.521,273.206l-204.771-9.168l105.306-29.955l0.157,0.063L1456.521,273.206z M1257.95,263.315
			l192.616,8.623l-93.561-36.801L1257.95,263.315z"/>
		<linearGradient id="SVGID_40_" gradientUnits="userSpaceOnUse" x1="1609.7676" y1="370.646" x2="1609.7676" y2="79.1842">
			<stop  offset="0" style="stop-color:#FE2795"/>
			<stop  offset="1" style="stop-color:#FE2795;stop-opacity:0"/>
		</linearGradient>
		<path class="st39" d="M1449.824,273.528l155.097-62.32l0.133,0.019l164.657,23.423L1449.824,273.528z M1605.046,212.235
			l-147.782,59.381l304.799-37.045L1605.046,212.235z"/>
		<linearGradient id="SVGID_41_" gradientUnits="userSpaceOnUse" x1="1739.4727" y1="370.646" x2="1739.4727" y2="79.1842">
			<stop  offset="0" style="stop-color:#FE2795"/>
			<stop  offset="1" style="stop-color:#FE2795;stop-opacity:0"/>
		</linearGradient>
		<polygon class="st40" points="1596.319,288.591 1765.733,234.134 1766.04,235.085 1602.919,287.521 1882.616,284.524 
			1882.626,285.524 		"/>
		<linearGradient id="SVGID_42_" gradientUnits="userSpaceOnUse" x1="941.2693" y1="370.646" x2="941.2693" y2="79.1842">
			<stop  offset="0" style="stop-color:#FE2795"/>
			<stop  offset="1" style="stop-color:#FE2795;stop-opacity:0"/>
		</linearGradient>
		<path class="st41" d="M152.683,405.048l-0.384-0.184L20.506,342.074l-1.834-0.294l78.224-28.385l-97.034-27.891l0.276-0.961
			l98.354,28.272l0.086-0.031l0.131,0.088l122.703,24.179l-41.3,29.253l279.47-12.112v30.434l405.953-32.821l10.981,35.004
			l393.836-45.982l0.057,0.006l133.927,14.673l-90.894-24.288h328.203l-43.301-43.737l284.308,17.037l0.025,0.996l-238.752,26.587
			l0.116,0.117h-1.172l-232.007,24.998l-226.22,23.37l-308.444,7.268l-0.389,0.046l-0.015-0.047L459.1,385.667l-0.518,0.042v-0.074
			l-279.893-18.24L152.683,405.048z M24.009,342.635l128.335,61.144l25.233-36.535L24.009,342.635z M470.707,384.729l404.774,2.12
			l-10.661-33.984L470.707,384.729z M1270.355,341.831l-383.427,44.768l297.651-7.012l221.506-22.885L1270.355,341.831z
			 M187.649,366.979l270.933,17.655v-29.397L187.649,366.979z M100.861,314.314l77.569,51.956l40.502-28.688L100.861,314.314z
			 M22.642,341.403l153.622,24.62l-77.821-52.125L22.642,341.403z M1321.058,332.216l89.79,23.994l222.687-23.994H1321.058z
			 M1600.894,288.633l42.135,42.56l233.731-26.028L1600.894,288.633z"/>
		<linearGradient id="SVGID_43_" gradientUnits="userSpaceOnUse" x1="1271.7583" y1="370.646" x2="1271.7583" y2="79.1842">
			<stop  offset="0" style="stop-color:#FE2795"/>
			<stop  offset="1" style="stop-color:#FE2795;stop-opacity:0"/>
		</linearGradient>
		<polygon class="st42" points="1272.665,370.918 1269.855,341.375 1270.852,341.282 1273.661,370.825 		"/>
		<linearGradient id="SVGID_44_" gradientUnits="userSpaceOnUse" x1="1542.353" y1="370.646" x2="1542.353" y2="79.1842">
			<stop  offset="0" style="stop-color:#FE2795"/>
			<stop  offset="1" style="stop-color:#FE2795;stop-opacity:0"/>
		</linearGradient>
		<path class="st43" d="M1466.869,410.911l-0.15-0.086l-28.57-16.483l-239.673,10.571l-0.045-0.999l239.819-10.577l281.661-20.5
			l0.098-0.015l166.267-27.064l-131.203,59.245l-35.265-31.141L1466.869,410.911z M1439.933,394.216l27.136,15.655l239.263-35.046
			L1439.933,394.216z M1721.087,373.658l34.163,30.167l123.717-55.864L1721.087,373.658z"/>
		<linearGradient id="SVGID_45_" gradientUnits="userSpaceOnUse" x1="941.0286" y1="370.646" x2="941.0286" y2="79.1842">
			<stop  offset="0" style="stop-color:#FE2795"/>
			<stop  offset="1" style="stop-color:#FE2795;stop-opacity:0"/>
		</linearGradient>
		<polygon class="st44" points="905.703,408.734 876.015,387.86 495.594,404.919 495.474,404.856 458.973,385.675 152.494,404.915 
			152.444,404.909 -0.757,383.414 19.928,341.933 -0.115,337.208 0.115,336.236 21.386,341.249 0.757,382.618 152.532,403.912 
			459.19,384.66 459.314,384.725 495.819,403.908 876.311,386.846 876.45,386.944 905.958,407.691 1272.572,358.489 
			1201.189,403.287 1411.017,356.158 1438.465,393.254 1642.897,331.177 1643.08,331.277 1719.992,372.78 1882.428,304.554 
			1882.814,305.476 1719.938,373.887 1642.789,332.255 1438.08,394.416 1410.601,357.277 1195.717,405.54 1268.135,360.094 		"/>
		<linearGradient id="SVGID_46_" gradientUnits="userSpaceOnUse" x1="139.0513" y1="370.646" x2="139.0513" y2="79.1842">
			<stop  offset="0" style="stop-color:#FE2795"/>
			<stop  offset="1" style="stop-color:#FE2795;stop-opacity:0"/>
		</linearGradient>
		<polygon class="st45" points="171.709,266.386 171.577,266.362 -1.697,234.809 95.776,191.995 0.028,197.389 -0.028,196.391 
			101.244,190.684 1.697,234.411 171.623,265.353 279.458,226.218 279.799,227.158 		"/>
		<linearGradient id="SVGID_47_" gradientUnits="userSpaceOnUse" x1="49.2551" y1="370.646" x2="49.2551" y2="79.1842">
			<stop  offset="0" style="stop-color:#FE2795"/>
			<stop  offset="1" style="stop-color:#FE2795;stop-opacity:0"/>
		</linearGradient>
		<polygon class="st46" points="0.026,318.956 -0.026,317.957 98.484,312.842 98.536,313.84 		"/>
	</g>
</g>
<polygon class="st47" points="1750.96,306.542 875.48,340.081 0,306.542 875.48,372.744 "/>
<linearGradient id="SVGID_48_" gradientUnits="userSpaceOnUse" x1="875.48" y1="-10.7191" x2="875.48" y2="181.2131" gradientTransform="matrix(1 0 0 -1 0 329.3615)">
	<stop  offset="0" style="stop-color:#ED3C96"/>
	<stop  offset="0.4441" style="stop-color:#F79ABE;stop-opacity:0.47"/>
	<stop  offset="0.9947" style="stop-color:#FFFFFF;stop-opacity:0"/>
</linearGradient>
<polygon class="st48" points="1750.96,148.148 0,148.148 0,306.542 875.48,340.081 1750.96,306.542 "/>
</svg>
