<?xml version="1.0" encoding="utf-8"?>
<!-- Generator: Adobe Illustrator 16.0.0, SVG Export Plug-In . SVG Version: 6.00 Build 0)  -->
<!DOCTYPE svg PUBLIC "-//W3C//DTD SVG 1.1//EN" "http://www.w3.org/Graphics/SVG/1.1/DTD/svg11.dtd">
<svg version="1.1" id="Layer_1" xmlns="http://www.w3.org/2000/svg" xmlns:xlink="http://www.w3.org/1999/xlink" x="0px" y="0px"
	 viewBox="0 395.357 23.859 3.867" enable-background="new 0 395.357 23.859 3.867"
	 xml:space="preserve">
<path fill="#FFFFFF" d="M3.371,399.172H2.347l-1.653-2.873H0.67c0.033,0.506,0.049,0.869,0.049,1.086v1.787H0
	v-3.799h1.017l1.65,2.846h0.018c-0.025-0.494-0.04-0.843-0.04-1.048v-1.798h0.726L3.371,399.172L3.371,399.172z"/>
<path fill="#FFFFFF" d="M6.072,399.172H3.883v-3.799h2.189v0.66H4.689v0.834h1.287v0.66H4.689v0.98h1.383V399.172
	L6.072,399.172z"/>
<path fill="#FFFFFF" d="M8.383,399.172H7.577v-3.129H6.546v-0.67h2.869v0.67H8.384L8.383,399.172L8.383,399.172z"/>
<path fill="#FFFFFF" d="M12.785,397.236c0,0.637-0.168,1.119-0.501,1.445c-0.334,0.328-0.826,0.49-1.473,0.49h-0.91
	v-3.799h1.027c0.607,0,1.067,0.158,1.383,0.476C12.628,396.165,12.785,396.628,12.785,397.236z M12.497,397.247
	c0-0.544-0.14-0.954-0.416-1.229c-0.277-0.273-0.682-0.412-1.218-0.412h-0.7v3.331h0.629
	C11.931,398.938,12.497,398.375,12.497,397.247z"/>
<path fill="#FFFFFF" d="M16.115,395.373v2.459c0,0.436-0.127,0.777-0.379,1.023
	c-0.254,0.246-0.607,0.369-1.059,0.369c-0.439,0-0.783-0.123-1.031-0.37c-0.246-0.247-0.369-0.592-0.369-1.034v-2.447h0.268v2.459
	c0,0.365,0.101,0.649,0.303,0.854c0.202,0.203,0.488,0.305,0.859,0.305c0.36,0,0.642-0.1,0.842-0.299
	c0.201-0.201,0.297-0.479,0.297-0.833v-2.485H16.115L16.115,395.373z"/>
<path fill="#FFFFFF" d="M18.342,399.172l-1.416-3.509h-0.02c0.014,0.216,0.02,0.435,0.02,0.66v2.849h-0.254v-3.799
	h0.41l1.346,3.342h0.016l1.348-3.342h0.398v3.8h-0.266v-2.881c0-0.2,0.012-0.409,0.03-0.622h-0.02l-1.423,3.502H18.342
	L18.342,399.172z"/>
<path fill="#FFFFFF" d="M23.035,397.83h-1.543l-0.531,1.342h-0.293l1.527-3.814h0.17l1.494,3.814h-0.298
	L23.035,397.83z M21.587,397.592h1.358l-0.518-1.369c-0.043-0.107-0.095-0.257-0.156-0.447c-0.046,0.166-0.098,0.317-0.152,0.453
	L21.587,397.592z"/>
</svg>
