<svg version="1.1" id="Layer_1" xmlns="http://www.w3.org/2000/svg" xmlns:xlink="http://www.w3.org/1999/xlink" x="0px" y="0px"
	 width="1920px" height="260.74px" viewBox="0 0 1920 260.74" style="enable-background:new 0 0 1920 260.74;" xml:space="preserve"
	>
<style type="text/css">
  <style>
    .logo-duma,
    .logo-os {
      fill: #fff;
    }
   </style>
</style>
<g transform="translate(-639.000000, -180.000000)">
	<path class="logo-duma" d="M2537.22,260.233c0-55.604-41.088-80.233-95.178-80.233h-110.87v260.737h71.202V340.456
		h5.074l64.94,100.281H2559l-81.687-106.832C2516.19,327.298,2537.22,296.262,2537.22,260.233L2537.22,260.233z M2420.672,296.863
		h-18.298v-64.945h20.387c23.385,0,43.209,4.094,43.209,32.501C2465.97,292.788,2444.055,296.863,2420.672,296.863z M2103.993,180
		l-95.755,260.737h73.622l15.643-47.989h95.124l15.649,47.989h73.576L2186.168,180H2103.993z M2114.405,340.885l29.665-91.019h1.985
		l29.666,91.019H2114.405z M1801.562,440.737h173.666v-57.35h-102.375v-45.066h98.062v-57.349h-98.062v-43.53h102.375V180h-173.666
		V440.737z M1608.349,345.921h52.557c-2.729,28.194-22.897,42.462-51.9,42.462c-43.926,0-65.843-38.593-65.843-76.445
		c0-37.271,18.874-77.077,62.894-77.077c26.867,0,46.336,15.551,55.506,38.829l63.343-25.224
		C1702.783,202.773,1661.887,180,1609.112,180c-82.766,0-135.327,52.276-135.327,131.591c0,76.792,54.196,128.909,134.895,128.909
		c42.996,0,78.825-14.475,103.964-47.933c22.867-30.436,25.515-60.837,26.23-96.492h-130.523v49.846H1608.349z M1207.363,237.442
		h68.927V440.74h72.374V237.442h68.984V180h-210.285V237.442z M1161.403,440.737v-57.35h-102.337v-45.066h98.051v-57.349h-98.051
		v-43.53h102.337V180H987.768v260.737H1161.403z M828.912,339.418h-0.769L710.236,180H639v260.74h71.236V280.966h0.776
		l117.9,159.774h71.209V180h-71.209V339.418z"/>
</g>
</svg>
