<?xml version="1.0" encoding="utf-8"?>
<svg version="1.1" id="Layer_1" xmlns="http://www.w3.org/2000/svg" xmlns:xlink="http://www.w3.org/1999/xlink" x="0px" y="0px"
	 width="1175.755px" height="593.523px" viewBox="0 0 1175.755 593.523" style="enable-background:new 0 0 1175.755 593.523;"
	 xml:space="preserve">
<style type="text/css">
<![CDATA[
	.st0{fill:#FFFFFF;}
]]>
</style>
<g>
	<path class="st0" d="M355.3,1.801c34.753,70.048,96.672,111.829,166.192,139.97c1.355,0.549,0.865,2.57-0.586,2.392
		c-24.194-2.988-91.79-14.048-146.128-48.698c-0.543-0.347-1.176-0.519-1.819-0.488c-54.72,2.603-111.362,11.43-169.415,27.731
		c-1.409,0.396-1.111,2.476,0.352,2.452c130.73-2.146,282.327,36.305,403.448,126.854c1.087,0.813,2.54,0.838,3.647,0.052
		c49.098-34.877,149.317-68.296,252.167-0.011c0.835,0.555,1.975-0.055,1.959-1.058c-2.894-178.239-331.265-126.86-507.98-250.762
		C356.079-0.507,354.727,0.645,355.3,1.801z"/>
	<g>
		<path class="st0" d="M236.821,536.313h18.203c3.204,0,6.094,0.289,8.669,0.867c2.573,0.578,4.779,1.523,6.619,2.836
			c1.839,1.313,3.257,2.995,4.255,5.044c0.997,2.049,1.498,4.52,1.498,7.407c0,3.1-0.579,5.701-1.733,7.801
			c-1.156,2.103-2.72,3.796-4.689,5.084c-1.971,1.288-4.27,2.22-6.896,2.797c-2.627,0.578-5.412,0.866-8.354,0.866h-7.643v23.09
			h-9.93V536.313z M253.685,560.664c1.628,0,3.178-0.12,4.649-0.355c1.47-0.236,2.784-0.655,3.94-1.261
			c1.155-0.603,2.075-1.432,2.758-2.482c0.683-1.05,1.024-2.416,1.024-4.098c0-1.628-0.342-2.955-1.024-3.979
			c-0.683-1.025-1.59-1.824-2.718-2.403c-1.13-0.577-2.417-0.958-3.862-1.144c-1.444-0.183-2.928-0.275-4.452-0.275h-7.249v15.998
			H253.685z"/>
		<path class="st0" d="M300.224,536.313h19.386c2.626,0,5.174,0.275,7.643,0.827c2.47,0.551,4.663,1.458,6.58,2.718
			c1.917,1.262,3.455,2.916,4.611,4.965c1.155,2.049,1.734,4.545,1.734,7.487c0,4.046-1.143,7.343-3.429,9.889
			c-2.285,2.55-5.398,4.27-9.338,5.163l14.894,24.743h-11.979l-12.923-23.641h-7.25v23.641h-9.929V536.313z M318.27,560.349
			c1.418,0,2.838-0.106,4.256-0.315c1.418-0.21,2.692-0.604,3.822-1.183c1.129-0.577,2.062-1.404,2.796-2.482
			c0.735-1.076,1.104-2.454,1.104-4.138c0-1.522-0.343-2.771-1.024-3.742c-0.683-0.972-1.55-1.746-2.6-2.325
			c-1.052-0.577-2.247-0.971-3.586-1.182c-1.339-0.209-2.641-0.315-3.9-0.315h-8.983v15.683H318.27z"/>
		<path class="st0" d="M362.446,564.051c0-4.464,0.749-8.496,2.247-12.096c1.498-3.598,3.571-6.658,6.225-9.181
			c2.652-2.521,5.804-4.464,9.456-5.831c3.651-1.365,7.631-2.05,11.938-2.05c4.361,0,8.38,0.685,12.058,2.05
			c3.677,1.367,6.856,3.311,9.534,5.831c2.68,2.522,4.769,5.583,6.265,9.181c1.498,3.6,2.247,7.632,2.247,12.096
			c0,4.361-0.749,8.342-2.247,11.94c-1.496,3.599-3.584,6.698-6.265,9.299c-2.678,2.6-5.857,4.623-9.534,6.067
			c-3.678,1.443-7.697,2.166-12.058,2.166c-4.308,0-8.288-0.723-11.938-2.166c-3.652-1.444-6.804-3.468-9.456-6.067
			c-2.654-2.601-4.728-5.7-6.225-9.299S362.446,568.412,362.446,564.051z M373.242,564.051c0,2.996,0.46,5.741,1.38,8.236
			c0.919,2.496,2.231,4.663,3.94,6.5c1.706,1.841,3.729,3.271,6.067,4.296c2.336,1.024,4.925,1.536,7.762,1.536
			c2.836,0,5.438-0.512,7.801-1.536c2.365-1.024,4.4-2.455,6.107-4.296c1.708-1.837,3.021-4.004,3.94-6.5
			c0.919-2.495,1.38-5.24,1.38-8.236c0-2.888-0.461-5.567-1.38-8.036c-0.919-2.47-2.219-4.623-3.9-6.463
			c-1.682-1.839-3.703-3.283-6.067-4.333c-2.364-1.051-4.992-1.578-7.88-1.578c-2.89,0-5.503,0.527-7.84,1.578
			c-2.338,1.05-4.349,2.494-6.029,4.333c-1.681,1.84-2.981,3.993-3.9,6.463C373.702,558.483,373.242,561.163,373.242,564.051z"/>
		<path class="st0" d="M546.264,589.19c-2.837,1.365-5.949,2.43-9.338,3.19c-3.389,0.762-7.289,1.143-11.703,1.143
			c-4.519,0-8.643-0.723-12.372-2.166c-3.73-1.444-6.936-3.468-9.614-6.067c-2.68-2.601-4.767-5.7-6.265-9.299
			s-2.247-7.579-2.247-11.94c0-4.464,0.775-8.496,2.325-12.096c1.55-3.598,3.677-6.658,6.383-9.181
			c2.706-2.521,5.897-4.464,9.576-5.831c3.677-1.365,7.669-2.05,11.978-2.05c4.464,0,8.55,0.646,12.254,1.932
			c3.703,1.288,6.685,2.983,8.943,5.082l-6.856,7.407c-1.418-1.575-3.401-2.915-5.949-4.018c-2.548-1.103-5.318-1.656-8.314-1.656
			c-2.943,0-5.608,0.527-7.998,1.578c-2.391,1.05-4.427,2.494-6.107,4.333c-1.681,1.84-2.983,3.993-3.9,6.463
			c-0.92,2.469-1.379,5.148-1.379,8.036c0,2.996,0.459,5.741,1.379,8.236c0.917,2.496,2.231,4.663,3.94,6.5
			c1.706,1.841,3.782,3.271,6.225,4.296c2.442,1.024,5.212,1.536,8.313,1.536c4.256,0,7.958-0.655,11.112-1.97v-14.185h-11.743
			v-8.196h21.356V589.19z"/>
		<path class="st0" d="M591.149,536.313h8.589l24.035,55.792h-11.347l-5.201-12.766h-24.192l-5.044,12.766h-11.112L591.149,536.313z
			 M603.757,570.829l-8.589-22.695l-8.747,22.695H603.757z"/>
		<path class="st0" d="M644.625,536.313h15.523l14.501,39.638h0.236l14.342-39.638h15.604v55.792h-9.852v-44.838h-0.156
			l-16.943,44.838h-6.936l-16.706-44.838h-0.158v44.838h-9.456V536.313z"/>
		<path class="st0" d="M732.457,536.313h9.929v55.792h-9.929V536.313z"/>
		<path class="st0" d="M770.014,536.313h13.16l25.926,41.765h0.158v-41.765h9.929v55.792h-12.609l-26.478-43.104h-0.158v43.104
			h-9.929V536.313z"/>
		<path class="st0" d="M893.491,589.19c-2.837,1.365-5.949,2.43-9.338,3.19c-3.389,0.762-7.289,1.143-11.703,1.143
			c-4.519,0-8.643-0.723-12.372-2.166c-3.73-1.444-6.936-3.468-9.614-6.067c-2.68-2.601-4.767-5.7-6.265-9.299
			s-2.247-7.579-2.247-11.94c0-4.464,0.775-8.496,2.325-12.096c1.55-3.598,3.677-6.658,6.383-9.181
			c2.706-2.521,5.897-4.464,9.576-5.831c3.677-1.365,7.669-2.05,11.978-2.05c4.464,0,8.55,0.646,12.254,1.932
			c3.703,1.288,6.684,2.983,8.943,5.082l-6.856,7.407c-1.418-1.575-3.401-2.915-5.949-4.018s-5.318-1.656-8.314-1.656
			c-2.943,0-5.608,0.527-7.998,1.578c-2.391,1.05-4.427,2.494-6.107,4.333c-1.681,1.84-2.983,3.993-3.9,6.463
			c-0.92,2.469-1.38,5.148-1.38,8.036c0,2.996,0.459,5.741,1.38,8.236c0.917,2.496,2.231,4.663,3.94,6.5
			c1.706,1.841,3.783,3.271,6.225,4.296s5.213,1.536,8.314,1.536c4.255,0,7.958-0.655,11.111-1.97v-14.185h-11.743v-8.196h21.356
			V589.19z"/>
	</g>
	<g>
		<g>
			<polygon class="st0" points="79.962,420.087 15.648,332.037 0,332.037 0,464.226 21.4,464.226 21.4,376.212 85.682,464.226 
				101.362,464.226 101.362,332.037 79.962,332.037 			"/>
			<rect x="141.598" y="332.053" class="st0" width="21.409" height="132.189"/>
			<polygon class="st0" points="427.277,387.442 365.944,387.442 365.944,332.053 344.536,332.053 344.536,464.242 365.944,464.242 
				365.944,408.85 431.081,408.85 427.277,420.014 427.277,464.242 448.686,464.242 448.686,332.037 427.277,332.037 			"/>
			<polygon class="st0" points="477.712,353.46 525.281,353.46 521.48,364.61 521.48,464.242 542.891,464.242 542.891,353.46 
				586.633,353.46 593.922,332.053 470.452,332.053 			"/>
			<polygon class="st0" points="700.292,387.442 638.959,387.442 638.959,332.037 617.549,332.037 617.549,464.242 638.959,464.242 
				638.959,408.85 704.084,408.85 700.292,420.014 700.292,464.242 721.7,464.242 721.7,332.053 700.292,332.053 			"/>
			<polygon class="st0" points="955.775,420.547 924.375,342.041 893.111,420.202 864.831,332.037 839.131,332.037 883.533,463.434 
				883.801,464.226 898.542,464.226 924.372,399.685 950.174,464.226 964.949,464.226 1009.098,333.576 1009.617,332.037 
				987.281,332.037 			"/>
			<polygon class="st0" points="788.644,412.836 807.701,362.227 807.847,361.838 796.997,329.765 746.473,464.23 769.285,464.23 
				780.59,434.285 832.259,434.158 825.008,412.836 			"/>
			<polygon class="st0" points="1141.286,332.053 1112.234,332.053 1053.232,396.337 1053.232,332.053 1031.823,332.053 
				1031.823,464.242 1053.232,464.242 1053.232,399.952 1112.235,464.242 1141.283,464.242 1080.661,398.145 			"/>
			<path class="st0" d="M260.622,408.685h22.503v34.18h-23.974c-24.732,0-44.854-20.122-44.854-44.855
				c0-24.732,20.122-44.854,44.854-44.854h35.707l6.978-21.379h-42.685c-36.521,0-66.232,29.711-66.232,66.232
				s29.711,66.233,66.232,66.233h45.352v-76.936H267.6L260.622,408.685z"/>
		</g>
		<g>
			<g>
				<defs>
					<path id="SVGID_1_" d="M1169.522,331.993c0-3.178-3.14-3.733-5.4-3.733h-4.976v12.807h3.406v-5.069h1.016l2.313,5.069h3.758
						l-2.75-5.616C1168.385,334.97,1169.522,333.792,1169.522,331.993z M1163.795,333.874h-1.243v-3.412h1.023
						c1.139,0,2.431,0.206,2.431,1.759C1166.006,333.604,1164.817,333.874,1163.795,333.874z"/>
				</defs>
				<use xlink:href="#SVGID_1_"  style="overflow:visible;fill:#FFFFFF;"/>
				<clipPath id="SVGID_2_">
					<use xlink:href="#SVGID_1_"  style="overflow:visible;"/>
				</clipPath>
			</g>
			<g>
				<defs>
					<path id="SVGID_3_" d="M1163.813,323.258c-6.239,0-11.936,4.844-11.936,11.647c0,6.712,5.752,11.696,11.936,11.696
						c6.239,0,11.942-4.93,11.942-11.696C1175.755,327.975,1170.183,323.258,1163.813,323.258 M1163.813,344.445
						c-5.082,0-9.746-4.02-9.746-9.54c0-5.631,4.6-9.563,9.768-9.563c5.067,0,9.782,4.051,9.782,9.563
						C1173.617,340.533,1168.974,344.445,1163.813,344.445"/>
				</defs>
				<use xlink:href="#SVGID_3_"  style="overflow:visible;fill:#FFFFFF;"/>
				<clipPath id="SVGID_4_">
					<use xlink:href="#SVGID_3_"  style="overflow:visible;"/>
				</clipPath>
			</g>
		</g>
	</g>
</g>
</svg>
