<?xml version="1.0" encoding="utf-8"?>
<!-- Generator: Adobe Illustrator 24.2.1, SVG Export Plug-In . SVG Version: 6.00 Build 0)  -->
<svg version="1.1" id="Layer_1" xmlns="http://www.w3.org/2000/svg" xmlns:xlink="http://www.w3.org/1999/xlink" x="0px" y="0px"
	 viewBox="0 0 89.6 34.6" style="enable-background:new 0 0 89.6 34.6;" xml:space="preserve">
<style type="text/css">
	.st0{fill:#1AAFE6;}
	.st1{fill:#414141;}
</style>
<g>
	<path class="st0" d="M-231.4,19.4l-0.4-1.9c-0.5,1-2.1,2.2-4.3,2.2c-2,0-3.7-0.5-5.1-1.9c-1.8-1.8-2.2-4.1-2.2-6.9
		c0-2.8,0.4-5,2.2-6.8c1.3-1.3,3.2-2,5.1-2c2.1,0,3.9,0.8,5,1.9c0.8,0.9,1.5,1.9,1.6,3.4h-3.2c0-0.7-0.4-1.1-0.7-1.6
		c-0.6-0.7-1.5-1-2.7-1c-1,0-2.1,0.4-2.8,1.2c-1.2,1.2-1.3,3.3-1.3,4.9s0.2,3.7,1.3,5c0.7,0.7,1.8,1.1,2.8,1.1c1.1,0,2-0.4,2.5-1
		c0.9-1,1.1-2,1.1-3.3h-4.1v-2.6h7.1v9.3H-231.4z"/>
	<path class="st0" d="M-216.9,19.6c-1.3,0-2-0.8-2.1-1.8c-0.6,1-2,1.9-3.8,1.9c-3,0-4.5-1.9-4.5-3.9c0-2.4,1.8-3.7,4.2-3.9l3.7-0.3
		v-0.8c0-1.2-0.4-2-2.1-2c-1.4,0-2.2,0.6-2.3,1.8h-2.9c0.2-2.8,2.4-4.1,5.2-4.1c2.1,0,4,0.7,4.7,2.5c0.3,0.8,0.4,1.7,0.4,2.5v4.6
		c0,0.6,0.2,0.8,0.7,0.8c0.2,0,0.4,0,0.4,0v2.2C-215.9,19.5-216.2,19.6-216.9,19.6z M-219.4,13.9l-3.2,0.2c-0.9,0.1-1.8,0.6-1.8,1.6
		c0,1,0.8,1.6,1.8,1.6c1.9,0,3.2-1,3.2-2.9V13.9z"/>
	<path class="st0" d="M-198.3,19.4v-7.8c0-1.5-0.4-2.4-1.9-2.4c-1.7,0-2.4,1.8-2.4,3.4v6.8h-3v-7.8c0-1.5-0.4-2.4-1.9-2.4
		c-1.7,0-2.5,1.8-2.5,3.4v6.8h-3V6.9h2.5l0.2,1.7c0.7-1.2,1.9-2,3.6-2c1.8,0,3,0.8,3.6,2c0.7-1.3,2.1-2,3.8-2c2.7,0,4.1,1.8,4.1,4.4
		v8.4H-198.3z"/>
	<path class="st0" d="M-181.5,14.1h-8.4c0,1,0.3,1.9,0.9,2.4c0.4,0.4,1,0.8,1.8,0.8c0.9,0,1.4-0.2,1.8-0.6c0.3-0.3,0.5-0.6,0.6-1.1
		h2.9c-0.1,0.7-0.6,1.7-1.1,2.3c-1.1,1.2-2.6,1.8-4.2,1.8c-1.7,0-3-0.6-3.9-1.5c-1.2-1.2-1.9-3-1.9-5c0-2,0.6-3.8,1.8-5
		c0.9-1,2.3-1.6,4-1.6c1.8,0,3.5,0.7,4.6,2.3c0.9,1.4,1.1,2.8,1.1,4.3C-181.5,13.3-181.5,13.8-181.5,14.1z M-185.2,9.7
		c-0.4-0.4-1-0.7-1.9-0.7c-0.9,0-1.7,0.4-2.1,1c-0.4,0.6-0.6,1.1-0.6,1.9h5.4C-184.5,11-184.7,10.3-185.2,9.7z"/>
	<path class="st0" d="M-162.8,17.8c-1.3,1.3-3.1,1.9-4.9,1.9s-3.6-0.6-4.9-1.9c-1.8-1.8-2.2-4.1-2.2-6.9c0-2.8,0.3-5.1,2.2-6.9
		c1.3-1.3,3.1-1.9,4.9-1.9s3.6,0.6,4.9,1.9c1.8,1.8,2.2,4.1,2.2,6.9C-160.6,13.7-160.9,15.9-162.8,17.8z M-165,6
		c-0.7-0.7-1.7-1.1-2.7-1.1c-1,0-2,0.4-2.7,1.1c-1.2,1.2-1.2,3.3-1.2,4.9s0,3.6,1.2,4.9c0.7,0.7,1.7,1.1,2.7,1.1c1,0,2-0.4,2.7-1.1
		c1.2-1.2,1.2-3.3,1.2-4.9S-163.8,7.2-165,6z"/>
	<path class="st0" d="M-148.7,18.7c-0.8,0.6-1.8,1-3,1c-1.5,0-2.7-0.5-3.3-1.2v5.7h-3V6.9h2.6l0.2,1.4c0.7-1.2,2.1-1.7,3.5-1.7
		c1.2,0,2.3,0.4,3,1.1c1.5,1.2,2.2,3.1,2.2,5.4C-146.4,15.6-147.2,17.5-148.7,18.7z M-150.3,10.1c-0.4-0.6-1.1-1-2-1
		c-2.4,0-2.8,2.2-2.8,4s0.5,4,2.8,4c0.9,0,1.6-0.4,2-1c0.6-0.8,0.8-1.9,0.8-3C-149.5,12.1-149.7,11-150.3,10.1z"/>
	<path class="st0" d="M-139.4,19.6c-2.5,0-3.8-1.4-3.8-3.8V9.4h-2.3V6.9h2.3V3.8l3-0.7v3.9h3.1v2.5h-3.1v6.1c0,1,0.4,1.4,1.4,1.4
		c0.6,0,1.1,0,1.9-0.1v2.5C-137.7,19.4-138.5,19.6-139.4,19.6z"/>
	<path class="st0" d="M-134.6,5.2V2.1h3.2v3.1H-134.6z M-134.5,19.4V6.9h3v12.5H-134.5z"/>
	<path class="st0" d="M-113.2,19.4v-7.8c0-1.5-0.4-2.4-1.9-2.4c-1.7,0-2.4,1.8-2.4,3.4v6.8h-3v-7.8c0-1.5-0.4-2.4-1.9-2.4
		c-1.7,0-2.5,1.8-2.5,3.4v6.8h-3V6.9h2.5l0.2,1.7c0.7-1.2,1.9-2,3.6-2c1.8,0,3,0.8,3.6,2c0.7-1.3,2.1-2,3.8-2c2.7,0,4.1,1.8,4.1,4.4
		v8.4H-113.2z"/>
	<path class="st0" d="M-107.2,5.2V2.1h3.2v3.1H-107.2z M-107.1,19.4V6.9h3v12.5H-107.1z"/>
	<path class="st0" d="M-91.9,18.3c-1,1-2.6,1.4-4.3,1.4c-1.6,0-3-0.5-4-1.4c-0.7-0.7-1.3-1.7-1.3-2.9h2.8c0,0.6,0.3,1.2,0.7,1.5
		c0.5,0.4,1,0.6,1.9,0.6c1,0,2.5-0.2,2.5-1.6c0-0.7-0.5-1.2-1.2-1.3c-1.1-0.2-2.4-0.2-3.5-0.5c-1.7-0.4-2.9-1.8-2.9-3.3
		c0-1.3,0.5-2.2,1.3-2.8c0.9-0.8,2.2-1.2,3.8-1.2c1.5,0,3,0.5,3.9,1.5c0.7,0.7,1.1,1.7,1.1,2.6H-94c0-0.5-0.2-0.9-0.5-1.2
		c-0.4-0.4-1-0.6-1.6-0.6c-0.4,0-0.8,0-1.3,0.2c-0.5,0.2-1,0.7-1,1.3c0,0.9,0.8,1.2,1.4,1.2c1.1,0.1,1.4,0.2,2.7,0.4
		c2,0.3,3.4,1.6,3.4,3.5C-90.9,16.7-91.3,17.6-91.9,18.3z"/>
	<path class="st0" d="M-77.8,14.1h-8.4c0,1,0.3,1.9,0.9,2.4c0.4,0.4,1,0.8,1.8,0.8c0.9,0,1.4-0.2,1.8-0.6c0.3-0.3,0.5-0.6,0.6-1.1
		h2.9c-0.1,0.7-0.6,1.7-1.1,2.3c-1.1,1.2-2.6,1.8-4.2,1.8c-1.7,0-3-0.6-3.9-1.5c-1.2-1.2-1.9-3-1.9-5c0-2,0.6-3.8,1.8-5
		c0.9-1,2.3-1.6,4-1.6c1.8,0,3.5,0.7,4.6,2.3c0.9,1.4,1.1,2.8,1.1,4.3C-77.7,13.3-77.8,13.8-77.8,14.1z M-81.5,9.7
		c-0.4-0.4-1-0.7-1.9-0.7c-0.9,0-1.7,0.4-2.1,1c-0.4,0.6-0.6,1.1-0.6,1.9h5.4C-80.8,11-81,10.3-81.5,9.7z"/>
	<path class="st0" d="M-69,9.6c-2.1,0-3.2,1.5-3.2,3.5v6.3h-3V6.9h2.5l0.3,1.9c0.6-1.4,2.1-2,3.5-2c0.3,0,0.6,0,0.9,0.1v2.9
		C-68.3,9.6-68.7,9.6-69,9.6z"/>
</g>
<g>
	<path id="XMLID_179_" class="st1" d="M75.5,22.6c0,2.6-0.6,4.5-1.9,5.9c-1.3,1.4-3.1,2.1-5.5,2.1c-2.4,0-4.2-0.7-5.5-2.1
		c-1.3-1.4-1.9-3.4-1.9-5.9s0.6-4.5,1.9-5.9c1.3-1.4,3.1-2,5.5-2c2.4,0,4.2,0.7,5.5,2.1C74.8,18,75.5,20,75.5,22.6z M64.2,22.6
		c0,1.7,0.3,3,1,3.9c0.7,0.9,1.6,1.3,2.9,1.3c2.6,0,3.9-1.7,3.9-5.2c0-3.5-1.3-5.2-3.9-5.2c-1.3,0-2.3,0.4-3,1.3
		C64.5,19.5,64.2,20.8,64.2,22.6z"/>
	<path id="XMLID_177_" class="st1" d="M87.2,26c0,1.4-0.5,2.5-1.5,3.3c-1,0.8-2.4,1.2-4.2,1.2c-1.7,0-3.1-0.3-4.4-0.9v-3
		c1,0.5,1.9,0.8,2.7,1c0.7,0.2,1.4,0.3,2,0.3c0.7,0,1.3-0.1,1.7-0.4c0.4-0.3,0.6-0.7,0.6-1.2c0-0.3-0.1-0.6-0.3-0.8
		c-0.2-0.2-0.4-0.5-0.7-0.7c-0.3-0.2-1-0.6-2-1c-0.9-0.4-1.7-0.9-2.1-1.3c-0.5-0.4-0.9-0.9-1.1-1.4c-0.3-0.5-0.4-1.2-0.4-1.9
		c0-1.4,0.5-2.4,1.4-3.2c0.9-0.8,2.2-1.2,3.8-1.2c0.8,0,1.6,0.1,2.3,0.3c0.7,0.2,1.5,0.5,2.3,0.8L86,18.3c-0.8-0.3-1.5-0.6-2-0.7
		c-0.5-0.1-1.1-0.2-1.6-0.2c-0.6,0-1.1,0.1-1.4,0.4c-0.3,0.3-0.5,0.7-0.5,1.1c0,0.3,0.1,0.5,0.2,0.8c0.1,0.2,0.3,0.4,0.6,0.6
		c0.3,0.2,1,0.6,2.1,1.1c1.4,0.7,2.4,1.4,3,2.1C86.9,24.2,87.2,25,87.2,26z"/>
	<path id="XMLID_173_" class="st1" d="M14.3,22.4c0,2.6-0.7,4.6-2.1,6c-1.4,1.3-3.4,2-6.1,2H2.5V14.7h4.2c2.5,0,4.4,0.7,5.7,2
		C13.7,17.9,14.3,19.8,14.3,22.4z M13.2,22.4c0-2.2-0.6-3.9-1.7-5.1c-1.1-1.1-2.8-1.7-5-1.7H3.5v13.7h2.6
		C10.8,29.4,13.2,27,13.2,22.4z"/>
	<path id="XMLID_172_" class="st1" d="M28.1,14.7v10.1c0,1.8-0.5,3.2-1.6,4.2c-1,1-2.5,1.5-4.4,1.5c-1.8,0-3.2-0.5-4.2-1.5
		c-1-1-1.5-2.4-1.5-4.3V14.7h1.1v10.1c0,1.5,0.4,2.7,1.2,3.5c0.8,0.8,2,1.3,3.5,1.3c1.5,0,2.6-0.4,3.5-1.2c0.8-0.8,1.2-2,1.2-3.4
		V14.7L28.1,14.7L28.1,14.7z"/>
	<path id="XMLID_171_" class="st1" d="M37.2,30.3l-5.8-14.5h-0.1c0.1,0.9,0.1,1.8,0.1,2.7v11.7h-1.1V14.7h1.7l5.5,13.8h0.1l5.5-13.8
		h1.6v15.7h-1.1V18.5c0-0.8,0.1-1.7,0.1-2.6h-0.1l-5.9,14.4H37.2L37.2,30.3z"/>
	<path id="XMLID_24_" class="st1" d="M56.6,24.8h-6.4L48,30.3h-1.2l6.3-15.7h0.7L60,30.3h-1.2L56.6,24.8z M50.6,23.8h5.6l-2.1-5.6
		c-0.2-0.4-0.4-1.1-0.6-1.8c-0.2,0.7-0.4,1.3-0.6,1.9L50.6,23.8z"/>
</g>
<g>
	<path class="st1" d="M16.4,6.7v2.6h-1.2V2.3h2.7c0.8,0,1.4,0.2,1.9,0.6c0.5,0.4,0.7,1,0.7,1.6c0,0.7-0.2,1.2-0.7,1.6
		c-0.5,0.4-1.1,0.6-1.9,0.6H16.4z M16.4,5.8h1.5c0.4,0,0.8-0.1,1-0.3c0.2-0.2,0.3-0.5,0.3-0.9c0-0.4-0.1-0.7-0.4-0.9s-0.6-0.3-1-0.4
		h-1.5V5.8z"/>
	<path class="st1" d="M27.2,6c0,0.7-0.1,1.3-0.4,1.8c-0.2,0.5-0.6,0.9-1,1.2c-0.4,0.3-1,0.4-1.5,0.4c-0.6,0-1.1-0.1-1.5-0.4
		c-0.5-0.3-0.8-0.7-1-1.2c-0.2-0.5-0.4-1.1-0.4-1.8V5.7c0-0.7,0.1-1.3,0.4-1.8c0.2-0.5,0.6-0.9,1-1.2c0.4-0.3,1-0.4,1.5-0.4
		c0.6,0,1.1,0.1,1.5,0.4c0.4,0.3,0.8,0.7,1,1.2s0.4,1.1,0.4,1.8V6z M26,5.6c0-0.8-0.1-1.4-0.4-1.8s-0.7-0.6-1.3-0.6
		c-0.5,0-1,0.2-1.3,0.6c-0.3,0.4-0.5,1-0.5,1.8V6c0,0.8,0.2,1.4,0.5,1.8c0.3,0.4,0.7,0.6,1.3,0.6c0.5,0,1-0.2,1.3-0.6
		C25.8,7.4,26,6.8,26,6V5.6z"/>
	<path class="st1" d="M34,7.6l1.1-5.4h1.2l-1.6,7.1h-1.2l-1.4-5.2l-1.4,5.2h-1.2l-1.6-7.1h1.2l1.1,5.3l1.4-5.3h1L34,7.6z"/>
	<path class="st1" d="M41.4,6.2h-2.9v2.2h3.4v1h-4.6V2.3h4.6v1h-3.4v2h2.9V6.2z"/>
	<path class="st1" d="M45.5,6.6h-1.4v2.7h-1.2V2.3h2.5c0.8,0,1.5,0.2,1.9,0.6c0.4,0.4,0.7,0.9,0.7,1.6c0,0.5-0.1,0.9-0.3,1.2
		s-0.5,0.6-1,0.7l1.6,3v0.1h-1.3L45.5,6.6z M44.1,5.7h1.3c0.4,0,0.7-0.1,1-0.3s0.4-0.5,0.4-0.9c0-0.4-0.1-0.7-0.3-0.9
		c-0.2-0.2-0.5-0.3-1-0.3h-1.3V5.7z"/>
	<path class="st1" d="M53.3,6.2h-2.9v2.2h3.4v1h-4.6V2.3h4.6v1h-3.4v2h2.9V6.2z"/>
	<path class="st1" d="M54.8,9.4V2.3h2.1c0.6,0,1.2,0.1,1.7,0.4C59,3,59.4,3.4,59.7,3.9c0.3,0.5,0.4,1.1,0.4,1.8V6
		c0,0.7-0.1,1.3-0.4,1.8S59,8.7,58.5,9c-0.5,0.3-1.1,0.4-1.7,0.4H54.8z M56,3.3v5.1h0.8c0.6,0,1.1-0.2,1.5-0.6
		c0.3-0.4,0.5-1,0.5-1.7V5.6c0-0.8-0.2-1.4-0.5-1.8c-0.3-0.4-0.8-0.6-1.5-0.6H56z"/>
	<path class="st1" d="M63.8,9.4V2.3h2.4c0.8,0,1.4,0.2,1.8,0.5s0.6,0.8,0.6,1.4c0,0.3-0.1,0.6-0.3,0.9S68,5.5,67.7,5.7
		C68,5.8,68.3,6,68.6,6.3s0.3,0.6,0.3,1c0,0.7-0.2,1.2-0.6,1.5c-0.4,0.4-1,0.5-1.8,0.5H63.8z M65,5.3h1.2c0.4,0,0.7-0.1,0.9-0.3
		c0.2-0.2,0.3-0.4,0.3-0.7c0-0.4-0.1-0.6-0.3-0.8s-0.5-0.2-0.9-0.2H65V5.3z M65,6.2v2.2h1.4c0.4,0,0.7-0.1,0.9-0.3
		c0.2-0.2,0.3-0.5,0.3-0.8c0-0.7-0.4-1.1-1.1-1.1H65z"/>
	<path class="st1" d="M72.2,5.6l1.6-3.4h1.4l-2.4,4.5v2.6h-1.2V6.8l-2.4-4.5h1.4L72.2,5.6z"/>
</g>
</svg>
