<?xml version="1.0" encoding="utf-8"?>
<!-- Generator: Adobe Illustrator 22.1.0, SVG Export Plug-In . SVG Version: 6.00 Build 0)  -->
<svg version="1.1" id="Layer_1" xmlns="http://www.w3.org/2000/svg" xmlns:xlink="http://www.w3.org/1999/xlink" x="0px" y="0px"
	 viewBox="0 0 67.6 77.4" style="enable-background:new 0 0 67.6 77.4;" xml:space="preserve">
<style type="text/css">
	.st0{fill:#29B7EB;}
	.st1{fill:#065AA7;}
</style>
<g>
	<path class="st0" d="M45.3,34.1l-3.2,17.6c-0.5,3.2-2.6,4-4.4,4H23.9l5.7-32.2c-5.9-2.7-11.7-4.4-16.5-4.4c-4.5,0-8.2,1.2-10.6,4.1
		C0.9,25.3,0,27.8,0,30.9C0,40,7.2,52.7,19.5,63.1c11,9.2,23.1,14.3,31.9,14.3c4.4,0,7.9-1.3,10.3-4c1.8-2.1,2.6-4.8,2.6-7.8
		C64.2,56.6,57,44.2,45.3,34.1"/>
	<path class="st1" d="M20.4,0c-2.2,0-4,1.5-4.5,3.8L14,14.4h17.4l-7.5,41.3h13.9c1.8,0,3.9-0.9,4.5-4l6.3-37.2h12.5
		c2.2,0,4-1.5,4.5-3.8l2-10.6L20.4,0L20.4,0z"/>
</g>
</svg>
