<?xml version="1.0" encoding="utf-8"?>
<!-- Generator: Adobe Illustrator 26.0.1, SVG Export Plug-In . SVG Version: 6.00 Build 0)  -->
<svg version="1.1" id="Layer_1" xmlns="http://www.w3.org/2000/svg" xmlns:xlink="http://www.w3.org/1999/xlink" x="0px" y="0px"
	 viewBox="0 0 347.4 111.7" style="enable-background:new 0 0 347.4 111.7;" xml:space="preserve">
<style type="text/css">
	.st0{fill:#0064D2;}
	.st1{fill:#283278;}
	.st2{fill:#00BAF2;}
</style>
<g>
	<g>
		<path class="st0" d="M103.1,27.2h-4.7L93.1,9.6l-5.3,17.6h-4.6L78.1,1.7h4.4l3.6,17.7L91.4,2h3.9l5.1,17.4L104,1.7h4.2L103.1,27.2
			z"/>
		<path class="st0" d="M126.5,19.3H114c0,1.4,0.5,2.8,1.4,3.7c0.6,0.6,1.5,1.2,2.8,1.2s2.1-0.3,2.7-0.9c0.4-0.4,0.7-0.9,0.9-1.6h4.3
			c-0.1,1.1-0.9,2.6-1.6,3.5c-1.6,1.9-3.9,2.6-6.3,2.6c-2.6,0-4.4-0.9-5.9-2.3c-1.9-1.8-2.9-4.4-2.9-7.5c0-3,0.9-5.7,2.7-7.5
			c1.4-1.4,3.4-2.4,6-2.4c2.8,0,5.3,1.1,6.8,3.5c1.4,2.1,1.7,4.2,1.6,6.5C126.5,18,126.5,18.9,126.5,19.3z M120.9,12.7
			c-0.6-0.6-1.5-1.1-2.8-1.1c-1.4,0-2.5,0.6-3.1,1.4c-0.6,0.8-0.9,1.7-1,2.9h8.1C122,14.6,121.6,13.5,120.9,12.7z"/>
		<path class="st0" d="M135.4,27.4c-3.1,0-5.1-1.5-5.1-5V1.2h4.5v20.4c0,1.1,0.3,1.8,1.8,1.8c0.4,0,0.5,0,0.8,0v3.8
			C136.4,27.4,136.3,27.4,135.4,27.4z"/>
		<path class="st0" d="M154.4,24.7c-1.3,1.6-3.6,3-6.4,3c-2.8,0-5.2-1.4-6.5-3c-1.4-1.8-2.1-4.1-2.1-6.8s0.6-5.1,2.1-6.8
			c1.3-1.6,3.7-3,6.5-3s5.1,1.3,6.4,3c0.9,1.1,1.4,2.6,1.4,4.1h-4.4c0-0.7-0.3-1.3-0.5-1.7c-0.5-0.8-1.5-1.4-2.9-1.4
			c-1.2,0-2.1,0.5-2.7,1.2c-1.1,1.2-1.3,3-1.3,4.8c0,1.8,0.2,3.5,1.3,4.7c0.6,0.6,1.5,1.2,2.7,1.2c1.4,0,2.3-0.6,2.9-1.4
			c0.3-0.5,0.5-1,0.5-1.7h4.4C155.7,22.1,155.2,23.6,154.4,24.7z"/>
		<path class="st0" d="M173.5,24.8c-1.3,1.6-3.7,2.9-6.6,2.9s-5.3-1.3-6.6-2.9c-1.4-1.8-2.2-3.7-2.2-6.9s0.8-5.1,2.2-6.9
			c1.3-1.6,3.7-2.9,6.6-2.9s5.3,1.3,6.6,2.9c1.4,1.8,2.2,3.7,2.2,6.9S174.9,23,173.5,24.8z M169.7,13.2c-0.6-0.6-1.6-1.2-2.8-1.2
			s-2.2,0.5-2.8,1.2c-1.1,1.2-1.3,3-1.3,4.7s0.3,3.5,1.3,4.7c0.6,0.6,1.6,1.2,2.8,1.2s2.2-0.5,2.8-1.2c1.1-1.2,1.3-3,1.3-4.7
			S170.8,14.3,169.7,13.2z"/>
		<path class="st0" d="M201.7,27.2V15.6c0-2.3-0.6-3.6-2.9-3.6c-2.6,0-3.7,2.7-3.7,5v10.2h-4.5V15.6c0-2.3-0.6-3.6-2.9-3.6
			c-2.6,0-3.7,2.7-3.7,5v10.2h-4.5V8.5h3.7l0.4,2.5c1-1.7,2.8-3,5.3-3c2.6,0,4.4,1.2,5.4,3.1c1.1-1.9,3.1-3.1,5.7-3.1
			c4,0,6.1,2.7,6.1,6.6v12.6H201.7z"/>
		<path class="st0" d="M226.9,19.3h-12.5c0,1.4,0.5,2.8,1.4,3.7c0.6,0.6,1.5,1.2,2.8,1.2s2.1-0.3,2.7-0.9c0.4-0.4,0.7-0.9,0.9-1.6
			h4.3c-0.1,1.1-0.9,2.6-1.6,3.5c-1.6,1.9-3.9,2.6-6.3,2.6c-2.6,0-4.4-0.9-5.9-2.3c-1.9-1.8-2.9-4.4-2.9-7.5c0-3,0.9-5.7,2.7-7.5
			c1.4-1.4,3.4-2.4,6-2.4c2.8,0,5.3,1.1,6.8,3.5c1.4,2.1,1.7,4.2,1.6,6.5C227,18,226.9,18.9,226.9,19.3z M221.3,12.7
			c-0.6-0.6-1.5-1.1-2.8-1.1c-1.4,0-2.5,0.6-3.1,1.4c-0.6,0.8-0.9,1.7-1,2.9h8.1C222.4,14.6,222,13.5,221.3,12.7z"/>
		<path class="st0" d="M245.1,27.5c-3.8,0-5.7-2.2-5.7-5.8v-9.5H236V8.5h3.4V3.8l4.5-1.1v5.9h4.7v3.7h-4.7v9.1
			c0,1.4,0.6,2.1,2.1,2.1c0.9,0,1.7,0,2.9-0.2V27C247.7,27.3,246.4,27.5,245.1,27.5z"/>
		<path class="st0" d="M266,24.8c-1.3,1.6-3.7,2.9-6.6,2.9s-5.3-1.3-6.6-2.9c-1.4-1.8-2.2-3.7-2.2-6.9s0.8-5.1,2.2-6.9
			c1.3-1.6,3.7-2.9,6.6-2.9s5.3,1.3,6.6,2.9c1.4,1.8,2.2,3.7,2.2,6.9S267.4,23,266,24.8z M262.3,13.2c-0.6-0.6-1.6-1.2-2.8-1.2
			s-2.2,0.5-2.8,1.2c-1.1,1.2-1.3,3-1.3,4.7s0.3,3.5,1.3,4.7c0.6,0.6,1.6,1.2,2.8,1.2s2.2-0.5,2.8-1.2c1.1-1.2,1.3-3,1.3-4.7
			S263.4,14.3,262.3,13.2z"/>
	</g>
</g>
<g>
	<g>
		<path class="st0" d="M108.5,93.2c-3.1,3.1-7.4,4.6-11.8,4.6s-8.7-1.5-11.8-4.6c-4.5-4.5-5.2-9.9-5.2-16.6s0.8-12.2,5.2-16.7
			c3.1-3.1,7.4-4.6,11.8-4.6s8.7,1.5,11.8,4.6c4.5,4.5,5.2,10,5.2,16.7C113.7,83.3,113,88.8,108.5,93.2z M103.2,64.8
			c-1.6-1.7-4.1-2.7-6.5-2.7s-4.9,1-6.5,2.7c-2.8,3-3,8.1-3,11.8c0,3.8,0.1,8.8,3,11.8c1.6,1.7,4.1,2.7,6.5,2.7s4.9-1,6.5-2.7
			c2.8-3,3-8,3-11.8C106.1,72.8,106,67.7,103.2,64.8z"/>
		<path class="st0" d="M142.6,95.4c-1.9,1.5-4.3,2.4-7.4,2.4c-3.6,0-6.5-1.3-7.9-3v13.7h-7.2V67h6.3l0.5,3.3c1.8-2.8,5.2-4,8.5-4
			c3,0,5.5,1,7.3,2.6c3.6,3,5.4,7.5,5.4,13.2C148,87.9,146.2,92.5,142.6,95.4z M138.7,74.7c-1-1.3-2.6-2.4-4.9-2.4
			c-5.7,0-6.8,5.4-6.8,9.7c0,4.3,1.2,9.7,6.8,9.7c2.3,0,3.8-1,4.9-2.4c1.5-2,1.9-4.7,1.9-7.3C140.6,79.5,140.2,76.7,138.7,74.7z"/>
		<path class="st0" d="M164.9,97.5c-6.1,0-9.1-3.5-9.1-9.3V72.9h-5.5v-6h5.5v-7.7l7.3-1.8V67h7.6v6h-7.6v14.7c0,2.3,1,3.3,3.4,3.3
			c1.5,0,2.7-0.1,4.7-0.3v6.1C169.1,97.2,167.1,97.5,164.9,97.5z"/>
		<path class="st0" d="M176.6,62.8v-7.5h7.8v7.5H176.6z M176.8,97.1V67h7.4v30.2L176.8,97.1L176.8,97.1z"/>
		<path class="st0" d="M228.3,97.1V78.4c0-3.7-1-5.9-4.6-5.9c-4.1,0-5.9,4.3-5.9,8.1v16.5h-7.2V78.4c0-3.7-1-5.9-4.6-5.9
			c-4.1,0-6,4.3-6,8.1v16.5h-7.2V67h6l0.6,4c1.7-2.8,4.6-4.8,8.6-4.8c4.2,0,7.1,1.9,8.6,4.9c1.8-3.1,5-4.9,9.1-4.9
			c6.4,0,9.8,4.3,9.8,10.6v20.4L228.3,97.1L228.3,97.1z"/>
		<path class="st0" d="M243.4,62.8v-7.5h7.8v7.5H243.4z M243.6,97.1V67h7.4v30.2L243.6,97.1L243.6,97.1z"/>
		<path class="st0" d="M280.3,94.4c-2.4,2.4-6.2,3.5-10.3,3.5c-3.8,0-7.3-1.1-9.7-3.5c-1.7-1.7-3.2-4.2-3.2-7h6.8
			c0,1.3,0.7,2.8,1.6,3.5c1.2,0.9,2.5,1.3,4.6,1.3c2.4,0,6.1-0.5,6.1-3.8c0-1.7-1.2-2.9-3-3.2c-2.7-0.4-5.7-0.6-8.4-1.2
			c-4.1-0.9-6.9-4.2-6.9-8.1c0-3.1,1.3-5.2,3.1-6.8c2.2-1.9,5.4-3,9.2-3c3.6,0,7.3,1.2,9.5,3.5c1.6,1.7,2.7,4,2.7,6.2h-6.9
			c0-1.2-0.5-2.1-1.2-2.8c-0.9-0.9-2.4-1.4-3.9-1.4c-1,0-2,0-3.1,0.5c-1.3,0.5-2.3,1.6-2.3,3.2c0,2.1,1.9,2.8,3.5,3
			c2.7,0.3,3.5,0.4,6.4,0.9c4.8,0.8,8.2,3.8,8.2,8.5C282.9,90.7,281.9,92.8,280.3,94.4z"/>
		<path class="st0" d="M314.6,84.3h-20.2c-0.1,2.3,0.8,4.5,2.2,5.9c1,1,2.5,1.9,4.5,1.9c2.1,0,3.4-0.4,4.4-1.5
			c0.6-0.6,1.2-1.5,1.4-2.6h7c-0.2,1.8-1.4,4.2-2.6,5.6c-2.6,3-6.3,4.2-10.1,4.2c-4.1,0-7.1-1.5-9.5-3.7c-3-2.9-4.6-7.1-4.6-12.1
			c0-4.8,1.5-9.1,4.4-12.1c2.3-2.3,5.5-3.8,9.6-3.8c4.5,0,8.5,1.8,11,5.6c2.2,3.3,2.7,6.7,2.6,10.5
			C314.6,82.3,314.6,83.7,314.6,84.3z M305.5,73.7c-1-1-2.5-1.7-4.6-1.7c-2.2,0-4,0.9-5,2.3c-1,1.3-1.5,2.7-1.6,4.7h13
			C307.3,76.8,306.7,75,305.5,73.7z"/>
		<path class="st0" d="M335.9,73.4c-5.1,0-7.8,3.7-7.8,8.5v15.2h-7.3V67h6.1l0.6,4.5c1.4-3.5,5-4.9,8.5-4.9c0.8,0,1.5,0.1,2.3,0.2v7
			C337.6,73.5,336.7,73.4,335.9,73.4z"/>
	</g>
</g>
<path class="st1" d="M51.2,49.9c1.4-0.1,2.8,0,4.4,0c1.7,0,3.5,0,5.2,0c-0.5,2.7-1,5.4-1.5,8.1c-0.3,1-0.8,1.9-1.7,2.4
	c-0.6,0.4-1.5,0.5-2.2,0.4c-3,0-5.9,0-9,0c-0.9,4.9-1.7,9.9-2.6,14.9C43,80,42.3,84,41.6,88.1c-0.1,0.8-0.3,1.5-0.5,2.3
	c-0.4,0.6-0.9,1.4-1.5,1.7c-0.6,0.3-1.4,0.4-2.1,0.4c-3.6,0-7.2,0-10.8,0c1.7-8.2,3.3-16.5,5-24.6c0.5-2.3,0.9-4.5,1.4-6.8
	c-4.4,0-8.9,0-13.3,0c0.5-2.7,1-5.4,1.5-8c0.3-0.9,0.6-1.7,1.4-2.2c0.6-0.5,1.4-0.6,2.3-0.6c3.2,0,6.3,0,9.5,0c3,0,6.1,0,9,0
	C46,49.9,48.6,49.9,51.2,49.9z"/>
<path class="st2" d="M17.5,64.5c0.8,0,1.4-0.1,2.2-0.1c4.1,0.1,8.2,1.4,12,3.2c-1.7,8.2-3.3,16.5-5,24.6c3.6,0,7.2,0,10.8,0
	c0.6,0,1.4,0,2.1-0.4c0.6-0.4,1.3-0.9,1.5-1.7c0.4-0.8,0.4-1.5,0.5-2.3c0.6-4.1,1.4-8.1,2.1-12.2c4.6,4.1,8.9,8.9,11.7,14.6
	c0.9,1.8,1.7,3.7,2.2,5.8c0.4,1.5,0.5,3.2,0.4,4.8c-0.1,1.5-0.6,3-1.5,4.3c-0.4,0.6-1.2,1.2-1.7,1.7c-2.2,1.5-5,2.1-7.7,1.8
	s-5.4-1-8-1.9c-6.2-2.3-11.9-5.9-16.7-10.4c-4.3-3.9-8.1-8.5-10.7-13.8c-1.2-2.4-2.2-5-2.4-7.9C9,73.1,9,71.8,9.4,70.7
	c0.4-1.5,1-3,2.2-4C13.3,65.5,15.3,64.8,17.5,64.5z"/>
</svg>
