<?xml version="1.0" encoding="utf-8"?>
<!-- Generator: Adobe Illustrator 24.2.1, SVG Export Plug-In . SVG Version: 6.00 Build 0)  -->
<svg version="1.1" id="Layer_1" xmlns="http://www.w3.org/2000/svg" xmlns:xlink="http://www.w3.org/1999/xlink" x="0px" y="0px"
	 viewBox="0 0 508.6 111.7" style="enable-background:new 0 0 508.6 111.7;" xml:space="preserve">
<style type="text/css">
	.st0{fill:#1AAFE6;}
	.st1{fill:#414141;}
	.st2{fill:#0A5AA8;}
	.st3{fill:#26B9EC;}
</style>
<g>
	<path class="st0" d="M-341,59.7l-0.4-1.9c-0.5,1-2.1,2.2-4.3,2.2c-2,0-3.7-0.5-5.1-1.9c-1.8-1.8-2.2-4.1-2.2-6.9
		c0-2.8,0.4-5,2.2-6.8c1.3-1.3,3.2-2,5.1-2c2.1,0,3.9,0.8,5,1.9c0.8,0.9,1.5,1.9,1.6,3.4h-3.2c0-0.7-0.4-1.1-0.7-1.6
		c-0.6-0.7-1.5-1-2.7-1c-1,0-2.1,0.4-2.8,1.2c-1.2,1.2-1.3,3.3-1.3,4.9s0.2,3.7,1.3,5c0.7,0.7,1.8,1.1,2.8,1.1c1.1,0,2-0.4,2.5-1
		c0.9-1,1.1-2,1.1-3.3h-4.1v-2.6h7.1v9.3H-341z"/>
	<path class="st0" d="M-326.5,59.9c-1.3,0-2-0.8-2.1-1.8c-0.6,1-2,1.9-3.8,1.9c-3,0-4.5-1.9-4.5-3.9c0-2.4,1.8-3.7,4.2-3.9l3.7-0.3
		v-0.8c0-1.2-0.4-2-2.1-2c-1.4,0-2.2,0.6-2.3,1.8h-2.9c0.2-2.8,2.4-4.1,5.2-4.1c2.1,0,4,0.7,4.7,2.5c0.3,0.8,0.4,1.7,0.4,2.5v4.6
		c0,0.6,0.2,0.8,0.7,0.8c0.2,0,0.4,0,0.4,0v2.2C-325.5,59.8-325.8,59.9-326.5,59.9z M-329,54.2l-3.2,0.2c-0.9,0.1-1.8,0.6-1.8,1.6
		c0,1,0.8,1.6,1.8,1.6c1.9,0,3.2-1,3.2-2.9V54.2z"/>
	<path class="st0" d="M-307.9,59.7V52c0-1.5-0.4-2.4-1.9-2.4c-1.7,0-2.4,1.8-2.4,3.4v6.8h-3V52c0-1.5-0.4-2.4-1.9-2.4
		c-1.7,0-2.5,1.8-2.5,3.4v6.8h-3V47.3h2.5l0.2,1.7c0.7-1.2,1.9-2,3.6-2c1.8,0,3,0.8,3.6,2c0.7-1.3,2.1-2,3.8-2
		c2.7,0,4.1,1.8,4.1,4.4v8.4H-307.9z"/>
	<path class="st0" d="M-291.1,54.4h-8.4c0,1,0.3,1.9,0.9,2.4c0.4,0.4,1,0.8,1.8,0.8c0.9,0,1.4-0.2,1.8-0.6c0.3-0.3,0.5-0.6,0.6-1.1
		h2.9c-0.1,0.7-0.6,1.7-1.1,2.3c-1.1,1.2-2.6,1.8-4.2,1.8c-1.7,0-3-0.6-3.9-1.5c-1.2-1.2-1.9-3-1.9-5c0-2,0.6-3.8,1.8-5
		c0.9-1,2.3-1.6,4-1.6c1.8,0,3.5,0.7,4.6,2.3c0.9,1.4,1.1,2.8,1.1,4.3C-291.1,53.6-291.1,54.2-291.1,54.4z M-294.8,50.1
		c-0.4-0.4-1-0.7-1.9-0.7c-0.9,0-1.7,0.4-2.1,1c-0.4,0.6-0.6,1.1-0.6,1.9h5.4C-294.1,51.3-294.4,50.6-294.8,50.1z"/>
	<path class="st0" d="M-272.4,58.1c-1.3,1.3-3.1,1.9-4.9,1.9s-3.6-0.6-4.9-1.9c-1.8-1.8-2.2-4.1-2.2-6.9c0-2.8,0.3-5.1,2.2-6.9
		c1.3-1.3,3.1-1.9,4.9-1.9s3.6,0.6,4.9,1.9c1.8,1.8,2.2,4.1,2.2,6.9C-270.2,54-270.5,56.3-272.4,58.1z M-274.6,46.3
		c-0.7-0.7-1.7-1.1-2.7-1.1c-1,0-2,0.4-2.7,1.1c-1.2,1.2-1.2,3.3-1.2,4.9s0,3.6,1.2,4.9c0.7,0.7,1.7,1.1,2.7,1.1c1,0,2-0.4,2.7-1.1
		c1.2-1.2,1.2-3.3,1.2-4.9S-273.4,47.6-274.6,46.3z"/>
	<path class="st0" d="M-258.3,59c-0.8,0.6-1.8,1-3,1c-1.5,0-2.7-0.5-3.3-1.2v5.7h-3V47.3h2.6l0.2,1.4c0.7-1.2,2.1-1.7,3.5-1.7
		c1.2,0,2.3,0.4,3,1.1c1.5,1.2,2.2,3.1,2.2,5.4C-256.1,55.9-256.8,57.8-258.3,59z M-259.9,50.5c-0.4-0.6-1.1-1-2-1
		c-2.4,0-2.8,2.2-2.8,4s0.5,4,2.8,4c0.9,0,1.6-0.4,2-1c0.6-0.8,0.8-1.9,0.8-3C-259.1,52.4-259.3,51.3-259.9,50.5z"/>
	<path class="st0" d="M-249,59.9c-2.5,0-3.8-1.4-3.8-3.8v-6.3h-2.3v-2.5h2.3v-3.2l3-0.7v3.9h3.1v2.5h-3.1v6.1c0,1,0.4,1.4,1.4,1.4
		c0.6,0,1.1,0,1.9-0.1v2.5C-247.3,59.8-248.2,59.9-249,59.9z"/>
	<path class="st0" d="M-244.2,45.5v-3.1h3.2v3.1H-244.2z M-244.1,59.7V47.3h3v12.5H-244.1z"/>
	<path class="st0" d="M-222.8,59.7V52c0-1.5-0.4-2.4-1.9-2.4c-1.7,0-2.4,1.8-2.4,3.4v6.8h-3V52c0-1.5-0.4-2.4-1.9-2.4
		c-1.7,0-2.5,1.8-2.5,3.4v6.8h-3V47.3h2.5l0.2,1.7c0.7-1.2,1.9-2,3.6-2c1.8,0,3,0.8,3.6,2c0.7-1.3,2.1-2,3.8-2
		c2.7,0,4.1,1.8,4.1,4.4v8.4H-222.8z"/>
	<path class="st0" d="M-216.8,45.5v-3.1h3.2v3.1H-216.8z M-216.7,59.7V47.3h3v12.5H-216.7z"/>
	<path class="st0" d="M-201.6,58.6c-1,1-2.6,1.4-4.3,1.4c-1.6,0-3-0.5-4-1.4c-0.7-0.7-1.3-1.7-1.3-2.9h2.8c0,0.6,0.3,1.2,0.7,1.5
		c0.5,0.4,1,0.6,1.9,0.6c1,0,2.5-0.2,2.5-1.6c0-0.7-0.5-1.2-1.2-1.3c-1.1-0.2-2.4-0.2-3.5-0.5c-1.7-0.4-2.9-1.8-2.9-3.3
		c0-1.3,0.5-2.2,1.3-2.8c0.9-0.8,2.2-1.2,3.8-1.2c1.5,0,3,0.5,3.9,1.5c0.7,0.7,1.1,1.7,1.1,2.6h-2.9c0-0.5-0.2-0.9-0.5-1.2
		c-0.4-0.4-1-0.6-1.6-0.6c-0.4,0-0.8,0-1.3,0.2c-0.5,0.2-1,0.7-1,1.3c0,0.9,0.8,1.2,1.4,1.2c1.1,0.1,1.4,0.2,2.7,0.4
		c2,0.3,3.4,1.6,3.4,3.5C-200.5,57.1-200.9,58-201.6,58.6z"/>
	<path class="st0" d="M-187.4,54.4h-8.4c0,1,0.3,1.9,0.9,2.4c0.4,0.4,1,0.8,1.8,0.8c0.9,0,1.4-0.2,1.8-0.6c0.3-0.3,0.5-0.6,0.6-1.1
		h2.9c-0.1,0.7-0.6,1.7-1.1,2.3c-1.1,1.2-2.6,1.8-4.2,1.8c-1.7,0-3-0.6-3.9-1.5c-1.2-1.2-1.9-3-1.9-5c0-2,0.6-3.8,1.8-5
		c0.9-1,2.3-1.6,4-1.6c1.8,0,3.5,0.7,4.6,2.3c0.9,1.4,1.1,2.8,1.1,4.3C-187.3,53.6-187.4,54.2-187.4,54.4z M-191.1,50.1
		c-0.4-0.4-1-0.7-1.9-0.7c-0.9,0-1.7,0.4-2.1,1c-0.4,0.6-0.6,1.1-0.6,1.9h5.4C-190.4,51.3-190.6,50.6-191.1,50.1z"/>
	<path class="st0" d="M-178.7,49.9c-2.1,0-3.2,1.5-3.2,3.5v6.3h-3V47.3h2.5l0.3,1.9c0.6-1.4,2.1-2,3.5-2c0.3,0,0.6,0,0.9,0.1V50
		C-178,50-178.3,49.9-178.7,49.9z"/>
</g>
<g>
	<path id="XMLID_179_" class="st1" d="M-34.1,62.9c0,2.6-0.6,4.5-1.9,5.9c-1.3,1.4-3.1,2.1-5.5,2.1c-2.4,0-4.2-0.7-5.5-2.1
		c-1.3-1.4-1.9-3.4-1.9-5.9s0.6-4.5,1.9-5.9c1.3-1.4,3.1-2,5.5-2c2.4,0,4.2,0.7,5.5,2.1C-34.8,58.4-34.1,60.3-34.1,62.9z
		 M-45.4,62.9c0,1.7,0.3,3,1,3.9c0.7,0.9,1.6,1.3,2.9,1.3c2.6,0,3.9-1.7,3.9-5.2c0-3.5-1.3-5.2-3.9-5.2c-1.3,0-2.3,0.4-3,1.3
		C-45.1,59.9-45.4,61.2-45.4,62.9z"/>
	<path id="XMLID_177_" class="st1" d="M-22.5,66.4c0,1.4-0.5,2.5-1.5,3.3s-2.4,1.2-4.2,1.2c-1.7,0-3.1-0.3-4.4-0.9v-3
		c1,0.5,1.9,0.8,2.7,1c0.7,0.2,1.4,0.3,2,0.3c0.7,0,1.3-0.1,1.7-0.4c0.4-0.3,0.6-0.7,0.6-1.2c0-0.3-0.1-0.6-0.3-0.8
		c-0.2-0.2-0.4-0.5-0.7-0.7c-0.3-0.2-1-0.6-2-1c-0.9-0.4-1.7-0.9-2.1-1.3c-0.5-0.4-0.9-0.9-1.1-1.4c-0.3-0.5-0.4-1.2-0.4-1.9
		c0-1.4,0.5-2.4,1.4-3.2c0.9-0.8,2.2-1.2,3.8-1.2c0.8,0,1.6,0.1,2.3,0.3c0.7,0.2,1.5,0.5,2.3,0.8l-1.1,2.6c-0.8-0.3-1.5-0.6-2-0.7
		c-0.5-0.1-1.1-0.2-1.6-0.2c-0.6,0-1.1,0.1-1.4,0.4c-0.3,0.3-0.5,0.7-0.5,1.1c0,0.3,0.1,0.5,0.2,0.8c0.1,0.2,0.3,0.4,0.6,0.6
		c0.3,0.2,1,0.6,2.1,1.1c1.4,0.7,2.4,1.4,3,2.1C-22.7,64.5-22.5,65.3-22.5,66.4z"/>
	<path id="XMLID_173_" class="st1" d="M-95.3,62.7c0,2.6-0.7,4.6-2.1,6c-1.4,1.3-3.4,2-6.1,2h-3.7V55h4.2c2.5,0,4.4,0.7,5.7,2
		C-95.9,58.3-95.3,60.2-95.3,62.7z M-96.5,62.7c0-2.2-0.6-3.9-1.7-5.1c-1.1-1.1-2.8-1.7-5-1.7h-2.9v13.7h2.6
		C-98.8,69.7-96.5,67.4-96.5,62.7z"/>
	<path id="XMLID_172_" class="st1" d="M-81.5,55v10.1c0,1.8-0.5,3.2-1.6,4.2c-1,1-2.5,1.5-4.4,1.5c-1.8,0-3.2-0.5-4.2-1.5
		c-1-1-1.5-2.4-1.5-4.3V55h1.1v10.1c0,1.5,0.4,2.7,1.2,3.5c0.8,0.8,2,1.3,3.5,1.3c1.5,0,2.6-0.4,3.5-1.2c0.8-0.8,1.2-2,1.2-3.4V55
		L-81.5,55L-81.5,55z"/>
	<path id="XMLID_171_" class="st1" d="M-72.4,70.7l-5.8-14.5h-0.1c0.1,0.9,0.1,1.8,0.1,2.7v11.7h-1.1V55h1.7l5.5,13.8h0.1l5.5-13.8
		h1.6v15.7h-1.1V58.8c0-0.8,0.1-1.7,0.1-2.6h-0.1l-5.9,14.4H-72.4L-72.4,70.7z"/>
	<path id="XMLID_24_" class="st1" d="M-53,65.1h-6.4l-2.2,5.5h-1.2l6.3-15.7h0.7l6.2,15.7h-1.2L-53,65.1z M-59,64.2h5.6l-2.1-5.6
		c-0.2-0.4-0.4-1.1-0.6-1.8c-0.2,0.7-0.4,1.3-0.6,1.9L-59,64.2z"/>
</g>
<g>
	<path class="st1" d="M-93.2,47.1v2.6h-1.2v-7.1h2.7c0.8,0,1.4,0.2,1.9,0.6c0.5,0.4,0.7,1,0.7,1.6c0,0.7-0.2,1.2-0.7,1.6
		c-0.5,0.4-1.1,0.6-1.9,0.6H-93.2z M-93.2,46.1h1.5c0.4,0,0.8-0.1,1-0.3c0.2-0.2,0.3-0.5,0.3-0.9c0-0.4-0.1-0.7-0.4-0.9
		s-0.6-0.3-1-0.4h-1.5V46.1z"/>
	<path class="st1" d="M-82.4,46.3c0,0.7-0.1,1.3-0.4,1.8c-0.2,0.5-0.6,0.9-1,1.2c-0.4,0.3-1,0.4-1.5,0.4c-0.6,0-1.1-0.1-1.5-0.4
		c-0.5-0.3-0.8-0.7-1-1.2c-0.2-0.5-0.4-1.1-0.4-1.8V46c0-0.7,0.1-1.3,0.4-1.8c0.2-0.5,0.6-0.9,1-1.2c0.4-0.3,1-0.4,1.5-0.4
		c0.6,0,1.1,0.1,1.5,0.4c0.4,0.3,0.8,0.7,1,1.2s0.4,1.1,0.4,1.8V46.3z M-83.7,46c0-0.8-0.1-1.4-0.4-1.8s-0.7-0.6-1.3-0.6
		c-0.5,0-1,0.2-1.3,0.6c-0.3,0.4-0.5,1-0.5,1.8v0.4c0,0.8,0.2,1.4,0.5,1.8c0.3,0.4,0.7,0.6,1.3,0.6c0.5,0,1-0.2,1.3-0.6
		c0.3-0.4,0.4-1,0.4-1.8V46z"/>
	<path class="st1" d="M-75.6,48l1.1-5.4h1.2l-1.6,7.1h-1.2l-1.4-5.2l-1.4,5.2H-80l-1.6-7.1h1.2l1.1,5.3l1.4-5.3h1L-75.6,48z"/>
	<path class="st1" d="M-68.2,46.5h-2.9v2.2h3.4v1h-4.6v-7.1h4.6v1h-3.4v2h2.9V46.5z"/>
	<path class="st1" d="M-64.1,47h-1.4v2.7h-1.2v-7.1h2.5c0.8,0,1.5,0.2,1.9,0.6c0.4,0.4,0.7,0.9,0.7,1.6c0,0.5-0.1,0.9-0.3,1.2
		s-0.5,0.6-1,0.7l1.6,3v0.1h-1.3L-64.1,47z M-65.5,46h1.3c0.4,0,0.7-0.1,1-0.3s0.4-0.5,0.4-0.9c0-0.4-0.1-0.7-0.3-0.9
		c-0.2-0.2-0.5-0.3-1-0.3h-1.3V46z"/>
	<path class="st1" d="M-56.3,46.5h-2.9v2.2h3.4v1h-4.6v-7.1h4.6v1h-3.4v2h2.9V46.5z"/>
	<path class="st1" d="M-54.8,49.7v-7.1h2.1c0.6,0,1.2,0.1,1.7,0.4c0.5,0.3,0.9,0.7,1.1,1.2c0.3,0.5,0.4,1.1,0.4,1.8v0.4
		c0,0.7-0.1,1.3-0.4,1.8s-0.7,0.9-1.1,1.2c-0.5,0.3-1.1,0.4-1.7,0.4H-54.8z M-53.6,43.6v5.1h0.8c0.6,0,1.1-0.2,1.5-0.6
		s0.5-1,0.5-1.7V46c0-0.8-0.2-1.4-0.5-1.8c-0.3-0.4-0.8-0.6-1.5-0.6H-53.6z"/>
	<path class="st1" d="M-45.8,49.7v-7.1h2.4c0.8,0,1.4,0.2,1.8,0.5s0.6,0.8,0.6,1.4c0,0.3-0.1,0.6-0.3,0.9s-0.4,0.5-0.8,0.6
		c0.4,0.1,0.7,0.3,0.9,0.6s0.3,0.6,0.3,1c0,0.7-0.2,1.2-0.6,1.5c-0.4,0.4-1,0.5-1.8,0.5H-45.8z M-44.6,45.6h1.2
		c0.4,0,0.7-0.1,0.9-0.3c0.2-0.2,0.3-0.4,0.3-0.7c0-0.4-0.1-0.6-0.3-0.8s-0.5-0.2-0.9-0.2h-1.2V45.6z M-44.6,46.5v2.2h1.4
		c0.4,0,0.7-0.1,0.9-0.3c0.2-0.2,0.3-0.5,0.3-0.8c0-0.7-0.4-1.1-1.1-1.1H-44.6z"/>
	<path class="st1" d="M-37.5,46l1.6-3.4h1.4l-2.4,4.5v2.6h-1.2v-2.6l-2.4-4.5h1.4L-37.5,46z"/>
</g>
<g>
	<g>
		<path class="st0" d="M183.7,27.2H179l-5.3-17.6l-5.3,17.6h-4.6l-5.1-25.5h4.4l3.6,17.7l5.3-17.4h3.9l5.1,17.4l3.6-17.7h4.2
			L183.7,27.2z"/>
		<path class="st0" d="M207.1,19.3h-12.5c0,1.4,0.5,2.8,1.4,3.7c0.6,0.6,1.5,1.2,2.8,1.2c1.3,0,2.1-0.3,2.7-0.9
			c0.4-0.4,0.7-0.9,0.9-1.6h4.3c-0.1,1.1-0.9,2.6-1.6,3.5c-1.6,1.9-3.9,2.6-6.3,2.6c-2.6,0-4.4-0.9-5.9-2.3
			c-1.9-1.8-2.9-4.4-2.9-7.5c0-3,0.9-5.7,2.7-7.5c1.4-1.4,3.4-2.4,6-2.4c2.8,0,5.3,1.1,6.8,3.5c1.4,2.1,1.7,4.2,1.6,6.5
			C207.1,18,207.1,18.9,207.1,19.3z M201.5,12.7c-0.6-0.6-1.5-1.1-2.8-1.1c-1.4,0-2.5,0.6-3.1,1.4c-0.6,0.8-0.9,1.7-1,2.9h8.1
			C202.6,14.6,202.2,13.5,201.5,12.7z"/>
		<path class="st0" d="M216,27.4c-3.1,0-5.1-1.5-5.1-5V1.2h4.5v20.4c0,1.1,0.3,1.8,1.8,1.8c0.4,0,0.5,0,0.8,0v3.8
			C217,27.4,216.9,27.4,216,27.4z"/>
		<path class="st0" d="M235,24.7c-1.3,1.6-3.6,3-6.4,3c-2.8,0-5.2-1.4-6.5-3c-1.4-1.8-2.1-4.1-2.1-6.8c0-2.7,0.6-5.1,2.1-6.8
			c1.3-1.6,3.7-3,6.5-3c2.8,0,5.1,1.3,6.4,3c0.9,1.1,1.4,2.6,1.4,4.1H232c0-0.7-0.3-1.3-0.5-1.7c-0.5-0.8-1.5-1.4-2.9-1.4
			c-1.2,0-2.1,0.5-2.7,1.2c-1.1,1.2-1.3,3-1.3,4.8c0,1.8,0.2,3.5,1.3,4.7c0.6,0.6,1.5,1.2,2.7,1.2c1.4,0,2.3-0.6,2.9-1.4
			c0.3-0.5,0.5-1,0.5-1.7h4.4C236.3,22.1,235.8,23.6,235,24.7z"/>
		<path class="st0" d="M254.1,24.8c-1.3,1.6-3.7,2.9-6.6,2.9s-5.3-1.3-6.6-2.9c-1.4-1.8-2.2-3.7-2.2-6.9s0.8-5.1,2.2-6.9
			c1.3-1.6,3.7-2.9,6.6-2.9s5.3,1.3,6.6,2.9c1.4,1.8,2.2,3.7,2.2,6.9S255.5,23,254.1,24.8z M250.3,13.2c-0.6-0.6-1.6-1.2-2.8-1.2
			s-2.2,0.5-2.8,1.2c-1.1,1.2-1.3,3-1.3,4.7s0.3,3.5,1.3,4.7c0.6,0.6,1.6,1.2,2.8,1.2s2.2-0.5,2.8-1.2c1.1-1.2,1.3-3,1.3-4.7
			S251.4,14.3,250.3,13.2z"/>
		<path class="st0" d="M282.3,27.2V15.6c0-2.3-0.6-3.6-2.9-3.6c-2.6,0-3.7,2.7-3.7,5v10.2h-4.5V15.6c0-2.3-0.6-3.6-2.9-3.6
			c-2.6,0-3.7,2.7-3.7,5v10.2h-4.5V8.5h3.7l0.4,2.5c1-1.7,2.8-3,5.3-3c2.6,0,4.4,1.2,5.4,3.1c1.1-1.9,3.1-3.1,5.7-3.1
			c4,0,6.1,2.7,6.1,6.6v12.6H282.3z"/>
		<path class="st0" d="M307.5,19.3H295c0,1.4,0.5,2.8,1.4,3.7c0.6,0.6,1.5,1.2,2.8,1.2c1.3,0,2.1-0.3,2.7-0.9
			c0.4-0.4,0.7-0.9,0.9-1.6h4.3c-0.1,1.1-0.9,2.6-1.6,3.5c-1.6,1.9-3.9,2.6-6.3,2.6c-2.6,0-4.4-0.9-5.9-2.3
			c-1.9-1.8-2.9-4.4-2.9-7.5c0-3,0.9-5.7,2.7-7.5c1.4-1.4,3.4-2.4,6-2.4c2.8,0,5.3,1.1,6.8,3.5c1.4,2.1,1.7,4.2,1.6,6.5
			C307.6,18,307.5,18.9,307.5,19.3z M301.9,12.7c-0.6-0.6-1.5-1.1-2.8-1.1c-1.4,0-2.5,0.6-3.1,1.4c-0.6,0.8-0.9,1.7-1,2.9h8.1
			C303,14.6,302.6,13.5,301.9,12.7z"/>
		<path class="st0" d="M325.7,27.5c-3.8,0-5.7-2.2-5.7-5.8v-9.5h-3.4V8.5h3.4V3.8l4.5-1.1v5.9h4.7v3.7h-4.7v9.1
			c0,1.4,0.6,2.1,2.1,2.1c0.9,0,1.7,0,2.9-0.2V27C328.3,27.3,327,27.5,325.7,27.5z"/>
		<path class="st0" d="M346.6,24.8c-1.3,1.6-3.7,2.9-6.6,2.9s-5.3-1.3-6.6-2.9c-1.4-1.8-2.2-3.7-2.2-6.9s0.8-5.1,2.2-6.9
			c1.3-1.6,3.7-2.9,6.6-2.9s5.3,1.3,6.6,2.9c1.4,1.8,2.2,3.7,2.2,6.9S348,23,346.6,24.8z M342.9,13.2c-0.6-0.6-1.6-1.2-2.8-1.2
			s-2.2,0.5-2.8,1.2c-1.1,1.2-1.3,3-1.3,4.7s0.3,3.5,1.3,4.7c0.6,0.6,1.6,1.2,2.8,1.2s2.2-0.5,2.8-1.2c1.1-1.2,1.3-3,1.3-4.7
			S344,14.3,342.9,13.2z"/>
	</g>
</g>
<g>
	<g>
		<path class="st0" d="M107.9,97.1l-0.9-4.5c-1.2,2.4-5.2,5.2-10.3,5.3c-4.8,0.1-9-1.2-12.2-4.6c-4.3-4.5-5.3-10-5.3-16.7
			c0-6.7,0.9-12.1,5.3-16.5c3.1-3.1,7.8-4.8,12.2-4.8c5,0,9.4,1.9,12.2,4.7c2,2.1,3.5,4.7,3.8,8.3H105c-0.1-1.6-0.9-2.7-1.8-3.8
			c-1.5-1.7-3.7-2.5-6.6-2.5c-2.4,0-5.1,1-6.7,2.8c-2.8,3-3.2,8.1-3.2,11.8c0,3.8,0.4,9,3.2,12c1.6,1.7,4.3,2.6,6.7,2.6
			c2.7,0,4.8-0.9,6.1-2.4c2.2-2.3,2.7-4.9,2.7-8h-9.8v-6.2h17.1v22.5H107.9z"/>
		<path class="st0" d="M143,97.6c-3.1,0-4.9-2-5.1-4.2c-1.4,2.4-4.9,4.5-9.2,4.5c-7.2,0-10.9-4.5-10.9-9.5c0-5.7,4.5-9,10.2-9.5
			l8.9-0.6v-1.9c0-2.8-1-4.8-5.1-4.8c-3.4,0-5.3,1.5-5.5,4.3h-7c0.4-6.8,5.8-9.8,12.5-9.8c5.2,0,9.6,1.6,11.3,6.1
			c0.8,1.9,0.9,4.1,0.9,6.1v11.2c0,1.4,0.5,1.9,1.7,1.9c0.5,0,0.9-0.1,0.9-0.1v5.3C145.4,97.3,144.7,97.6,143,97.6z M136.9,83.7
			l-7.7,0.6c-2.2,0.2-4.4,1.5-4.4,3.9c0,2.3,2,3.8,4.3,3.8c4.5,0,7.7-2.4,7.7-6.9V83.7z"/>
		<path class="st0" d="M187.9,97.1V78.4c0-3.7-1-5.9-4.6-5.9c-4.1,0-5.9,4.3-5.9,8.1v16.5h-7.2V78.4c0-3.7-1-5.9-4.6-5.9
			c-4.1,0-6,4.3-6,8.1v16.5h-7.2V67h6l0.6,4c1.7-2.8,4.6-4.8,8.6-4.8c4.2,0,7.1,1.9,8.6,4.9c1.8-3.1,5-4.9,9.1-4.9
			c6.4,0,9.8,4.3,9.8,10.6v20.4H187.9z"/>
		<path class="st0" d="M228.5,84.3h-20.2c-0.1,2.3,0.8,4.5,2.2,5.9c1,1,2.5,1.9,4.5,1.9c2.1,0,3.4-0.4,4.4-1.5
			c0.6-0.6,1.2-1.5,1.4-2.6h7c-0.2,1.8-1.4,4.2-2.6,5.6c-2.6,3-6.3,4.2-10.1,4.2c-4.1,0-7.1-1.5-9.5-3.7c-3-2.9-4.6-7.1-4.6-12.1
			c0-4.8,1.5-9.1,4.4-12.1c2.3-2.3,5.5-3.8,9.6-3.8c4.5,0,8.5,1.8,11,5.6c2.2,3.3,2.7,6.7,2.6,10.5
			C228.6,82.3,228.5,83.7,228.5,84.3z M219.5,73.7c-1-1-2.5-1.7-4.6-1.7c-2.2,0-4,0.9-5,2.3c-1,1.3-1.5,2.7-1.6,4.7h13
			C221.3,76.8,220.6,75,219.5,73.7z"/>
		<path class="st0" d="M273.7,93.2c-3.1,3.1-7.4,4.6-11.8,4.6c-4.4,0-8.7-1.5-11.8-4.6c-4.5-4.5-5.2-9.9-5.2-16.6
			c0-6.7,0.8-12.2,5.2-16.7c3.1-3.1,7.4-4.6,11.8-4.6c4.4,0,8.7,1.5,11.8,4.6c4.5,4.5,5.2,10,5.2,16.7
			C278.9,83.3,278.2,88.8,273.7,93.2z M268.4,64.8c-1.6-1.7-4.1-2.7-6.5-2.7s-4.9,1-6.5,2.7c-2.8,3-3,8.1-3,11.8
			c0,3.8,0.1,8.8,3,11.8c1.6,1.7,4.1,2.7,6.5,2.7s4.9-1,6.5-2.7c2.8-3,3-8,3-11.8C271.3,72.8,271.2,67.7,268.4,64.8z"/>
		<path class="st0" d="M307.8,95.4c-1.9,1.5-4.3,2.4-7.4,2.4c-3.6,0-6.5-1.3-7.9-3v13.7h-7.2V67h6.3l0.5,3.3c1.8-2.8,5.2-4,8.5-4
			c3,0,5.5,1,7.3,2.6c3.6,3,5.4,7.5,5.4,13.2C313.2,87.9,311.4,92.5,307.8,95.4z M303.9,74.7c-1-1.3-2.6-2.4-4.9-2.4
			c-5.7,0-6.8,5.4-6.8,9.7c0,4.3,1.2,9.7,6.8,9.7c2.3,0,3.8-1,4.9-2.4c1.5-2,1.9-4.7,1.9-7.3C305.8,79.5,305.4,76.7,303.9,74.7z"/>
		<path class="st0" d="M330.1,97.5c-6.1,0-9.1-3.5-9.1-9.3V72.9h-5.5v-6h5.5v-7.7l7.3-1.8V67h7.6v6h-7.6v14.7c0,2.3,1,3.3,3.4,3.3
			c1.5,0,2.7-0.1,4.7-0.3v6.1C334.3,97.2,332.3,97.5,330.1,97.5z"/>
		<path class="st0" d="M341.8,62.8v-7.5h7.8v7.5H341.8z M342,97.1V67h7.4v30.2H342z"/>
		<path class="st0" d="M393.5,97.1V78.4c0-3.7-1-5.9-4.6-5.9c-4.1,0-5.9,4.3-5.9,8.1v16.5h-7.2V78.4c0-3.7-1-5.9-4.6-5.9
			c-4.1,0-6,4.3-6,8.1v16.5h-7.2V67h6l0.6,4c1.7-2.8,4.6-4.8,8.6-4.8c4.2,0,7.1,1.9,8.6,4.9c1.8-3.1,5-4.9,9.1-4.9
			c6.4,0,9.8,4.3,9.8,10.6v20.4H393.5z"/>
		<path class="st0" d="M408.6,62.8v-7.5h7.8v7.5H408.6z M408.8,97.1V67h7.4v30.2H408.8z"/>
		<path class="st0" d="M445.5,94.4c-2.4,2.4-6.2,3.5-10.3,3.5c-3.8,0-7.3-1.1-9.7-3.5c-1.7-1.7-3.2-4.2-3.2-7h6.8
			c0,1.3,0.7,2.8,1.6,3.5c1.2,0.9,2.5,1.3,4.6,1.3c2.4,0,6.1-0.5,6.1-3.8c0-1.7-1.2-2.9-3-3.2c-2.7-0.4-5.7-0.6-8.4-1.2
			c-4.1-0.9-6.9-4.2-6.9-8.1c0-3.1,1.3-5.2,3.1-6.8c2.2-1.9,5.4-3,9.2-3c3.6,0,7.3,1.2,9.5,3.5c1.6,1.7,2.7,4,2.7,6.2h-6.9
			c0-1.2-0.5-2.1-1.2-2.8c-0.9-0.9-2.4-1.4-3.9-1.4c-1,0-2,0-3.1,0.5c-1.3,0.5-2.3,1.6-2.3,3.2c0,2.1,1.9,2.8,3.5,3
			c2.7,0.3,3.5,0.4,6.4,0.9c4.8,0.8,8.2,3.8,8.2,8.5C448.1,90.7,447.1,92.8,445.5,94.4z"/>
		<path class="st0" d="M479.8,84.3h-20.2c-0.1,2.3,0.8,4.5,2.2,5.9c1,1,2.5,1.9,4.5,1.9c2.1,0,3.4-0.4,4.4-1.5
			c0.6-0.6,1.2-1.5,1.4-2.6h7c-0.2,1.8-1.4,4.2-2.6,5.6c-2.6,3-6.3,4.2-10.1,4.2c-4.1,0-7.1-1.5-9.5-3.7c-3-2.9-4.6-7.1-4.6-12.1
			c0-4.8,1.5-9.1,4.4-12.1c2.3-2.3,5.5-3.8,9.6-3.8c4.5,0,8.5,1.8,11,5.6c2.2,3.3,2.7,6.7,2.6,10.5
			C479.8,82.3,479.8,83.7,479.8,84.3z M470.7,73.7c-1-1-2.5-1.7-4.6-1.7c-2.2,0-4,0.9-5,2.3c-1,1.3-1.5,2.7-1.6,4.7h13
			C472.5,76.8,471.9,75,470.7,73.7z"/>
		<path class="st0" d="M501.1,73.4c-5.1,0-7.8,3.7-7.8,8.5v15.2H486V67h6.1l0.6,4.5c1.4-3.5,5-4.9,8.5-4.9c0.8,0,1.5,0.1,2.3,0.2v7
			C502.8,73.5,501.9,73.4,501.1,73.4z"/>
	</g>
</g>
<path class="st2" d="M41.2,54.8c1.1-0.1,2.2,0,3.4,0c1.3,0,2.7,0,4,0c-0.4,2.1-0.8,4.2-1.2,6.3c-0.2,0.8-0.6,1.5-1.3,1.9
	c-0.5,0.3-1.2,0.4-1.7,0.3c-2.3,0-4.6,0-7,0c-0.7,3.8-1.3,7.7-2,11.6c-0.5,3.2-1.1,6.3-1.6,9.5c-0.1,0.6-0.2,1.2-0.4,1.8
	c-0.3,0.5-0.7,1.1-1.2,1.3c-0.5,0.2-1.1,0.3-1.6,0.3c-2.8,0-5.6,0-8.4,0c1.3-6.4,2.6-12.8,3.9-19.1c0.4-1.8,0.7-3.5,1.1-5.3
	c-3.4,0-6.9,0-10.3,0c0.4-2.1,0.8-4.2,1.2-6.2c0.2-0.7,0.5-1.3,1.1-1.7c0.5-0.4,1.1-0.5,1.8-0.5c2.5,0,4.9,0,7.4,0c2.3,0,4.7,0,7,0
	C37.2,54.8,39.2,54.8,41.2,54.8z"/>
<path class="st3" d="M15.1,66.1c0.6,0,1.1-0.1,1.7-0.1c3.2,0.1,6.4,1.1,9.3,2.5c-1.3,6.4-2.6,12.8-3.9,19.1c2.8,0,5.6,0,8.4,0
	c0.5,0,1.1,0,1.6-0.3c0.5-0.3,1-0.7,1.2-1.3c0.3-0.6,0.3-1.2,0.4-1.8c0.5-3.2,1.1-6.3,1.6-9.5c3.6,3.2,6.9,6.9,9.1,11.3
	c0.7,1.4,1.3,2.9,1.7,4.5c0.3,1.2,0.4,2.5,0.3,3.7c-0.1,1.2-0.5,2.3-1.2,3.3c-0.3,0.5-0.9,0.9-1.3,1.3c-1.7,1.2-3.9,1.6-6,1.4
	c-2.1-0.2-4.2-0.8-6.2-1.5c-4.8-1.8-9.2-4.6-13-8.1c-3.3-3-6.3-6.6-8.3-10.7c-0.9-1.9-1.7-3.9-1.9-6.1c-0.1-1-0.1-2,0.2-2.9
	c0.3-1.2,0.8-2.3,1.7-3.1C11.8,66.9,13.4,66.3,15.1,66.1z"/>
</svg>
