<svg version="1.1" xmlns="http://www.w3.org/2000/svg" x="0" y="0" viewBox="0 0 24 24" height="24px" width="24px" xml:space="preserve">
    <g>
        <circle cx="4" cy="15" r="1"/>
        <circle cx="10" cy="17" r="1"/>
        <circle cx="6" cy="20" r="1"/>
        <circle cx="20.782" cy="10" r="1"/>
        <path d="M18.783 7.779a2.974 2.974 0 011.875-.767C18.931 4.019 15.704 2 12 2c-5.164 0-9.412 3.915-9.942 8.939l2.019.016C4.591 7.037 7.944 4 12 4c2.861 0 5.369 1.515 6.783 3.779z"/>
        <path d="M20.782 13c-.291 0-.567-.055-.834-.133a8 8 0 01-3.061 5.452l-1.03-1.747A5.97 5.97 0 0018 12c0-3.309-2.691-6-6-6-2.967 0-5.431 2.167-5.91 5h2.052C8.589 9.28 10.141 8 12 8c2.206 0 4 1.794 4 4 0 1.102-.456 2.09-1.182 2.81l-1.957-3.318a1 1 0 10-1.722 1.016l5.043 8.551c.304-.141.608-.285.895-.454l.003-.002a9.984 9.984 0 004.87-7.839c-.36.152-.754.236-1.168.236z"/>
    </g>
</svg>
