<svg version="1.1" xmlns="http://www.w3.org/2000/svg" x="0" y="0" height="24px" viewBox="0 0 24 24" width="24px" xml:space="preserve">
    <g>
        <path d="M60 16c-.254 0-.497.041-.732.101h.001l-1.084-1.626.801-2.402L56 9.684l-2.985 2.388L54.324 16h2.474l.807 1.21A2.974 2.974 0 0057 19a3 3 0 103-3zm0 4a1.001 1.001 0 010-2 1.001 1.001 0 010 2z"/>
        <path d="M66 10L56 2l-10 8 4 12h6l-1-2h-3.559l-3.103-9.31L56 4.561l7.662 6.129L62.559 14 64 16z"/>
    </g>
    <g>
        <path d="M60 16c-.254 0-.497.041-.732.101h.001l-1.084-1.626.801-2.402L56 9.684l-2.985 2.388L54.324 16h2.474l.807 1.21A2.974 2.974 0 0057 19a3 3 0 103-3zm0 4a1.001 1.001 0 010-2 1.001 1.001 0 010 2z"/>
        <path d="M66 10L56 2l-10 8 4 12h6l-1-2h-3.559l-3.103-9.31L56 4.561l7.662 6.129L62.559 14 64 16z"/>
    </g>
    <g>
        <path d="M60 16c-.254 0-.497.041-.732.101h.001l-1.084-1.626.801-2.402L56 9.684l-2.985 2.388L54.324 16h2.474l.807 1.21A2.974 2.974 0 0057 19a3 3 0 103-3zm0 4a1.001 1.001 0 010-2 1.001 1.001 0 010 2z"/>
        <path d="M66 10L56 2l-10 8 4 12h6l-1-2h-3.559l-3.103-9.31L56 4.561l7.662 6.129L62.559 14 64 16z"/>
    </g>
    <g>
        <path d="M60 16c-.254 0-.497.041-.732.101h.001l-1.084-1.626.801-2.402L56 9.684l-2.985 2.388L54.324 16h2.474l.807 1.21A2.974 2.974 0 0057 19a3 3 0 103-3zm0 4a1.001 1.001 0 010-2 1.001 1.001 0 010 2z"/>
        <path d="M66 10L56 2l-10 8 4 12h6l-1-2h-3.559l-3.103-9.31L56 4.561l7.662 6.129L62.559 14 64 16z"/>
    </g>
    <g>
        <path d="M6.386 8.423A8.956 8.956 0 0111 6.51V4.502A10.94 10.94 0 004.963 7l1.423 1.423zM3 15.451c0-.455.045-.899.11-1.336l-1.942-.518A11.01 11.01 0 001 15.451c0 .228.023.45.037.675l1.983-.305c-.005-.124-.02-.245-.02-.37zM3.622 12.182a8.947 8.947 0 011.35-2.344L3.549 8.414a10.968 10.968 0 00-1.865 3.251l1.938.517zM1.34 18.103c.165.656.378 1.293.653 1.897l1.819-.827a9.08 9.08 0 01-.485-1.376l-1.987.306zM20.663 13.049c.213.766.337 1.569.337 2.402a8.941 8.941 0 01-.813 3.722l1.82.827A10.94 10.94 0 0023 15.451c0-1.264-.234-2.469-.627-3.599l-1.71 1.197zM18.947 6.927A10.953 10.953 0 0013 4.502V6.51a8.92 8.92 0 014.219 1.626l1.728-1.209zM22.573 9.271l-1.146-1.639-7.688 5.382a2.979 2.979 0 00-1.738-.563 3 3 0 103 3c0-.277-.05-.54-.12-.795l7.692-5.385zM12 16.451a1.001 1.001 0 010-2 1.001 1.001 0 010 2z"/>
    </g>
</svg>
