<?xml version="1.0" encoding="utf-8"?>
<!-- Generator: Adobe Illustrator 16.0.0, SVG Export Plug-In . SVG Version: 6.00 Build 0)  -->
<!DOCTYPE svg PUBLIC "-//W3C//DTD SVG 1.1//EN" "http://www.w3.org/Graphics/SVG/1.1/DTD/svg11.dtd">
<svg version="1.1" id="Layer_1" xmlns="http://www.w3.org/2000/svg" xmlns:xlink="http://www.w3.org/1999/xlink" x="0px" y="0px"
	 viewBox="-305.5 395.118 158.525 227.047"
	 enable-background="new -305.5 395.118 158.525 227.047" xml:space="preserve">
<linearGradient id="SVGID_1_" gradientUnits="userSpaceOnUse" x1="-234.5779" y1="-421.8413" x2="-234.5779" y2="-237.8413" gradientTransform="matrix(1 0 0 -1 8.3398 200.3232)">
	<stop  offset="0" style="stop-color:#120203"/>
	<stop  offset="0.5" style="stop-color:#1A1A1A"/>
	<stop  offset="1" style="stop-color:#120203"/>
</linearGradient>
<polygon opacity="0.5" fill="url(#SVGID_1_)" enable-background="new    " points="-188.425,622.165 -188.425,511.165 
	-146.975,438.165 -305.5,438.165 -264.05,511.165 -264.05,622.165 "/>
<g id="Layer_2">
</g>
<g id="Layer_3">
</g>
<g id="Layer_4">
</g>
<g enable-background="new    ">
	<path fill="#FFFFFF" d="M-241.888,403.168l-10.87,24.672h-4.763l10.852-23.552h-14.064v-3.642h18.845V403.168z"/>
	<path fill="#FFFFFF" d="M-220.523,416.391c0,3.91-0.731,6.858-2.194,8.844c-1.463,1.986-3.688,2.979-6.677,2.979
		c-2.939,0-5.152-0.968-6.64-2.903c-1.488-1.937-2.25-4.804-2.288-8.601v-4.707c0-3.909,0.731-6.842,2.195-8.797
		c1.463-1.954,3.695-2.932,6.695-2.932c2.976,0,5.195,0.952,6.658,2.857c1.463,1.904,2.213,4.756,2.25,8.554V416.391z
		 M-225.061,411.311c0-2.552-0.349-4.423-1.046-5.612c-0.698-1.188-1.806-1.783-3.325-1.783c-1.482,0-2.571,0.563-3.268,1.69
		c-0.698,1.127-1.065,2.885-1.102,5.275v6.164c0,2.54,0.355,4.433,1.064,5.678s1.824,1.867,3.343,1.867
		c1.457,0,2.534-0.575,3.231-1.728c0.697-1.151,1.064-2.954,1.102-5.407V411.311z"/>
	<path fill="#FFFFFF" d="M-216.694,405.876c0-1.644,0.529-2.991,1.587-4.044c1.058-1.052,2.447-1.578,4.165-1.578
		c1.743,0,3.141,0.526,4.193,1.578c1.052,1.053,1.578,2.432,1.578,4.138v1.345c0,1.631-0.526,2.969-1.578,4.016
		c-1.052,1.045-2.438,1.568-4.156,1.568c-1.681,0-3.066-0.514-4.155-1.541c-1.09-1.027-1.634-2.412-1.634-4.155V405.876z
		 M-213.519,407.307c0,0.861,0.24,1.558,0.719,2.088c0.479,0.53,1.111,0.796,1.896,0.796c0.772,0,1.395-0.266,1.868-0.796
		s0.71-1.251,0.71-2.163v-1.366c0-0.861-0.24-1.561-0.719-2.098c-0.479-0.537-1.111-0.805-1.896-0.805
		c-0.785,0-1.41,0.271-1.877,0.814c-0.467,0.543-0.701,1.257-0.701,2.144V407.307z M-209.97,425.804l-2.334-1.345l13.279-21.254
		l2.334,1.345L-209.97,425.804z M-203.62,421.172c0-1.668,0.542-3.019,1.625-4.053c1.083-1.033,2.465-1.55,4.146-1.55
		c1.693,0,3.079,0.517,4.156,1.55c1.077,1.034,1.615,2.428,1.615,4.184v1.326c0,1.619-0.52,2.954-1.56,4.006
		c-1.04,1.053-2.431,1.578-4.174,1.578c-1.744,0-3.147-0.52-4.212-1.559c-1.064-1.04-1.597-2.413-1.597-4.119V421.172z
		 M-200.445,422.61c0,0.847,0.246,1.541,0.738,2.082c0.492,0.542,1.124,0.813,1.896,0.813c0.796,0,1.422-0.258,1.877-0.774
		c0.454-0.517,0.682-1.242,0.682-2.176v-1.401c0-0.871-0.243-1.568-0.729-2.092c-0.485-0.522-1.108-0.784-1.868-0.784
		c-0.772,0-1.398,0.262-1.877,0.784c-0.479,0.523-0.719,1.245-0.719,2.167V422.61z"/>
</g>
<g>
	<polygon fill="#3EDB31" points="-286.116,492.952 -286.116,592.813 -283.318,592.813 -287.913,600.771 -292.507,592.813 
		-289.709,592.813 -289.709,492.952 	"/>
	<polygon fill="#3EDB31" points="-162.103,594.673 -162.103,492.952 -165.722,492.952 -165.722,594.673 -168.587,594.673 
		-163.912,602.771 -159.237,594.673 	"/>
</g>
<circle id="XMLID_82_" fill="#680D16" cx="-234.612" cy="559.489" r="9.563"/>
<circle id="XMLID_83_" fill="#680D16" cx="-216.375" cy="595.439" r="11.862"/>
<circle id="XMLID_95_" fill="#680D16" cx="-211.643" cy="554.496" r="10.581"/>
<circle id="XMLID_96_" fill="#54090D" cx="-223.262" cy="542.128" r="5.774"/>
<circle id="XMLID_97_" opacity="0.6" fill="#54090D" enable-background="new    " cx="-221.225" cy="484.902" r="11.475"/>
<circle id="XMLID_107_" fill="#680D16" cx="-218.773" cy="573.054" r="7.474"/>
<circle id="XMLID_108_" opacity="0.6" fill="#680D16" enable-background="new    " cx="-202.737" cy="485.54" r="6.375"/>
<circle id="XMLID_113_" fill="#54090D" cx="-238.799" cy="606.027" r="12.112"/>
<circle id="XMLID_51_" fill="#54090D" cx="-237.799" cy="581.164" r="12.113"/>
<circle id="XMLID_53_" fill="#680D16" cx="-241.524" cy="537.553" r="12.012"/>
<circle id="XMLID_57_" opacity="0.6" fill="#680D16" enable-background="new    " cx="-244.812" cy="490.002" r="12.112"/>
<circle id="XMLID_94_" opacity="0.6" fill="#54090D" enable-background="new    " cx="-209.562" cy="502.477" r="9.563"/>
<circle id="XMLID_159_" fill="#54090D" cx="-209.198" cy="533.439" r="10.2"/>
<circle id="XMLID_172_" fill="#680D16" cx="-226.05" cy="521.602" r="9.563"/>
<circle id="XMLID_173_" fill="#54090D" cx="-243.096" cy="517.756" r="7.759"/>
<circle id="XMLID_174_" opacity="0.6" fill="#680D16" enable-background="new    " cx="-226.962" cy="503.39" r="7.65"/>
<circle id="XMLID_184_" fill="#54090D" cx="-204.822" cy="571.125" r="5.984"/>
<circle id="XMLID_249_" opacity="0.35" fill="#680D16" enable-background="new    " cx="-244.176" cy="471.515" r="5.1"/>
<circle id="XMLID_37_" opacity="0.35" fill="#54090D" enable-background="new    " cx="-235.337" cy="476.615" r="3.625"/>
<circle id="XMLID_20_" opacity="0.35" fill="#54090D" enable-background="new    " cx="-249.912" cy="507.652" r="3.625"/>
<circle id="XMLID_251_" opacity="0.6" fill="#680D16" enable-background="new    " cx="-208.475" cy="476.615" r="3.825"/>
<circle id="XMLID_36_" opacity="0.6" fill="#680D16" enable-background="new    " cx="-223.138" cy="563.583" r="1.997"/>
<circle id="XMLID_39_" opacity="0.6" fill="#680D16" enable-background="new    " cx="-199.293" cy="510.039" r="1.997"/>
<circle id="XMLID_5_" opacity="0.6" fill="#680D16" enable-background="new    " cx="-229.512" cy="471.516" r="1.997"/>
<circle id="XMLID_4_" opacity="0.6" fill="#680D16" enable-background="new    " cx="-218.773" cy="511.04" r="1.997"/>
<circle id="XMLID_252_" fill="#680D16" cx="-237.799" cy="508.042" r="3.188"/>
<circle id="XMLID_1_" fill="#680D16" cx="-222.501" cy="609.215" r="3.188"/>
<circle id="XMLID_255_" fill="#680D16" cx="-201.462" cy="517.414" r="4.462"/>
<circle id="XMLID_256_" fill="#54090D" cx="-252.461" cy="550.565" r="3.188"/>
<circle id="XMLID_258_" fill="#680D16" cx="-250.268" cy="592.995" r="4.819"/>
<circle id="XMLID_259_" fill="#680D16" cx="-249.181" cy="564.446" r="5.593"/>
<circle id="XMLID_260_" fill="#54090D" cx="-245.087" cy="552.84" r="2.275"/>
<circle id="XMLID_262_" fill="#54090D" cx="-199.55" cy="542.914" r="2.55"/>
<circle id="XMLID_31_" fill="#54090D" cx="-229.388" cy="548.377" r="2.55"/>
<circle id="XMLID_263_" fill="#680D16" cx="-250.854" cy="525.516" r="2.55"/>
<circle id="XMLID_23_" fill="#680D16" cx="-243.588" cy="505.103" r="2.55"/>
<circle id="XMLID_265_" fill="#54090D" cx="-201.462" cy="602.77" r="3.825"/>
<circle id="XMLID_2_" fill="#54090D" cx="-215.487" cy="612.402" r="3.825"/>
<circle id="XMLID_266_" fill="#680D16" cx="-207.925" cy="608.577" r="3.188"/>
<circle id="XMLID_27_" fill="#680D16" cx="-202.1" cy="589.413" r="1.928"/>
<circle id="XMLID_30_" fill="#680D16" cx="-224.687" cy="552.202" r="1.928"/>
<circle id="XMLID_34_" fill="#680D16" cx="-248" cy="556.689" r="1.928"/>
<circle id="XMLID_268_" fill="#54090D" cx="-204.925" cy="582.577" r="3.908"/>
<circle id="XMLID_3_" fill="#54090D" cx="-211.664" cy="581.165" r="1.912"/>
<circle id="XMLID_24_" fill="#54090D" cx="-222.499" cy="582.541" r="1.912"/>
<circle id="XMLID_25_" fill="#54090D" cx="-251.187" cy="614.314" r="1.912"/>
<circle id="XMLID_269_" fill="#680D16" cx="-224.412" cy="616.226" r="3.188"/>
<g>
	<circle id="XMLID_17_" fill="#3EDB31" cx="-200.187" cy="595.745" r="2.847"/>
	<circle id="XMLID_16_" opacity="0.25" fill="#3EDB31" cx="-200.187" cy="594.363" r="2.847"/>
	<circle id="XMLID_14_" opacity="0.15" fill="#3EDB31" cx="-200.187" cy="593.148" r="2.847"/>
	<circle id="XMLID_13_" opacity="0.05" fill="#3EDB31" cx="-200.187" cy="592.085" r="2.847"/>
</g>
<g>
	<circle id="XMLID_12_" fill="#3EDB31" cx="-253.481" cy="584.527" r="2.751"/>
	<circle id="XMLID_11_" opacity="0.25" fill="#3EDB31" cx="-253.481" cy="583.191" r="2.752"/>
	<circle id="XMLID_10_" opacity="0.15" fill="#3EDB31" cx="-253.481" cy="582.018" r="2.751"/>
	<circle id="XMLID_9_" opacity="0.05" fill="#3EDB31" cx="-253.481" cy="580.989" r="2.751"/>
</g>
<g>
	<circle id="XMLID_22_" fill="#3EDB31" cx="-211.299" cy="518.132" r="2.847"/>
	<circle id="XMLID_8_" opacity="0.25" fill="#3EDB31" cx="-211.299" cy="516.75" r="2.847"/>
	<circle id="XMLID_7_" opacity="0.15" fill="#3EDB31" cx="-211.299" cy="515.535" r="2.847"/>
	<circle id="XMLID_6_" opacity="0.05" fill="#3EDB31" cx="-211.299" cy="514.472" r="2.847"/>
</g>
</svg>
