<?xml version="1.0" encoding="utf-8"?>
<!-- Generator: Adobe Illustrator 16.0.0, SVG Export Plug-In . SVG Version: 6.00 Build 0)  -->
<!DOCTYPE svg PUBLIC "-//W3C//DTD SVG 1.1//EN" "http://www.w3.org/Graphics/SVG/1.1/DTD/svg11.dtd">
<svg version="1.1" id="Layer_1" xmlns="http://www.w3.org/2000/svg" xmlns:xlink="http://www.w3.org/1999/xlink" x="0px" y="0px"
	 viewBox="-305.5 395.118 158.525 227.047"
	 enable-background="new -305.5 395.118 158.525 227.047" xml:space="preserve">
<linearGradient id="SVGID_1_" gradientUnits="userSpaceOnUse" x1="-234.5779" y1="-421.8413" x2="-234.5779" y2="-237.8413" gradientTransform="matrix(1 0 0 -1 8.3398 200.3232)">
	<stop  offset="0" style="stop-color:#120203"/>
	<stop  offset="0.5" style="stop-color:#1A1A1A"/>
	<stop  offset="1" style="stop-color:#120203"/>
</linearGradient>
<polygon opacity="0.5" fill="url(#SVGID_1_)" enable-background="new    " points="-188.425,622.165 -188.425,511.165 
	-146.975,438.165 -305.5,438.165 -264.05,511.165 -264.05,622.165 "/>
<circle id="XMLID_82_" fill="#680D16" cx="-234.612" cy="559.489" r="9.563"/>
<circle id="XMLID_83_" fill="#680D16" cx="-216.375" cy="595.439" r="11.862"/>
<circle id="XMLID_95_" fill="#680D16" cx="-209.112" cy="555.027" r="12.112"/>
<circle id="XMLID_96_" fill="#54090D" cx="-222.499" cy="540.365" r="7.012"/>
<circle id="XMLID_97_" opacity="0.6" fill="#54090D" enable-background="new    " cx="-221.225" cy="484.902" r="11.475"/>
<circle id="XMLID_9_" opacity="0.6" fill="#54090D" enable-background="new    " cx="-186.236" cy="486.396" r="10.207"/>
<circle id="XMLID_12_" opacity="0.6" fill="#54090D" enable-background="new    " cx="-267.131" cy="482.708" r="10.207"/>
<circle id="XMLID_107_" fill="#680D16" cx="-218.773" cy="573.054" r="7.474"/>
<circle id="XMLID_108_" opacity="0.6" fill="#680D16" enable-background="new    " cx="-202.737" cy="485.54" r="6.375"/>
<circle id="XMLID_8_" opacity="0.6" fill="#680D16" enable-background="new    " cx="-180.611" cy="470.152" r="6.375"/>
<circle id="XMLID_13_" opacity="0.6" fill="#680D16" enable-background="new    " cx="-279.693" cy="470.155" r="6.375"/>
<circle id="XMLID_109_" opacity="0.35" fill="#54090D" enable-background="new    " cx="-236.525" cy="468.327" r="11.475"/>
<circle id="XMLID_111_" opacity="0.35" fill="#680D16" enable-background="new    " cx="-214.212" cy="463.865" r="10.2"/>
<circle id="XMLID_17_" opacity="0.35" fill="#680D16" enable-background="new    " cx="-270.768" cy="453.664" r="10.2"/>
<circle id="XMLID_6_" opacity="0.35" fill="#680D16" enable-background="new    " cx="-193.812" cy="459.765" r="10.2"/>
<circle id="XMLID_113_" fill="#54090D" cx="-237.799" cy="606.027" r="12.112"/>
<circle id="XMLID_51_" fill="#54090D" cx="-237.799" cy="581.164" r="12.113"/>
<circle id="XMLID_53_" fill="#680D16" cx="-243.537" cy="535.902" r="14.025"/>
<circle id="XMLID_57_" opacity="0.6" fill="#680D16" enable-background="new    " cx="-244.812" cy="490.002" r="12.112"/>
<circle id="XMLID_94_" opacity="0.6" fill="#54090D" enable-background="new    " cx="-209.562" cy="502.477" r="9.563"/>
<circle id="XMLID_124_" fill="#3EDB31" cx="-210.387" cy="517.14" r="4.463"/>
<circle id="XMLID_126_" fill="#3EDB31" cx="-252.462" cy="553.115" r="4.462"/>
<circle id="XMLID_159_" fill="#54090D" cx="-207.198" cy="531.439" r="10.2"/>
<circle id="XMLID_172_" fill="#680D16" cx="-225.05" cy="520.602" r="9.563"/>
<circle id="XMLID_173_" fill="#54090D" cx="-240.35" cy="515.502" r="7.013"/>
<circle id="XMLID_25_" fill="#54090D" cx="-256.629" cy="579.186" r="6.009"/>
<circle id="XMLID_174_" opacity="0.6" fill="#680D16" enable-background="new    " cx="-226.962" cy="503.39" r="7.65"/>
<circle id="XMLID_11_" opacity="0.6" fill="#680D16" enable-background="new    " cx="-192.992" cy="503.126" r="6.638"/>
<circle id="XMLID_182_" opacity="0.35" fill="#680D16" enable-background="new    " cx="-245.448" cy="454.302" r="5.1"/>
<circle id="XMLID_37_" opacity="0.35" fill="#680D16" enable-background="new    " cx="-163.611" cy="456.14" r="5.1"/>
<circle id="XMLID_184_" fill="#54090D" cx="-199.293" cy="576.653" r="10.513"/>
<circle id="XMLID_249_" opacity="0.35" fill="#680D16" enable-background="new    " cx="-252.462" cy="474.065" r="5.1"/>
<circle id="XMLID_250_" opacity="0.35" fill="#54090D" enable-background="new    " cx="-252.462" cy="463.227" r="5.1"/>
<circle id="XMLID_16_" opacity="0.35" fill="#54090D" enable-background="new    " cx="-286.068" cy="459.403" r="5.1"/>
<circle id="XMLID_5_" opacity="0.35" fill="#54090D" enable-background="new    " cx="-226.763" cy="456.141" r="3.625"/>
<circle id="XMLID_21_" opacity="0.35" fill="#54090D" enable-background="new    " cx="-169.237" cy="468.327" r="3.625"/>
<circle id="XMLID_18_" opacity="0.35" fill="#54090D" enable-background="new    " cx="-260.75" cy="468.327" r="3.625"/>
<circle id="XMLID_40_" opacity="0.35" fill="#54090D" enable-background="new    " cx="-198.339" cy="494.67" r="2.582"/>
<circle id="XMLID_35_" opacity="0.35" fill="#54090D" enable-background="new    " cx="-172.337" cy="460.478" r="3.625"/>
<circle id="XMLID_20_" opacity="0.35" fill="#54090D" enable-background="new    " cx="-264.375" cy="502.114" r="3.625"/>
<circle id="XMLID_251_" opacity="0.6" fill="#680D16" enable-background="new    " cx="-208.475" cy="476.615" r="3.825"/>
<circle id="XMLID_7_" opacity="0.6" fill="#680D16" enable-background="new    " cx="-179.786" cy="459.402" r="3.825"/>
<circle id="XMLID_14_" opacity="0.6" fill="#680D16" enable-background="new    " cx="-269.492" cy="468.327" r="3.825"/>
<circle id="XMLID_19_" opacity="0.6" fill="#680D16" enable-background="new    " cx="-260.567" cy="495.74" r="3.825"/>
<circle id="XMLID_38_" opacity="0.6" fill="#680D16" enable-background="new    " cx="-192.992" cy="513.952" r="3.825"/>
<circle id="XMLID_4_" opacity="0.6" fill="#680D16" enable-background="new    " cx="-199.293" cy="474.321" r="4.994"/>
<circle id="XMLID_10_" opacity="0.6" fill="#680D16" enable-background="new    " cx="-189.983" cy="472.152" r="1.997"/>
<circle id="XMLID_36_" opacity="0.6" fill="#680D16" enable-background="new    " cx="-175.961" cy="477.89" r="1.997"/>
<circle id="XMLID_39_" opacity="0.6" fill="#680D16" enable-background="new    " cx="-199.293" cy="510.039" r="1.997"/>
<circle id="XMLID_252_" fill="#680D16" cx="-238.437" cy="504.666" r="3.188"/>
<circle id="XMLID_1_" fill="#680D16" cx="-222.501" cy="609.215" r="3.188"/>
<circle id="XMLID_28_" fill="#680D16" cx="-260.568" cy="591.365" r="3.188"/>
<circle id="XMLID_29_" fill="#680D16" cx="-193.175" cy="554.39" r="3.188"/>
<circle id="XMLID_253_" fill="#680D16" cx="-251.299" cy="519.677" r="3.938"/>
<circle id="XMLID_254_" fill="#54090D" cx="-254.387" cy="508.439" r="7.575"/>
<circle id="XMLID_255_" fill="#680D16" cx="-201.462" cy="517.414" r="4.462"/>
<circle id="XMLID_22_" fill="#680D16" cx="-193.812" cy="523.614" r="4.462"/>
<circle id="XMLID_24_" fill="#680D16" cx="-193.812" cy="537.815" r="4.462"/>
<circle id="XMLID_256_" fill="#54090D" cx="-257.562" cy="547.377" r="3.188"/>
<circle id="XMLID_257_" fill="#3EDB31" cx="-222.499" cy="562.677" r="2.55"/>
<circle id="XMLID_258_" fill="#680D16" cx="-251.187" cy="593.914" r="5.738"/>
<circle id="XMLID_259_" fill="#680D16" cx="-250.256" cy="565.521" r="6.668"/>
<circle id="XMLID_260_" fill="#54090D" cx="-245.087" cy="552.84" r="2.275"/>
<circle id="XMLID_33_" fill="#54090D" cx="-260.75" cy="569.053" r="2.55"/>
<circle id="XMLID_26_" fill="#54090D" cx="-259.857" cy="520.173" r="3.572"/>
<circle id="XMLID_262_" fill="#54090D" cx="-199.55" cy="542.914" r="2.55"/>
<circle id="XMLID_31_" fill="#54090D" cx="-230.388" cy="547.377" r="2.55"/>
<circle id="XMLID_263_" fill="#680D16" cx="-195.725" cy="547.377" r="2.55"/>
<circle id="XMLID_32_" fill="#680D16" cx="-260.75" cy="538.452" r="2.55"/>
<circle id="XMLID_264_" fill="#54090D" cx="-258.835" cy="599.652" r="3.188"/>
<circle id="XMLID_265_" fill="#54090D" cx="-200.187" cy="603.477" r="3.825"/>
<circle id="XMLID_23_" fill="#54090D" cx="-194.299" cy="563.315" r="3.825"/>
<circle id="XMLID_2_" fill="#54090D" cx="-215.487" cy="612.402" r="3.825"/>
<circle id="XMLID_266_" fill="#680D16" cx="-205.925" cy="608.577" r="3.188"/>
<circle id="XMLID_27_" fill="#680D16" cx="-190.475" cy="593.277" r="1.928"/>
<circle id="XMLID_30_" fill="#680D16" cx="-225.687" cy="551.202" r="1.928"/>
<circle id="XMLID_34_" fill="#680D16" cx="-259.857" cy="562.677" r="1.928"/>
<circle id="XMLID_268_" fill="#54090D" cx="-196.827" cy="596" r="3.908"/>
<circle id="XMLID_3_" fill="#54090D" cx="-211.664" cy="581.165" r="1.912"/>
<circle id="XMLID_269_" fill="#680D16" cx="-253.737" cy="606.027" r="3.188"/>
<g id="Layer_2">
</g>
<g id="Layer_3">
</g>
<g id="Layer_4">
</g>
<g enable-background="new    ">
	<path fill="#FFFFFF" d="M-258.567,427.84h-4.52v-21.847l-6.667,2.273v-3.81l10.608-3.904h0.579V427.84z"/>
	<path fill="#FFFFFF" d="M-231.393,416.391c0,3.91-0.731,6.858-2.194,8.844c-1.463,1.986-3.688,2.979-6.677,2.979
		c-2.939,0-5.152-0.968-6.64-2.903c-1.488-1.937-2.25-4.804-2.288-8.601v-4.707c0-3.909,0.731-6.842,2.195-8.797
		c1.463-1.954,3.695-2.932,6.695-2.932c2.976,0,5.195,0.952,6.658,2.857c1.463,1.904,2.213,4.756,2.25,8.554V416.391z
		 M-235.931,411.311c0-2.552-0.349-4.423-1.046-5.612c-0.698-1.188-1.806-1.783-3.325-1.783c-1.482,0-2.571,0.563-3.268,1.69
		c-0.698,1.127-1.065,2.885-1.102,5.275v6.164c0,2.54,0.355,4.433,1.064,5.678s1.824,1.867,3.343,1.867
		c1.457,0,2.534-0.575,3.231-1.728c0.697-1.151,1.064-2.954,1.102-5.407V411.311z"/>
	<path fill="#FFFFFF" d="M-209.653,416.391c0,3.91-0.731,6.858-2.194,8.844c-1.463,1.986-3.688,2.979-6.677,2.979
		c-2.939,0-5.152-0.968-6.64-2.903c-1.488-1.937-2.25-4.804-2.288-8.601v-4.707c0-3.909,0.731-6.842,2.195-8.797
		c1.463-1.954,3.695-2.932,6.695-2.932c2.976,0,5.195,0.952,6.658,2.857c1.463,1.904,2.213,4.756,2.25,8.554V416.391z
		 M-214.191,411.311c0-2.552-0.349-4.423-1.046-5.612c-0.698-1.188-1.806-1.783-3.325-1.783c-1.482,0-2.571,0.563-3.268,1.69
		c-0.698,1.127-1.065,2.885-1.102,5.275v6.164c0,2.54,0.355,4.433,1.064,5.678s1.824,1.867,3.343,1.867
		c1.457,0,2.534-0.575,3.231-1.728c0.697-1.151,1.064-2.954,1.102-5.407V411.311z"/>
	<path fill="#FFFFFF" d="M-205.824,405.876c0-1.644,0.529-2.991,1.587-4.044c1.058-1.052,2.447-1.578,4.165-1.578
		c1.743,0,3.141,0.526,4.193,1.578c1.052,1.053,1.578,2.432,1.578,4.138v1.345c0,1.631-0.526,2.969-1.578,4.016
		c-1.052,1.045-2.438,1.568-4.156,1.568c-1.681,0-3.066-0.514-4.155-1.541c-1.09-1.027-1.634-2.412-1.634-4.155V405.876z
		 M-202.649,407.307c0,0.861,0.24,1.558,0.719,2.088c0.479,0.53,1.111,0.796,1.896,0.796c0.772,0,1.395-0.266,1.868-0.796
		s0.71-1.251,0.71-2.163v-1.366c0-0.861-0.24-1.561-0.719-2.098c-0.479-0.537-1.111-0.805-1.896-0.805
		c-0.785,0-1.41,0.271-1.877,0.814c-0.467,0.543-0.701,1.257-0.701,2.144V407.307z M-199.1,425.804l-2.334-1.345l13.279-21.254
		l2.334,1.345L-199.1,425.804z M-192.75,421.172c0-1.668,0.542-3.019,1.625-4.053c1.083-1.033,2.465-1.55,4.146-1.55
		c1.693,0,3.079,0.517,4.156,1.55c1.077,1.034,1.615,2.428,1.615,4.184v1.326c0,1.619-0.52,2.954-1.56,4.006
		c-1.04,1.053-2.431,1.578-4.174,1.578c-1.744,0-3.147-0.52-4.212-1.559c-1.064-1.04-1.597-2.413-1.597-4.119V421.172z
		 M-189.575,422.61c0,0.847,0.246,1.541,0.738,2.082c0.492,0.542,1.124,0.813,1.896,0.813c0.796,0,1.422-0.258,1.877-0.774
		c0.454-0.517,0.682-1.242,0.682-2.176v-1.401c0-0.871-0.243-1.568-0.729-2.092c-0.485-0.522-1.108-0.784-1.868-0.784
		c-0.772,0-1.398,0.262-1.877,0.784c-0.479,0.523-0.719,1.245-0.719,2.167V422.61z"/>
</g>
</svg>
