<?xml version="1.0" encoding="utf-8"?>
<!-- Generator: Adobe Illustrator 16.0.0, SVG Export Plug-In . SVG Version: 6.00 Build 0)  -->
<!DOCTYPE svg PUBLIC "-//W3C//DTD SVG 1.1//EN" "http://www.w3.org/Graphics/SVG/1.1/DTD/svg11.dtd">
<svg version="1.1" id="Layer_1" xmlns="http://www.w3.org/2000/svg" xmlns:xlink="http://www.w3.org/1999/xlink" x="0px" y="0px"
	 width="309.091px" height="59.853px" viewBox="-305.5 368.615 309.091 59.853"
	 enable-background="new -305.5 368.615 309.091 59.853" xml:space="preserve">
<g id="Layer_1_1_">
</g>
<g id="Layer_2">
	<g id="XMLID_393_">
		<linearGradient id="XMLID_11_" gradientUnits="userSpaceOnUse" x1="-305.5" y1="408.3096" x2="3.5908" y2="408.3096">
			<stop  offset="0" style="stop-color:#120203"/>
			<stop  offset="0.5" style="stop-color:#000000"/>
			<stop  offset="1" style="stop-color:#120203"/>
		</linearGradient>
		<rect id="XMLID_9_" x="-305.5" y="388.151" fill="url(#XMLID_11_)" width="309.091" height="40.316"/>
		<polygon id="XMLID_88_" opacity="0.4" fill="#444444" enable-background="new    " points="-271.903,428.468 -258.464,408.31 
			-271.903,388.151 -285.342,388.151 -271.903,408.31 -285.342,428.468 		"/>
		<polygon id="XMLID_1_" opacity="0.4" fill="#444444" enable-background="new    " points="-238.306,428.468 -224.868,408.31 
			-238.306,388.151 -251.745,388.151 -238.306,408.31 -251.745,428.468 		"/>
		<polygon id="XMLID_3_" opacity="0.4" fill="#444444" enable-background="new    " points="-204.709,428.468 -191.271,408.31 
			-204.709,388.151 -218.148,388.151 -204.709,408.31 -218.148,428.468 		"/>
		<polygon id="XMLID_4_" opacity="0.4" fill="#444444" enable-background="new    " points="-171.113,428.468 -157.674,408.31 
			-171.113,388.151 -184.551,388.151 -171.113,408.31 -184.551,428.468 		"/>
		<polygon id="XMLID_5_" opacity="0.4" fill="#444444" enable-background="new    " points="-137.516,428.468 -124.077,408.31 
			-137.516,388.151 -150.955,388.151 -137.516,408.31 -150.955,428.468 		"/>
		<polygon id="XMLID_6_" opacity="0.4" fill="#444444" enable-background="new    " points="-103.919,428.468 -90.48,408.31 
			-103.919,388.151 -117.358,388.151 -103.919,408.31 -117.358,428.468 		"/>
		<polygon id="XMLID_7_" opacity="0.4" fill="#444444" enable-background="new    " points="-70.322,428.468 -56.883,408.31 
			-70.322,388.151 -83.761,388.151 -70.322,408.31 -83.761,428.468 		"/>
		<polygon id="XMLID_8_" opacity="0.4" fill="#444444" enable-background="new    " points="-36.726,428.468 -23.287,408.31 
			-36.726,388.151 -50.164,388.151 -36.726,408.31 -50.164,428.468 		"/>
		<circle id="XMLID_99_" fill="#680D16" enable-background="new    " cx="-251.745" cy="408.31" r="13.438"/>
		<circle id="XMLID_16_" fill="#680D16" enable-background="new    " cx="-50.164" cy="408.31" r="13.438"/>
		<circle id="XMLID_30_" fill="#680D16" cx="-83.761" cy="408.31" r="13.438"/>
		<circle id="XMLID_31_" fill="#680D16" cx="-117.358" cy="408.31" r="13.438"/>
		<circle id="XMLID_32_" fill="#680D16" cx="-150.955" cy="408.31" r="13.438"/>
		<circle id="XMLID_33_" fill="#680D16" cx="-184.551" cy="408.31" r="13.438"/>
		<circle id="XMLID_34_" fill="#680D16" cx="-218.148" cy="408.31" r="13.438"/>
		<circle id="XMLID_2_" fill="#3EDB31" cx="-16.567" cy="408.31" r="6.72"/>
	</g>
</g>
<g id="Layer_3">
</g>
<g id="Layer_4">
</g>
<linearGradient id="SVGID_1_" gradientUnits="userSpaceOnUse" x1="-210.7778" y1="373.291" x2="-269.1665" y2="373.291">
	<stop  offset="0" style="stop-color:#3EDB31"/>
	<stop  offset="0.2161" style="stop-color:#3DD830;stop-opacity:0.7839"/>
	<stop  offset="0.3586" style="stop-color:#3CCF2F;stop-opacity:0.6414"/>
	<stop  offset="0.4799" style="stop-color:#39C02B;stop-opacity:0.5201"/>
	<stop  offset="0.5893" style="stop-color:#34AB27;stop-opacity:0.4107"/>
	<stop  offset="0.6908" style="stop-color:#2F9021;stop-opacity:0.3092"/>
	<stop  offset="0.7863" style="stop-color:#286E1A;stop-opacity:0.2137"/>
	<stop  offset="0.8773" style="stop-color:#204611;stop-opacity:0.1227"/>
	<stop  offset="0.9624" style="stop-color:#171908;stop-opacity:0.0376"/>
	<stop  offset="1" style="stop-color:#120203;stop-opacity:0"/>
</linearGradient>
<polygon fill="url(#SVGID_1_)" points="-210.778,373.291 -218.875,368.615 -218.875,371.482 -269.167,371.482 -269.167,375.102 
	-218.875,375.102 -218.875,377.967 "/>
<polygon fill="#3EDB31" points="-15.339,388.054 -15.339,371.482 -17.306,371.482 -18.958,371.482 -79.604,371.482 -84.57,368.615 
	-84.57,371.482 -88.167,371.482 -146.16,371.482 -151.125,368.615 -151.125,371.482 -159.861,371.482 -226.417,371.482 
	-226.417,375.102 -159.861,375.102 -151.125,375.102 -151.125,377.967 -146.164,375.102 -88.167,375.102 -84.57,375.102 
	-84.57,377.967 -79.608,375.102 -18.958,375.102 -18.958,388.054 -21.824,388.054 -17.148,396.151 -12.472,388.054 "/>
</svg>
