<?xml version="1.0" encoding="utf-8"?>
<!-- Generator: Adobe Illustrator 16.0.0, SVG Export Plug-In . SVG Version: 6.00 Build 0)  -->
<!DOCTYPE svg PUBLIC "-//W3C//DTD SVG 1.1//EN" "http://www.w3.org/Graphics/SVG/1.1/DTD/svg11.dtd">
<svg version="1.1" id="Layer_1" xmlns="http://www.w3.org/2000/svg" xmlns:xlink="http://www.w3.org/1999/xlink" x="0px" y="0px"
	 width="309.091px" height="40.316px" viewBox="-97.25 779.75 309.091 40.316"
	 enable-background="new -97.25 779.75 309.091 40.316" xml:space="preserve">
<g id="Layer_2">
	<g id="XMLID_393_">
		<linearGradient id="XMLID_2_" gradientUnits="userSpaceOnUse" x1="-97.25" y1="799.9082" x2="211.8408" y2="799.9082">
			<stop  offset="0" style="stop-color:#120203"/>
			<stop  offset="0.5" style="stop-color:#000000"/>
			<stop  offset="1" style="stop-color:#120203"/>
		</linearGradient>
		<rect id="XMLID_101_" x="-97.25" y="779.75" fill="url(#XMLID_2_)" width="309.091" height="40.316"/>
		<polygon id="XMLID_88_" opacity="0.4" fill="#444444" enable-background="new    " points="-64.246,820.066 -50.807,799.908 
			-64.246,779.75 -77.685,779.75 -64.246,799.908 -77.685,820.066 		"/>
		<polygon id="XMLID_3_" opacity="0.4" fill="#444444" enable-background="new    " points="2.948,820.066 16.386,799.908 
			2.948,779.75 -10.491,779.75 2.948,799.908 -10.491,820.066 		"/>
		<polygon id="XMLID_5_" opacity="0.4" fill="#444444" enable-background="new    " points="70.141,820.066 83.58,799.908 
			70.141,779.75 56.703,779.75 70.141,799.908 56.703,820.066 		"/>
		<polygon id="XMLID_7_" opacity="0.4" fill="#444444" enable-background="new    " points="137.335,820.066 150.773,799.908 
			137.335,779.75 123.896,779.75 137.335,799.908 123.896,820.066 		"/>
		<circle id="XMLID_99_" opacity="0.3" fill="#680D16" enable-background="new    " cx="191.683" cy="799.908" r="13.438"/>
		<circle id="XMLID_16_" fill="#680D16" enable-background="new    " cx="158.086" cy="799.908" r="13.438"/>
		<circle id="XMLID_30_" fill="#680D16" cx="124.489" cy="799.908" r="13.438"/>
		<circle id="XMLID_31_" fill="#680D16" cx="90.892" cy="799.908" r="13.438"/>
		<circle id="XMLID_32_" fill="#680D16" cx="57.295" cy="799.908" r="13.438"/>
		<circle id="XMLID_33_" fill="#680D16" cx="23.699" cy="799.908" r="13.438"/>
		<circle id="XMLID_34_" fill="#680D16" cx="-9.898" cy="799.908" r="13.438"/>
		<circle id="XMLID_35_" fill="#3EDB31" cx="-43.495" cy="799.908" r="6.72"/>
	</g>
</g>
</svg>
