<?xml version="1.0" encoding="utf-8"?>
<!-- Generator: Adobe Illustrator 16.0.0, SVG Export Plug-In . SVG Version: 6.00 Build 0)  -->
<!DOCTYPE svg PUBLIC "-//W3C//DTD SVG 1.1//EN" "http://www.w3.org/Graphics/SVG/1.1/DTD/svg11.dtd">
<svg version="1.1" id="Layer_1" xmlns="http://www.w3.org/2000/svg" xmlns:xlink="http://www.w3.org/1999/xlink" x="0px" y="0px"
	 viewBox="-86.281 693.498 173.563 198.004"
	 enable-background="new -86.281 693.498 173.563 198.004" xml:space="preserve">
<linearGradient id="XMLID_2_" gradientUnits="userSpaceOnUse" x1="0.8198" y1="670.8711" x2="0.8198" y2="692.5923" gradientTransform="matrix(6.375 0 0 -6.375 5.6523 5117.7266)">
	<stop  offset="0" style="stop-color:#680D16"/>
	<stop  offset="1" style="stop-color:#680D16;stop-opacity:0"/>
</linearGradient>
<polygon id="XMLID_638_" fill="url(#XMLID_2_)" points="87.281,842.002 -65.527,842.002 -65.527,693.498 -61.223,693.498 
	-61.223,837.697 87.281,837.697 "/>
<path id="XMLID_21_" fill="#FFFFFF" d="M-24.635,848.457h-21.522c-2.368,0-4.305,1.938-4.305,4.307v34.436
	c0,2.367,1.937,4.303,4.305,4.303h21.522c2.368,0,4.305-1.936,4.305-4.303v-34.436C-20.33,850.395-22.267,848.457-24.635,848.457z
	 M-24.635,882.893h-21.522v-30.129h21.522V882.893z"/>
<path id="XMLID_48_" fill="#FFFFFF" d="M65.759,848.457h-38.74c-2.368,0-4.304,1.938-4.304,4.307v23.672
	c0,2.369,1.937,4.307,4.304,4.307h21.522v-4.307H27.019v-23.672h38.74l0,0h4.305l0,0C70.063,850.395,68.126,848.457,65.759,848.457z
	"/>
<rect id="XMLID_47_" x="35.627" y="882.893" fill="#FFFFFF" width="12.914" height="4.307"/>
<path id="XMLID_42_" fill="#FFFFFF" d="M52.846,857.066v34.436h21.521v-34.436H52.846z M63.606,880.742
	c-1.291,0-2.152-0.861-2.152-2.152c0-1.293,0.861-2.154,2.152-2.154c1.292,0,2.152,0.861,2.152,2.154
	C65.759,879.881,64.683,880.742,63.606,880.742z M70.063,872.133H57.15v-2.152h12.913V872.133z M70.063,865.676H57.15v-4.305h12.913
	V865.676z"/>
<rect id="XMLID_41_" x="31.323" y="732.238" fill="none" stroke="#3EDB31" stroke-miterlimit="10" width="30.131" height="47.348"/>
<g enable-background="new    ">
	<path fill="#FFFFFF" d="M-75.234,809.636h-9.181v-3.146c0-1.039,0.208-1.829,0.625-2.371c0.416-0.542,1.036-0.813,1.86-0.813
		c0.42,0,0.799,0.113,1.135,0.341c0.336,0.227,0.597,0.559,0.782,0.996c0.134-0.496,0.388-0.88,0.76-1.151
		c0.372-0.271,0.818-0.406,1.34-0.406c0.862,0,1.524,0.276,1.986,0.829s0.693,1.344,0.693,2.374V809.636z M-80.55,808.041v-1.563
		c0-0.496-0.112-0.884-0.337-1.164c-0.225-0.279-0.543-0.419-0.955-0.419c-0.454,0-0.782,0.129-0.984,0.388
		c-0.202,0.259-0.303,0.661-0.303,1.208v1.551H-80.55z M-79.377,808.041h2.869v-1.771c0-0.501-0.124-0.892-0.372-1.173
		c-0.248-0.282-0.593-0.423-1.034-0.423c-0.954,0-1.442,0.487-1.463,1.463V808.041z"/>
	<path fill="#FFFFFF" d="M-75.234,797.562c-0.13,0.067-0.343,0.126-0.637,0.177c0.508,0.487,0.763,1.084,0.763,1.79
		c0,0.686-0.195,1.245-0.586,1.678c-0.391,0.433-0.874,0.649-1.45,0.649c-0.727,0-1.285-0.271-1.674-0.811s-0.583-1.313-0.583-2.317
		v-0.939h-0.448c-0.353,0-0.636,0.1-0.848,0.297c-0.212,0.197-0.319,0.498-0.319,0.901c0,0.349,0.087,0.635,0.262,0.857
		c0.175,0.223,0.396,0.334,0.666,0.334v1.532c-0.374,0-0.724-0.124-1.05-0.372c-0.326-0.247-0.581-0.585-0.766-1.012
		s-0.278-0.902-0.278-1.428c0-0.799,0.201-1.436,0.603-1.911c0.401-0.475,0.966-0.719,1.693-0.731h3.077
		c0.614,0,1.103-0.086,1.469-0.258h0.107V797.562z M-76.338,799.245c0-0.303-0.073-0.588-0.221-0.854
		c-0.147-0.267-0.345-0.468-0.593-0.603h-1.286v0.826c0,0.567,0.099,0.994,0.296,1.28s0.477,0.429,0.838,0.429
		c0.294,0,0.529-0.098,0.703-0.293C-76.425,799.835-76.338,799.573-76.338,799.245z"/>
	<path fill="#FFFFFF" d="M-82.057,793.229l0.788-0.044c-0.609-0.505-0.915-1.167-0.915-1.986c0-1.421,0.813-2.144,2.44-2.169h4.508
		v1.532h-4.42c-0.433,0-0.753,0.094-0.962,0.28c-0.208,0.188-0.312,0.493-0.312,0.918c0,0.618,0.28,1.078,0.839,1.381h4.855v1.532
		h-6.822V793.229z"/>
	<path fill="#FFFFFF" d="M-78.696,787.757c-1.051,0-1.895-0.244-2.532-0.731s-0.956-1.142-0.956-1.961
		c0-0.723,0.252-1.308,0.757-1.753h-3.493v-1.532h9.685v1.387l-0.706,0.076c0.555,0.458,0.832,1.069,0.832,1.835
		c0,0.799-0.321,1.445-0.964,1.938C-76.716,787.51-77.59,787.757-78.696,787.757z M-78.563,786.225c0.693,0,1.235-0.134,1.624-0.4
		s0.583-0.646,0.583-1.138c0-0.627-0.279-1.085-0.838-1.375h-2.913c-0.546,0.281-0.82,0.735-0.82,1.362
		c0,0.496,0.197,0.878,0.59,1.147C-79.945,786.09-79.354,786.225-78.563,786.225z"/>
	<path fill="#FFFFFF" d="M-77.347,774.188l-4.71-1.084v-1.495l6.822,1.86v1.261l-4.685,1.463l4.685,1.438v1.262l-6.822,1.866v-1.494
		l4.66-1.104l-4.66-1.4v-1.153L-77.347,774.188z"/>
	<path fill="#FFFFFF" d="M-83.829,770.581c-0.235,0-0.431-0.074-0.586-0.224c-0.155-0.149-0.233-0.363-0.233-0.641
		s0.078-0.491,0.233-0.643c0.156-0.151,0.351-0.228,0.586-0.228c0.231,0,0.424,0.076,0.577,0.228s0.23,0.365,0.23,0.643
		s-0.077,0.491-0.23,0.641S-83.597,770.581-83.829,770.581z M-75.234,768.954v1.532h-6.822v-1.532H-75.234z"/>
	<path fill="#FFFFFF" d="M-78.696,767.573c-1.051,0-1.895-0.244-2.532-0.731s-0.956-1.142-0.956-1.961
		c0-0.723,0.252-1.308,0.757-1.753h-3.493v-1.532h9.685v1.387l-0.706,0.076c0.555,0.458,0.832,1.069,0.832,1.835
		c0,0.799-0.321,1.445-0.964,1.938C-76.716,767.326-77.59,767.573-78.696,767.573z M-78.563,766.041c0.693,0,1.235-0.134,1.624-0.4
		s0.583-0.646,0.583-1.138c0-0.627-0.279-1.085-0.838-1.375h-2.913c-0.546,0.281-0.82,0.735-0.82,1.362
		c0,0.496,0.197,0.878,0.59,1.147C-79.945,765.906-79.354,766.041-78.563,766.041z"/>
	<path fill="#FFFFFF" d="M-83.715,758.077h1.658v-1.204h1.135v1.204h3.809c0.261,0,0.449-0.052,0.564-0.154
		c0.115-0.104,0.173-0.287,0.173-0.552c0-0.177-0.021-0.355-0.063-0.536h1.185c0.097,0.349,0.145,0.686,0.145,1.009
		c0,1.177-0.649,1.766-1.948,1.766h-3.865v1.122h-1.135v-1.122h-1.658V758.077z"/>
	<path fill="#FFFFFF" d="M-81.313,754.193c-0.58-0.5-0.871-1.133-0.871-1.898c0-1.454,0.831-2.191,2.491-2.213h4.458v1.532h-4.401
		c-0.471,0-0.804,0.102-0.999,0.306c-0.196,0.204-0.293,0.504-0.293,0.898c0,0.614,0.273,1.072,0.82,1.375h4.874v1.532h-9.685
		v-1.532H-81.313z"/>
</g>
<g id="XMLID_50_">
	<rect id="XMLID_281_" x="31.323" y="809.717" fill="#680D16" width="30.131" height="4.305"/>
	<rect id="XMLID_282_" x="31.323" y="792.5" fill="#680D16" width="30.131" height="4.305"/>
	<rect id="XMLID_283_" x="31.323" y="801.109" fill="#680D16" width="30.131" height="4.305"/>
	<rect id="XMLID_284_" x="31.323" y="783.891" fill="#680D16" width="30.131" height="4.305"/>
	<rect id="XMLID_285_" x="31.323" y="826.936" fill="#680D16" width="30.131" height="4.305"/>
	<rect id="XMLID_286_" x="31.323" y="818.326" fill="#680D16" width="30.131" height="4.305"/>
</g>
<g id="XMLID_287_">
	<rect id="XMLID_288_" x="-50.461" y="809.717" fill="#FFFFFF" width="30.131" height="4.305"/>
	<rect id="XMLID_289_" x="-50.461" y="801.109" fill="#FFFFFF" width="30.131" height="4.305"/>
	<rect id="XMLID_290_" x="-50.461" y="792.5" fill="#FFFFFF" width="30.131" height="4.305"/>
	<rect id="XMLID_291_" x="-50.461" y="783.891" fill="#FFFFFF" width="30.131" height="4.305"/>
	<rect id="XMLID_292_" x="-50.461" y="826.936" fill="#FFFFFF" width="30.131" height="4.305"/>
	<rect id="XMLID_293_" x="-50.461" y="818.326" fill="#FFFFFF" width="30.131" height="4.305"/>
</g>
<linearGradient id="SVGID_1_" gradientUnits="userSpaceOnUse" x1="-6.1226" y1="737.4336" x2="-6.1226" y2="780.3027">
	<stop  offset="0" style="stop-color:#3EDB31"/>
	<stop  offset="0.2161" style="stop-color:#3DD830;stop-opacity:0.7839"/>
	<stop  offset="0.3586" style="stop-color:#3CCF2F;stop-opacity:0.6414"/>
	<stop  offset="0.4799" style="stop-color:#39C02B;stop-opacity:0.5201"/>
	<stop  offset="0.5893" style="stop-color:#34AB27;stop-opacity:0.4107"/>
	<stop  offset="0.6908" style="stop-color:#2F9021;stop-opacity:0.3092"/>
	<stop  offset="0.7863" style="stop-color:#286E1A;stop-opacity:0.2137"/>
	<stop  offset="0.8773" style="stop-color:#204611;stop-opacity:0.1227"/>
	<stop  offset="0.9624" style="stop-color:#171908;stop-opacity:0.0376"/>
	<stop  offset="1" style="stop-color:#120203;stop-opacity:0"/>
</linearGradient>
<polygon fill="url(#SVGID_1_)" points="-38.143,740.301 17.799,740.301 17.799,737.434 25.897,742.109 17.799,746.785 
	17.799,743.92 -34.523,743.92 -34.523,780.303 -38.143,780.303 "/>
</svg>
